<?xml version="1.0" encoding="UTF-8" standalone="no"?>
<!DOCTYPE svg PUBLIC "-//W3C//DTD SVG 1.1//EN"
"http://www.w3.org/Graphics/SVG/1.1/DTD/svg11.dtd">
<svg viewBox="0 0 811 1017" version="1.1" xmlns="http://www.w3.org/2000/svg" xmlns:xlink="http://www.w3.org/1999/xlink">
<defs>
<style type="text/css"><![CDATA[
.g0_244{
fill: #70A6CC;
}
.g1_244{
}
]]></style>
</defs>
<path d="M156.1,281.6H724.4V259.7H156.1v21.9Z" class="g0_244"/>
<path d="M156.1,828.9H724.4V807.1H156.1v21.8Z" class="g0_244"/>
<path d="M543.5,315.6v3.2l-.3,-.1l-6.3,-2.9l-.4,-.2l.4,-.2l6.3,-2.9l.3,-.1v.3l-.1,.2l-6.3,2.9l-.2,-.4h.2l6.3,3l-.2,.3l-.1,-.2v-2.9Z" class="g1_244"/>
<path d="M543.1,315.6h.4v-2.9h-.4v2.9Z" class="g1_244"/>
<path d="M543.5,315.8H566v-.4H543.5v.4Z" class="g1_244"/>
<path d="M565.7,372.7h.3V315.6h-.3v57.1Z" class="g1_244"/>
<path d="M453.7,330.9v3.2l-.3,-.1l-6.3,-2.9l-.3,-.2l.3,-.2l6.3,-2.9l.3,-.1v.3l-.1,.2l-6.3,2.9l-.2,-.4h.2l6.3,3l-.2,.3l-.1,-.1v-3Z" class="g1_244"/>
<path d="M453.3,330.9h.4V328h-.4v2.9Z" class="g1_244"/>
<path d="M453.7,331.1h22.5v-.4H453.7v.4Z" class="g1_244"/>
<path d="M475.8,372.7h.4V330.9h-.4v41.8Z" class="g1_244"/>
</svg>