<?xml version="1.0" encoding="UTF-8" standalone="no"?>
<!DOCTYPE svg PUBLIC "-//W3C//DTD SVG 1.1//EN"
"http://www.w3.org/Graphics/SVG/1.1/DTD/svg11.dtd">
<svg viewBox="0 0 811 1017" version="1.1" xmlns="http://www.w3.org/2000/svg" xmlns:xlink="http://www.w3.org/1999/xlink">
<defs>
<style type="text/css"><![CDATA[
.g0_143{
fill: #F7F5E8;
}
.g1_143{
}
]]></style>
</defs>
<path d="M142.4,675.3H710.7V459.9H142.4V675.3Z" class="g0_143"/>
<path d="M479.2,255.8V259H479l-6.4,-3l-.3,-.2l.3,-.1l6.4,-3l.2,-.1v.3l-.1,.2l-6.3,2.9l-.2,-.3h.2l6.3,2.9l-.1,.4l-.1,-.2v-3Z" class="g1_143"/>
<path d="M478.9,255.8h.3v-2.9h-.3v2.9Z" class="g1_143"/>
<path d="M479.2,256h23.1v-.3H479.2v.3Z" class="g1_143"/>
<path d="M502,255.8h.3v-26H502v26Z" class="g1_143"/>
<path d="M455.2,287.1v3.2l-.3,-.1l-6.3,-2.9l-.4,-.2l.4,-.2l6.3,-2.9l.3,-.1v.3l-.1,.2l-6.3,2.9l-.2,-.4h.2l6.3,3l-.2,.3v-3.1Z" class="g1_143"/>
<path d="M454.9,287.1h.3v-2.9h-.3v2.9Z" class="g1_143"/>
<path d="M455.2,287.3h22.6v-.4H455.2v.4Z" class="g1_143"/>
<path d="M477.4,314h.4V287.1h-.4V314Z" class="g1_143"/>
</svg>