<?xml version="1.0" encoding="UTF-8" standalone="no"?>
<!DOCTYPE svg PUBLIC "-//W3C//DTD SVG 1.1//EN"
"http://www.w3.org/Graphics/SVG/1.1/DTD/svg11.dtd">
<svg viewBox="0 0 811 1017" version="1.1" xmlns="http://www.w3.org/2000/svg" xmlns:xlink="http://www.w3.org/1999/xlink">
<defs>
<clipPath id="c0_107"><path d="M398.3,166.6V133.4H678.2v33.2Z"/></clipPath>
<clipPath id="c1_107"><path d="M398.3,411V377.9H652.5V411Z"/></clipPath>
<clipPath id="c2_107"><path d="M463.2,456.9V423.7H717.5v33.2Z"/></clipPath>
<style type="text/css"><![CDATA[
.g0_107{
}
]]></style>
</defs>
<path d="M413.2,138.5v3.2l-.2,-.1l-6.4,-2.9l-.3,-.2l.3,-.2l6.4,-2.9l.2,-.1v.3l-.1,.2l-6.3,2.9l-.2,-.4h.2l6.3,3l-.1,.3l-.1,-.2v-2.9Z" class="g0_107"/>
<path d="M412.9,138.5h.3v-2.9h-.3v2.9Z" class="g0_107"/>
<path d="M413.2,138.7h22.6v-.4H413.2v.4Z" class="g0_107"/>
<g clip-path="url(#c0_107)">
<path d="M435.4,166.6h.4V138.5h-.4v28.1Z" class="g0_107"/>
</g>
<path d="M523.1,299.2v3.2l-.2,-.1l-6.3,-2.9l-.3,-.2l.3,-.2l6.3,-2.9l.2,-.1v.5l-6.3,2.9l-.2,-.4h.2l6.3,2.9l-.2,.4l-.1,-.2v-2.9Z" class="g0_107"/>
<path d="M522.8,299.2h.3v-2.9h-.3v2.9Z" class="g0_107"/>
<path d="M523.1,299.4h23.2V299H523.1v.4Z" class="g0_107"/>
<path d="M546,299.2h.3v-26H546v26Z" class="g0_107"/>
<path d="M413.2,383v3.2l-.2,-.1l-6.4,-2.9l-.3,-.2l.3,-.2l6.4,-2.9l.2,-.1v.2l-.1,.2l-6.3,3l-.2,-.4h.2l6.3,2.9l-.1,.4l-.1,-.2V383Z" class="g0_107"/>
<path d="M412.9,383h.3v-3h-.3v3Z" class="g0_107"/>
<path d="M413.2,383.2h22.6v-.4H413.2v.4Z" class="g0_107"/>
<g clip-path="url(#c1_107)">
<path d="M435.4,411.1h.4V383h-.4v28.1Z" class="g0_107"/>
</g>
<path d="M478.1,428.8V432l-.2,-.1L471.5,429l-.3,-.2l.3,-.2l6.4,-2.9l.2,-.1v.3l-.1,.2l-6.3,2.9l-.2,-.4h.2l6.3,3l-.1,.3l-.1,-.1v-3Z" class="g0_107"/>
<path d="M477.8,428.8h.3v-2.9h-.3v2.9Z" class="g0_107"/>
<path d="M478.1,429h22.6v-.4H478.1v.4Z" class="g0_107"/>
<g clip-path="url(#c2_107)">
<path d="M500.3,456.9h.4V428.8h-.4v28.1Z" class="g0_107"/>
</g>
<path d="M548.8,474.6v3.3l-.3,-.1l-6.3,-3l-.4,-.2l.4,-.1l6.3,-3l.3,-.1v.3l-.1,.2l-6.3,2.9l-.2,-.3h.2l6.3,2.9l-.2,.4l-.1,-.2v-3Z" class="g0_107"/>
<path d="M548.4,474.6h.4v-2.9h-.4v2.9Z" class="g0_107"/>
<path d="M548.8,474.8h22.6v-.3H548.8v.3Z" class="g0_107"/>
<path d="M571,516.5h.4V474.6H571v41.9Z" class="g0_107"/>
<path d="M361.8,885.9v3.2l-.3,-.1l-6.3,-2.9l-.4,-.2l.4,-.2l6.3,-2.9h.3v.2l-.1,.2l-6.3,2.9l-.2,-.4h.2l6.3,2.9l-.2,.4l-.1,-.2v-2.9Z" class="g0_107"/>
<path d="M361.4,885.9h.4V883h-.4v2.9Z" class="g0_107"/>
<path d="M361.8,886.1h23.1v-.4H361.8v.4Z" class="g0_107"/>
<path d="M384.5,885.9h.4V859.8h-.4v26.1Z" class="g0_107"/>
</svg>