<?xml version="1.0" encoding="UTF-8" standalone="no"?>
<!DOCTYPE svg PUBLIC "-//W3C//DTD SVG 1.1//EN"
"http://www.w3.org/Graphics/SVG/1.1/DTD/svg11.dtd">
<svg viewBox="0 0 811 1017" version="1.1" xmlns="http://www.w3.org/2000/svg" xmlns:xlink="http://www.w3.org/1999/xlink">
<defs>
<clipPath id="c0_255"><path d="M456.5,446.8V413.9H671.6v32.9Z"/></clipPath>
<clipPath id="c1_255"><path d="M419.3,712.5V679.6h215v32.9Z"/></clipPath>
<style type="text/css"><![CDATA[
.g0_255{
fill: #70A6CC;
}
.g1_255{
fill: none;
stroke: #000000;
stroke-width: 0.458;
stroke-linecap: butt;
stroke-linejoin: miter;
}
.g2_255{
}
]]></style>
</defs>
<path d="M142.4,604.8H710.7V583.6H142.4v21.2Z" class="g0_255"/>
<path d="M510.7,99.5c0,10.4,20.9,9.4,21.3,18.6m-9.5,9.6c0,-2.7,2.1,-4.8,4.8,-4.8c2.7,0,4.7,-2.2,4.7,-4.8c0,2.6,2.1,4.8,4.8,4.8c2.7,0,4.8,2.1,4.8,4.8M585.1,99.5c0,10.4,-15.4,9.4,-15.9,18.6m24.8,9.6c0,-2.7,-2.1,-4.8,-4.7,-4.8H574c-2.7,0,-4.8,-2.2,-4.8,-4.8c0,2.6,-2.1,4.8,-4.7,4.8H549.2c-2.7,0,-4.8,2.1,-4.8,4.8" class="g1_255"/>
<path d="M542.5,404.1v3.2l-.3,-.1L536,404.3l-.4,-.2l.4,-.2l6.2,-2.9l.3,-.1v.2l-.1,.2l-6.2,3l-.2,-.4h.2l6.2,2.9l-.2,.4l-.1,-.2v-2.9Z" class="g2_255"/>
<path d="M542.1,404.1h.4v-3h-.4v3Z" class="g2_255"/>
<path d="M542.5,404.3h23.2v-.4H542.5v.4Z" class="g2_255"/>
<path d="M565.3,404.1h.4V377.9h-.4v26.2Z" class="g2_255"/>
<path d="M471.4,419.1v3.1l-.2,-.1l-6.3,-2.8l-.3,-.2l.3,-.2l6.3,-2.9l.2,-.1v.3l-.1,.2l-6.2,2.9l-.2,-.4h.2l6.2,2.9l-.1,.3l-.1,-.2v-2.8Z" class="g2_255"/>
<path d="M471.1,419.1h.3v-2.9h-.3v2.9Z" class="g2_255"/>
<path d="M471.4,419.3H494v-.4H471.4v.4Z" class="g2_255"/>
<g clip-path="url(#c0_255)">
<path d="M493.6,446.8h.4V419.1h-.4v27.7Z" class="g2_255"/>
</g>
<path d="M572.6,623.6v3.2l-.2,-.1l-6.3,-2.9l-.3,-.2l.3,-.2l6.3,-2.9l.2,-.1v.5l-6.3,2.9l-.2,-.4h.2l6.3,3l-.2,.3l-.1,-.2v-2.9Z" class="g2_255"/>
<path d="M572.3,623.6h.3v-2.9h-.3v2.9Z" class="g2_255"/>
<path d="M572.6,623.8h22.6v-.4H572.6v.4Z" class="g2_255"/>
<path d="M594.8,665.4h.4V623.6h-.4v41.8Z" class="g2_255"/>
<path d="M434.2,684.8V688l-.2,-.1l-6.4,-3l-.3,-.1l.3,-.2l6.4,-3l.2,-.1v.3l-.1,.2l-6.3,2.9l-.2,-.3h.2l6.3,2.9l-.1,.4l-.1,-.2v-2.9Z" class="g2_255"/>
<path d="M433.9,684.8h.3v-3h-.3v3Z" class="g2_255"/>
<path d="M434.2,684.9h22.6v-.3H434.2v.3Z" class="g2_255"/>
<g clip-path="url(#c1_255)">
<path d="M456.4,712.6h.4V684.8h-.4v27.8Z" class="g2_255"/>
</g>
</svg>