<?xml version="1.0" encoding="UTF-8" standalone="no"?>
<!DOCTYPE svg PUBLIC "-//W3C//DTD SVG 1.1//EN"
"http://www.w3.org/Graphics/SVG/1.1/DTD/svg11.dtd">
<svg viewBox="0 0 811 1017" version="1.1" xmlns="http://www.w3.org/2000/svg" xmlns:xlink="http://www.w3.org/1999/xlink">
<defs>
<clipPath id="c0_253"><path d="M447,344.4V311.5H704.1v32.9Z"/></clipPath>
<clipPath id="c1_253"><path d="M478.5,390.2V357.3h257v32.9Z"/></clipPath>
<clipPath id="c2_253"><path d="M487,847.8V814.9H713.6v32.9Z"/></clipPath>
<style type="text/css"><![CDATA[
.g0_253{
fill: #F7F5E8;
}
.g1_253{
}
]]></style>
</defs>
<path d="M142.4,573.7H710.7V415.5H142.4V573.7Z" class="g0_253"/>
<path d="M461.9,316.7v3.2l-.3,-.1l-6.3,-2.9l-.4,-.2l.4,-.2l6.3,-2.9l.3,-.1v.3l-.1,.2l-6.3,2.9l-.2,-.4h.2l6.3,3l-.2,.3l-.1,-.2v-2.9Z" class="g1_253"/>
<path d="M461.5,316.7h.4v-2.9h-.4v2.9Z" class="g1_253"/>
<path d="M461.9,316.9h22.6v-.4H461.9v.4Z" class="g1_253"/>
<g clip-path="url(#c0_253)">
<path d="M484.1,344.4h.4V316.7h-.4v27.7Z" class="g1_253"/>
</g>
<path d="M493.4,362.5v3.2h-.2l-6.4,-3l-.3,-.2l.3,-.1l6.4,-3l.2,-.1v.5l-6.4,2.9l-.2,-.3h.2l6.4,2.9l-.2,.4l-.1,-.2v-3Z" class="g1_253"/>
<path d="M493.1,362.5h.3v-2.9h-.3v2.9Z" class="g1_253"/>
<path d="M493.4,362.7H516v-.3H493.4v.3Z" class="g1_253"/>
<g clip-path="url(#c1_253)">
<path d="M515.6,390.3h.4V362.5h-.4v27.8Z" class="g1_253"/>
</g>
<path d="M405,805.1v3.2l-.3,-.1l-6.2,-2.9l-.4,-.2l.4,-.2l6.2,-2.9l.3,-.1v.3l-.1,.2l-6.2,2.9l-.2,-.4h.2l6.2,3l-.2,.3l-.1,-.2v-2.9Z" class="g1_253"/>
<path d="M404.6,805.1h.4v-2.9h-.4v2.9Z" class="g1_253"/>
<path d="M405,805.3h23.1v-.4H405v.4Z" class="g1_253"/>
<path d="M427.7,805.1h.4v-26h-.4v26Z" class="g1_253"/>
<path d="M502,820.1v3.3l-.3,-.1l-6.2,-3l-.4,-.2l.4,-.1l6.2,-3l.3,-.1v.3l-.1,.2l-6.3,2.9l-.1,-.3h.1l6.3,2.9l-.2,.4l-.1,-.2v-3Z" class="g1_253"/>
<path d="M501.6,820.1h.4v-2.9h-.4v2.9Z" class="g1_253"/>
<path d="M502,820.3h22.6V820H502v.3Z" class="g1_253"/>
<g clip-path="url(#c2_253)">
<path d="M524.2,847.9h.4V820.1h-.4v27.8Z" class="g1_253"/>
</g>
</svg>