<?xml version="1.0" encoding="UTF-8" standalone="no"?>
<!DOCTYPE svg PUBLIC "-//W3C//DTD SVG 1.1//EN"
"http://www.w3.org/Graphics/SVG/1.1/DTD/svg11.dtd">
<svg viewBox="0 0 811 1017" version="1.1" xmlns="http://www.w3.org/2000/svg" xmlns:xlink="http://www.w3.org/1999/xlink">
<defs>
<clipPath id="c0_165"><path d="M514.8,747.8V714.5h221v33.3Z"/></clipPath>
<style type="text/css"><![CDATA[
.g0_165{
fill: #70A6CC;
}
.g1_165{
}
]]></style>
</defs>
<path d="M142.4,258H710.7V236.8H142.4V258Z" class="g0_165"/>
<path d="M142.4,578.7H710.7V557.5H142.4v21.2Z" class="g0_165"/>
<path d="M535.4,719.8V723l-.2,-.1l-6.4,-3l-.3,-.1l.3,-.2l6.4,-2.9l.2,-.1v.2l-.1,.2l-6.3,2.9l-.2,-.3h.2l6.3,2.9l-.1,.4l-.1,-.2v-2.9Z" class="g1_165"/>
<path d="M535.1,719.8h.3v-3h-.3v3Z" class="g1_165"/>
<path d="M535.4,720H558v-.4H535.4v.4Z" class="g1_165"/>
<g clip-path="url(#c0_165)">
<path d="M557.6,747.9h.4V719.8h-.4v28.1Z" class="g1_165"/>
</g>
</svg>