<?xml version="1.0" encoding="UTF-8" standalone="no"?>
<!DOCTYPE svg PUBLIC "-//W3C//DTD SVG 1.1//EN"
"http://www.w3.org/Graphics/SVG/1.1/DTD/svg11.dtd">
<svg viewBox="0 0 811 1017" version="1.1" xmlns="http://www.w3.org/2000/svg" xmlns:xlink="http://www.w3.org/1999/xlink">
<defs>
<clipPath id="c0_329"><path d="M495.6,363.2V330.3H710.8v32.9Z"/></clipPath>
<style type="text/css"><![CDATA[
.g0_329{
fill: #70A6CC;
}
.g1_329{
}
]]></style>
</defs>
<path d="M142.4,301.4H710.7V279.6H142.4v21.8Z" class="g0_329"/>
<path d="M510.6,335.5v3.2l-.3,-.1l-6.2,-2.9l-.4,-.2l.4,-.2l6.2,-2.9l.3,-.1v.3l-.1,.2l-6.2,2.9l-.2,-.4h.2l6.2,2.9l-.2,.4l-.1,-.2v-2.9Z" class="g1_329"/>
<path d="M510.2,335.5h.4v-2.9h-.4v2.9Z" class="g1_329"/>
<path d="M510.6,335.7h22.5v-.4H510.6v.4Z" class="g1_329"/>
<g clip-path="url(#c0_329)">
<path d="M532.8,363.2h.3V335.5h-.3v27.7Z" class="g1_329"/>
</g>
<path d="M542.5,412.1v3.2h-.3l-6.2,-3l-.4,-.2l.4,-.1l6.2,-3l.3,-.1v.3l-.1,.2l-6.2,2.9L536,412h.2l6.2,2.9l-.2,.4l-.1,-.2v-3Z" class="g1_329"/>
<path d="M542.1,412.1h.4v-2.9h-.4v2.9Z" class="g1_329"/>
<path d="M542.5,412.3h23.2V412H542.5v.3Z" class="g1_329"/>
<path d="M565.3,412.1h.4v-26h-.4v26Z" class="g1_329"/>
<path d="M447.6,427.2v3.2l-.3,-.1L441,427.4l-.4,-.2l.4,-.2l6.3,-3h.3v.2l-.1,.2l-6.3,3L441,427h.2l6.3,2.9l-.2,.4l-.1,-.2v-2.9Z" class="g1_329"/>
<path d="M447.2,427.2h.4v-3h-.4v3Z" class="g1_329"/>
<path d="M447.6,427.4h22.6V427H447.6v.4Z" class="g1_329"/>
<path d="M469.8,469h.4V427.2h-.4V469Z" class="g1_329"/>
</svg>