<?xml version="1.0" encoding="UTF-8" standalone="no"?>
<!DOCTYPE svg PUBLIC "-//W3C//DTD SVG 1.1//EN"
"http://www.w3.org/Graphics/SVG/1.1/DTD/svg11.dtd">
<svg viewBox="0 0 811 1017" version="1.1" xmlns="http://www.w3.org/2000/svg" xmlns:xlink="http://www.w3.org/1999/xlink">
<defs>
<clipPath id="c0_261"><path d="M433.6,698.6V665.7h215v32.9Z"/></clipPath>
<style type="text/css"><![CDATA[
.g0_261{
fill: #70A6CC;
}
.g1_261{
fill: #F7F5E8;
}
.g2_261{
}
]]></style>
</defs>
<path d="M142.4,261.7H710.7V239.9H142.4v21.8Z" class="g0_261"/>
<path d="M142.4,897.2H710.7V443.5H142.4V897.2Z" class="g1_261"/>
<path d="M499.1,280.5v3.2l-.2,-.1l-6.3,-2.9l-.3,-.2l.3,-.2l6.3,-2.9l.2,-.1v.3l-.1,.2l-6.2,2.9l-.2,-.4h.2l6.2,2.9l-.1,.4l-.1,-.2v-2.9Z" class="g2_261"/>
<path d="M498.8,280.5h.3v-2.9h-.3v2.9Z" class="g2_261"/>
<path d="M499.1,280.7h78v-.4h-78v.4Z" class="g2_261"/>
<path d="M576.8,322.3h.3V280.5h-.3v41.8Z" class="g2_261"/>
<path d="M463.8,341.5v3.3l-.2,-.1l-6.4,-3l-.3,-.2l.3,-.1l6.4,-2.9l.2,-.1v.3l-.1,.2l-6.3,2.8l-.2,-.3h.2l6.3,2.9l-.1,.4l-.1,-.2v-3Z" class="g2_261"/>
<path d="M463.5,341.5h.3v-2.8h-.3v2.8Z" class="g2_261"/>
<path d="M463.8,341.7h22.6v-.3H463.8v.3Z" class="g2_261"/>
<path d="M486,398.7h.4V341.5H486v57.2Z" class="g2_261"/>
<path d="M448.5,670.8V674l-.3,-.1L442,671l-.4,-.2l.4,-.2l6.2,-2.9l.3,-.1v.3l-.1,.2l-6.2,2.9l-.2,-.4h.2l6.2,3l-.2,.3v-3.1Z" class="g2_261"/>
<path d="M448.2,670.8h.3v-2.9h-.3v2.9Z" class="g2_261"/>
<path d="M448.5,671h22.6v-.4H448.5v.4Z" class="g2_261"/>
<g clip-path="url(#c0_261)">
<path d="M470.7,698.6h.4V670.8h-.4v27.8Z" class="g2_261"/>
</g>
</svg>