<?xml version="1.0" encoding="UTF-8" standalone="no"?>
<!DOCTYPE svg PUBLIC "-//W3C//DTD SVG 1.1//EN"
"http://www.w3.org/Graphics/SVG/1.1/DTD/svg11.dtd">
<svg viewBox="0 0 811 1017" version="1.1" xmlns="http://www.w3.org/2000/svg" xmlns:xlink="http://www.w3.org/1999/xlink">
<defs>
<style type="text/css"><![CDATA[
.g0_283{
fill: none;
stroke: #000000;
stroke-width: 0.458;
stroke-linecap: butt;
stroke-linejoin: miter;
}
]]></style>
</defs>
<path d="M568.2,708.4c0,10.3,20.8,9.3,21.3,18.5m-9.5,9.6c0,-2.6,2.1,-4.8,4.8,-4.8c2.6,0,4.7,-2.1,4.7,-4.8c0,2.7,2.1,4.8,4.8,4.8c2.6,0,4.7,2.2,4.7,4.8m35.9,-28.1c0,10.3,-15.5,9.3,-15.9,18.5m13.8,9.6c0,-2.6,-2.1,-4.8,-4.8,-4.8h-4.3c-2.7,0,-4.7,-2.1,-4.7,-4.8c0,2.7,-2.1,4.8,-4.8,4.8h-4.3c-2.7,0,-4.8,2.2,-4.8,4.8" class="g0_283"/>
</svg>