<?xml version="1.0" encoding="UTF-8" standalone="no"?>
<!DOCTYPE svg PUBLIC "-//W3C//DTD SVG 1.1//EN"
"http://www.w3.org/Graphics/SVG/1.1/DTD/svg11.dtd">
<svg viewBox="0 0 811 1017" version="1.1" xmlns="http://www.w3.org/2000/svg" xmlns:xlink="http://www.w3.org/1999/xlink">
<defs>
<clipPath id="c0_298"><path d="M509.4,356.7V323.8H736v32.9Z"/></clipPath>
<style type="text/css"><![CDATA[
.g0_298{
fill: #70A6CC;
}
.g1_298{
}
]]></style>
</defs>
<path d="M156.1,616.7H724.4V595.6H156.1v21.1Z" class="g0_298"/>
<path d="M156.1,852.2H724.4V831H156.1v21.2Z" class="g0_298"/>
<path d="M540,313.9v3.2l-.3,-.1l-6.3,-3l-.4,-.1l.4,-.2l6.3,-3h.3v.2l-.1,.2l-6.3,2.9l-.2,-.3h.2l6.3,2.9l-.2,.4l-.1,-.2v-2.9Z" class="g1_298"/>
<path d="M539.6,313.9h.4v-3h-.4v3Z" class="g1_298"/>
<path d="M540,314h23.1v-.3H540v.3Z" class="g1_298"/>
<path d="M562.7,313.9h.4V287.8h-.4v26.1Z" class="g1_298"/>
<path d="M524.3,328.9v3.2l-.2,-.1l-6.3,-2.9l-.3,-.2l.3,-.2l6.3,-2.9l.2,-.1v.3l-.1,.2l-6.2,2.9l-.2,-.4h.2l6.2,2.9l-.1,.4l-.1,-.2v-2.9Z" class="g1_298"/>
<path d="M524,328.9h.3V326H524v2.9Z" class="g1_298"/>
<path d="M524.3,329.1h22.6v-.4H524.3v.4Z" class="g1_298"/>
<g clip-path="url(#c0_298)">
<path d="M546.5,356.7h.4V328.9h-.4v27.8Z" class="g1_298"/>
</g>
</svg>