<?xml version="1.0" encoding="UTF-8" standalone="no"?>
<!DOCTYPE svg PUBLIC "-//W3C//DTD SVG 1.1//EN"
"http://www.w3.org/Graphics/SVG/1.1/DTD/svg11.dtd">
<svg viewBox="0 0 811 1017" version="1.1" xmlns="http://www.w3.org/2000/svg" xmlns:xlink="http://www.w3.org/1999/xlink">
<defs>
<style type="text/css"><![CDATA[
.g0_51{
fill: #70A6CC;
}
.g1_51{
}
]]></style>
</defs>
<path d="M142.4,320.7H710.7V299.5H142.4v21.2Z" class="g0_51"/>
<path d="M142.4,683.2H710.7V661.4H142.4v21.8Z" class="g0_51"/>
<path d="M461.5,361.1v3.2l-.2,-.1L455,361.3l-.3,-.2l.3,-.2l6.3,-2.9l.2,-.1v.4l-6.3,3l-.2,-.4h.2l6.3,2.9l-.2,.4l-.1,-.2v-2.9Z" class="g1_51"/>
<path d="M461.2,361.1h.3v-3h-.3v3Z" class="g1_51"/>
<path d="M461.5,361.3h23.2v-.4H461.5v.4Z" class="g1_51"/>
<path d="M484.4,361.1h.3V335h-.3v26.1Z" class="g1_51"/>
<path d="M382.2,376.7v3.2l-.2,-.1l-6.3,-3l-.3,-.1l.3,-.2l6.3,-2.9l.2,-.1v.5l-6.3,2.8l-.2,-.3h.2l6.3,2.9l-.2,.4l-.1,-.2v-2.9Z" class="g1_51"/>
<path d="M381.9,376.7h.3v-2.9h-.3v2.9Z" class="g1_51"/>
<path d="M382.2,376.8h27.6v-.3H382.2v.3Z" class="g1_51"/>
<path d="M409.4,402.8h.4V376.7h-.4v26.1Z" class="g1_51"/>
</svg>