<?xml version="1.0" encoding="UTF-8" standalone="no"?>
<!DOCTYPE svg PUBLIC "-//W3C//DTD SVG 1.1//EN"
"http://www.w3.org/Graphics/SVG/1.1/DTD/svg11.dtd">
<svg viewBox="0 0 811 1017" version="1.1" xmlns="http://www.w3.org/2000/svg" xmlns:xlink="http://www.w3.org/1999/xlink">
<defs>
<style type="text/css"><![CDATA[
.g0_152{
fill: #F7F5E8;
}
.g1_152{
}
]]></style>
</defs>
<path d="M156.1,913.6H724.4V753.2H156.1V913.6Z" class="g0_152"/>
<path d="M523.4,177.1v3.2l-.3,-.1l-6.3,-2.9l-.3,-.2l.3,-.2l6.3,-2.9l.3,-.1v.3l-.1,.1l-6.3,3l-.2,-.4h.2l6.3,2.9l-.2,.4v-3.1Z" class="g1_152"/>
<path d="M523,177.1h.4v-2.9H523v2.9Z" class="g1_152"/>
<path d="M523.4,177.3H546v-.4H523.4v.4Z" class="g1_152"/>
<path d="M545.6,216.4h.4V177.1h-.4v39.3Z" class="g1_152"/>
<path d="M505.3,360.4v3.2H505l-6.3,-3l-.4,-.2l.4,-.1l6.3,-3l.3,-.1v.3l-.1,.2l-6.4,2.9l-.1,-.3h.1l6.4,2.9l-.2,.4l-.1,-.2v-3Z" class="g1_152"/>
<path d="M504.9,360.4h.4v-2.9h-.4v2.9Z" class="g1_152"/>
<path d="M505.3,360.6h22.5v-.3H505.3v.3Z" class="g1_152"/>
<path d="M527.4,387.3h.4V360.4h-.4v26.9Z" class="g1_152"/>
<path d="M475.1,491.2v3.2l-.3,-.1l-6.3,-3l-.4,-.1l.4,-.2l6.3,-3l.3,-.1v.3l-.1,.2l-6.3,2.9l-.2,-.3h.2l6.3,2.9l-.2,.4l-.1,-.2v-2.9Z" class="g1_152"/>
<path d="M474.7,491.2h.4v-3h-.4v3Z" class="g1_152"/>
<path d="M475.1,491.3h23.1V491H475.1v.3Z" class="g1_152"/>
<path d="M497.8,491.2h.4V465.1h-.4v26.1Z" class="g1_152"/>
<path d="M491,522.4v3.2l-.3,-.1l-6.3,-2.9l-.4,-.2l.4,-.2l6.3,-2.9l.3,-.1v.3l-.1,.2l-6.4,2.9l-.1,-.4h.1l6.4,3l-.2,.3l-.1,-.2v-2.9Z" class="g1_152"/>
<path d="M490.6,522.4h.4v-2.9h-.4v2.9Z" class="g1_152"/>
<path d="M491,522.6h22.5v-.4H491v.4Z" class="g1_152"/>
<path d="M513.2,549.3h.3V522.4h-.3v26.9Z" class="g1_152"/>
<path d="M475.1,688.2v3.2l-.3,-.1l-6.3,-2.9l-.4,-.2l.4,-.1l6.3,-3l.3,-.1v.3l-.1,.2l-6.3,2.9l-.2,-.3h.2L475,691l-.2,.3l-.1,-.1v-3Z" class="g1_152"/>
<path d="M474.7,688.2h.4v-2.9h-.4v2.9Z" class="g1_152"/>
<path d="M475.1,688.4h23.1v-.3H475.1v.3Z" class="g1_152"/>
<path d="M497.8,688.2h.4v-26h-.4v26Z" class="g1_152"/>
<path d="M511,704.2v3.2l-.3,-.1l-6.3,-2.9l-.3,-.2l.3,-.2l6.3,-2.9l.3,-.1v.3l-.1,.1l-6.3,3l-.2,-.4h.2l6.3,2.9l-.2,.4l-.1,-.2v-2.9Z" class="g1_152"/>
<path d="M510.6,704.2h.4v-2.9h-.4v2.9Z" class="g1_152"/>
<path d="M511,704.4h22.5V704H511v.4Z" class="g1_152"/>
<path d="M533.1,731.1h.4V704.2h-.4v26.9Z" class="g1_152"/>
</svg>