<?xml version="1.0" encoding="UTF-8" standalone="no"?>
<!DOCTYPE svg PUBLIC "-//W3C//DTD SVG 1.1//EN"
"http://www.w3.org/Graphics/SVG/1.1/DTD/svg11.dtd">
<svg viewBox="0 0 811 1017" version="1.1" xmlns="http://www.w3.org/2000/svg" xmlns:xlink="http://www.w3.org/1999/xlink">
<defs>
<style type="text/css"><![CDATA[
.g0_139{
fill: none;
stroke: #000000;
stroke-width: 0.458;
stroke-linecap: butt;
stroke-linejoin: miter;
}
.g1_139{
}
]]></style>
</defs>
<path d="M613,100.2c0,10.3,11.6,9.4,12.1,18.5m-19.1,12c0,-3.3,2.7,-6,6.1,-6h7c3.3,0,6,-2.7,6,-6c0,3.3,2.7,6,6,6h7.5c3.4,0,6.1,2.7,6.1,6m35.7,-30.5c0,10.3,-12,9.4,-12.4,18.5m11.9,12c0,-3.3,-2.7,-6,-6,-6h.1c-3.4,0,-6.1,-2.7,-6.1,-6c0,3.3,-2.6,6,-6,6c-3.3,0,-6,2.7,-6,6m-16.5,36.8c0,-10.3,12,-9.4,12.4,-18.5m-6,-7.8v1.9c0,1.6,1.4,2.9,3,2.9c1.6,0,2.9,1.3,2.9,3c0,-1.7,1.3,-3,3,-3c1.6,0,2.9,-1.3,2.9,-2.9v-1.9" class="g0_139"/>
<path d="M454.4,423.9v3.2l-.3,-.1l-6.2,-3l-.4,-.1l.4,-.2l6.2,-3h.3v.2l-.1,.2l-6.2,2.9l-.2,-.3h.2l6.2,2.9l-.2,.4l-.1,-.2v-2.9Z" class="g1_139"/>
<path d="M454,423.9h.4v-3H454v3Z" class="g1_139"/>
<path d="M454.4,424h23.2v-.3H454.4v.3Z" class="g1_139"/>
<path d="M477.2,423.9h.4V397.8h-.4v26.1Z" class="g1_139"/>
<path d="M551.8,598v3.2h-.2l-6.4,-3l-.3,-.2l.3,-.1l6.4,-3l.2,-.1v.3l-.1,.2l-6.3,2.9l-.2,-.3h.2l6.3,2.9l-.1,.4l-.1,-.2v-3Z" class="g1_139"/>
<path d="M551.5,598h.3v-2.9h-.3V598Z" class="g1_139"/>
<path d="M551.8,598.2h23.1v-.3H551.8v.3Z" class="g1_139"/>
<path d="M574.6,598h.3V572h-.3v26Z" class="g1_139"/>
<path d="M450.5,643.9v3.2l-.2,-.1L444,644.1l-.3,-.2l.3,-.2l6.3,-2.9l.2,-.1v.2l-.1,.2l-6.2,3l-.2,-.4h.2l6.2,2.9l-.1,.4l-.1,-.2v-2.9Z" class="g1_139"/>
<path d="M450.2,643.9h.3v-3h-.3v3Z" class="g1_139"/>
<path d="M450.6,644.1h23.1v-.4H450.6v.4Z" class="g1_139"/>
<path d="M473.4,643.9h.3V617.8h-.3v26.1Z" class="g1_139"/>
<path d="M455.2,774.5v3.2l-.3,-.1l-6.3,-2.9l-.4,-.2l.4,-.2l6.3,-2.9l.3,-.1v.3l-.1,.1l-6.3,3l-.2,-.4h.2l6.3,2.9l-.2,.4v-3.1Z" class="g1_139"/>
<path d="M454.9,774.5h.3v-2.9h-.3v2.9Z" class="g1_139"/>
<path d="M455.2,774.7h22.6v-.4H455.2v.4Z" class="g1_139"/>
<path d="M477.4,801.4h.4V774.5h-.4v26.9Z" class="g1_139"/>
</svg>