<?xml version="1.0" encoding="UTF-8" standalone="no"?>
<!DOCTYPE svg PUBLIC "-//W3C//DTD SVG 1.1//EN"
"http://www.w3.org/Graphics/SVG/1.1/DTD/svg11.dtd">
<svg viewBox="0 0 811 1017" version="1.1" xmlns="http://www.w3.org/2000/svg" xmlns:xlink="http://www.w3.org/1999/xlink">
<defs>
<style type="text/css"><![CDATA[
.g0_103{
fill: #70A6CC;
}
.g1_103{
fill: #476B85;
}
.g2_103{
}
.g3_103{
fill: #FFFFFF;
}
.g4_103{
fill: none;
stroke: #231F20;
stroke-width: 0.763;
stroke-linecap: butt;
stroke-linejoin: miter;
}
.g5_103{
fill: #231F20;
}
]]></style>
</defs>
<path d="M142.4,261.7H710.7V239.9H142.4v21.8Z" class="g0_103"/>
<path d="M142.4,560.4H483.5V526H142.4v34.4Z" class="g1_103"/>
<path d="M483.5,560.4H597.4V526H483.5v34.4Z" class="g1_103"/>
<path d="M597.4,560.4H711.2V526H597.4v34.4Z" class="g1_103"/>
<path d="M483.3,612.5h.3V525.6h-.3v86.9Z" class="g2_103"/>
<path d="M597.2,612.5h.4V525.6h-.4v86.9Z" class="g2_103"/>
<path d="M142.4,526.3H711.2v-.7H142.4v.7Z" class="g2_103"/>
<path d="M142.4,560.5H711.2v-.3H142.4v.3Z" class="g2_103"/>
<path d="M142.4,612.5H711.2v-.4H142.4v.4Z" class="g2_103"/>
<path d="M539.6,351v3.2l-.2,-.1L533,351.2l-.3,-.2l.3,-.2l6.4,-2.9l.2,-.1v.4l-6.4,3l-.2,-.4h.2l6.4,2.9l-.2,.4l-.1,-.2V351Z" class="g2_103"/>
<path d="M539.3,351h.3v-2.9h-.3V351Z" class="g2_103"/>
<path d="M539.6,351.2h23.1v-.4H539.6v.4Z" class="g2_103"/>
<path d="M562.4,351h.3V325h-.3v26Z" class="g2_103"/>
<path d="M145.2,742.4h284V662.9h-284v79.5Z" class="g3_103"/>
<path d="M241.4,733.7H157.5c-1.6,0,-2.9,-1.3,-2.9,-2.9v-40c0,-1.6,1.3,-2.9,2.9,-2.9h83.9c1.6,0,2.9,1.3,2.9,2.9v40c0,1.6,-1.3,2.9,-2.9,2.9Zm8.8,8.4H148.5c-1.6,0,-2.9,-1.3,-2.9,-2.9v-73c0,-1.6,1.3,-2.9,2.9,-2.9H250.2c1.7,0,3,1.3,3,2.9v73c0,1.6,-1.3,2.9,-3,2.9ZM417,733.7H287.6c-1.6,0,-2.9,-1.3,-2.9,-2.9v-40c0,-1.6,1.3,-2.9,2.9,-2.9H417c1.7,0,3,1.3,3,2.9v40c0,1.6,-1.3,2.9,-3,2.9Zm8.9,8.4H278.6c-1.6,0,-2.9,-1.3,-2.9,-2.9v-73c0,-1.6,1.3,-2.9,2.9,-2.9H425.9c1.6,0,2.9,1.3,2.9,2.9v73c0,1.6,-1.3,2.9,-2.9,2.9ZM366.4,723.4h46.1V676.1H405" class="g4_103"/>
<path d="M406.5,673.9l-8.3,2.2l8.3,2.2v-4.4Z" class="g5_103"/>
</svg>