<?xml version="1.0" encoding="UTF-8" standalone="no"?>
<!DOCTYPE svg PUBLIC "-//W3C//DTD SVG 1.1//EN"
"http://www.w3.org/Graphics/SVG/1.1/DTD/svg11.dtd">
<svg viewBox="0 0 811 1017" version="1.1" xmlns="http://www.w3.org/2000/svg" xmlns:xlink="http://www.w3.org/1999/xlink">
<defs>
<clipPath id="c0_148"><path d="M439.4,381.4V191.9h285V381.4Z"/></clipPath>
<clipPath id="c1_148"><path d="M450.7,359.2v-7.7h.5c.4,.4,.7,.8,1,1.1c.1,-.2,.4,-.6,.8,-1.1h.5v7.7Z"/></clipPath>
<clipPath id="c2_148"><path d="M603.8,359.2v-7.7h.3c.3,.4,.6,.8,.9,1.1c.2,-.1,.6,-.5,.9,-1.1h.7v7.7Z"/></clipPath>
<clipPath id="c3_148"><path d="M579.1,905.8V874.1H712.2v31.7Z"/></clipPath>
<style type="text/css"><![CDATA[
.g0_148{
fill: #D9F0FA;
}
.g1_148{
fill: #231F20;
}
.g2_148{
fill: #FFFFFF;
}
.g3_148{
}
.g4_148{
fill: #DF7F82;
}
.g5_148{
fill: #710F12;
}
]]></style>
</defs>
<path d="M568.6,239.6h-126c-1.6,0,-2.9,-1.3,-2.9,-2.9V218.1c0,-1.6,1.3,-2.9,2.9,-2.9h126c1.6,0,2.9,1.3,2.9,2.9v18.6c0,1.6,-1.3,2.9,-2.9,2.9Z" class="g0_148"/>
<g clip-path="url(#c0_148)">
<path d="M568.6,239.6v-.4h-126c-1.4,0,-2.5,-1.1,-2.5,-2.5V218.1c0,-1.4,1.1,-2.6,2.5,-2.6h126c1.4,0,2.5,1.2,2.5,2.6v18.6c0,1.4,-1.1,2.5,-2.5,2.5v.8c1.8,0,3.3,-1.5,3.3,-3.3V218.1c0,-1.9,-1.5,-3.3,-3.3,-3.3h-126c-1.8,0,-3.3,1.4,-3.3,3.3v18.6c0,1.8,1.5,3.3,3.3,3.3h126v-.4Z" class="g1_148"/>
</g>
<path d="M452.7,235.9c-4.7,0,-8.4,-3.8,-8.4,-8.4v-.3c0,-4.7,3.7,-8.4,8.4,-8.4c4.6,0,8.4,3.7,8.4,8.4v.3c0,4.6,-3.8,8.4,-8.4,8.4Z" class="g2_148"/>
<path d="M452.7,235.9v-.4c-2.2,0,-4.2,-.9,-5.7,-2.3c-1.4,-1.5,-2.3,-3.5,-2.3,-5.7v-.3c0,-2.2,.9,-4.2,2.3,-5.7c1.5,-1.5,3.5,-2.3,5.7,-2.3c2.2,0,4.2,.8,5.7,2.3c1.4,1.5,2.3,3.5,2.3,5.7v.3c0,2.2,-.9,4.2,-2.3,5.7c-1.5,1.4,-3.5,2.3,-5.7,2.3v.8c4.8,0,8.8,-4,8.8,-8.8v-.3c0,-4.9,-4,-8.8,-8.8,-8.8c-4.9,0,-8.8,3.9,-8.8,8.8v.3c0,4.8,3.9,8.8,8.8,8.8v-.4Z" class="g1_148"/>
<path d="M477.6,235.9c-4.6,0,-8.4,-3.8,-8.4,-8.4v-.3c0,-4.7,3.8,-8.4,8.4,-8.4c4.7,0,8.4,3.7,8.4,8.4v.3c0,4.6,-3.7,8.4,-8.4,8.4Z" class="g2_148"/>
<path d="M477.6,235.9v-.4c-2.2,0,-4.2,-.9,-5.6,-2.3c-1.5,-1.5,-2.4,-3.5,-2.4,-5.7v-.3c0,-2.2,.9,-4.2,2.4,-5.7c1.4,-1.5,3.4,-2.3,5.6,-2.3c2.3,0,4.3,.8,5.7,2.3c1.5,1.5,2.4,3.5,2.4,5.7v.3c0,2.2,-.9,4.2,-2.4,5.7c-1.4,1.4,-3.4,2.3,-5.7,2.3v.8c4.9,0,8.8,-4,8.8,-8.8v-.3c0,-4.9,-3.9,-8.8,-8.8,-8.8c-4.8,0,-8.8,3.9,-8.8,8.8v.3c0,4.8,4,8.8,8.8,8.8v-.4Z" class="g1_148"/>
<path d="M502.6,235.9c-4.7,0,-8.4,-3.8,-8.4,-8.4v-.3c0,-4.7,3.7,-8.4,8.4,-8.4c4.6,0,8.4,3.7,8.4,8.4v.3c0,4.6,-3.8,8.4,-8.4,8.4Z" class="g2_148"/>
<path d="M502.6,235.9v-.4c-2.2,0,-4.2,-.9,-5.7,-2.3c-1.5,-1.5,-2.4,-3.5,-2.4,-5.7v-.3c0,-2.2,.9,-4.2,2.4,-5.7c1.5,-1.5,3.5,-2.3,5.7,-2.3c2.2,0,4.2,.8,5.7,2.3c1.4,1.5,2.3,3.5,2.3,5.7v.3c0,2.2,-.9,4.2,-2.3,5.7c-1.5,1.4,-3.5,2.3,-5.7,2.3v.8c4.8,0,8.8,-4,8.8,-8.8v-.3c0,-4.9,-4,-8.8,-8.8,-8.8c-4.9,0,-8.8,3.9,-8.8,8.8v.3c0,4.8,3.9,8.8,8.8,8.8v-.4Z" class="g1_148"/>
<path d="M527.5,235.9c-4.6,0,-8.4,-3.8,-8.4,-8.4v-.3c0,-4.7,3.8,-8.4,8.4,-8.4c4.7,0,8.4,3.7,8.4,8.4v.3c0,4.6,-3.7,8.4,-8.4,8.4Z" class="g2_148"/>
<path d="M527.5,235.9v-.4c-2.2,0,-4.2,-.9,-5.7,-2.3c-1.4,-1.5,-2.3,-3.5,-2.3,-5.7v-.3c0,-2.2,.9,-4.2,2.3,-5.7c1.5,-1.5,3.5,-2.3,5.7,-2.3c2.2,0,4.3,.8,5.7,2.3c1.5,1.5,2.4,3.5,2.4,5.7v.3c0,2.2,-.9,4.2,-2.4,5.7c-1.4,1.4,-3.5,2.3,-5.7,2.3v.8c4.9,0,8.8,-4,8.8,-8.8v-.3c0,-4.9,-3.9,-8.8,-8.8,-8.8c-4.8,0,-8.8,3.9,-8.8,8.8v.3c0,4.8,4,8.8,8.8,8.8v-.4Z" class="g1_148"/>
<path d="M568.9,303.8h-126c-1.6,0,-2.9,-1.3,-2.9,-2.9V282.3c0,-1.6,1.3,-2.9,2.9,-2.9h126c1.6,0,2.9,1.3,2.9,2.9v18.6c0,1.6,-1.3,2.9,-2.9,2.9Z" class="g0_148"/>
<path d="M568.9,303.8v-.4h-126c-1.4,0,-2.5,-1.1,-2.5,-2.5V282.3c0,-1.4,1.1,-2.5,2.5,-2.5h126c1.4,0,2.5,1.1,2.5,2.5v18.6c0,1.4,-1.1,2.5,-2.5,2.5v.8c1.8,0,3.3,-1.5,3.3,-3.3V282.3c0,-1.8,-1.5,-3.3,-3.3,-3.3h-126c-1.8,0,-3.3,1.5,-3.3,3.3v18.6c0,1.8,1.5,3.3,3.3,3.3h126v-.4Z" class="g1_148"/>
<path d="M459.4,300.1H445.7c-.9,0,-1.6,-.7,-1.6,-1.6V284.6c0,-.9,.7,-1.6,1.6,-1.6h13.7c.8,0,1.5,.7,1.5,1.6v13.9c0,.9,-.7,1.6,-1.5,1.6Z" class="g2_148"/>
<path d="M459.4,300.1v-.4H445.7c-.7,0,-1.2,-.5,-1.2,-1.2V284.6c0,-.7,.5,-1.2,1.2,-1.2h13.7c.6,0,1.2,.5,1.2,1.2v13.9c0,.7,-.6,1.2,-1.2,1.2v.8c1,0,1.9,-.9,1.9,-2V284.6c0,-1.1,-.9,-2,-1.9,-2H445.7c-1.1,0,-2,.9,-2,2v13.9c0,1.1,.9,2,2,2h13.7v-.4Z" class="g1_148"/>
<path d="M484.3,300.1H470.6c-.8,0,-1.5,-.7,-1.5,-1.6V284.6c0,-.9,.7,-1.6,1.5,-1.6h13.7c.9,0,1.6,.7,1.6,1.6v13.9c0,.9,-.7,1.6,-1.6,1.6Z" class="g2_148"/>
<path d="M484.3,300.1v-.4H470.6c-.6,0,-1.2,-.5,-1.2,-1.2V284.6c0,-.7,.6,-1.2,1.2,-1.2h13.7c.7,0,1.2,.5,1.2,1.2v13.9c0,.7,-.5,1.2,-1.2,1.2v.8c1.1,0,2,-.9,2,-2V284.6c0,-1.1,-.9,-2,-2,-2H470.6c-1,0,-1.9,.9,-1.9,2v13.9c0,1.1,.9,2,1.9,2h13.7v-.4Z" class="g1_148"/>
<path d="M509.2,300.1H495.6c-.9,0,-1.6,-.7,-1.6,-1.6V284.6c0,-.9,.7,-1.6,1.6,-1.6h13.6c.9,0,1.6,.7,1.6,1.6v13.9c0,.9,-.7,1.6,-1.6,1.6Z" class="g2_148"/>
<path d="M509.2,300.1v-.4H495.6c-.7,0,-1.2,-.5,-1.2,-1.2V284.6c0,-.7,.5,-1.2,1.2,-1.2h13.6c.7,0,1.3,.5,1.3,1.2v13.9c0,.7,-.6,1.2,-1.3,1.2v.8c1.1,0,2,-.9,2,-2V284.6c0,-1.1,-.9,-2,-2,-2H495.6c-1.1,0,-2,.9,-2,2v13.9c0,1.1,.9,2,2,2h13.6v-.4Z" class="g1_148"/>
<path d="M534.2,300.1H520.5c-.8,0,-1.5,-.7,-1.5,-1.6V284.6c0,-.9,.7,-1.6,1.5,-1.6h13.7c.9,0,1.6,.7,1.6,1.6v13.9c0,.9,-.7,1.6,-1.6,1.6Z" class="g2_148"/>
<path d="M534.2,300.1v-.4H520.5c-.6,0,-1.2,-.5,-1.2,-1.2V284.6c0,-.7,.6,-1.2,1.2,-1.2h13.7c.7,0,1.2,.5,1.2,1.2v13.9c0,.7,-.5,1.2,-1.2,1.2v.8c1.1,0,2,-.9,2,-2V284.6c0,-1.1,-.9,-2,-2,-2H520.5c-1,0,-1.9,.9,-1.9,2v13.9c0,1.1,.9,2,1.9,2h13.7v-.4Z" class="g1_148"/>
<path d="M484.3,364.7H470.6c-.8,0,-1.5,-.7,-1.5,-1.6V349.2c0,-.9,.7,-1.6,1.5,-1.6h13.7c.9,0,1.6,.7,1.6,1.6v13.9c0,.9,-.7,1.6,-1.6,1.6Z" class="g2_148"/>
<path d="M484.3,364.7v-.4H470.6c-.6,0,-1.2,-.5,-1.2,-1.2V349.2c0,-.7,.6,-1.2,1.2,-1.2h13.7c.7,0,1.2,.5,1.2,1.2v13.9c0,.7,-.5,1.2,-1.2,1.2v.8c1.1,0,2,-.9,2,-2V349.2c0,-1.1,-.9,-2,-2,-2H470.6c-1,0,-1.9,.9,-1.9,2v13.9c0,1.1,.9,2,1.9,2h13.7v-.4Z" class="g1_148"/>
<path d="M459.4,364.7v-.4H445.7c-.7,0,-1.2,-.5,-1.2,-1.2V349.2c0,-.7,.5,-1.2,1.2,-1.2h13.7c.6,0,1.2,.5,1.2,1.2v13.9c0,.7,-.6,1.2,-1.2,1.2v.8c1,0,1.9,-.9,1.9,-2V349.2c0,-1.1,-.9,-2,-1.9,-2H445.7c-1.1,0,-2,.9,-2,2v13.9c0,1.1,.9,2,2,2h13.7v-.4Z" class="g1_148"/>
<path d="M504.2,271h.7V240h-.7v31Z" class="g3_148"/>
<path d="M502.3,269.5l2.3,8.2l2.2,-8.2h-4.5Z" class="g3_148"/>
<path d="M504.2,335.3h.7V304.4h-.7v30.9Z" class="g3_148"/>
<path d="M502.3,333.8l2.3,8.3l2.2,-8.3h-4.5Z" class="g3_148"/>
<g clip-path="url(#c0_148)">
<path d="M721.7,239.6h-126c-1.6,0,-2.9,-1.3,-2.9,-2.9V218.1c0,-1.6,1.3,-2.9,2.9,-2.9h126c1.6,0,2.9,1.3,2.9,2.9v18.6c0,1.6,-1.3,2.9,-2.9,2.9Z" class="g0_148"/>
<path d="M721.7,239.6v-.4h-126c-1.4,0,-2.5,-1.1,-2.5,-2.5V218.1c0,-1.4,1.1,-2.6,2.5,-2.6h126c1.4,0,2.5,1.2,2.5,2.6v18.6c0,1.4,-1.1,2.5,-2.5,2.5v.8c1.8,0,3.3,-1.5,3.3,-3.3V218.1c0,-1.9,-1.5,-3.3,-3.3,-3.3h-126c-1.8,0,-3.3,1.4,-3.3,3.3v18.6c0,1.8,1.5,3.3,3.3,3.3h126v-.4Z" class="g1_148"/>
</g>
<path d="M605.8,235.9c-4.6,0,-8.4,-3.8,-8.4,-8.4v-.3c0,-4.7,3.8,-8.4,8.4,-8.4c4.6,0,8.4,3.7,8.4,8.4v.3c0,4.6,-3.8,8.4,-8.4,8.4Z" class="g2_148"/>
<path d="M605.8,235.9v-.4c-2.2,0,-4.2,-.9,-5.7,-2.3c-1.4,-1.5,-2.3,-3.5,-2.3,-5.7v-.3c0,-2.2,.9,-4.2,2.3,-5.7c1.5,-1.5,3.5,-2.3,5.7,-2.3c2.2,0,4.2,.8,5.7,2.3c1.4,1.5,2.3,3.5,2.3,5.7v.3c0,2.2,-.9,4.2,-2.3,5.7c-1.5,1.4,-3.5,2.3,-5.7,2.3v.8c4.9,0,8.8,-4,8.8,-8.8v-.3c0,-4.9,-3.9,-8.8,-8.8,-8.8c-4.9,0,-8.8,3.9,-8.8,8.8v.3c0,4.8,3.9,8.8,8.8,8.8v-.4Z" class="g1_148"/>
<path d="M630.7,235.9c-4.6,0,-8.4,-3.8,-8.4,-8.4v-.3c0,-4.7,3.8,-8.4,8.4,-8.4c4.7,0,8.5,3.7,8.5,8.4v.3c0,4.6,-3.8,8.4,-8.5,8.4Z" class="g2_148"/>
<path d="M630.7,235.9v-.4c-2.2,0,-4.2,-.9,-5.6,-2.3c-1.5,-1.5,-2.4,-3.5,-2.4,-5.7v-.3c0,-2.2,.9,-4.2,2.4,-5.7c1.4,-1.5,3.4,-2.3,5.6,-2.3c2.3,0,4.3,.8,5.7,2.3c1.5,1.5,2.4,3.5,2.4,5.7v.3c0,2.2,-.9,4.2,-2.4,5.7c-1.4,1.4,-3.4,2.3,-5.7,2.3v.8c4.9,0,8.8,-4,8.8,-8.8v-.3c0,-4.9,-3.9,-8.8,-8.8,-8.8c-4.8,0,-8.8,3.9,-8.8,8.8v.3c0,4.8,4,8.8,8.8,8.8v-.4Z" class="g1_148"/>
<path d="M655.7,235.9c-4.7,0,-8.4,-3.8,-8.4,-8.4v-.3c0,-4.7,3.7,-8.4,8.4,-8.4c4.6,0,8.4,3.7,8.4,8.4v.3c0,4.6,-3.8,8.4,-8.4,8.4Z" class="g2_148"/>
<path d="M655.7,235.9v-.4c-2.2,0,-4.2,-.9,-5.7,-2.3c-1.4,-1.5,-2.3,-3.5,-2.3,-5.7v-.3c0,-2.2,.9,-4.2,2.3,-5.7c1.5,-1.5,3.5,-2.3,5.7,-2.3c2.2,0,4.2,.8,5.7,2.3c1.4,1.5,2.3,3.5,2.3,5.7v.3c0,2.2,-.9,4.2,-2.3,5.7c-1.5,1.4,-3.5,2.3,-5.7,2.3v.8c4.8,0,8.8,-4,8.8,-8.8v-.3c0,-4.9,-4,-8.8,-8.8,-8.8c-4.9,0,-8.8,3.9,-8.8,8.8v.3c0,4.8,3.9,8.8,8.8,8.8v-.4Z" class="g1_148"/>
<path d="M680.6,235.9c-4.6,0,-8.4,-3.8,-8.4,-8.4v-.3c0,-4.7,3.8,-8.4,8.4,-8.4c4.7,0,8.4,3.7,8.4,8.4v.3c0,4.6,-3.7,8.4,-8.4,8.4Z" class="g2_148"/>
<path d="M680.6,235.9v-.4c-2.2,0,-4.2,-.9,-5.6,-2.3c-1.5,-1.5,-2.4,-3.5,-2.4,-5.7v-.3c0,-2.2,.9,-4.2,2.4,-5.7c1.4,-1.5,3.4,-2.3,5.6,-2.3c2.3,0,4.3,.8,5.7,2.3c1.5,1.5,2.4,3.5,2.4,5.7v.3c0,2.2,-.9,4.2,-2.4,5.7c-1.4,1.4,-3.4,2.3,-5.7,2.3v.8c4.9,0,8.8,-4,8.8,-8.8v-.3c0,-4.9,-3.9,-8.8,-8.8,-8.8c-4.8,0,-8.8,3.9,-8.8,8.8v.3c0,4.8,4,8.8,8.8,8.8v-.4Z" class="g1_148"/>
<path d="M612.5,300.1H598.8c-.9,0,-1.6,-.7,-1.6,-1.6V284.6c0,-.9,.7,-1.6,1.6,-1.6h13.7c.8,0,1.6,.7,1.6,1.6v13.9c0,.9,-.8,1.6,-1.6,1.6Z" class="g2_148"/>
<path d="M612.5,300.1v-.4H598.8c-.7,0,-1.2,-.5,-1.2,-1.2V284.6c0,-.7,.5,-1.2,1.2,-1.2h13.7c.6,0,1.2,.5,1.2,1.2v13.9c0,.7,-.6,1.2,-1.2,1.2v.8c1.1,0,1.9,-.9,1.9,-2V284.6c0,-1.1,-.8,-2,-1.9,-2H598.8c-1.1,0,-2,.9,-2,2v13.9c0,1.1,.9,2,2,2h13.7v-.4Z" class="g1_148"/>
<path d="M637.4,300.1H623.8c-.9,0,-1.6,-.7,-1.6,-1.6V284.6c0,-.9,.7,-1.6,1.6,-1.6h13.6c.9,0,1.6,.7,1.6,1.6v13.9c0,.9,-.7,1.6,-1.6,1.6Z" class="g2_148"/>
<path d="M637.4,300.1v-.4H623.8c-.7,0,-1.2,-.5,-1.2,-1.2V284.6c0,-.7,.5,-1.2,1.2,-1.2h13.6c.7,0,1.2,.5,1.2,1.2v13.9c0,.7,-.5,1.2,-1.2,1.2v.8c1.1,0,2,-.9,2,-2V284.6c0,-1.1,-.9,-2,-2,-2H623.8c-1.1,0,-2,.9,-2,2v13.9c0,1.1,.9,2,2,2h13.6v-.4Z" class="g1_148"/>
<path d="M612.5,364.7H598.8c-.9,0,-1.6,-.7,-1.6,-1.6V349.2c0,-.9,.7,-1.6,1.6,-1.6h13.7c.8,0,1.6,.7,1.6,1.6v13.9c0,.9,-.8,1.6,-1.6,1.6Z" class="g2_148"/>
<path d="M612.5,364.7v-.4H598.8c-.7,0,-1.2,-.5,-1.2,-1.2V349.2c0,-.7,.5,-1.2,1.2,-1.2h13.7c.6,0,1.2,.5,1.2,1.2v13.9c0,.7,-.6,1.2,-1.2,1.2v.8c1.1,0,1.9,-.9,1.9,-2V349.2c0,-1.1,-.8,-2,-1.9,-2H598.8c-1.1,0,-2,.9,-2,2v13.9c0,1.1,.9,2,2,2h13.7v-.4Z" class="g1_148"/>
<path d="M637.4,364.7H623.8c-.9,0,-1.6,-.7,-1.6,-1.6V349.2c0,-.9,.7,-1.6,1.6,-1.6h13.6c.9,0,1.6,.7,1.6,1.6v13.9c0,.9,-.7,1.6,-1.6,1.6Z" class="g2_148"/>
<path d="M637.4,364.7v-.4H623.8c-.7,0,-1.2,-.5,-1.2,-1.2V349.2c0,-.7,.5,-1.2,1.2,-1.2h13.6c.7,0,1.2,.5,1.2,1.2v13.9c0,.7,-.5,1.2,-1.2,1.2v.8c1.1,0,2,-.9,2,-2V349.2c0,-1.1,-.9,-2,-2,-2H623.8c-1.1,0,-2,.9,-2,2v13.9c0,1.1,.9,2,2,2h13.6v-.4Z" class="g1_148"/>
<path d="M605.2,271h.8V240h-.8v31Z" class="g3_148"/>
<path d="M603.4,269.5l2.2,8.2l2.2,-8.2h-4.4Z" class="g3_148"/>
<path d="M605.2,335.3h.8V304.4h-.8v30.9Z" class="g3_148"/>
<path d="M603.4,333.8l2.2,8.3l2.2,-8.3h-4.4Z" class="g3_148"/>
<path d="M630.6,271h.7V240h-.7v31Z" class="g3_148"/>
<path d="M628.7,269.5l2.3,8.2l2.2,-8.2h-4.5Z" class="g3_148"/>
<path d="M630.6,335.3h.7V304.4h-.7v30.9Z" class="g3_148"/>
<path d="M628.7,333.8l2.3,8.3l2.2,-8.3h-4.5Z" class="g3_148"/>
<path d="M446.6,366.8c-.5,0,-.9,-.3,-1.4,-.4c-1,-.3,-3.4,-3.7,-2.5,-3.7c.3,0,.7,-.1,1,-.3v.7c0,1.1,.9,2,2,2h3.2c0,.1,-.1,.2,-.2,.3c-.9,1,-1.6,1.4,-2.1,1.4m13.4,-.7c-.7,0,-1.6,-.4,-2.4,-1h1.8v-.8h-2.7c-1.7,-1.4,-3.3,-3.4,-4.3,-4.2c0,0,-1.4,2.3,-2.9,4.2h-3.8c-.7,0,-1.2,-.5,-1.2,-1.2v-1.3c1.5,-1.4,3,-4,4.3,-5.4c-.8,-.9,-2.9,-3,-4.3,-4.9v-2.3c0,-.7,.5,-1.2,1.2,-1.2h2.8c.9,1.1,1.9,2.5,2.7,3.5h-.5v7.7h2.8v-7.7H453c.7,-.9,1.6,-2.4,2.5,-3.5h3.9c.6,0,1.2,.5,1.2,1.2v.2c-1.3,1,-3.2,4.8,-4.9,6.8c.8,1,3.1,3.4,4.9,4.8v2.1c0,.7,-.6,1.2,-1.2,1.2v.8c1,0,1.9,-.9,1.9,-2v-1.5c.6,.4,1,.6,1.3,.6c1.3,0,.1,1.8,-1.2,3.2c-.4,.5,-.9,.7,-1.4,.7M443.7,350.4c-.3,-.5,-.5,-1,-.6,-1.5c-.5,-2.1,2,-4,2.4,-4.4c.1,0,.2,-.1,.3,-.1c.3,0,.5,.4,.6,.7c.1,.1,.7,1,1.5,2.1h-2.2c-1.1,0,-2,.9,-2,2v1.2m17.6,-1.3c0,-1.1,-.9,-1.9,-1.9,-1.9H456c.5,-.5,.9,-1,1.2,-1.2c.8,-.5,1.4,-.7,2,-.7c1.7,0,2.6,1.7,2.9,2.6c.4,1.1,.2,1,-.8,1.2Z" class="g4_148"/>
<g clip-path="url(#c1_148)">
<path d="M450.7,359.2h2.8v-7.7h-2.8v7.7Z" class="g4_148"/>
</g>
<path d="M459.4,365.1h-1.8c-.3,-.2,-.6,-.5,-.9,-.8h2.7v.8v-.8c.6,0,1.2,-.5,1.2,-1.2V361c.2,.2,.5,.4,.7,.6v1.5c0,1.1,-.9,2,-1.9,2m-10.5,0h-3.2c-1.1,0,-2,-.9,-2,-2v-.7c.3,-.2,.5,-.4,.8,-.6v1.3c0,.7,.5,1.2,1.2,1.2h3.8c-.2,.3,-.4,.5,-.6,.8m-4.4,-13.6c-.3,-.4,-.6,-.8,-.8,-1.1v-1.2c0,-1.1,.9,-2,2,-2h2.2c.2,.2,.4,.5,.6,.8h-2.8c-.7,0,-1.2,.5,-1.2,1.2v2.3m16.1,-2.1v-.2c0,-.7,-.6,-1.2,-1.2,-1.2h-3.9c.2,-.3,.4,-.6,.5,-.8h3.4c1,0,1.9,.8,1.9,1.9c-.1,0,-.2,0,-.3,0c-.1,.1,-.3,.1,-.4,.3Z" class="g5_148"/>
<path d="M599.4,366.8c-.4,0,-.9,-.2,-1.3,-.3c-1,-.4,-3.4,-3.7,-2.5,-3.7c.4,0,.8,-.2,1.2,-.5v.8c0,1.1,.9,2,2,2h3.1c-.1,.1,-.2,.2,-.3,.3c-.9,1.1,-1.6,1.4,-2.2,1.4m13.5,-.7c-.8,0,-1.6,-.4,-2.5,-1h2.1v-.4v.4c1,0,1.9,-.9,1.9,-2v-1.3c.5,.3,.8,.5,1.1,.5c1.3,0,.1,1.8,-1.2,3.2c-.4,.5,-.9,.6,-1.4,.6M596.8,350.8c-.4,-.6,-.7,-1.3,-.8,-1.8c-.5,-2.1,2,-4,2.4,-4.4c.1,0,.2,-.1,.3,-.1c.3,0,.5,.4,.6,.7c.1,.1,.7,.9,1.4,2h-1.9c-1.1,0,-2,.9,-2,2v1.6m17.6,-1.7c0,-1,-.9,-1.9,-1.9,-1.9H609c.4,-.5,.8,-.9,1,-1.1c.8,-.5,1.5,-.7,2.1,-.7c1.7,0,2.6,1.7,2.9,2.6c.4,1,.2,1,-.6,1.1Z" class="g4_148"/>
<path d="M612.5,364.7v-.4h-3c-1.7,-1.4,-3.3,-3.3,-4.2,-4.1c0,0,-1.4,2.2,-2.8,4.1h-3.7c-.7,0,-1.2,-.5,-1.2,-1.2v-1.4c1.4,-1.5,2.8,-3.9,4,-5.2c-.7,-.9,-2.6,-2.8,-4,-4.6v-2.7c0,-.7,.5,-1.2,1.2,-1.2h2.5c.9,1.1,1.9,2.5,2.8,3.5h-.3v7.7h2.8v-7.7H606c.6,-1,1.6,-2.4,2.4,-3.5h4.1c.6,0,1.2,.5,1.2,1.2v.1c-1.3,.7,-3.4,4.9,-5.1,7c.8,1,3.2,3.6,5.1,5v1.8c0,.7,-.6,1.2,-1.2,1.2v.4Z" class="g4_148"/>
<path d="M612.5,365.1h-2.1c-.3,-.3,-.6,-.5,-.9,-.8h3v.8v-.8c.6,0,1.2,-.5,1.2,-1.2v-1.8c.2,.2,.5,.4,.7,.5v1.3c0,1.1,-.8,2,-1.9,2m-10.6,0h-3.1c-1.1,0,-2,-.9,-2,-2v-.8c.3,-.1,.6,-.4,.8,-.6v1.4c0,.7,.5,1.2,1.2,1.2h3.7c-.2,.3,-.4,.5,-.6,.8m-4.3,-13.2c-.3,-.4,-.5,-.7,-.8,-1.1v-1.6c0,-1.1,.9,-2,2,-2h1.9c.2,.2,.4,.5,.6,.8h-2.5c-.7,0,-1.2,.5,-1.2,1.2v2.7m16.1,-2.6v-.1c0,-.7,-.6,-1.2,-1.2,-1.2h-4.1c.2,-.3,.4,-.6,.6,-.8h3.5c1,0,1.9,.9,1.9,1.9c-.1,.1,-.3,.1,-.5,.1c-.1,0,-.2,.1,-.2,.1Z" class="g5_148"/>
<g clip-path="url(#c2_148)">
<path d="M603.8,359.2h2.8v-7.7h-2.8v7.7Z" class="g4_148"/>
</g>
<path d="M582.6,818.1v3.2l-.2,-.1L576,818.3l-.3,-.2l.3,-.2l6.4,-2.9l.2,-.1v.3l-.1,.2l-6.3,2.9l-.2,-.4h.2l6.3,3l-.1,.3l-.1,-.1v-3Z" class="g3_148"/>
<path d="M582.3,818.1h.3v-2.9h-.3v2.9Z" class="g3_148"/>
<path d="M582.6,818.3h22.6v-.4H582.6v.4Z" class="g3_148"/>
<path d="M604.8,845.1h.4v-27h-.4v27Z" class="g3_148"/>
<path d="M594.1,879.3v3.2l-.3,-.1l-6.3,-2.9l-.4,-.2l.4,-.2l6.3,-2.9l.3,-.1v.2l-.1,.2l-6.3,3l-.2,-.4h.2L594,882l-.2,.4l-.1,-.2v-2.9Z" class="g3_148"/>
<path d="M593.7,879.3h.4v-3h-.4v3Z" class="g3_148"/>
<path d="M594.1,879.5h22.5v-.4H594.1v.4Z" class="g3_148"/>
<g clip-path="url(#c3_148)">
<path d="M616.3,905.8h.3V879.3h-.3v26.5Z" class="g3_148"/>
</g>
</svg>