<?xml version="1.0" encoding="UTF-8" standalone="no"?>
<!DOCTYPE svg PUBLIC "-//W3C//DTD SVG 1.1//EN"
"http://www.w3.org/Graphics/SVG/1.1/DTD/svg11.dtd">
<svg viewBox="0 0 811 1017" version="1.1" xmlns="http://www.w3.org/2000/svg" xmlns:xlink="http://www.w3.org/1999/xlink">
<defs>
<clipPath id="c0_214"><path d="M402.4,265V232.1H670.1V265Z"/></clipPath>
<clipPath id="c1_214"><path d="M546.6,853.1v-33H725.5v33Z"/></clipPath>
<clipPath id="c2_214"><path d="M509.4,924.8V891.9H724.5v32.9Z"/></clipPath>
<style type="text/css"><![CDATA[
.g0_214{
fill: #70A6CC;
}
.g1_214{
}
.g2_214{
fill: #FFFFFF;
}
.g3_214{
fill: none;
stroke: #231F20;
stroke-width: 0.763;
stroke-linecap: butt;
stroke-linejoin: miter;
}
.g4_214{
fill: #231F20;
}
]]></style>
</defs>
<path d="M156.1,806.5H724.4V785.3H156.1v21.2Z" class="g0_214"/>
<path d="M417.4,237.2v3.2h-.3l-6.3,-3l-.3,-.2l.3,-.1l6.3,-3l.3,-.1v.3l-.1,.2l-6.3,2.9l-.2,-.3h.2l6.3,2.9l-.2,.4l-.1,-.2v-3Z" class="g1_214"/>
<path d="M417,237.2h.4v-2.9H417v2.9Z" class="g1_214"/>
<path d="M417.4,237.4H440V237H417.4v.4Z" class="g1_214"/>
<g clip-path="url(#c0_214)">
<path d="M439.6,265.1h.4V237.2h-.4v27.9Z" class="g1_214"/>
</g>
<path d="M527.6,508.6H430.8c-.9,0,-1.6,-.7,-1.6,-1.6V493c0,-.8,.7,-1.5,1.6,-1.5h96.8c.9,0,1.6,.7,1.6,1.5v14c0,.9,-.7,1.6,-1.6,1.6Z" class="g2_214"/>
<path d="M527.6,508.6H430.8c-.9,0,-1.6,-.7,-1.6,-1.6V493c0,-.8,.7,-1.5,1.6,-1.5h96.8c.9,0,1.6,.7,1.6,1.5v14c0,.9,-.7,1.6,-1.6,1.6Z" class="g3_214"/>
<path d="M721.5,514.4H574.6c-.9,0,-1.6,-.7,-1.6,-1.6V486.7c0,-.9,.7,-1.6,1.6,-1.6H721.5c.9,0,1.6,.7,1.6,1.6v26.1c0,.9,-.7,1.6,-1.6,1.6Z" class="g2_214"/>
<path d="M721.5,514.4H574.6c-.9,0,-1.6,-.7,-1.6,-1.6V486.7c0,-.9,.7,-1.6,1.6,-1.6H721.5c.9,0,1.6,.7,1.6,1.6v26.1c0,.9,-.7,1.6,-1.6,1.6Z" class="g3_214"/>
<path d="M529.4,499.9h43.2Z" class="g2_214"/>
<path d="M529.4,499.9h36.4" class="g3_214"/>
<path d="M564.3,502.1l8.3,-2.2l-8.3,-2.2v4.4Z" class="g4_214"/>
<path d="M561.6,825.3v3.2l-.3,-.1L555,825.5l-.3,-.2l.3,-.2l6.3,-2.9l.3,-.1v.2l-.1,.2l-6.3,3l-.2,-.4h.2l6.3,2.9l-.2,.4l-.1,-.2v-2.9Z" class="g1_214"/>
<path d="M561.2,825.3h.4v-3h-.4v3Z" class="g1_214"/>
<path d="M561.6,825.5h22.6v-.4H561.6v.4Z" class="g1_214"/>
<g clip-path="url(#c1_214)">
<path d="M583.8,853.1h.4V825.3h-.4v27.8Z" class="g1_214"/>
</g>
<path d="M524.3,897.1v3.3l-.2,-.1l-6.3,-3l-.3,-.2l.3,-.1l6.3,-3l.2,-.1v.3l-.1,.2l-6.2,2.9l-.2,-.3h.2l6.2,2.9l-.1,.4l-.1,-.2v-3Z" class="g1_214"/>
<path d="M524,897.1h.3v-2.9H524v2.9Z" class="g1_214"/>
<path d="M524.3,897.3h22.6V897H524.3v.3Z" class="g1_214"/>
<g clip-path="url(#c2_214)">
<path d="M546.5,924.9h.4V897.1h-.4v27.8Z" class="g1_214"/>
</g>
</svg>