<?xml version="1.0" encoding="UTF-8" standalone="no"?>
<!DOCTYPE svg PUBLIC "-//W3C//DTD SVG 1.1//EN"
"http://www.w3.org/Graphics/SVG/1.1/DTD/svg11.dtd">
<svg viewBox="0 0 811 1017" version="1.1" xmlns="http://www.w3.org/2000/svg" xmlns:xlink="http://www.w3.org/1999/xlink">
<defs>
<clipPath id="c0_260"><path d="M553.3,677.1v-33H768.4v33Z"/></clipPath>
<style type="text/css"><![CDATA[
.g0_260{
fill: #70A6CC;
}
.g1_260{
}
]]></style>
</defs>
<path d="M156.1,630.9H724.4V609.6H156.1v21.3Z" class="g0_260"/>
<path d="M156.1,866.3H724.4V844.4H156.1v21.9Z" class="g0_260"/>
<path d="M568.2,649.3v3.2l-.2,-.1l-6.3,-2.9l-.3,-.2l.3,-.2l6.3,-2.9l.2,-.1v.4l-6.3,3l-.2,-.4h.2l6.3,2.9l-.2,.4l-.1,-.2v-2.9Z" class="g1_260"/>
<path d="M567.9,649.3h.3v-3h-.3v3Z" class="g1_260"/>
<path d="M568.2,649.5h22.7v-.4H568.2v.4Z" class="g1_260"/>
<g clip-path="url(#c0_260)">
<path d="M590.5,677.1h.4V649.3h-.4v27.8Z" class="g1_260"/>
</g>
</svg>