<?xml version="1.0" encoding="UTF-8" standalone="no"?>
<!DOCTYPE svg PUBLIC "-//W3C//DTD SVG 1.1//EN"
"http://www.w3.org/Graphics/SVG/1.1/DTD/svg11.dtd">
<svg viewBox="0 0 811 1017" version="1.1" xmlns="http://www.w3.org/2000/svg" xmlns:xlink="http://www.w3.org/1999/xlink">
<defs>
<clipPath id="c0_218"><path d="M418.7,330.6v-33H633.8v33Z"/></clipPath>
<clipPath id="c1_218"><path d="M418.7,391.6V358.7H633.8v32.9Z"/></clipPath>
<style type="text/css"><![CDATA[
.g0_218{
fill: #70A6CC;
}
.g1_218{
}
]]></style>
</defs>
<path d="M156.1,161.8H724.4V140.5H156.1v21.3Z" class="g0_218"/>
<path d="M156.1,697.9H724.4V676.7H156.1v21.2Z" class="g0_218"/>
<path d="M529.1,195.8V199l-.3,-.1L522.6,196l-.4,-.2l.4,-.2l6.2,-2.9l.3,-.1v.3l-.1,.1l-6.2,3l-.2,-.4h.2l6.2,2.9l-.2,.4l-.1,-.2v-2.9Z" class="g1_218"/>
<path d="M528.7,195.8h.4v-2.9h-.4v2.9Z" class="g1_218"/>
<path d="M529.1,196h22.6v-.4H529.1v.4Z" class="g1_218"/>
<path d="M551.3,237.6h.3V195.8h-.3v41.8Z" class="g1_218"/>
<path d="M193.1,272.3V269l.3,.1l6.3,3l.4,.2l-.4,.1l-6.3,3l-.3,.1v-.3l.1,-.2l6.4,-2.9l.1,.3h-.1l-6.4,-2.9l.2,-.4l.1,.2v3Z" class="g1_218"/>
<path d="M193.1,275.2h.4v-3h-.4v3Z" class="g1_218"/>
<path d="M173.4,272.4h19.7v-.3H173.4v.3Z" class="g1_218"/>
<path d="M173.4,298.3h.4V272.2h-.4v26.1Z" class="g1_218"/>
<path d="M433.7,302.8V306l-.3,-.1L427.1,303l-.4,-.2l.4,-.2l6.3,-2.9l.3,-.1v.2l-.1,.2l-6.3,3l-.2,-.4h.2l6.3,2.9l-.2,.4l-.1,-.2v-2.9Z" class="g1_218"/>
<path d="M433.3,302.8h.4v-3h-.4v3Z" class="g1_218"/>
<path d="M433.7,303h22.5v-.4H433.7v.4Z" class="g1_218"/>
<g clip-path="url(#c0_218)">
<path d="M455.9,330.6h.3V302.8h-.3v27.8Z" class="g1_218"/>
</g>
<path d="M433.7,363.9v3.2l-.3,-.1l-6.3,-2.9l-.4,-.2l.4,-.2l6.3,-2.9l.3,-.1v.3l-.1,.2l-6.3,2.9l-.2,-.4h.2l6.3,3l-.2,.3l-.1,-.1v-3Z" class="g1_218"/>
<path d="M433.3,363.9h.4V361h-.4v2.9Z" class="g1_218"/>
<path d="M433.7,364.1h22.5v-.4H433.7v.4Z" class="g1_218"/>
<g clip-path="url(#c1_218)">
<path d="M455.9,391.6h.3V363.9h-.3v27.7Z" class="g1_218"/>
</g>
</svg>