<?xml version="1.0" encoding="UTF-8" standalone="no"?>
<!DOCTYPE svg PUBLIC "-//W3C//DTD SVG 1.1//EN"
"http://www.w3.org/Graphics/SVG/1.1/DTD/svg11.dtd">
<svg viewBox="0 0 811 1017" version="1.1" xmlns="http://www.w3.org/2000/svg" xmlns:xlink="http://www.w3.org/1999/xlink">
<defs>
<style type="text/css"><![CDATA[
.g0_125{
fill: #70A6CC;
}
.g1_125{
}
]]></style>
</defs>
<path d="M142.4,268.8H710.7V247.5H142.4v21.3Z" class="g0_125"/>
<path d="M142.4,809.6H710.7V788.3H142.4v21.3Z" class="g0_125"/>
<path d="M558.8,379.5v3.2l-.3,-.1l-6.2,-2.9l-.4,-.2l.4,-.2l6.2,-2.9l.3,-.1v.3l-.1,.2l-6.2,2.9l-.2,-.4h.2l6.2,2.9l-.2,.4l-.1,-.2v-2.9Z" class="g1_125"/>
<path d="M558.4,379.5h.4v-2.9h-.4v2.9Z" class="g1_125"/>
<path d="M558.8,379.7h22.6v-.4H558.8v.4Z" class="g1_125"/>
<path d="M581,400.5h.3v-21H581v21Z" class="g1_125"/>
<path d="M559,426.2v3.2l-.3,-.1l-6.3,-3l-.4,-.1l.4,-.2l6.3,-2.9l.3,-.1v.3l-.1,.2l-6.3,2.8l-.2,-.3h.2l6.3,2.9l-.2,.4l-.1,-.2v-2.9Z" class="g1_125"/>
<path d="M558.6,426.2h.4v-2.9h-.4v2.9Z" class="g1_125"/>
<path d="M559,426.3h22.3V426H559v.3Z" class="g1_125"/>
<path d="M580.9,426.2h.4V397.6h-.4v28.6Z" class="g1_125"/>
</svg>