<?xml version="1.0" encoding="UTF-8" standalone="no"?>
<!DOCTYPE svg PUBLIC "-//W3C//DTD SVG 1.1//EN"
"http://www.w3.org/Graphics/SVG/1.1/DTD/svg11.dtd">
<svg viewBox="0 0 811 1017" version="1.1" xmlns="http://www.w3.org/2000/svg" xmlns:xlink="http://www.w3.org/1999/xlink">
<defs>
<clipPath id="c0_300"><path d="M509.4,441.1V408.2H736v32.9Z"/></clipPath>
<style type="text/css"><![CDATA[
.g0_300{
fill: #70A6CC;
}
.g1_300{
}
]]></style>
</defs>
<path d="M156.1,241.5H724.4V220.3H156.1v21.2Z" class="g0_300"/>
<path d="M556.2,398.4v3.2l-.2,-.1l-6.3,-2.9l-.3,-.2l.3,-.2l6.3,-2.9l.2,-.1v.2l-.1,.2l-6.2,3l-.2,-.4h.2l6.2,2.9l-.1,.4l-.1,-.2v-2.9Z" class="g1_300"/>
<path d="M555.9,398.4h.3v-3h-.3v3Z" class="g1_300"/>
<path d="M556.2,398.6h23.2v-.4H556.2v.4Z" class="g1_300"/>
<path d="M579.1,398.4h.3v-26h-.3v26Z" class="g1_300"/>
<path d="M524.3,413.4v3.2l-.2,-.1l-6.3,-2.9l-.3,-.2l.3,-.2l6.3,-2.9l.2,-.1v.3l-.1,.2l-6.2,2.9l-.2,-.4h.2l6.2,3l-.1,.3l-.1,-.1v-3Z" class="g1_300"/>
<path d="M524,413.4h.3v-2.9H524v2.9Z" class="g1_300"/>
<path d="M524.3,413.6h22.6v-.4H524.3v.4Z" class="g1_300"/>
<g clip-path="url(#c0_300)">
<path d="M546.5,441.1h.4V413.4h-.4v27.7Z" class="g1_300"/>
</g>
</svg>