<?xml version="1.0" encoding="UTF-8" standalone="no"?>
<!DOCTYPE svg PUBLIC "-//W3C//DTD SVG 1.1//EN"
"http://www.w3.org/Graphics/SVG/1.1/DTD/svg11.dtd">
<svg viewBox="0 0 811 1017" version="1.1" xmlns="http://www.w3.org/2000/svg" xmlns:xlink="http://www.w3.org/1999/xlink">
<defs>
<style type="text/css"><![CDATA[
.g0_78{
fill: #F7F5E8;
}
.g1_78{
}
]]></style>
</defs>
<path d="M156.1,217.7H724.4V82.5H156.1V217.7Z" class="g0_78"/>
<path d="M371.6,350.5v3.2h-.3l-6.2,-3l-.4,-.2l.4,-.1l6.2,-2.9l.3,-.1v.3l-.1,.2l-6.2,2.8l-.2,-.3h.2l6.2,2.9l-.2,.4v-3.2Z" class="g1_78"/>
<path d="M371.3,350.5h.3v-2.8h-.3v2.8Z" class="g1_78"/>
<path d="M371.6,350.7h27.5v-.3H371.6v.3Z" class="g1_78"/>
<path d="M398.8,377.5h.3v-27h-.3v27Z" class="g1_78"/>
<path d="M357,396.4v3.2l-.3,-.1l-6.3,-3l-.3,-.1l.3,-.2l6.3,-2.9l.3,-.1v.3l-.1,.2l-6.3,2.8l-.2,-.3h.2l6.3,2.9l-.2,.4l-.1,-.2v-2.9Z" class="g1_78"/>
<path d="M356.6,396.4h.4v-2.9h-.4v2.9Z" class="g1_78"/>
<path d="M357,396.5h27.5v-.3H357v.3Z" class="g1_78"/>
<path d="M384.1,423.3h.4V396.4h-.4v26.9Z" class="g1_78"/>
<path d="M556.2,472.4v3.3l-.2,-.1l-6.3,-3l-.3,-.2l.3,-.1l6.3,-3l.2,-.1v.3l-.1,.2l-6.2,2.9l-.2,-.3h.2l6.2,2.9l-.1,.4l-.1,-.2v-3Z" class="g1_78"/>
<path d="M555.9,472.4h.3v-2.9h-.3v2.9Z" class="g1_78"/>
<path d="M556.2,472.6h23.2v-.3H556.2v.3Z" class="g1_78"/>
<path d="M579.1,472.4h.3v-26h-.3v26Z" class="g1_78"/>
</svg>