<?xml version="1.0" encoding="UTF-8" standalone="no"?>
<!DOCTYPE svg PUBLIC "-//W3C//DTD SVG 1.1//EN"
"http://www.w3.org/Graphics/SVG/1.1/DTD/svg11.dtd">
<svg viewBox="0 0 811 1017" version="1.1" xmlns="http://www.w3.org/2000/svg" xmlns:xlink="http://www.w3.org/1999/xlink">
<defs>
<clipPath id="c0_41"><path d="M142.4,424.8V227.4H691.6V424.8Z"/></clipPath>
<style type="text/css"><![CDATA[
.g0_41{
fill: #FFFFFF;
}
.g1_41{
fill: none;
stroke: #000000;
stroke-width: 0.763;
stroke-linecap: butt;
stroke-linejoin: miter;
stroke-miterlimit: 4;
}
.g2_41{
}
]]></style>
</defs>
<path d="M142.4,424.8H691.6V227.4H142.4V424.8Z" class="g0_41"/>
<path d="M191.5,313.4h67.9Z" class="g0_41"/>
<path d="M191.5,313.4h61.1" class="g1_41"/>
<path d="M251.1,315.6l8.3,-2.2l-8.3,-2.2v4.4Z" class="g2_41"/>
<path d="M439.8,356.4h57.1Z" class="g0_41"/>
<path d="M439.8,356.4h50.4" class="g1_41"/>
<path d="M488.7,358.7l8.2,-2.3l-8.2,-2.2v4.5Z" class="g2_41"/>
<path d="M516.3,356.4h78.6Z" class="g0_41"/>
<path d="M516.3,356.4h71.8" class="g1_41"/>
<path d="M586.6,358.7l8.3,-2.3l-8.3,-2.2v4.5Z" class="g2_41"/>
<path d="M523.5,280.4l71.4,74.4Z" class="g0_41"/>
<path d="M523.5,280.4l66.7,69.5" class="g1_41"/>
<path d="M587.5,350.3l7.4,4.5l-4.2,-7.6l-3.2,3.1Z" class="g2_41"/>
<path d="M191.5,398.7h67.9Z" class="g0_41"/>
<path d="M191.5,398.7h61.1" class="g1_41"/>
<path d="M251.1,400.9l8.3,-2.2l-8.3,-2.2v4.4Z" class="g2_41"/>
<path d="M337.1,399.5l61.3,-42.3Z" class="g0_41"/>
<path d="M337.1,399.5L392.9,361" class="g1_41"/>
<path d="M392.9,363.7l5.5,-6.5l-8,2.9l2.5,3.6Z" class="g2_41"/>
<path d="M337.1,311.9l61.3,42.2Z" class="g0_41"/>
<path d="M337.1,311.9l55.8,38.4" class="g1_41"/>
<path d="M390.4,351.3l8,2.8l-5.5,-6.5l-2.5,3.7Z" class="g2_41"/>
<path d="M497.6,233.4v42.3c0,3.1,11,5.5,24.6,5.5c13.6,0,24.7,-2.4,24.7,-5.5V233.4H497.6Z" class="g0_41"/>
<path d="M497.6,233.4v42.3c0,3.1,11,5.5,24.6,5.5c13.6,0,24.7,-2.4,24.7,-5.5V233.4H497.6Z" class="g1_41"/>
<path d="M546.9,233.4c0,3,-11.1,5.5,-24.7,5.5c-13.6,0,-24.6,-2.5,-24.6,-5.5c0,-3.1,11,-5.6,24.6,-5.6c13.6,0,24.7,2.5,24.7,5.6Z" class="g0_41"/>
<path d="M546.9,233.4c0,3,-11.1,5.5,-24.7,5.5c-13.6,0,-24.6,-2.5,-24.6,-5.5c0,-3.1,11,-5.6,24.6,-5.6c13.6,0,24.7,2.5,24.7,5.6Z" class="g1_41"/>
<path d="M497.6,335.3v42.3c0,3.1,11,5.6,24.6,5.6c13.6,0,24.7,-2.5,24.7,-5.6V335.3H497.6Z" class="g0_41"/>
<path d="M497.6,335.3v42.3c0,3.1,11,5.6,24.6,5.6c13.6,0,24.7,-2.5,24.7,-5.6V335.3H497.6Z" class="g1_41"/>
<path d="M546.9,335.3c0,3,-11.1,5.5,-24.7,5.5c-13.6,0,-24.6,-2.5,-24.6,-5.5c0,-3.1,11,-5.6,24.6,-5.6c13.6,0,24.7,2.5,24.7,5.6Z" class="g0_41"/>
<path d="M546.9,335.3c0,3,-11.1,5.5,-24.7,5.5c-13.6,0,-24.6,-2.5,-24.6,-5.5c0,-3.1,11,-5.6,24.6,-5.6c13.6,0,24.7,2.5,24.7,5.6Z" class="g1_41"/>
<path d="M399.1,335.3v42.3c0,3.1,11,5.6,24.6,5.6c13.6,0,24.7,-2.5,24.7,-5.6V335.3H399.1Z" class="g0_41"/>
<path d="M399.1,335.3v42.3c0,3.1,11,5.6,24.6,5.6c13.6,0,24.7,-2.5,24.7,-5.6V335.3H399.1Z" class="g1_41"/>
<path d="M448.4,335.3c0,3,-11.1,5.5,-24.7,5.5c-13.6,0,-24.6,-2.5,-24.6,-5.5c0,-3.1,11,-5.6,24.6,-5.6c13.6,0,24.7,2.5,24.7,5.6Z" class="g0_41"/>
<path d="M448.4,335.3c0,3,-11.1,5.5,-24.7,5.5c-13.6,0,-24.6,-2.5,-24.6,-5.5c0,-3.1,11,-5.6,24.6,-5.6c13.6,0,24.7,2.5,24.7,5.6Z" class="g1_41"/>
<path d="M260,330.4h79.5V296.3H260v34.1Z" class="g0_41"/>
<path d="M339.5,330.4H260V296.3h79.5v34.1Z" class="g1_41"/>
<path d="M674.2,373.5H612.3c-9.4,0,-17,-7.6,-17,-17.1c0,-9.4,7.6,-17,17,-17h61.9c9.4,0,17,7.6,17,17c0,9.5,-7.6,17.1,-17,17.1Z" class="g0_41"/>
<path d="M674.2,373.5H612.3c-9.4,0,-17,-7.6,-17,-17.1c0,-9.4,7.6,-17,17,-17h61.9c9.4,0,17,7.6,17,17c0,9.5,-7.6,17.1,-17,17.1Z" class="g1_41"/>
<path d="M211.5,332.5V287.7H142.7v49.4c20.6,8.5,51,-13.3,68.8,-4.6Z" class="g0_41"/>
<path d="M211.5,332.5V287.7H142.7v49.4c20.6,8.5,51,-13.3,68.8,-4.6Z" class="g1_41"/>
<path d="M260,415.7h79.5V381.6H260v34.1Z" class="g0_41"/>
<path d="M339.5,415.7H260V381.6h79.5v34.1Z" class="g1_41"/>
<g clip-path="url(#c0_41)">
<path d="M211.5,417.8V373H142.7v49.4c20.6,8.5,51,-13.3,68.8,-4.6Z" class="g0_41"/>
<path d="M211.5,417.8V373H142.7v49.4c20.6,8.5,51,-13.3,68.8,-4.6Z" class="g1_41"/>
</g>
</svg>