<?xml version="1.0" encoding="UTF-8" standalone="no"?>
<!DOCTYPE svg PUBLIC "-//W3C//DTD SVG 1.1//EN"
"http://www.w3.org/Graphics/SVG/1.1/DTD/svg11.dtd">
<svg viewBox="0 0 811 1017" version="1.1" xmlns="http://www.w3.org/2000/svg" xmlns:xlink="http://www.w3.org/1999/xlink">
<defs>
<clipPath id="c0_137"><path d="M500.2,259.9V230.1H717.5v29.8Z"/></clipPath>
<style type="text/css"><![CDATA[
.g0_137{
fill: #70A6CC;
}
.g1_137{
fill: #F7F5E8;
}
.g2_137{
}
]]></style>
</defs>
<path d="M142.4,200.6H710.7V179.4H142.4v21.2Z" class="g0_137"/>
<path d="M142.4,915.1H710.7V674.5H142.4V915.1Z" class="g1_137"/>
<g clip-path="url(#c0_137)">
<path d="M537.4,259.9h.3V230h-.3v29.9Z" class="g2_137"/>
</g>
<path d="M478,326.7v3.2l-.2,-.1l-6.3,-2.9l-.3,-.2l.3,-.2l6.3,-2.9l.2,-.1v.3l-.1,.2l-6.2,2.9l-.2,-.4h.2l6.2,2.9l-.1,.4l-.1,-.2v-2.9Z" class="g2_137"/>
<path d="M477.7,326.7h.3v-2.9h-.3v2.9Z" class="g2_137"/>
<path d="M478,326.9h22.1v-.4H478v.4Z" class="g2_137"/>
<path d="M499.8,326.7h.3V292.6h-.3v34.1Z" class="g2_137"/>
<path d="M478,293.8V297l-.2,-.1L471.5,294l-.3,-.2l.3,-.2l6.3,-2.9l.2,-.1v.3l-.1,.1l-6.2,3l-.2,-.4h.2l6.2,2.9l-.1,.4l-.1,-.2v-2.9Z" class="g2_137"/>
<path d="M477.7,293.8h.3v-2.9h-.3v2.9Z" class="g2_137"/>
<path d="M478,294h22.1v-.4H478v.4Z" class="g2_137"/>
<path d="M499.8,300.2h.3v-6.4h-.3v6.4Z" class="g2_137"/>
<path d="M479.2,827.2v3.2l-.2,-.1l-6.4,-2.9l-.3,-.2l.3,-.2l6.4,-2.9l.2,-.1v.3l-.1,.2l-6.3,2.9l-.2,-.4h.2l6.3,3l-.1,.3l-.1,-.2v-2.9Z" class="g2_137"/>
<path d="M478.9,827.2h.3v-2.9h-.3v2.9Z" class="g2_137"/>
<path d="M479.2,827.4h23.1V827H479.2v.4Z" class="g2_137"/>
<path d="M502,827.2h.3v-26H502v26Z" class="g2_137"/>
<path d="M439.9,858.5v3.2l-.3,-.1l-6.2,-3l-.4,-.1l.4,-.2l6.2,-2.9l.3,-.1v.3l-.1,.2l-6.2,2.8l-.2,-.3h.2l6.2,2.9l-.2,.4l-.1,-.2v-2.9Z" class="g2_137"/>
<path d="M439.5,858.5h.4v-2.9h-.4v2.9Z" class="g2_137"/>
<path d="M439.9,858.6h22.6v-.3H439.9v.3Z" class="g2_137"/>
<path d="M462.1,898.8h.4V858.5h-.4v40.3Z" class="g2_137"/>
</svg>