<?xml version="1.0" encoding="UTF-8" standalone="no"?>
<!DOCTYPE svg PUBLIC "-//W3C//DTD SVG 1.1//EN"
"http://www.w3.org/Graphics/SVG/1.1/DTD/svg11.dtd">
<svg viewBox="0 0 811 1017" version="1.1" xmlns="http://www.w3.org/2000/svg" xmlns:xlink="http://www.w3.org/1999/xlink">
<defs>
<clipPath id="c0_208"><path d="M509.4,891.3V857.5H724.5v33.8Z"/></clipPath>
<style type="text/css"><![CDATA[
.g0_208{
fill: #70A6CC;
}
.g1_208{
fill: #FFFFFF;
}
.g2_208{
fill: none;
stroke: #231F20;
stroke-width: 0.763;
stroke-linecap: butt;
stroke-linejoin: miter;
}
.g3_208{
fill: #231F20;
}
.g4_208{
}
]]></style>
</defs>
<path d="M156.1,778.1H724.4V756.3H156.1v21.8Z" class="g0_208"/>
<path d="M545.1,536.3H497.6c-.8,0,-1.5,-.7,-1.5,-1.6v-14c0,-.8,.7,-1.5,1.5,-1.5h47.5c.9,0,1.6,.7,1.6,1.5v14c0,.9,-.7,1.6,-1.6,1.6Z" class="g1_208"/>
<path d="M545.1,536.3H497.6c-.8,0,-1.5,-.7,-1.5,-1.6v-14c0,-.8,.7,-1.5,1.5,-1.5h47.5c.9,0,1.6,.7,1.6,1.5v14c0,.9,-.7,1.6,-1.6,1.6Z" class="g2_208"/>
<path d="M722.6,536.3H592.8c-.9,0,-1.6,-.7,-1.6,-1.6v-14c0,-.8,.7,-1.5,1.6,-1.5H722.6c.8,0,1.5,.7,1.5,1.5v14c0,.9,-.7,1.6,-1.5,1.6Z" class="g1_208"/>
<path d="M722.6,536.3H592.8c-.9,0,-1.6,-.7,-1.6,-1.6v-14c0,-.8,.7,-1.5,1.6,-1.5H722.6c.8,0,1.5,.7,1.5,1.5v14c0,.9,-.7,1.6,-1.5,1.6Z" class="g2_208"/>
<path d="M546.9,527.6h43.2Z" class="g1_208"/>
<path d="M546.9,527.6h36.4" class="g2_208"/>
<path d="M581.8,529.8l8.3,-2.2l-8.3,-2.2v4.4Z" class="g3_208"/>
<path d="M524.3,862.6v3.2l-.2,-.1l-6.3,-2.9l-.3,-.2l.3,-.2l6.3,-2.9l.2,-.1v.3l-.1,.1l-6.2,3l-.2,-.4h.2l6.2,2.9l-.1,.4l-.1,-.2v-2.9Z" class="g4_208"/>
<path d="M524,862.6h.3v-2.9H524v2.9Z" class="g4_208"/>
<path d="M524.3,862.8h22.6v-.4H524.3v.4Z" class="g4_208"/>
<g clip-path="url(#c0_208)">
<path d="M546.5,891.3h.4V862.6h-.4v28.7Z" class="g4_208"/>
</g>
</svg>