<?xml version="1.0" encoding="UTF-8" standalone="no"?>
<!DOCTYPE svg PUBLIC "-//W3C//DTD SVG 1.1//EN"
"http://www.w3.org/Graphics/SVG/1.1/DTD/svg11.dtd">
<svg viewBox="0 0 811 1017" version="1.1" xmlns="http://www.w3.org/2000/svg" xmlns:xlink="http://www.w3.org/1999/xlink">
<defs>
<clipPath id="c0_170"><path d="M509.4,640.9V617.6H724.5v23.3Z"/></clipPath>
<style type="text/css"><![CDATA[
.g0_170{
fill: #70A6CC;
}
.g1_170{
}
]]></style>
</defs>
<path d="M156.1,241.8H724.4V220H156.1v21.8Z" class="g0_170"/>
<path d="M553.9,321.8V325l-.2,-.1l-6.3,-3l-.3,-.1l.3,-.2l6.3,-3l.2,-.1v.3l-.1,.2l-6.2,2.9l-.2,-.3h.2l6.2,2.9l-.1,.4l-.1,-.2v-2.9Z" class="g1_170"/>
<path d="M553.6,321.8h.3v-3h-.3v3Z" class="g1_170"/>
<path d="M553.9,321.9h22.6v-.3H553.9v.3Z" class="g1_170"/>
<path d="M576.1,363.5h.4V321.7h-.4v41.8Z" class="g1_170"/>
<path d="M524.3,622.7v3.2l-.2,-.1l-6.3,-2.9l-.3,-.2l.3,-.2l6.3,-2.9l.2,-.1v.3l-.1,.1l-6.2,3l-.2,-.4h.2l6.2,2.9l-.1,.4l-.1,-.2v-2.9Z" class="g1_170"/>
<path d="M524,622.7h.3v-2.9H524v2.9Z" class="g1_170"/>
<path d="M524.3,622.9h22.6v-.4H524.3v.4Z" class="g1_170"/>
<g clip-path="url(#c0_170)">
<path d="M546.5,641h.4V622.7h-.4V641Z" class="g1_170"/>
</g>
</svg>