<?xml version="1.0" encoding="UTF-8" standalone="no"?>
<!DOCTYPE svg PUBLIC "-//W3C//DTD SVG 1.1//EN"
"http://www.w3.org/Graphics/SVG/1.1/DTD/svg11.dtd">
<svg viewBox="0 0 811 1017" version="1.1" xmlns="http://www.w3.org/2000/svg" xmlns:xlink="http://www.w3.org/1999/xlink">
<defs>
<style type="text/css"><![CDATA[
.g0_247{
fill: #F7F5E8;
}
.g1_247{
fill: #70A6CC;
}
.g2_247{
}
]]></style>
</defs>
<path d="M142.4,401.8H710.7V82.5H142.4V401.8Z" class="g0_247"/>
<path d="M142.4,605.5H710.7V583.6H142.4v21.9Z" class="g1_247"/>
<path d="M142.4,851.9H710.7V830H142.4v21.9Z" class="g1_247"/>
<path d="M479.5,253.5v3.3l-.3,-.1l-6.3,-3l-.4,-.2l.4,-.1l6.3,-3l.3,-.1v.3l-.1,.2l-6.3,2.9l-.2,-.3h.2l6.3,2.9l-.2,.4l-.1,-.2v-3Z" class="g2_247"/>
<path d="M479.1,253.5h.4v-2.9h-.4v2.9Z" class="g2_247"/>
<path d="M479.5,253.7h23.1v-.3H479.5v.3Z" class="g2_247"/>
<path d="M502.2,253.5h.4v-26h-.4v26Z" class="g2_247"/>
<path d="M503.9,268.6v3.2l-.3,-.1l-6.2,-2.9l-.4,-.2l.4,-.2l6.2,-2.9l.3,-.1v.2l-.1,.2l-6.2,3l-.2,-.4h.2l6.2,2.9l-.2,.4l-.1,-.2v-2.9Z" class="g2_247"/>
<path d="M503.5,268.6h.4v-3h-.4v3Z" class="g2_247"/>
<path d="M503.9,268.8h74.2v-.4H503.9v.4Z" class="g2_247"/>
<path d="M577.7,310.4h.4V268.6h-.4v41.8Z" class="g2_247"/>
<path d="M518.3,284.8V288l-.3,-.1L511.7,285l-.4,-.2l.4,-.2l6.3,-2.9l.3,-.1v.3l-.1,.2l-6.3,2.9l-.2,-.4h.2l6.3,3l-.2,.3l-.1,-.2v-2.9Z" class="g2_247"/>
<path d="M517.9,284.8h.4v-2.9h-.4v2.9Z" class="g2_247"/>
<path d="M518.3,285h22.5v-.4H518.3v.4Z" class="g2_247"/>
<path d="M540.5,335.2h.3V284.8h-.3v50.4Z" class="g2_247"/>
<path d="M498.2,639.6v3.2l-.3,-.1l-6.3,-3l-.4,-.1l.4,-.2l6.3,-3l.3,-.1v.3l-.1,.2l-6.3,2.9l-.2,-.3h.2l6.3,2.9l-.2,.4l-.1,-.2v-2.9Z" class="g2_247"/>
<path d="M497.8,639.6h.4v-3h-.4v3Z" class="g2_247"/>
<path d="M498.2,639.7h97v-.3h-97v.3Z" class="g2_247"/>
<path d="M594.8,681.4h.4V639.6h-.4v41.8Z" class="g2_247"/>
<path d="M519.2,655.8V659l-.3,-.1L512.6,656l-.4,-.2l.4,-.2l6.3,-2.9l.3,-.1v.3l-.1,.1l-6.3,3l-.2,-.4h.2l6.3,2.9l-.2,.4l-.1,-.2v-2.9Z" class="g2_247"/>
<path d="M518.8,655.8h.4v-2.9h-.4v2.9Z" class="g2_247"/>
<path d="M519.2,656h22.6v-.4H519.2v.4Z" class="g2_247"/>
<path d="M541.4,736.7h.3V655.8h-.3v80.9Z" class="g2_247"/>
</svg>