<?xml version="1.0" encoding="UTF-8" standalone="no"?>
<!DOCTYPE svg PUBLIC "-//W3C//DTD SVG 1.1//EN"
"http://www.w3.org/Graphics/SVG/1.1/DTD/svg11.dtd">
<svg viewBox="0 0 811 1017" version="1.1" xmlns="http://www.w3.org/2000/svg" xmlns:xlink="http://www.w3.org/1999/xlink">
<defs>
<clipPath id="c0_294"><path d="M487.5,596.6v-33h215v33Z"/></clipPath>
<style type="text/css"><![CDATA[
.g0_294{
fill: #F7F5E8;
}
.g1_294{
}
]]></style>
</defs>
<path d="M156.1,363.6H724.4V135.9H156.1V363.6Z" class="g0_294"/>
<path d="M436.9,553.8V557l-.3,-.1l-6.3,-3l-.4,-.1l.4,-.2l6.3,-3l.3,-.1v.3l-.1,.2l-6.3,2.9l-.2,-.3h.2l6.3,2.9l-.2,.4l-.1,-.2v-2.9Z" class="g1_294"/>
<path d="M436.5,553.8h.4v-3h-.4v3Z" class="g1_294"/>
<path d="M436.9,553.9H460v-.3H436.9v.3Z" class="g1_294"/>
<path d="M459.6,553.8h.4V527.7h-.4v26.1Z" class="g1_294"/>
<path d="M502.4,568.8V572l-.3,-.1L495.8,569l-.3,-.2l.3,-.2l6.3,-2.9l.3,-.1v.3l-.1,.1l-6.3,3l-.2,-.4h.2l6.3,2.9l-.2,.4v-3.1Z" class="g1_294"/>
<path d="M502.1,568.8h.3v-2.9h-.3v2.9Z" class="g1_294"/>
<path d="M502.4,569H525v-.4H502.4v.4Z" class="g1_294"/>
<g clip-path="url(#c0_294)">
<path d="M524.6,596.6h.4V568.8h-.4v27.8Z" class="g1_294"/>
</g>
</svg>