<?xml version="1.0" encoding="UTF-8" standalone="no"?>
<!DOCTYPE svg PUBLIC "-//W3C//DTD SVG 1.1//EN"
"http://www.w3.org/Graphics/SVG/1.1/DTD/svg11.dtd">
<svg viewBox="0 0 811 1017" version="1.1" xmlns="http://www.w3.org/2000/svg" xmlns:xlink="http://www.w3.org/1999/xlink">
<defs>
<style type="text/css"><![CDATA[
.g0_258{
fill: #FFFFFF;
}
.g1_258{
fill: none;
stroke: #202020;
stroke-width: 0.763;
stroke-linecap: butt;
stroke-linejoin: miter;
}
.g2_258{
fill: none;
stroke: #000000;
stroke-width: 0.763;
stroke-linecap: butt;
stroke-linejoin: miter;
}
.g3_258{
}
]]></style>
</defs>
<path d="M340,105.9H270c-.9,0,-1.6,-.7,-1.6,-1.6v-14c0,-.8,.7,-1.5,1.6,-1.5h70c.9,0,1.6,.7,1.6,1.5v14c0,.9,-.7,1.6,-1.6,1.6Z" class="g0_258"/>
<path d="M340,105.9H270c-.9,0,-1.6,-.7,-1.6,-1.6v-14c0,-.8,.7,-1.5,1.6,-1.5h70c.9,0,1.6,.7,1.6,1.5v14c0,.9,-.7,1.6,-1.6,1.6Z" class="g1_258"/>
<path d="M432,105.9H362c-.8,0,-1.5,-.7,-1.5,-1.6v-14c0,-.8,.7,-1.5,1.5,-1.5h70c.9,0,1.6,.7,1.6,1.5v14c0,.9,-.7,1.6,-1.6,1.6Z" class="g0_258"/>
<path d="M432,105.9H362c-.8,0,-1.5,-.7,-1.5,-1.6v-14c0,-.8,.7,-1.5,1.5,-1.5h70c.9,0,1.6,.7,1.6,1.5v14c0,.9,-.7,1.6,-1.6,1.6Z" class="g1_258"/>
<path d="M211.4,97.9c0,-1.7,-1.7,-3.3,-4.2,-3.9c0,-.2,.1,-.4,.1,-.5c0,-3,-3.9,-5.4,-8.6,-5.4c-.2,0,-.3,0,-.5,0c-1.2,-1.2,-3.3,-2,-5.8,-2c-.6,0,-1.3,.1,-1.9,.2c-1.6,-1.2,-4,-1.9,-6.6,-1.9c-3.5,0,-6.5,1.3,-7.9,3.2c-.6,-.1,-1.2,-.2,-1.9,-.2c-4.7,0,-8.6,2.4,-8.6,5.4c0,.3,.1,.6,.1,.8c-.1,0,-.3,0,-.4,0c-3.2,0,-5.9,1.9,-5.9,4.3c0,2.3,2.3,4.1,5.2,4.3c0,.2,0,.3,0,.4c0,3,3.9,5.5,8.8,5.5c.6,0,1.3,-.1,1.9,-.2c1.5,1.7,4.3,2.8,7.5,2.8c2.6,0,4.9,-.8,6.4,-1.9c1.2,.4,2.6,.6,4,.6c3.9,0,7.3,-1.6,8.4,-3.8c3.6,0,6.6,-1.8,6.8,-4.1c1.9,-.8,3.1,-2.1,3.1,-3.6Z" class="g0_258"/>
<path d="M211.4,97.9c0,-1.7,-1.7,-3.3,-4.2,-3.9c0,-.2,.1,-.4,.1,-.5c0,-3,-3.9,-5.4,-8.6,-5.4c-.2,0,-.3,0,-.5,0c-1.2,-1.2,-3.3,-2,-5.8,-2c-.6,0,-1.3,.1,-1.9,.2c-1.6,-1.2,-4,-1.9,-6.6,-1.9c-3.5,0,-6.5,1.3,-7.9,3.2c-.6,-.1,-1.2,-.2,-1.9,-.2c-4.7,0,-8.6,2.4,-8.6,5.4c0,.3,.1,.6,.1,.8c-.1,0,-.3,0,-.4,0c-3.2,0,-5.9,1.9,-5.9,4.3c0,2.3,2.3,4.1,5.2,4.3c0,.2,0,.3,0,.4c0,3,3.9,5.5,8.8,5.5c.6,0,1.3,-.1,1.9,-.2c1.5,1.7,4.3,2.8,7.5,2.8c2.6,0,4.9,-.8,6.4,-1.9c1.2,.4,2.6,.6,4,.6c3.9,0,7.3,-1.6,8.4,-3.8c3.6,0,6.6,-1.8,6.8,-4.1c1.9,-.8,3.1,-2.1,3.1,-3.6Z" class="g2_258"/>
<path d="M213.9,112.4q0,-.1,0,-.2c0,-1,-1.1,-1.8,-2.6,-1.8c-.2,0,-.5,0,-.7,.1c-.3,-.8,-1.3,-1.3,-2.5,-1.3c-1,0,-1.9,.4,-2.4,1c-.3,-.1,-.8,-.2,-1.2,-.2c-1.5,0,-2.6,.8,-2.6,1.8c0,.2,0,.4,.1,.6c-.9,.2,-1.6,.9,-1.6,1.6c0,1,1.2,1.8,2.7,1.8q.1,0,.2,0c0,.1,0,.3,0,.4c0,1,1.1,1.8,2.6,1.8c.8,0,1.5,-.2,2,-.7c.5,.3,1.1,.5,1.8,.5c1.5,0,2.6,-.8,2.6,-1.8q0,-.1,0,-.2c.1,0,.3,0,.4,0c1.5,0,2.7,-.8,2.7,-1.8c0,-.7,-.6,-1.3,-1.5,-1.6Z" class="g0_258"/>
<path d="M213.9,112.4q0,-.1,0,-.2c0,-1,-1.1,-1.8,-2.6,-1.8c-.2,0,-.5,0,-.7,.1c-.3,-.8,-1.3,-1.3,-2.5,-1.3c-1,0,-1.9,.4,-2.4,1c-.3,-.1,-.8,-.2,-1.2,-.2c-1.5,0,-2.6,.8,-2.6,1.8c0,.2,0,.4,.1,.6c-.9,.2,-1.6,.9,-1.6,1.6c0,1,1.2,1.8,2.7,1.8q.1,0,.2,0c0,.1,0,.3,0,.4c0,1,1.1,1.8,2.6,1.8c.8,0,1.5,-.2,2,-.7c.5,.3,1.1,.5,1.8,.5c1.5,0,2.6,-.8,2.6,-1.8q0,-.1,0,-.2c.1,0,.3,0,.4,0c1.5,0,2.7,-.8,2.7,-1.8c0,-.7,-.6,-1.3,-1.5,-1.6Z" class="g2_258"/>
<path d="M221.8,121.8c.1,-.2,.2,-.5,.2,-.8c0,-.6,-.8,-1,-1.6,-1c-.1,0,-.3,0,-.4,.1c-.3,-.4,-.8,-.6,-1.4,-.6c-.8,0,-1.5,.5,-1.5,1c0,.1,0,.3,.1,.4c-.7,.1,-1.2,.5,-1.2,1c0,.5,.6,.9,1.3,1c0,.1,-.1,.2,-.1,.3c0,.6,.7,1,1.6,1c.6,0,1.1,-.2,1.3,-.6c.2,.1,.5,.1,.7,.1c.8,0,1.5,-.4,1.5,-1c0,-.4,-.1,-.7,-.5,-.9Z" class="g0_258"/>
<path d="M221.8,121.8c.1,-.2,.2,-.5,.2,-.8c0,-.6,-.8,-1,-1.6,-1c-.1,0,-.3,0,-.4,.1c-.3,-.4,-.8,-.6,-1.4,-.6c-.8,0,-1.5,.5,-1.5,1c0,.1,0,.3,.1,.4c-.7,.1,-1.2,.5,-1.2,1c0,.5,.6,.9,1.3,1c0,.1,-.1,.2,-.1,.3c0,.6,.7,1,1.6,1c.6,0,1.1,-.2,1.3,-.6c.2,.1,.5,.1,.7,.1c.8,0,1.5,-.4,1.5,-1c0,-.4,-.1,-.7,-.5,-.9Z" class="g2_258"/>
<path d="M211.4,170.8c0,1.8,-1.7,3.3,-4.2,3.9c0,.2,.1,.4,.1,.5c0,3,-3.9,5.4,-8.6,5.4c-.2,0,-.3,0,-.5,0c-1.2,1.2,-3.3,2,-5.8,2c-.6,0,-1.3,-.1,-1.9,-.2c-1.6,1.2,-4,1.9,-6.6,1.9c-3.5,0,-6.5,-1.3,-7.9,-3.1c-.6,0,-1.2,.1,-1.9,.1c-4.7,0,-8.6,-2.4,-8.6,-5.4c0,-.3,.1,-.5,.1,-.8c-.1,0,-.3,0,-.4,0c-3.2,0,-5.9,-1.9,-5.9,-4.3c0,-2.2,2.3,-4.1,5.2,-4.3c0,-.1,0,-.3,0,-.4c0,-3,3.9,-5.4,8.8,-5.4c.6,0,1.3,0,1.9,.1c1.5,-1.6,4.3,-2.7,7.5,-2.7c2.6,0,4.9,.7,6.4,1.8c1.2,-.4,2.6,-.6,4,-.6c3.9,0,7.3,1.6,8.4,3.8c3.6,0,6.6,1.8,6.8,4.1c1.9,.8,3.1,2.1,3.1,3.6Z" class="g0_258"/>
<path d="M211.4,170.8c0,1.8,-1.7,3.3,-4.2,3.9c0,.2,.1,.4,.1,.5c0,3,-3.9,5.4,-8.6,5.4c-.2,0,-.3,0,-.5,0c-1.2,1.2,-3.3,2,-5.8,2c-.6,0,-1.3,-.1,-1.9,-.2c-1.6,1.2,-4,1.9,-6.6,1.9c-3.5,0,-6.5,-1.3,-7.9,-3.1c-.6,0,-1.2,.1,-1.9,.1c-4.7,0,-8.6,-2.4,-8.6,-5.4c0,-.3,.1,-.5,.1,-.8c-.1,0,-.3,0,-.4,0c-3.2,0,-5.9,-1.9,-5.9,-4.3c0,-2.2,2.3,-4.1,5.2,-4.3c0,-.1,0,-.3,0,-.4c0,-3,3.9,-5.4,8.8,-5.4c.6,0,1.3,0,1.9,.1c1.5,-1.6,4.3,-2.7,7.5,-2.7c2.6,0,4.9,.7,6.4,1.8c1.2,-.4,2.6,-.6,4,-.6c3.9,0,7.3,1.6,8.4,3.8c3.6,0,6.6,1.8,6.8,4.1c1.9,.8,3.1,2.1,3.1,3.6Z" class="g2_258"/>
<path d="M215.4,154.7c0,-1,-1.2,-1.8,-2.7,-1.8c-.1,0,-.3,0,-.4,0c0,0,0,-.1,0,-.2c0,-1,-1.1,-1.8,-2.6,-1.8c-.7,0,-1.3,.2,-1.8,.5c-.5,-.4,-1.2,-.7,-2,-.7c-1.5,0,-2.6,.8,-2.6,1.8c0,.1,0,.3,0,.4q-.1,0,-.2,0c-1.5,0,-2.7,.8,-2.7,1.8c0,.8,.7,1.4,1.6,1.7c-.1,.1,-.2,.3,-.2,.5c0,1,1.2,1.8,2.7,1.8c.4,0,.9,0,1.2,-.2c.5,.6,1.4,1.1,2.4,1.1c1.2,0,2.2,-.6,2.5,-1.3c.2,0,.5,0,.7,0c1.5,0,2.6,-.8,2.6,-1.8c0,0,0,-.1,0,-.2c.9,-.3,1.5,-.9,1.5,-1.6Z" class="g0_258"/>
<path d="M215.4,154.7c0,-1,-1.2,-1.8,-2.7,-1.8c-.1,0,-.3,0,-.4,0c0,0,0,-.1,0,-.2c0,-1,-1.1,-1.8,-2.6,-1.8c-.7,0,-1.3,.2,-1.8,.5c-.5,-.4,-1.2,-.7,-2,-.7c-1.5,0,-2.6,.8,-2.6,1.8c0,.1,0,.3,0,.4q-.1,0,-.2,0c-1.5,0,-2.7,.8,-2.7,1.8c0,.8,.7,1.4,1.6,1.7c-.1,.1,-.2,.3,-.2,.5c0,1,1.2,1.8,2.7,1.8c.4,0,.9,0,1.2,-.2c.5,.6,1.4,1.1,2.4,1.1c1.2,0,2.2,-.6,2.5,-1.3c.2,0,.5,0,.7,0c1.5,0,2.6,-.8,2.6,-1.8c0,0,0,-.1,0,-.2c.9,-.3,1.5,-.9,1.5,-1.6Z" class="g2_258"/>
<path d="M222.3,146c0,-.6,-.7,-1,-1.5,-1c-.2,0,-.5,0,-.7,.1c-.2,-.4,-.7,-.6,-1.3,-.6c-.9,0,-1.6,.4,-1.6,1c0,.1,.1,.2,.1,.3c-.7,.1,-1.3,.5,-1.3,1c0,.5,.5,1,1.2,1c-.1,.2,-.1,.3,-.1,.4c0,.6,.7,1,1.5,1c.6,0,1.1,-.2,1.4,-.5c.1,0,.3,0,.4,0c.8,0,1.6,-.4,1.6,-.9c0,-.4,-.1,-.7,-.2,-.9c.4,-.2,.5,-.5,.5,-.9Z" class="g0_258"/>
<path d="M222.3,146c0,-.6,-.7,-1,-1.5,-1c-.2,0,-.5,0,-.7,.1c-.2,-.4,-.7,-.6,-1.3,-.6c-.9,0,-1.6,.4,-1.6,1c0,.1,.1,.2,.1,.3c-.7,.1,-1.3,.5,-1.3,1c0,.5,.5,1,1.2,1c-.1,.2,-.1,.3,-.1,.4c0,.6,.7,1,1.5,1c.6,0,1.1,-.2,1.4,-.5c.1,0,.3,0,.4,0c.8,0,1.6,-.4,1.6,-.9c0,-.4,-.1,-.7,-.2,-.9c.4,-.2,.5,-.5,.5,-.9Zm45.9,-22.7H305v-6.6" class="g2_258"/>
<path d="M307.2,118.3L305,110l-2.3,8.3h4.5Z" class="g3_258"/>
<path d="M268.2,145.7H395.9v-29" class="g2_258"/>
<path d="M398.1,118.3L395.9,110l-2.3,8.3h4.5Z" class="g3_258"/>
</svg>