<?xml version="1.0" encoding="UTF-8" standalone="no"?>
<!DOCTYPE svg PUBLIC "-//W3C//DTD SVG 1.1//EN"
"http://www.w3.org/Graphics/SVG/1.1/DTD/svg11.dtd">
<svg viewBox="0 0 811 1017" version="1.1" xmlns="http://www.w3.org/2000/svg" xmlns:xlink="http://www.w3.org/1999/xlink">
<defs>
<clipPath id="c0_185"><path d="M326.6,306.3V273.4H541.8v32.9Z"/></clipPath>
<style type="text/css"><![CDATA[
.g0_185{
}
]]></style>
</defs>
<path d="M479.5,248.2v3.2l-.3,-.1l-6.3,-2.9l-.4,-.2l.4,-.1l6.3,-3l.3,-.1v.3l-.1,.2l-6.3,2.9l-.2,-.3h.2l6.3,2.8l-.2,.4l-.1,-.2v-2.9Z" class="g0_185"/>
<path d="M479.1,248.2h.4v-2.9h-.4v2.9Z" class="g0_185"/>
<path d="M479.5,248.4h23.1v-.3H479.5v.3Z" class="g0_185"/>
<path d="M502.2,248.2h.4V222.1h-.4v26.1Z" class="g0_185"/>
<path d="M341.5,278.5v3.2l-.2,-.1L335,278.7l-.3,-.2l.3,-.2l6.3,-2.9l.2,-.1v.4l-6.3,3l-.2,-.4h.2l6.3,2.9l-.2,.4l-.1,-.2v-2.9Z" class="g0_185"/>
<path d="M341.2,278.5h.4v-3h-.4v3Z" class="g0_185"/>
<path d="M341.5,278.7h22.6v-.4H341.5v.4Z" class="g0_185"/>
<g clip-path="url(#c0_185)">
<path d="M363.7,306.3h.4V278.5h-.4v27.8Z" class="g0_185"/>
</g>
</svg>