<?xml version="1.0" encoding="UTF-8" standalone="no"?>
<!DOCTYPE svg PUBLIC "-//W3C//DTD SVG 1.1//EN"
"http://www.w3.org/Graphics/SVG/1.1/DTD/svg11.dtd">
<svg viewBox="0 0 811 1017" version="1.1" xmlns="http://www.w3.org/2000/svg" xmlns:xlink="http://www.w3.org/1999/xlink">
<defs>
<style type="text/css"><![CDATA[
.g0_286{
fill: #FFFFFF;
}
.g1_286{
fill: none;
stroke: #000000;
stroke-width: 0.763;
stroke-linecap: butt;
stroke-linejoin: miter;
}
.g2_286{
}
]]></style>
</defs>
<path d="M284.9,614.7H158.1c-.9,0,-1.6,-.7,-1.6,-1.6V599.2c0,-.9,.7,-1.6,1.6,-1.6H284.9c.9,0,1.6,.7,1.6,1.6v13.9c0,.9,-.7,1.6,-1.6,1.6Z" class="g0_286"/>
<path d="M284.9,614.7H158.1c-.9,0,-1.6,-.7,-1.6,-1.6V599.2c0,-.9,.7,-1.6,1.6,-1.6H284.9c.9,0,1.6,.7,1.6,1.6v13.9c0,.9,-.7,1.6,-1.6,1.6Z" class="g1_286"/>
<path d="M519.9,614.7H334.4c-.8,0,-1.6,-.7,-1.6,-1.6V599.2c0,-.9,.8,-1.6,1.6,-1.6H519.9c.9,0,1.6,.7,1.6,1.6v13.9c0,.9,-.7,1.6,-1.6,1.6Z" class="g0_286"/>
<path d="M519.9,614.7H334.4c-.8,0,-1.6,-.7,-1.6,-1.6V599.2c0,-.9,.8,-1.6,1.6,-1.6H519.9c.9,0,1.6,.7,1.6,1.6v13.9c0,.9,-.7,1.6,-1.6,1.6ZM280,597.9V581.8h57.1v8.5" class="g1_286"/>
<path d="M334.9,588.8l2.2,8.3l2.2,-8.3h-4.4Z" class="g2_286"/>
<path d="M337.1,615v16.1H280v-8.7" class="g1_286"/>
<path d="M282.2,623.9L280,615.6l-2.3,8.3h4.5Z" class="g2_286"/>
</svg>