<?xml version="1.0" encoding="UTF-8" standalone="no"?>
<!DOCTYPE svg PUBLIC "-//W3C//DTD SVG 1.1//EN"
"http://www.w3.org/Graphics/SVG/1.1/DTD/svg11.dtd">
<svg viewBox="0 0 811 1017" version="1.1" xmlns="http://www.w3.org/2000/svg" xmlns:xlink="http://www.w3.org/1999/xlink">
<defs>
<clipPath id="c0_183"><path d="M439.4,711.3V677.4H710.8v33.9Z"/></clipPath>
<clipPath id="c1_183"><path d="M273.2,728V694.1H451V728Z"/></clipPath>
<style type="text/css"><![CDATA[
.g0_183{
fill: #F7F5E8;
}
.g1_183{
}
]]></style>
</defs>
<path d="M142.4,457.6H710.7V135.9H142.4V457.6Z" class="g0_183"/>
<path d="M142.4,936.6H710.7V812H142.4V936.6Z" class="g0_183"/>
<path d="M390.7,667.6v3.2l-.3,-.1l-6.3,-2.9l-.4,-.2l.4,-.2l6.3,-2.9l.3,-.1v.3l-.1,.2l-6.3,2.9l-.2,-.4h.2l6.3,3l-.2,.3l-.1,-.2v-2.9Z" class="g1_183"/>
<path d="M390.3,667.6h.4v-2.9h-.4v2.9Z" class="g1_183"/>
<path d="M390.7,667.8h23.1v-.4H390.7v.4Z" class="g1_183"/>
<path d="M413.4,667.6h.4v-26h-.4v26Z" class="g1_183"/>
<path d="M460.9,682.6v3.3l-.3,-.1l-6.2,-3l-.4,-.2l.4,-.1l6.2,-3l.3,-.1v.3l-.1,.2l-6.2,2.9l-.2,-.3h.2l6.2,2.9l-.2,.4l-.1,-.2v-3Z" class="g1_183"/>
<path d="M460.5,682.6h.4v-2.9h-.4v2.9Z" class="g1_183"/>
<path d="M461,682.8h72.1v-.3H461v.3Z" class="g1_183"/>
<g clip-path="url(#c0_183)">
<path d="M532.8,711.4h.3V682.6h-.3v28.8Z" class="g1_183"/>
</g>
<path d="M288.1,699.3v3.2l-.3,-.1l-6.3,-2.9l-.4,-.2l.4,-.2l6.3,-2.9l.3,-.1v.3l-.1,.2l-6.3,2.9l-.2,-.4h.2l6.3,3l-.2,.3l-.1,-.1v-3Z" class="g1_183"/>
<path d="M287.7,699.3h.4v-2.9h-.4v2.9Z" class="g1_183"/>
<path d="M288.1,699.5h22.6v-.4H288.1v.4Z" class="g1_183"/>
<g clip-path="url(#c1_183)">
<path d="M310.3,728.1h.4V699.3h-.4v28.8Z" class="g1_183"/>
</g>
</svg>