<?xml version="1.0" encoding="UTF-8" standalone="no"?>
<!DOCTYPE svg PUBLIC "-//W3C//DTD SVG 1.1//EN"
"http://www.w3.org/Graphics/SVG/1.1/DTD/svg11.dtd">
<svg viewBox="0 0 811 1017" version="1.1" xmlns="http://www.w3.org/2000/svg" xmlns:xlink="http://www.w3.org/1999/xlink">
<defs>
<style type="text/css"><![CDATA[
.g0_126{
fill: #F7F5E8;
}
.g1_126{
}
]]></style>
</defs>
<path d="M156.1,637.1H724.4V317.8H156.1V637.1Z" class="g0_126"/>
<path d="M627.3,87.5v3.2H627l-6.2,-3l-.4,-.2l.4,-.1l6.2,-3l.3,-.1v.3l-.1,.2l-6.3,2.9l-.1,-.3h.1l6.3,2.9l-.2,.4l-.1,-.2v-3Z" class="g1_126"/>
<path d="M626.9,87.5h.4V84.6h-.4v2.9Z" class="g1_126"/>
<path d="M627.3,87.7h22.5v-.3H627.3v.3Z" class="g1_126"/>
<path d="M649.5,127.8h.3V87.5h-.3v40.3Z" class="g1_126"/>
<path d="M496.1,258.9v3.2l-.3,-.1l-6.3,-3l-.4,-.1l.4,-.2l6.3,-3h.3v.2l-.1,.2l-6.3,2.9l-.2,-.3h.2l6.3,2.9l-.2,.4l-.1,-.2v-2.9Z" class="g1_126"/>
<path d="M495.7,258.9h.4v-3h-.4v3Z" class="g1_126"/>
<path d="M496.1,259h23.1v-.3H496.1v.3Z" class="g1_126"/>
<path d="M518.8,258.9h.4V232.8h-.4v26.1Z" class="g1_126"/>
</svg>