<?xml version="1.0" encoding="UTF-8" standalone="no"?>
<!DOCTYPE svg PUBLIC "-//W3C//DTD SVG 1.1//EN"
"http://www.w3.org/Graphics/SVG/1.1/DTD/svg11.dtd">
<svg viewBox="0 0 811 1017" version="1.1" xmlns="http://www.w3.org/2000/svg" xmlns:xlink="http://www.w3.org/1999/xlink">
<defs>
<style type="text/css"><![CDATA[
.g0_59{
fill: #70A6CC;
}
.g1_59{
}
.g2_59{
fill: #FFFFFF;
}
.g3_59{
fill: none;
stroke: #231F20;
stroke-width: 0.763;
stroke-linecap: butt;
stroke-linejoin: miter;
stroke-miterlimit: 4;
}
.g4_59{
fill: #C5E7F8;
}
.g5_59{
fill: #F7D3B3;
}
]]></style>
</defs>
<path d="M142.4,161.8H710.7V140.5H142.4v21.3Z" class="g0_59"/>
<path d="M142.4,746.6H710.7V724.8H142.4v21.8Z" class="g0_59"/>
<path d="M542.5,217.5v3.1l-.3,-.1L536,217.7l-.4,-.2l.4,-.2l6.2,-2.9l.3,-.1v.3l-.1,.2l-6.2,2.9l-.2,-.4h.2l6.2,2.9l-.2,.3l-.1,-.1v-2.9Z" class="g1_59"/>
<path d="M542.1,217.5h.4v-2.9h-.4v2.9Z" class="g1_59"/>
<path d="M542.5,217.7h23.2v-.4H542.5v.4Z" class="g1_59"/>
<path d="M565.3,217.5h.4V178.3h-.4v39.2Z" class="g1_59"/>
<path d="M522,232.5v3.2l-.2,-.1l-6.3,-3l-.3,-.1l.3,-.2l6.3,-3h.2v.4l-6.3,2.9l-.2,-.3h.2l6.3,2.9l-.2,.4l-.1,-.2v-2.9Z" class="g1_59"/>
<path d="M521.7,232.5h.3v-3h-.3v3Z" class="g1_59"/>
<path d="M522,232.7h22.6v-.4H522v.4Z" class="g1_59"/>
<path d="M544.2,272.3h.4V232.5h-.4v39.8Z" class="g1_59"/>
<path d="M544,453.6H708.6v-153H544v153Z" class="g2_59"/>
<path d="M642.4,312.2L568.6,441.9m41.5,-64.8l37,64.8M645.4,312.2l37.1,64.9" class="g3_59"/>
<path d="M671.2,316.8c0,8.7,-12.2,15.8,-27.3,15.8c-15.1,0,-27.3,-7.1,-27.3,-15.8c0,-8.7,12.2,-15.8,27.3,-15.8c15.1,0,27.3,7.1,27.3,15.8Z" class="g4_59"/>
<path d="M671.2,316.8c0,8.7,-12.2,15.8,-27.3,15.8c-15.1,0,-27.3,-7.1,-27.3,-15.8c0,-8.7,12.2,-15.8,27.3,-15.8c15.1,0,27.3,7.1,27.3,15.8Z" class="g3_59"/>
<path d="M635.8,377.1c0,8.7,-12.2,15.8,-27.3,15.8c-15,0,-27.2,-7.1,-27.2,-15.8c0,-8.7,12.2,-15.8,27.2,-15.8c15.1,0,27.3,7.1,27.3,15.8Z" class="g4_59"/>
<path d="M635.8,377.1c0,8.7,-12.2,15.8,-27.3,15.8c-15,0,-27.2,-7.1,-27.2,-15.8c0,-8.7,12.2,-15.8,27.2,-15.8c15.1,0,27.3,7.1,27.3,15.8Z" class="g3_59"/>
<path d="M598.9,437.4c0,8.7,-12.2,15.8,-27.2,15.8c-15.1,0,-27.3,-7.1,-27.3,-15.8c0,-8.8,12.2,-15.8,27.3,-15.8c15,0,27.2,7,27.2,15.8Z" class="g5_59"/>
<path d="M598.9,437.4c0,8.7,-12.2,15.8,-27.2,15.8c-15.1,0,-27.3,-7.1,-27.3,-15.8c0,-8.8,12.2,-15.8,27.3,-15.8c15,0,27.2,7,27.2,15.8Z" class="g3_59"/>
<path d="M708.2,377.1c0,8.7,-12.2,15.8,-27.3,15.8c-15,0,-27.2,-7.1,-27.2,-15.8c0,-8.7,12.2,-15.8,27.2,-15.8c15.1,0,27.3,7.1,27.3,15.8Z" class="g5_59"/>
<path d="M708.2,377.1c0,8.7,-12.2,15.8,-27.3,15.8c-15,0,-27.2,-7.1,-27.2,-15.8c0,-8.7,12.2,-15.8,27.2,-15.8c15.1,0,27.3,7.1,27.3,15.8Z" class="g3_59"/>
<path d="M671.3,437.4c0,8.7,-12.2,15.8,-27.2,15.8c-15.1,0,-27.3,-7.1,-27.3,-15.8c0,-8.8,12.2,-15.8,27.3,-15.8c15,0,27.2,7,27.2,15.8Z" class="g5_59"/>
<path d="M671.3,437.4c0,8.7,-12.2,15.8,-27.2,15.8c-15.1,0,-27.3,-7.1,-27.3,-15.8c0,-8.8,12.2,-15.8,27.3,-15.8c15,0,27.2,7,27.2,15.8Z" class="g3_59"/>
<path d="M457.5,796.2v3.2l-.3,-.1l-6.3,-2.9l-.4,-.2l.4,-.2l6.3,-2.9l.3,-.1v.3l-.1,.2l-6.3,2.9l-.2,-.4h.2l6.3,3l-.2,.3l-.1,-.1v-3Z" class="g1_59"/>
<path d="M457.1,796.2h.4v-2.9h-.4v2.9Z" class="g1_59"/>
<path d="M457.5,796.4h23.1V796H457.5v.4Z" class="g1_59"/>
<path d="M480.2,796.2h.4v-26h-.4v26Z" class="g1_59"/>
<path d="M504.3,857.4v3.2l-.3,-.1l-6.3,-3l-.3,-.1l.3,-.2l6.3,-3h.3v.2l-.1,.2l-6.3,2.9l-.2,-.3h.2l6.3,2.9l-.2,.4l-.1,-.2v-2.9Z" class="g1_59"/>
<path d="M503.9,857.4h.4v-3h-.4v3Z" class="g1_59"/>
<path d="M504.3,857.5h23.1v-.3H504.3v.3Z" class="g1_59"/>
<path d="M527.1,857.4h.4V831.3h-.4v26.1Z" class="g1_59"/>
</svg>