<?xml version="1.0" encoding="UTF-8" standalone="no"?>
<!DOCTYPE svg PUBLIC "-//W3C//DTD SVG 1.1//EN"
"http://www.w3.org/Graphics/SVG/1.1/DTD/svg11.dtd">
<svg viewBox="0 0 811 1017" version="1.1" xmlns="http://www.w3.org/2000/svg" xmlns:xlink="http://www.w3.org/1999/xlink">
<defs>
<clipPath id="c0_36"><path d="M509.4,114.9V82.5H708.5v32.4Z"/></clipPath>
<clipPath id="c1_36"><path d="M509.4,191.7V158.8H724.5v32.9Z"/></clipPath>
<clipPath id="c2_36"><path d="M433.2,268V235.1H648.3V268Z"/></clipPath>
<style type="text/css"><![CDATA[
.g0_36{
}
]]></style>
</defs>
<path d="M524.3,87.6v3.2l-.2,-.1l-6.3,-2.9l-.3,-.2l.3,-.2l6.3,-2.9l.2,-.1v.3l-.1,.2L518,87.8l-.2,-.4h.2l6.2,3l-.1,.3l-.1,-.1v-3Z" class="g0_36"/>
<path d="M524,87.6h.3V84.7H524v2.9Z" class="g0_36"/>
<path d="M524.3,87.8h22.6v-.4H524.3v.4Z" class="g0_36"/>
<g clip-path="url(#c0_36)">
<path d="M546.5,114.9h.4V87.6h-.4v27.3Z" class="g0_36"/>
</g>
<path d="M524.3,163.9v3.2l-.2,-.1l-6.3,-2.9l-.3,-.2l.3,-.2l6.3,-2.9l.2,-.1v.3l-.1,.2l-6.2,2.9l-.2,-.4h.2l6.2,3l-.1,.3l-.1,-.2v-2.9Z" class="g0_36"/>
<path d="M524,163.9h.3V161H524v2.9Z" class="g0_36"/>
<path d="M524.3,164.1h22.6v-.4H524.3v.4Z" class="g0_36"/>
<g clip-path="url(#c1_36)">
<path d="M546.5,191.7h.4V163.9h-.4v27.8Z" class="g0_36"/>
</g>
<path d="M448.2,240.3v3.2l-.3,-.1l-6.3,-3l-.4,-.1l.4,-.2l6.3,-3h.3v.2l-.1,.2l-6.4,2.9l-.1,-.3h.1l6.4,2.9l-.2,.4l-.1,-.2v-2.9Z" class="g0_36"/>
<path d="M447.8,240.3h.4v-3h-.4v3Z" class="g0_36"/>
<path d="M448.2,240.4h22.5v-.3H448.2v.3Z" class="g0_36"/>
<g clip-path="url(#c2_36)">
<path d="M470.3,268.1h.4V240.3h-.4v27.8Z" class="g0_36"/>
</g>
<path d="M156.4,753.7v-3.2l.3,.1l6.3,2.9l.3,.2l-.3,.2l-6.3,2.9l-.3,.1v-.3l.1,-.2l6.3,-2.9l.2,.4h-.2l-6.3,-3l.2,-.3v3.1Z" class="g0_36"/>
<path d="M156.4,756.6h.3v-2.9h-.3v2.9Z" class="g0_36"/>
<path d="M136.7,753.9h19.7v-.4H136.7v.4Z" class="g0_36"/>
<path d="M136.7,793.7h.3v-40h-.3v40Z" class="g0_36"/>
<path d="M490.3,769.2v3.2l-.2,-.1l-6.3,-2.9l-.3,-.2l.3,-.2l6.3,-2.9l.2,-.1v.2l-.1,.2l-6.2,3l-.2,-.4h.2l6.2,2.9l-.1,.4l-.1,-.2v-2.9Z" class="g0_36"/>
<path d="M490,769.2h.3v-3H490v3Z" class="g0_36"/>
<path d="M490.3,769.4h23.2V769H490.3v.4Z" class="g0_36"/>
<path d="M513.2,769.2h.3V731h-.3v38.2Z" class="g0_36"/>
<path d="M540.6,784.2v3.2l-.3,-.1l-6.2,-2.9l-.4,-.2l.4,-.2l6.2,-2.9l.3,-.1v.3l-.1,.2l-6.3,2.9l-.1,-.4h.1l6.3,3l-.2,.3l-.1,-.2v-2.9Z" class="g0_36"/>
<path d="M540.2,784.2h.4v-2.9h-.4v2.9Z" class="g0_36"/>
<path d="M540.6,784.4h22.5V784H540.6v.4Z" class="g0_36"/>
<path d="M562.7,811.1h.4V784.2h-.4v26.9Z" class="g0_36"/>
</svg>