<?xml version="1.0" encoding="UTF-8" standalone="no"?>
<!DOCTYPE svg PUBLIC "-//W3C//DTD SVG 1.1//EN"
"http://www.w3.org/Graphics/SVG/1.1/DTD/svg11.dtd">
<svg viewBox="0 0 811 1017" version="1.1" xmlns="http://www.w3.org/2000/svg" xmlns:xlink="http://www.w3.org/1999/xlink">
<defs>
<style type="text/css"><![CDATA[
.g0_56{
fill: #70A6CC;
}
.g1_56{
}
]]></style>
</defs>
<path d="M156.1,420.6H724.4V398.8H156.1v21.8Z" class="g0_56"/>
<path d="M156.1,787.7H724.4V765.9H156.1v21.8Z" class="g0_56"/>
<path d="M503.3,439.9v3.2l-.2,-.1l-6.3,-2.9l-.3,-.2l.3,-.2l6.3,-2.8l.2,-.1v.3l-.1,.2l-6.2,2.8l-.2,-.4h.2l6.2,3l-.1,.3l-.1,-.2v-2.9Z" class="g1_56"/>
<path d="M503,439.9h.3v-2.8H503v2.8Z" class="g1_56"/>
<path d="M503.3,440.1h92.4v-.4H503.3v.4Z" class="g1_56"/>
<path d="M595.4,466h.3V439.9h-.3V466Z" class="g1_56"/>
<path d="M421.2,454.7v3.2l-.3,-.1l-6.2,-2.9l-.4,-.2l.4,-.2l6.2,-2.9l.3,-.1v.2l-.1,.2l-6.2,3l-.2,-.4h.2l6.2,2.9l-.2,.4l-.1,-.2v-2.9Z" class="g1_56"/>
<path d="M420.8,454.7h.4v-3h-.4v3Z" class="g1_56"/>
<path d="M421.2,454.9h22.6v-.4H421.2v.4Z" class="g1_56"/>
<path d="M443.4,512.7h.4v-58h-.4v58Z" class="g1_56"/>
</svg>