<?xml version="1.0" encoding="UTF-8" standalone="no"?>
<!DOCTYPE svg PUBLIC "-//W3C//DTD SVG 1.1//EN"
"http://www.w3.org/Graphics/SVG/1.1/DTD/svg11.dtd">
<svg viewBox="0 0 811 1017" version="1.1" xmlns="http://www.w3.org/2000/svg" xmlns:xlink="http://www.w3.org/1999/xlink">
<defs>
<clipPath id="c0_326"><path d="M509.4,795V762.1H724.5V795Z"/></clipPath>
<clipPath id="c1_326"><path d="M509.4,886.7V853.8H724.5v32.9Z"/></clipPath>
<style type="text/css"><![CDATA[
.g0_326{
fill: #70A6CC;
}
.g1_326{
}
]]></style>
</defs>
<path d="M156.1,101.8H724.4V80.6H156.1v21.2Z" class="g0_326"/>
<path d="M156.1,733.2H724.4V711.4H156.1v21.8Z" class="g0_326"/>
<path d="M524.3,767.3v3.3l-.2,-.1l-6.3,-3l-.3,-.2l.3,-.1l6.3,-3l.2,-.1v.3l-.1,.2l-6.2,2.9l-.2,-.3h.2l6.2,2.9l-.1,.4l-.1,-.2v-3Z" class="g1_326"/>
<path d="M524,767.3h.3v-2.9H524v2.9Z" class="g1_326"/>
<path d="M524.3,767.5h22.6v-.3H524.3v.3Z" class="g1_326"/>
<g clip-path="url(#c0_326)">
<path d="M546.5,795.1h.4V767.3h-.4v27.8Z" class="g1_326"/>
</g>
<path d="M524.3,859v3.2l-.2,-.1l-6.3,-2.9l-.3,-.2l.3,-.2l6.3,-2.9l.2,-.1v.3l-.1,.2l-6.2,2.9l-.2,-.4h.2l6.2,3l-.1,.3l-.1,-.2V859Z" class="g1_326"/>
<path d="M524,859h.3v-2.9H524V859Z" class="g1_326"/>
<path d="M524.3,859.2h22.6v-.4H524.3v.4Z" class="g1_326"/>
<g clip-path="url(#c1_326)">
<path d="M546.5,886.7h.4V859h-.4v27.7Z" class="g1_326"/>
</g>
</svg>