<?xml version="1.0" encoding="UTF-8" standalone="no"?>
<!DOCTYPE svg PUBLIC "-//W3C//DTD SVG 1.1//EN"
"http://www.w3.org/Graphics/SVG/1.1/DTD/svg11.dtd">
<svg viewBox="0 0 811 1017" version="1.1" xmlns="http://www.w3.org/2000/svg" xmlns:xlink="http://www.w3.org/1999/xlink">
<defs>
<style type="text/css"><![CDATA[
.g0_73{
fill: #70A6CC;
}
.g1_73{
}
]]></style>
</defs>
<path d="M142.4,666.6H710.7V644.7H142.4v21.9Z" class="g0_73"/>
<path d="M377.4,370.7v3.2l-.3,-.1l-6.2,-2.9l-.4,-.2l.4,-.2l6.2,-2.8l.3,-.1v.3l-.1,.1l-6.2,2.9l-.2,-.4h.2l6.2,3l-.2,.3l-.1,-.2v-2.9Z" class="g1_73"/>
<path d="M377,370.7h.4v-2.8H377v2.8Z" class="g1_73"/>
<path d="M377.5,370.9h27.4v-.4H377.5v.4Z" class="g1_73"/>
<path d="M404.5,370.7h.4v-.6h-.4v.6Z" class="g1_73"/>
<path d="M528.9,829.2v3.2l-.3,-.1l-6.3,-2.9l-.3,-.2l.3,-.2l6.3,-2.9l.3,-.1v.3l-.1,.2l-6.3,2.9l-.2,-.4h.2l6.3,3l-.2,.3v-3.1Z" class="g1_73"/>
<path d="M528.5,829.2h.4v-2.9h-.4v2.9Z" class="g1_73"/>
<path d="M528.9,829.4h27.4V829H528.9v.4Z" class="g1_73"/>
<path d="M556,855.3h.3V829.2H556v26.1Z" class="g1_73"/>
</svg>