<?xml version="1.0" encoding="UTF-8" standalone="no"?>
<!DOCTYPE svg PUBLIC "-//W3C//DTD SVG 1.1//EN"
"http://www.w3.org/Graphics/SVG/1.1/DTD/svg11.dtd">
<svg viewBox="0 0 811 1017" version="1.1" xmlns="http://www.w3.org/2000/svg" xmlns:xlink="http://www.w3.org/1999/xlink">
<defs>
<clipPath id="c0_332"><path d="M445.4,552.1v-33H660.6v33Z"/></clipPath>
<clipPath id="c1_332"><path d="M476,597.9v-33H691.1v33Z"/></clipPath>
<clipPath id="c2_332"><path d="M476,643.8v-33H691.1v33Z"/></clipPath>
<style type="text/css"><![CDATA[
.g0_332{
fill: #70A6CC;
}
.g1_332{
}
]]></style>
</defs>
<path d="M156.1,490.2H724.4V469.1H156.1v21.1Z" class="g0_332"/>
<path d="M460.4,524.3v3.2h-.3l-6.3,-3l-.3,-.2l.3,-.1l6.3,-3l.3,-.1v.3l-.1,.2l-6.3,2.9l-.2,-.3h.2l6.3,2.9l-.2,.4l-.1,-.2v-3Z" class="g1_332"/>
<path d="M460,524.3h.4v-2.9H460v2.9Z" class="g1_332"/>
<path d="M460.4,524.5h22.5v-.3H460.4v.3Z" class="g1_332"/>
<g clip-path="url(#c0_332)">
<path d="M482.5,552.2h.4V524.3h-.4v27.9Z" class="g1_332"/>
</g>
<path d="M491,570.2v3.2l-.3,-.1l-6.3,-2.9l-.4,-.2l.4,-.2l6.3,-2.9l.3,-.1v.2l-.1,.2l-6.4,3l-.1,-.4h.1l6.4,2.9l-.2,.4l-.1,-.2v-2.9Z" class="g1_332"/>
<path d="M490.6,570.2h.4v-3h-.4v3Z" class="g1_332"/>
<path d="M491,570.4h22.5V570H491v.4Z" class="g1_332"/>
<g clip-path="url(#c1_332)">
<path d="M513.2,598h.3V570.2h-.3V598Z" class="g1_332"/>
</g>
<path d="M491,616v3.2l-.3,-.1l-6.3,-2.9L484,616l.4,-.2l6.3,-2.9l.3,-.1v.3l-.1,.2l-6.4,2.9l-.1,-.4h.1l6.4,3l-.2,.3l-.1,-.2V616Z" class="g1_332"/>
<path d="M490.6,616h.4v-2.9h-.4V616Z" class="g1_332"/>
<path d="M491,616.2h22.5v-.4H491v.4Z" class="g1_332"/>
<g clip-path="url(#c2_332)">
<path d="M513.2,643.8h.3V616h-.3v27.8Z" class="g1_332"/>
</g>
</svg>