<?xml version="1.0" encoding="UTF-8" standalone="no"?>
<!DOCTYPE svg PUBLIC "-//W3C//DTD SVG 1.1//EN"
"http://www.w3.org/Graphics/SVG/1.1/DTD/svg11.dtd">
<svg viewBox="0 0 811 1017" version="1.1" xmlns="http://www.w3.org/2000/svg" xmlns:xlink="http://www.w3.org/1999/xlink">
<defs>
<clipPath id="c0_55"><path d="M495.6,839.1V806.2H710.8v32.9Z"/></clipPath>
<style type="text/css"><![CDATA[
.g0_55{
fill: #70A6CC;
}
.g1_55{
}
]]></style>
</defs>
<path d="M142.4,420H710.7V398.8H142.4V420Z" class="g0_55"/>
<path d="M142.4,676.5H710.7V655.2H142.4v21.3Z" class="g0_55"/>
<path d="M542.5,720v3.2l-.3,-.1l-6.2,-3l-.4,-.1l.4,-.2l6.2,-3l.3,-.1v.3l-.1,.2l-6.2,2.9l-.2,-.3h.2l6.2,2.9l-.2,.4l-.1,-.2V720Z" class="g1_55"/>
<path d="M542.1,720h.4v-3h-.4v3Z" class="g1_55"/>
<path d="M542.5,720.1h23.2v-.3H542.5v.3Z" class="g1_55"/>
<path d="M565.3,720h.4V693.9h-.4V720Z" class="g1_55"/>
<path d="M146,750.3v-3.2l.3,.1l6.2,2.9l.4,.2l-.4,.2l-6.2,2.9l-.3,.1v-.3l.1,-.2l6.3,-2.9l.1,.4h-.1l-6.3,-3l.2,-.3l.1,.2v2.9Z" class="g1_55"/>
<path d="M146,753.2h.4v-2.9H146v2.9Z" class="g1_55"/>
<path d="M126.3,750.5h19.6v-.4H126.3v.4Z" class="g1_55"/>
<path d="M126.3,831.7h.4V750.3h-.4v81.4Z" class="g1_55"/>
<path d="M581.6,781.1v3.2l-.2,-.1l-6.3,-2.9l-.3,-.2l.3,-.2l6.3,-2.9l.2,-.1v.3l-.1,.1l-6.2,3l-.2,-.4h.2l6.2,2.9l-.1,.4l-.1,-.2v-2.9Z" class="g1_55"/>
<path d="M581.3,781.1h.3v-2.9h-.3v2.9Z" class="g1_55"/>
<path d="M581.6,781.3h23.2v-.4H581.6v.4Z" class="g1_55"/>
<path d="M604.5,781.1h.3v-26h-.3v26Z" class="g1_55"/>
<path d="M510.6,811.4v3.2l-.3,-.1l-6.2,-2.9l-.4,-.2l.4,-.1l6.2,-3l.3,-.1v.3l-.1,.2l-6.2,2.9l-.2,-.3h.2l6.2,2.9l-.2,.3l-.1,-.1v-3Z" class="g1_55"/>
<path d="M510.2,811.4h.4v-2.9h-.4v2.9Z" class="g1_55"/>
<path d="M510.6,811.6h22.5v-.3H510.6v.3Z" class="g1_55"/>
<g clip-path="url(#c0_55)">
<path d="M532.8,839.2h.3V811.4h-.3v27.8Z" class="g1_55"/>
</g>
</svg>