<?xml version="1.0" encoding="UTF-8" standalone="no"?>
<!DOCTYPE svg PUBLIC "-//W3C//DTD SVG 1.1//EN"
"http://www.w3.org/Graphics/SVG/1.1/DTD/svg11.dtd">
<svg viewBox="0 0 811 1017" version="1.1" xmlns="http://www.w3.org/2000/svg" xmlns:xlink="http://www.w3.org/1999/xlink">
<defs>
<style type="text/css"><![CDATA[
.g0_132{
fill: #70A6CC;
}
.g1_132{
}
]]></style>
</defs>
<path d="M156.1,442.9H724.4V421.7H156.1v21.2Z" class="g0_132"/>
<path d="M156.1,804.8H724.4V783.6H156.1v21.2Z" class="g0_132"/>
<path d="M163.1,476.9v-3.2l.2,.1l6.4,3l.3,.1l-.3,.2l-6.4,3l-.2,.1v-.3l.1,-.2l6.3,-2.9l.2,.3h-.2l-6.3,-2.9l.1,-.4l.1,.2v2.9Z" class="g1_132"/>
<path d="M163.1,479.9h.3v-3h-.3v3Z" class="g1_132"/>
<path d="M143.4,477.1h19.7v-.3H143.4v.3Z" class="g1_132"/>
<path d="M143.4,503.5h.3V476.9h-.3v26.6Z" class="g1_132"/>
<path d="M475.3,492.5v3.2l-.3,-.1l-6.2,-2.9l-.4,-.2l.4,-.2l6.2,-2.9l.3,-.1v.3l-.1,.2l-6.2,2.9l-.2,-.4h.2l6.2,3l-.2,.3l-.1,-.1v-3Z" class="g1_132"/>
<path d="M474.9,492.5h.4v-2.9h-.4v2.9Z" class="g1_132"/>
<path d="M475.3,492.7h23.2v-.4H475.3v.4Z" class="g1_132"/>
<path d="M498.1,492.5h.4V466.1h-.4v26.4Z" class="g1_132"/>
<path d="M457.5,522.8V526l-.3,-.1L450.9,523l-.4,-.2l.4,-.2l6.3,-2.9l.3,-.1v.2l-.1,.2l-6.3,3l-.2,-.4h.2l6.3,2.9l-.2,.4l-.1,-.2v-2.9Z" class="g1_132"/>
<path d="M457.1,522.8h.4v-3h-.4v3Z" class="g1_132"/>
<path d="M457.5,523h22.6v-.4H457.5v.4Z" class="g1_132"/>
<path d="M479.7,563.1h.4V522.8h-.4v40.3Z" class="g1_132"/>
<path d="M573,838.9v3.2h-.3l-6.2,-3l-.4,-.2l.4,-.1l6.2,-3l.3,-.1v.3l-.1,.2l-6.2,2.9l-.2,-.3h.2l6.2,2.9l-.2,.4l-.1,-.2v-3Z" class="g1_132"/>
<path d="M572.6,838.9h.4V836h-.4v2.9Z" class="g1_132"/>
<path d="M573.1,839.1h22.6v-.3H573.1v.3Z" class="g1_132"/>
<path d="M595.3,865.8h.4V838.9h-.4v26.9Z" class="g1_132"/>
</svg>