<?xml version="1.0" encoding="UTF-8" standalone="no"?>
<!DOCTYPE svg PUBLIC "-//W3C//DTD SVG 1.1//EN"
"http://www.w3.org/Graphics/SVG/1.1/DTD/svg11.dtd">
<svg viewBox="0 0 811 1017" version="1.1" xmlns="http://www.w3.org/2000/svg" xmlns:xlink="http://www.w3.org/1999/xlink">
<defs>
<style type="text/css"><![CDATA[
.g0_205{
fill: #FFFFFF;
}
.g1_205{
fill: none;
stroke: #231F20;
stroke-width: 0.763;
stroke-linecap: butt;
stroke-linejoin: miter;
}
.g2_205{
fill: #231F20;
}
.g3_205{
}
]]></style>
</defs>
<path d="M559.6,282h-49c-.9,0,-1.6,-.7,-1.6,-1.6V266.5c0,-.9,.7,-1.6,1.6,-1.6h49c.9,0,1.6,.7,1.6,1.6v13.9c0,.9,-.7,1.6,-1.6,1.6Z" class="g0_205"/>
<path d="M559.6,282h-49c-.9,0,-1.6,-.7,-1.6,-1.6V266.5c0,-.9,.7,-1.6,1.6,-1.6h49c.9,0,1.6,.7,1.6,1.6v13.9c0,.9,-.7,1.6,-1.6,1.6Z" class="g1_205"/>
<path d="M708.5,271.1H606.6c-.9,0,-1.6,-.7,-1.6,-1.6V255.6c0,-.9,.7,-1.6,1.6,-1.6H708.5c.9,0,1.6,.7,1.6,1.6v13.9c0,.9,-.7,1.6,-1.6,1.6Z" class="g0_205"/>
<path d="M708.5,271.1H606.6c-.9,0,-1.6,-.7,-1.6,-1.6V255.6c0,-.9,.7,-1.6,1.6,-1.6H708.5c.9,0,1.6,.7,1.6,1.6v13.9c0,.9,-.7,1.6,-1.6,1.6Z" class="g1_205"/>
<path d="M561.1,273.2l43.2,-10.8Z" class="g0_205"/>
<path d="M561.1,273.2l36.6,-9.1" class="g1_205"/>
<path d="M596.8,266.6l7.5,-4.2l-8.6,-.1l1.1,4.3Z" class="g2_205"/>
<path d="M708.5,292.7H606.6c-.9,0,-1.6,-.7,-1.6,-1.6V277.2c0,-.9,.7,-1.6,1.6,-1.6H708.5c.9,0,1.6,.7,1.6,1.6v13.9c0,.9,-.7,1.6,-1.6,1.6Z" class="g0_205"/>
<path d="M708.5,292.7H606.6c-.9,0,-1.6,-.7,-1.6,-1.6V277.2c0,-.9,.7,-1.6,1.6,-1.6H708.5c.9,0,1.6,.7,1.6,1.6v13.9c0,.9,-.7,1.6,-1.6,1.6Z" class="g1_205"/>
<path d="M561.1,273.2L604.3,284Z" class="g0_205"/>
<path d="M561.1,273.2l36.6,9.2" class="g1_205"/>
<path d="M595.7,284.2l8.6,-.2l-7.5,-4.1l-1.1,4.3Z" class="g2_205"/>
<path d="M434.8,659.8V663l-.3,-.1L428.2,660l-.4,-.2l.4,-.2l6.3,-2.9l.3,-.1v.3l-.1,.2l-6.3,2.9l-.2,-.4h.2l6.3,3l-.2,.3l-.1,-.1v-3Z" class="g3_205"/>
<path d="M434.4,659.8h.4v-2.9h-.4v2.9Z" class="g3_205"/>
<path d="M434.8,660h27.4v-.4H434.8v.4Z" class="g3_205"/>
<path d="M461.8,659.8h.4V647.4h-.4v12.4Z" class="g3_205"/>
<path d="M479.6,674.2v3.2l-.3,-.1L473,674.4l-.4,-.2l.4,-.2l6.3,-2.9l.3,-.1v.3l-.1,.2l-6.3,2.9L473,674h.2l6.3,3l-.2,.3l-.1,-.2v-2.9Z" class="g3_205"/>
<path d="M479.2,674.2h.4v-2.9h-.4v2.9Z" class="g3_205"/>
<path d="M479.6,674.4h22.6V674H479.6v.4Z" class="g3_205"/>
<path d="M501.8,716h.3V674.2h-.3V716Z" class="g3_205"/>
</svg>