<?xml version="1.0" encoding="UTF-8" standalone="no"?>
<!DOCTYPE svg PUBLIC "-//W3C//DTD SVG 1.1//EN"
"http://www.w3.org/Graphics/SVG/1.1/DTD/svg11.dtd">
<svg viewBox="0 0 811 1017" version="1.1" xmlns="http://www.w3.org/2000/svg" xmlns:xlink="http://www.w3.org/1999/xlink">
<defs>
<clipPath id="c0_263"><path d="M495.6,253.5V220.6H710.8v32.9Z"/></clipPath>
<style type="text/css"><![CDATA[
.g0_263{
fill: #F7F5E8;
}
.g1_263{
}
]]></style>
</defs>
<path d="M142.4,309.4H710.7V82.5H142.4V309.4Z" class="g0_263"/>
<path d="M491.9,210.7v3.2h-.3l-6.3,-3l-.4,-.2l.4,-.1l6.3,-3l.3,-.1v.3l-.1,.2l-6.3,2.9l-.2,-.3h.2l6.3,2.9l-.2,.4l-.1,-.2v-3Z" class="g1_263"/>
<path d="M491.5,210.7h.4v-2.9h-.4v2.9Z" class="g1_263"/>
<path d="M491.9,210.9H515v-.3H491.9v.3Z" class="g1_263"/>
<path d="M514.6,210.7h.4v-26h-.4v26Z" class="g1_263"/>
<path d="M510.6,225.8V229l-.3,-.1L504.1,226l-.4,-.2l.4,-.2l6.2,-2.9l.3,-.1v.2l-.1,.2l-6.2,3l-.2,-.4h.2l6.2,2.9l-.2,.4l-.1,-.2v-2.9Z" class="g1_263"/>
<path d="M510.2,225.8h.4v-3h-.4v3Z" class="g1_263"/>
<path d="M510.6,226h22.5v-.4H510.6v.4Z" class="g1_263"/>
<g clip-path="url(#c0_263)">
<path d="M532.8,253.6h.3V225.8h-.3v27.8Z" class="g1_263"/>
</g>
<path d="M417.4,287.2v3.1l-.3,-.1l-6.3,-2.8l-.3,-.2l.3,-.2l6.3,-2.9l.3,-.1v.3l-.1,.1l-6.3,3l-.2,-.4h.2l6.3,2.9l-.2,.3L417,290v-2.8Z" class="g1_263"/>
<path d="M417,287.2h.4v-2.9H417v2.9Z" class="g1_263"/>
<path d="M417.4,287.4h23.1V287H417.4v.4Z" class="g1_263"/>
<path d="M440.2,287.2h.4V261.1h-.4v26.1Z" class="g1_263"/>
</svg>