<?xml version="1.0" encoding="UTF-8" standalone="no"?>
<!DOCTYPE svg PUBLIC "-//W3C//DTD SVG 1.1//EN"
"http://www.w3.org/Graphics/SVG/1.1/DTD/svg11.dtd">
<svg viewBox="0 0 811 1017" version="1.1" xmlns="http://www.w3.org/2000/svg" xmlns:xlink="http://www.w3.org/1999/xlink">
<defs>
<style type="text/css"><![CDATA[
.g0_323{
fill: #70A6CC;
}
.g1_323{
}
]]></style>
</defs>
<path d="M142.4,239.7H710.7V218.4H142.4v21.3Z" class="g0_323"/>
<path d="M142.4,869.3H710.7V848.1H142.4v21.2Z" class="g0_323"/>
<path d="M364.5,288.8V292l-.3,-.1l-6.2,-3l-.4,-.1l.4,-.2l6.2,-3l.3,-.1v.3l-.1,.2l-6.3,2.9l-.1,-.3h.1l6.3,2.9l-.2,.4l-.1,-.2v-2.9Z" class="g1_323"/>
<path d="M364.1,288.8h.4v-3h-.4v3Z" class="g1_323"/>
<path d="M364.5,288.9H387v-.3H364.5v.3Z" class="g1_323"/>
<path d="M386.7,330.5h.3V288.8h-.3v41.7Z" class="g1_323"/>
</svg>