<?xml version="1.0" encoding="UTF-8" standalone="no"?>
<!DOCTYPE svg PUBLIC "-//W3C//DTD SVG 1.1//EN"
"http://www.w3.org/Graphics/SVG/1.1/DTD/svg11.dtd">
<svg viewBox="0 0 811 1017" version="1.1" xmlns="http://www.w3.org/2000/svg" xmlns:xlink="http://www.w3.org/1999/xlink">
<defs>
<clipPath id="c0_254"><path d="M491.2,185.5V152.6H755.1v32.9Z"/></clipPath>
<clipPath id="c1_254"><path d="M449.3,231.4V198.5H713.1v32.9Z"/></clipPath>
<style type="text/css"><![CDATA[
.g0_254{
}
]]></style>
</defs>
<path d="M506.2,157.8V161l-.3,-.1l-6.2,-3l-.4,-.1l.4,-.2l6.2,-3h.3v.2l-.1,.2l-6.2,2.9l-.2,-.3h.2l6.2,2.9l-.2,.4l-.1,-.2v-2.9Z" class="g0_254"/>
<path d="M505.8,157.8h.4v-3h-.4v3Z" class="g0_254"/>
<path d="M506.2,157.9h22.5v-.3H506.2v.3Z" class="g0_254"/>
<g clip-path="url(#c0_254)">
<path d="M528.4,185.6h.3V157.8h-.3v27.8Z" class="g0_254"/>
</g>
<path d="M165.5,173.1v-3.2l.2,.1l6.4,2.9l.3,.2l-.3,.2l-6.4,2.9l-.2,.1V176l.1,-.2l6.3,-2.9l.2,.4h-.2l-6.3,-3l.1,-.3l.1,.1v3Z" class="g0_254"/>
<path d="M165.5,176h.3v-2.9h-.3V176Z" class="g0_254"/>
<path d="M145.8,173.3h19.7v-.4H145.8v.4Z" class="g0_254"/>
<path d="M145.8,211.6h.3V173.1h-.3v38.5Z" class="g0_254"/>
<path d="M464.2,203.6v3.2l-.3,-.1l-6.3,-2.9l-.4,-.2l.4,-.2l6.3,-2.9l.3,-.1v.3l-.1,.1l-6.3,3l-.2,-.4h.2l6.3,2.9l-.2,.4l-.1,-.2v-2.9Z" class="g0_254"/>
<path d="M463.8,203.6h.4v-2.9h-.4v2.9Z" class="g0_254"/>
<path d="M464.2,203.8h22.6v-.4H464.2v.4Z" class="g0_254"/>
<g clip-path="url(#c1_254)">
<path d="M486.4,231.4h.3V203.6h-.3v27.8Z" class="g0_254"/>
</g>
</svg>