<?xml version="1.0" encoding="UTF-8" standalone="no"?>
<!DOCTYPE svg PUBLIC "-//W3C//DTD SVG 1.1//EN"
"http://www.w3.org/Graphics/SVG/1.1/DTD/svg11.dtd">
<svg viewBox="0 0 811 1017" version="1.1" xmlns="http://www.w3.org/2000/svg" xmlns:xlink="http://www.w3.org/1999/xlink">
<defs>
<clipPath id="c0_314"><path d="M509.4,164.7V131.8H724.5v32.9Z"/></clipPath>
<style type="text/css"><![CDATA[
.g0_314{
}
]]></style>
</defs>
<path d="M524.3,137v3.2h-.2l-6.3,-3l-.3,-.2l.3,-.1l6.3,-3l.2,-.1v.3l-.1,.2l-6.2,2.9l-.2,-.3h.2l6.2,2.9l-.1,.4L524,140v-3Z" class="g0_314"/>
<path d="M524,137h.3v-2.9H524V137Z" class="g0_314"/>
<path d="M524.3,137.2h22.6v-.3H524.3v.3Z" class="g0_314"/>
<g clip-path="url(#c0_314)">
<path d="M546.5,164.8h.4V137h-.4v27.8Z" class="g0_314"/>
</g>
<path d="M431.1,450.4v3.3l-.3,-.1l-6.2,-3l-.4,-.2l.4,-.1l6.2,-3l.3,-.1v.3l-.1,.2l-6.2,2.9l-.2,-.3h.2l6.2,2.9l-.2,.4l-.1,-.2v-3Z" class="g0_314"/>
<path d="M430.7,450.4h.4v-2.9h-.4v2.9Z" class="g0_314"/>
<path d="M431.2,450.6h23.1v-.3H431.2v.3Z" class="g0_314"/>
<path d="M453.9,450.4h.4v-26h-.4v26Z" class="g0_314"/>
</svg>