<?xml version="1.0" encoding="UTF-8" standalone="no"?>
<!DOCTYPE svg PUBLIC "-//W3C//DTD SVG 1.1//EN"
"http://www.w3.org/Graphics/SVG/1.1/DTD/svg11.dtd">
<svg viewBox="0 0 811 1017" version="1.1" xmlns="http://www.w3.org/2000/svg" xmlns:xlink="http://www.w3.org/1999/xlink">
<defs>
<style type="text/css"><![CDATA[
.g0_68{
fill: #70A6CC;
}
.g1_68{
}
]]></style>
</defs>
<path d="M156.1,706H724.4V684.1H156.1V706Z" class="g0_68"/>
<path d="M540.6,755.3v3.2l-.3,-.1l-6.2,-2.9l-.4,-.2l.4,-.1l6.2,-3l.3,-.1v.3l-.1,.2l-6.3,2.9l-.1,-.3h.1l6.3,2.9l-.2,.3l-.1,-.1v-3Z" class="g1_68"/>
<path d="M540.2,755.3h.4v-2.9h-.4v2.9Z" class="g1_68"/>
<path d="M540.6,755.5h22.5v-.3H540.6v.3Z" class="g1_68"/>
<path d="M562.7,782.2h.4V755.3h-.4v26.9Z" class="g1_68"/>
<path d="M593.5,893.1v3.2l-.3,-.1l-6.3,-2.9l-.3,-.2l.3,-.2l6.3,-2.9l.3,-.1v.3l-.1,.2l-6.3,2.9l-.2,-.4h.2l6.3,3l-.2,.3l-.1,-.2v-2.9Z" class="g1_68"/>
<path d="M593.1,893.1h.4v-2.9h-.4v2.9Z" class="g1_68"/>
<path d="M593.5,893.3h23.1v-.4H593.5v.4Z" class="g1_68"/>
<path d="M616.3,893.1h.3v-26h-.3v26Z" class="g1_68"/>
</svg>