<?xml version="1.0" encoding="UTF-8" standalone="no"?>
<!DOCTYPE svg PUBLIC "-//W3C//DTD SVG 1.1//EN"
"http://www.w3.org/Graphics/SVG/1.1/DTD/svg11.dtd">
<svg viewBox="0 0 811 1017" version="1.1" xmlns="http://www.w3.org/2000/svg" xmlns:xlink="http://www.w3.org/1999/xlink">
<defs>
<clipPath id="c0_86"><path d="M462.6,179.9V146.5H670.3v33.4Z"/></clipPath>
<clipPath id="c1_86"><path d="M315.6,538.5V515.8H695.1v22.7Z"/></clipPath>
<style type="text/css"><![CDATA[
.g0_86{
}
.g1_86{
fill: #FFFFFF;
}
.g2_86{
fill: none;
stroke: #231F20;
stroke-width: 0.763;
stroke-linecap: butt;
stroke-linejoin: miter;
stroke-miterlimit: 4;
}
.g3_86{
fill: #231F20;
}
]]></style>
</defs>
<path d="M486.1,151.7v3.2l-.3,-.1l-6.2,-2.9l-.4,-.2l.4,-.2l6.2,-2.9l.3,-.1v.3l-.1,.2l-6.2,2.9l-.2,-.4h.2l6.2,3l-.2,.3l-.1,-.2v-2.9Z" class="g0_86"/>
<path d="M485.7,151.7h.4v-2.9h-.4v2.9Z" class="g0_86"/>
<path d="M486.2,151.9h22.6v-.4H486.2v.4Z" class="g0_86"/>
<g clip-path="url(#c0_86)">
<path d="M508.4,179.9h.4V151.7h-.4v28.2Z" class="g0_86"/>
</g>
<path d="M356.7,505.9v3.2l-.3,-.1l-6.3,-2.9l-.4,-.2l.4,-.2l6.3,-2.9l.3,-.1v.3l-.1,.2l-6.3,2.9l-.2,-.4h.2l6.3,3l-.2,.3l-.1,-.2v-2.9Z" class="g0_86"/>
<path d="M356.3,505.9h.4V503h-.4v2.9Z" class="g0_86"/>
<path d="M356.7,506.1h23.1v-.4H356.7v.4Z" class="g0_86"/>
<path d="M379.4,505.9h.4V490.4h-.4v15.5Z" class="g0_86"/>
<path d="M339.1,520.9v3.3l-.3,-.1l-6.2,-3l-.4,-.2l.4,-.1l6.2,-3l.3,-.1v.3l-.1,.2l-6.2,2.9l-.2,-.3h.2l6.2,2.9l-.2,.4l-.1,-.2v-3Z" class="g0_86"/>
<path d="M338.7,520.9h.4V518h-.4v2.9Z" class="g0_86"/>
<path d="M339.1,521.1h22.5v-.3H339.1v.3Z" class="g0_86"/>
<g clip-path="url(#c1_86)">
<path d="M361.3,538.6h.3V520.9h-.3v17.7Z" class="g0_86"/>
</g>
<path d="M547.4,923.7H722.9V730.2H547.4V923.7Z" class="g1_86"/>
<path d="M690.4,755.3l-41,53.5" class="g2_86"/>
<path d="M648.5,806.3l-3.3,7.9L652,809l-3.5,-2.7Z" class="g3_86"/>
<path d="M627.2,837.7l-42.1,54.9" class="g2_86"/>
<path d="M584.2,890.1L581,898l6.8,-5.2l-3.6,-2.7Z" class="g3_86"/>
<path d="M581,755.3l41,53.5" class="g2_86"/>
<path d="M619.3,809l6.8,5.2l-3.3,-7.9l-3.5,2.7Z" class="g3_86"/>
<path d="M644.1,837.7l42.2,54.9" class="g2_86"/>
<path d="M683.6,892.8l6.8,5.2l-3.3,-7.9l-3.5,2.7Z" class="g3_86"/>
<path d="M607.5,755.2H553.2c-3,0,-5.4,-2.4,-5.4,-5.4V736c0,-3,2.4,-5.4,5.4,-5.4h54.3c3,0,5.4,2.4,5.4,5.4v13.8c0,3,-2.4,5.4,-5.4,5.4Z" class="g1_86"/>
<path d="M607.5,755.2H553.2c-3,0,-5.4,-2.4,-5.4,-5.4V736c0,-3,2.4,-5.4,5.4,-5.4h54.3c3,0,5.4,2.4,5.4,5.4v13.8c0,3,-2.4,5.4,-5.4,5.4Z" class="g2_86"/>
<path d="M717.1,755.2H662.8c-3,0,-5.4,-2.4,-5.4,-5.4V736c0,-3,2.4,-5.4,5.4,-5.4h54.3c3,0,5.4,2.4,5.4,5.4v13.8c0,3,-2.4,5.4,-5.4,5.4Z" class="g1_86"/>
<path d="M717.1,755.2H662.8c-3,0,-5.4,-2.4,-5.4,-5.4V736c0,-3,2.4,-5.4,5.4,-5.4h54.3c3,0,5.4,2.4,5.4,5.4v13.8c0,3,-2.4,5.4,-5.4,5.4Z" class="g2_86"/>
<path d="M693.4,878.1H576.8c-3,0,-5.4,-2.4,-5.4,-5.4v-7.1c0,-3,2.4,-5.4,5.4,-5.4H693.4c3,0,5.5,2.4,5.5,5.4v7.1c0,3,-2.5,5.4,-5.5,5.4Z" class="g1_86"/>
<path d="M694.3,839.5H576.1c-3,0,-5.4,-2.4,-5.4,-5.4V820.3c0,-3,2.4,-5.4,5.4,-5.4H694.3c3,0,5.4,2.4,5.4,5.4v13.8c0,3,-2.4,5.4,-5.4,5.4Z" class="g1_86"/>
<path d="M694.3,839.5H576.1c-3,0,-5.4,-2.4,-5.4,-5.4V820.3c0,-3,2.4,-5.4,5.4,-5.4H694.3c3,0,5.4,2.4,5.4,5.4v13.8c0,3,-2.4,5.4,-5.4,5.4Z" class="g2_86"/>
<path d="M607.5,923.4H553.2c-3,0,-5.4,-2.4,-5.4,-5.4V904.2c0,-3,2.4,-5.4,5.4,-5.4h54.3c3,0,5.4,2.4,5.4,5.4V918c0,3,-2.4,5.4,-5.4,5.4Z" class="g1_86"/>
<path d="M607.5,923.4H553.2c-3,0,-5.4,-2.4,-5.4,-5.4V904.2c0,-3,2.4,-5.4,5.4,-5.4h54.3c3,0,5.4,2.4,5.4,5.4V918c0,3,-2.4,5.4,-5.4,5.4Z" class="g2_86"/>
<path d="M717.1,923.4H662.8c-3,0,-5.4,-2.4,-5.4,-5.4V904.2c0,-3,2.4,-5.4,5.4,-5.4h54.3c3,0,5.4,2.4,5.4,5.4V918c0,3,-2.4,5.4,-5.4,5.4Z" class="g1_86"/>
<path d="M717.1,923.4H662.8c-3,0,-5.4,-2.4,-5.4,-5.4V904.2c0,-3,2.4,-5.4,5.4,-5.4h54.3c3,0,5.4,2.4,5.4,5.4V918c0,3,-2.4,5.4,-5.4,5.4Z" class="g2_86"/>
</svg>