<?xml version="1.0" encoding="UTF-8" standalone="no"?>
<!DOCTYPE svg PUBLIC "-//W3C//DTD SVG 1.1//EN"
"http://www.w3.org/Graphics/SVG/1.1/DTD/svg11.dtd">
<svg viewBox="0 0 811 1017" version="1.1" xmlns="http://www.w3.org/2000/svg" xmlns:xlink="http://www.w3.org/1999/xlink">
<defs>
<style type="text/css"><![CDATA[
.g0_303{
fill: #70A6CC;
}
.g1_303{
}
]]></style>
</defs>
<path d="M142.4,352.7H710.7V331.6H142.4v21.1Z" class="g0_303"/>
<path d="M142.4,696.4H710.7V675.1H142.4v21.3Z" class="g0_303"/>
<path d="M489.7,791.5v3.3l-.3,-.1l-6.2,-3l-.4,-.2l.4,-.1l6.2,-3l.3,-.1v.3l-.1,.2l-6.2,2.9l-.2,-.3h.2l6.2,2.9l-.2,.4l-.1,-.2v-3Z" class="g1_303"/>
<path d="M489.3,791.5h.4v-2.9h-.4v2.9Z" class="g1_303"/>
<path d="M489.7,791.7h23.1v-.3H489.7v.3Z" class="g1_303"/>
<path d="M512.4,791.5h.4v-26h-.4v26Z" class="g1_303"/>
<path d="M580.3,883.2v3.2l-.2,-.1l-6.4,-2.9l-.3,-.2l.3,-.2l6.4,-2.9l.2,-.1v.3l-.1,.2l-6.3,2.9l-.2,-.4h.2l6.3,3l-.1,.3l-.1,-.2v-2.9Z" class="g1_303"/>
<path d="M580,883.2h.3v-2.9H580v2.9Z" class="g1_303"/>
<path d="M580.3,883.4h22.6V883H580.3v.4Z" class="g1_303"/>
<path d="M602.5,925h.4V883.2h-.4V925Z" class="g1_303"/>
</svg>