<?xml version="1.0" encoding="UTF-8" standalone="no"?>
<!DOCTYPE svg PUBLIC "-//W3C//DTD SVG 1.1//EN"
"http://www.w3.org/Graphics/SVG/1.1/DTD/svg11.dtd">
<svg viewBox="0 0 811 1017" version="1.1" xmlns="http://www.w3.org/2000/svg" xmlns:xlink="http://www.w3.org/1999/xlink">
<defs>
<style type="text/css"><![CDATA[
.g0_295{
fill: #231F20;
}
.g1_295{
fill: none;
stroke: #000000;
stroke-width: 0.763;
stroke-linecap: butt;
stroke-linejoin: miter;
stroke-miterlimit: 4;
}
.g2_295{
fill: #FFFFFF;
}
.g3_295{
fill: none;
stroke: #231F20;
stroke-width: 0.763;
stroke-linecap: butt;
stroke-linejoin: miter;
}
]]></style>
</defs>
<path d="M414.7,500.2l-70.3,-28Z" class="g0_295"/>
<path d="M414.7,500.2l-70.3,-28" class="g1_295"/>
<path d="M225.1,499.7l70.7,-27.2Z" class="g0_295"/>
<path d="M225.1,499.7l70.7,-27.2" class="g1_295"/>
<path d="M362.3,538.3L339,518Z" class="g0_295"/>
<path d="M362.3,538.3L339,518" class="g1_295"/>
<path d="M333.2,512.9l4.4,6.4l2.5,-2.9l-6.9,-3.5Z" class="g2_295"/>
<path d="M333.2,512.9l4.4,6.4l2.5,-2.9l-6.9,-3.5Z" class="g1_295"/>
<path d="M276,538.2l22.9,-20.9Z" class="g0_295"/>
<path d="M276,538.2l22.9,-20.9" class="g1_295"/>
<path d="M304.6,512.2l-6.9,3.5l2.6,2.8l4.3,-6.3Z" class="g2_295"/>
<path d="M304.6,512.2l-6.9,3.5l2.6,2.8l4.3,-6.3Z" class="g1_295"/>
<path d="M228.1,604.7L248.4,563Z" class="g0_295"/>
<path d="M228.1,604.7L248.4,563" class="g1_295"/>
<path d="M244.8,624.6l11.6,-60.2Z" class="g0_295"/>
<path d="M244.8,624.6l11.6,-60.2" class="g1_295"/>
<path d="M303.7,624.4L291.2,564.3Z" class="g0_295"/>
<path d="M303.7,624.4L291.2,564.3" class="g1_295"/>
<path d="M382.2,467.7H255.4c-.9,0,-1.6,-.7,-1.6,-1.6V452.2c0,-.9,.7,-1.6,1.6,-1.6H382.2c.9,0,1.6,.7,1.6,1.6v13.9c0,.9,-.7,1.6,-1.6,1.6Z" class="g2_295"/>
<path d="M382.2,467.7H255.4c-.9,0,-1.6,-.7,-1.6,-1.6V452.2c0,-.9,.7,-1.6,1.6,-1.6H382.2c.9,0,1.6,.7,1.6,1.6v13.9c0,.9,-.7,1.6,-1.6,1.6Z" class="g3_295"/>
<path d="M485.7,511.9H403.2c-.9,0,-1.6,-.7,-1.6,-1.6V496.4c0,-.9,.7,-1.6,1.6,-1.6h82.5c.9,0,1.6,.7,1.6,1.6v13.9c0,.9,-.7,1.6,-1.6,1.6Z" class="g2_295"/>
<path d="M485.7,511.9H403.2c-.9,0,-1.6,-.7,-1.6,-1.6V496.4c0,-.9,.7,-1.6,1.6,-1.6h82.5c.9,0,1.6,.7,1.6,1.6v13.9c0,.9,-.7,1.6,-1.6,1.6Z" class="g3_295"/>
<path d="M337.3,469.3l6.2,4.6l1.4,-3.6l-7.6,-1Z" class="g2_295"/>
<path d="M337.3,469.3l6.2,4.6l1.4,-3.6l-7.6,-1Z" class="g1_295"/>
<path d="M360.1,511.9H277.6c-.9,0,-1.6,-.7,-1.6,-1.6V496.4c0,-.9,.7,-1.6,1.6,-1.6h82.5c.9,0,1.6,.7,1.6,1.6v13.9c0,.9,-.7,1.6,-1.6,1.6Z" class="g2_295"/>
<path d="M360.1,511.9H277.6c-.9,0,-1.6,-.7,-1.6,-1.6V496.4c0,-.9,.7,-1.6,1.6,-1.6h82.5c.9,0,1.6,.7,1.6,1.6v13.9c0,.9,-.7,1.6,-1.6,1.6Z" class="g3_295"/>
<path d="M319.6,494.5V477.9Z" class="g0_295"/>
<path d="M319.6,494.5V477.9" class="g1_295"/>
<path d="M319.6,470.2l-1.9,7.5h3.8l-1.9,-7.5Z" class="g2_295"/>
<path d="M319.6,470.2l-1.9,7.5h3.8l-1.9,-7.5Z" class="g1_295"/>
<path d="M234.4,511.9H151.9c-.8,0,-1.6,-.7,-1.6,-1.6V496.4c0,-.9,.8,-1.6,1.6,-1.6h82.5c.9,0,1.6,.7,1.6,1.6v13.9c0,.9,-.7,1.6,-1.6,1.6Z" class="g2_295"/>
<path d="M234.4,511.9H151.9c-.8,0,-1.6,-.7,-1.6,-1.6V496.4c0,-.9,.8,-1.6,1.6,-1.6h82.5c.9,0,1.6,.7,1.6,1.6v13.9c0,.9,-.7,1.6,-1.6,1.6Z" class="g3_295"/>
<path d="M302.9,469.8l-7.7,.9l1.4,3.5l6.3,-4.4Z" class="g2_295"/>
<path d="M302.9,469.8l-7.7,.9l1.4,3.5l6.3,-4.4Z" class="g1_295"/>
<path d="M416.9,555H334.4c-.9,0,-1.6,-.7,-1.6,-1.6V539.5c0,-.9,.7,-1.6,1.6,-1.6h82.5c.9,0,1.6,.7,1.6,1.6v13.9c0,.9,-.7,1.6,-1.6,1.6Z" class="g2_295"/>
<path d="M416.9,555H334.4c-.9,0,-1.6,-.7,-1.6,-1.6V539.5c0,-.9,.7,-1.6,1.6,-1.6h82.5c.9,0,1.6,.7,1.6,1.6v13.9c0,.9,-.7,1.6,-1.6,1.6Z" class="g3_295"/>
<path d="M303.2,555H220.7c-.8,0,-1.6,-.7,-1.6,-1.6V539.5c0,-.9,.8,-1.6,1.6,-1.6h82.5c.9,0,1.6,.7,1.6,1.6v13.9c0,.9,-.7,1.6,-1.6,1.6Z" class="g2_295"/>
<path d="M303.2,555H220.7c-.8,0,-1.6,-.7,-1.6,-1.6V539.5c0,-.9,.8,-1.6,1.6,-1.6h82.5c.9,0,1.6,.7,1.6,1.6v13.9c0,.9,-.7,1.6,-1.6,1.6Z" class="g3_295"/>
<path d="M429.1,597.7H323.7c-.9,0,-1.6,-.7,-1.6,-1.6V582.2c0,-.9,.7,-1.6,1.6,-1.6H429.1c.9,0,1.6,.7,1.6,1.6v13.9c0,.9,-.7,1.6,-1.6,1.6Z" class="g2_295"/>
<path d="M429.1,597.7H323.7c-.9,0,-1.6,-.7,-1.6,-1.6V582.2c0,-.9,.7,-1.6,1.6,-1.6H429.1c.9,0,1.6,.7,1.6,1.6v13.9c0,.9,-.7,1.6,-1.6,1.6Z" class="g3_295"/>
<path d="M376.4,580.3V563.7Z" class="g0_295"/>
<path d="M376.4,580.3V563.7" class="g1_295"/>
<path d="M376.5,556.1l-2,7.4h3.8l-1.8,-7.4Z" class="g2_295"/>
<path d="M376.5,556.1l-2,7.4h3.8l-1.8,-7.4Z" class="g1_295"/>
<path d="M230.7,616H148.1c-.8,0,-1.6,-.7,-1.6,-1.6V600.5c0,-.9,.8,-1.6,1.6,-1.6h82.6c.8,0,1.5,.7,1.5,1.6v13.9c0,.9,-.7,1.6,-1.5,1.6Z" class="g2_295"/>
<path d="M230.7,616H148.1c-.8,0,-1.6,-.7,-1.6,-1.6V600.5c0,-.9,.8,-1.6,1.6,-1.6h82.6c.8,0,1.5,.7,1.5,1.6v13.9c0,.9,-.7,1.6,-1.5,1.6Z" class="g3_295"/>
<path d="M251.8,556.1l-5.1,5.9l3.5,1.6l1.6,-7.5Z" class="g2_295"/>
<path d="M251.8,556.1l-5.1,5.9l3.5,1.6l1.6,-7.5Z" class="g1_295"/>
<path d="M248.9,631.9H166.4c-.9,0,-1.6,-.8,-1.6,-1.6v-14c0,-.9,.7,-1.6,1.6,-1.6h82.5c.8,0,1.6,.7,1.6,1.6v14c0,.8,-.8,1.6,-1.6,1.6Z" class="g2_295"/>
<path d="M248.9,631.9H166.4c-.9,0,-1.6,-.8,-1.6,-1.6v-14c0,-.9,.7,-1.6,1.6,-1.6h82.5c.8,0,1.6,.7,1.6,1.6v14c0,.8,-.8,1.6,-1.6,1.6Z" class="g3_295"/>
<path d="M257.9,556.9l-3.3,7l3.7,.7l-.4,-7.7Z" class="g2_295"/>
<path d="M257.9,556.9l-3.3,7l3.7,.7l-.4,-7.7Z" class="g1_295"/>
<path d="M267.1,647.7H184.6c-.9,0,-1.6,-.7,-1.6,-1.6v-14c0,-.8,.7,-1.5,1.6,-1.5h82.5c.9,0,1.6,.7,1.6,1.5v14c0,.9,-.7,1.6,-1.6,1.6Z" class="g2_295"/>
<path d="M267.1,647.7H184.6c-.9,0,-1.6,-.7,-1.6,-1.6v-14c0,-.8,.7,-1.5,1.6,-1.5h82.5c.9,0,1.6,.7,1.6,1.5v14c0,.9,-.7,1.6,-1.6,1.6Z" class="g3_295"/>
<path d="M264.4,630.3V564.6Z" class="g0_295"/>
<path d="M264.4,630.3V564.6" class="g1_295"/>
<path d="M264.4,557l-1.9,7.4h3.8L264.4,557Z" class="g2_295"/>
<path d="M264.4,557l-1.9,7.4h3.8L264.4,557Z" class="g1_295"/>
<path d="M298.9,631.9H412.8c.8,0,1.5,-.8,1.5,-1.6v-14c0,-.9,-.7,-1.6,-1.5,-1.6H298.9c-.9,0,-1.6,.7,-1.6,1.6v14c0,.8,.7,1.6,1.6,1.6Z" class="g2_295"/>
<path d="M298.9,631.9H412.8c.8,0,1.5,-.8,1.5,-1.6v-14c0,-.9,-.7,-1.6,-1.5,-1.6H298.9c-.9,0,-1.6,.7,-1.6,1.6v14c0,.8,.7,1.6,1.6,1.6Z" class="g3_295"/>
<path d="M289.6,556.9l3.4,6.8l-3.7,.8l.3,-7.6Z" class="g2_295"/>
<path d="M289.6,556.9l3.4,6.8l-3.7,.8l.3,-7.6Z" class="g1_295"/>
<path d="M280.7,647.7h154c.9,0,1.6,-.7,1.6,-1.6v-14c0,-.8,-.7,-1.5,-1.6,-1.5h-154c-.9,0,-1.6,.7,-1.6,1.5v14c0,.9,.7,1.6,1.6,1.6Z" class="g2_295"/>
<path d="M280.7,647.7h154c.9,0,1.6,-.7,1.6,-1.6v-14c0,-.8,-.7,-1.5,-1.6,-1.5h-154c-.9,0,-1.6,.7,-1.6,1.5v14c0,.9,.7,1.6,1.6,1.6Z" class="g3_295"/>
<path d="M283,630.3V564.6Z" class="g0_295"/>
<path d="M283,630.3V564.6" class="g1_295"/>
<path d="M283,557l1.9,7.4h-3.8L283,557Z" class="g2_295"/>
<path d="M283,557l1.9,7.4h-3.8L283,557Z" class="g1_295"/>
</svg>