<?xml version="1.0" encoding="UTF-8" standalone="no"?>
<!DOCTYPE svg PUBLIC "-//W3C//DTD SVG 1.1//EN"
"http://www.w3.org/Graphics/SVG/1.1/DTD/svg11.dtd">
<svg viewBox="0 0 811 1017" version="1.1" xmlns="http://www.w3.org/2000/svg" xmlns:xlink="http://www.w3.org/1999/xlink">
<defs>
<style type="text/css"><![CDATA[
.g0_291{
fill: none;
stroke: #000000;
stroke-width: 0.458;
stroke-linecap: butt;
stroke-linejoin: miter;
}
]]></style>
</defs>
<path d="M330.2,203.9c0,8.3,7.8,6.3,8.2,13.6m-70.9,9.6c0,-2.6,2.1,-4.8,4.8,-4.8h61.3c2.6,0,4.8,-2.1,4.8,-4.8c0,2.7,2.1,4.8,4.8,4.8h61.7c2.7,0,4.8,2.2,4.8,4.8m-141,34.2c0,-8.3,7.9,-6.3,8.2,-13.7M267.3,238c0,2.7,2.2,4.8,4.8,4.8c2.7,0,4.8,2.2,4.8,4.8c0,-2.6,2.1,-4.8,4.8,-4.8c2.7,0,4.8,-2.1,4.8,-4.8M409,261.3c0,-8.3,-7.8,-6.3,-8.2,-13.7m9.6,-9.6c0,2.7,-2.1,4.8,-4.8,4.8c-2.6,0,-4.8,2.2,-4.8,4.8c0,-2.6,-2.1,-4.8,-4.7,-4.8c-2.7,0,-4.8,-2.1,-4.8,-4.8" class="g0_291"/>
</svg>