<?xml version="1.0" encoding="UTF-8" standalone="no"?>
<!DOCTYPE svg PUBLIC "-//W3C//DTD SVG 1.1//EN"
"http://www.w3.org/Graphics/SVG/1.1/DTD/svg11.dtd">
<svg viewBox="0 0 811 1017" version="1.1" xmlns="http://www.w3.org/2000/svg" xmlns:xlink="http://www.w3.org/1999/xlink">
<defs>
<style type="text/css"><![CDATA[
.g0_279{
}
]]></style>
</defs>
<path d="M631.3,146.9v3.2H631l-6.3,-3l-.4,-.2l.4,-.1l6.3,-3l.3,-.1v.3l-.1,.2l-6.3,2.9l-.2,-.3h.2l6.3,2.9l-.2,.4l-.1,-.2v-3Z" class="g0_279"/>
<path d="M630.9,146.9h.4V144h-.4v2.9Z" class="g0_279"/>
<path d="M631.3,147.1h80.4v-.3H631.3v.3Z" class="g0_279"/>
<path d="M711.3,146.9h.4V83.7h-.4v63.2Z" class="g0_279"/>
<path d="M631.3,189.1v3.2l-.3,-.1l-6.3,-2.9l-.4,-.2l.4,-.2L631,186l.3,-.1v.3l-.1,.2l-6.3,2.9l-.2,-.4h.2l6.3,3l-.2,.3l-.1,-.2v-2.9Z" class="g0_279"/>
<path d="M630.9,189.1h.4v-2.9h-.4v2.9Z" class="g0_279"/>
<path d="M631.3,189.3h80.4v-.4H631.3v.4Z" class="g0_279"/>
<path d="M711.3,267.3h.4V189.1h-.4v78.2Z" class="g0_279"/>
<path d="M667.6,534.5v3.2l-.3,-.1L661,534.7l-.4,-.2l.4,-.2l6.3,-2.9l.3,-.1v.3l-.1,.2l-6.3,2.9l-.2,-.4h.2l6.3,3l-.2,.3l-.1,-.2v-2.9Z" class="g0_279"/>
<path d="M667.2,534.5h.4v-2.9h-.4v2.9Z" class="g0_279"/>
<path d="M667.6,534.7h44.1v-.4H667.6v.4Z" class="g0_279"/>
<path d="M711.3,534.5h.4V490.3h-.4v44.2Z" class="g0_279"/>
</svg>