<?xml version="1.0" encoding="UTF-8" standalone="no"?>
<!DOCTYPE svg PUBLIC "-//W3C//DTD SVG 1.1//EN"
"http://www.w3.org/Graphics/SVG/1.1/DTD/svg11.dtd">
<svg viewBox="0 0 811 1017" version="1.1" xmlns="http://www.w3.org/2000/svg" xmlns:xlink="http://www.w3.org/1999/xlink">
<defs>
<clipPath id="c0_81"><path d="M518.6,328.4V295.2H753v33.2Z"/></clipPath>
<clipPath id="c1_81"><path d="M372.9,354.1V309.7H543.3v44.4Z"/></clipPath>
<clipPath id="c2_81"><path d="M518.6,435.4V402.1H753v33.3Z"/></clipPath>
<style type="text/css"><![CDATA[
.g0_81{
fill: #70A6CC;
}
.g1_81{
}
]]></style>
</defs>
<path d="M142.4,281.6H710.7V259.7H142.4v21.9Z" class="g0_81"/>
<path d="M542.1,300.3v3.2l-.3,-.1l-6.3,-2.9l-.3,-.2l.3,-.2l6.3,-2.8l.3,-.1v.3l-.1,.1l-6.3,2.9l-.2,-.4h.2L542,303l-.2,.4v-3.1Z" class="g1_81"/>
<path d="M541.8,300.3h.3v-2.8h-.3v2.8Z" class="g1_81"/>
<path d="M542.1,300.5h22.6v-.4H542.1v.4Z" class="g1_81"/>
<g clip-path="url(#c0_81)">
<path d="M564.3,328.5h.4V300.3h-.4v28.2Z" class="g1_81"/>
</g>
<g clip-path="url(#c1_81)">
<path d="M407,354.2h.4V309.7H407v44.5Z" class="g1_81"/>
</g>
<path d="M542.1,407.3v3.2l-.3,-.1l-6.3,-2.9l-.3,-.2l.3,-.2l6.3,-2.9l.3,-.1v.2l-.1,.2l-6.3,3l-.2,-.4h.2L542,410l-.2,.4v-3.1Z" class="g1_81"/>
<path d="M541.8,407.3h.3v-3h-.3v3Z" class="g1_81"/>
<path d="M542.1,407.5h22.6v-.4H542.1v.4Z" class="g1_81"/>
<g clip-path="url(#c2_81)">
<path d="M564.3,435.5h.4V407.3h-.4v28.2Z" class="g1_81"/>
</g>
</svg>