<?xml version="1.0" encoding="UTF-8" standalone="no"?>
<!DOCTYPE svg PUBLIC "-//W3C//DTD SVG 1.1//EN"
"http://www.w3.org/Graphics/SVG/1.1/DTD/svg11.dtd">
<svg viewBox="0 0 811 1017" version="1.1" xmlns="http://www.w3.org/2000/svg" xmlns:xlink="http://www.w3.org/1999/xlink">
<defs>
<style type="text/css"><![CDATA[
.g0_110{
fill: none;
stroke: #000000;
stroke-width: 0.763;
stroke-linecap: butt;
stroke-linejoin: miter;
}
.g1_110{
}
]]></style>
</defs>
<path d="M317.2,317.3h-145c-1.6,0,-2.9,-1.3,-2.9,-2.9V287.7c0,-1.7,1.3,-3,2.9,-3h145c1.6,0,2.9,1.3,2.9,3v26.7c0,1.6,-1.3,2.9,-2.9,2.9Zm0,42.1h-145c-1.6,0,-2.9,-1.3,-2.9,-2.9V329.7c0,-1.6,1.3,-2.9,2.9,-2.9h145c1.6,0,2.9,1.3,2.9,2.9v26.8c0,1.6,-1.3,2.9,-2.9,2.9Zm12,7.6h-166c-1.6,0,-2.9,-1.3,-2.9,-2.9v-101c0,-1.6,1.3,-2.9,2.9,-2.9h166c1.6,0,2.9,1.3,2.9,2.9v101c0,1.6,-1.3,2.9,-2.9,2.9ZM581.9,317.3h-145c-1.6,0,-2.9,-1.3,-2.9,-2.9V287.7c0,-1.7,1.3,-3,2.9,-3h145c1.6,0,2.9,1.3,2.9,3v26.7c0,1.6,-1.3,2.9,-2.9,2.9Zm0,42.1h-145c-1.6,0,-2.9,-1.3,-2.9,-2.9V329.7c0,-1.6,1.3,-2.9,2.9,-2.9h145c1.6,0,2.9,1.3,2.9,2.9v26.8c0,1.6,-1.3,2.9,-2.9,2.9Zm8.9,7.6h-166c-1.6,0,-2.9,-1.3,-2.9,-2.9v-101c0,-1.6,1.3,-2.9,2.9,-2.9h166c1.6,0,2.9,1.3,2.9,2.9v101c0,1.6,-1.3,2.9,-2.9,2.9ZM320.1,301.4h59v32.5H328.5" class="g0_110"/>
<path d="M330.1,331.7l-8.3,2.2l8.3,2.2v-4.4Z" class="g1_110"/>
<path d="M320.1,351.2H426.3" class="g0_110"/>
<path d="M424.8,353.5l8.3,-2.3L424.8,349v4.5Z" class="g1_110"/>
</svg>