<?xml version="1.0" encoding="UTF-8" standalone="no"?>
<!DOCTYPE svg PUBLIC "-//W3C//DTD SVG 1.1//EN"
"http://www.w3.org/Graphics/SVG/1.1/DTD/svg11.dtd">
<svg viewBox="0 0 811 1017" version="1.1" xmlns="http://www.w3.org/2000/svg" xmlns:xlink="http://www.w3.org/1999/xlink">
<defs>
<clipPath id="c0_211"><path d="M305.6,112.3V82.5H607.7v29.8Z"/></clipPath>
<style type="text/css"><![CDATA[
.g0_211{
fill: #70A6CC;
}
.g1_211{
}
.g2_211{
fill: #FFFFFF;
}
.g3_211{
fill: none;
stroke: #231F20;
stroke-width: 0.763;
stroke-linecap: butt;
stroke-linejoin: miter;
}
.g4_211{
fill: #231F20;
}
]]></style>
</defs>
<path d="M142.4,559.6H710.7V537.8H142.4v21.8Z" class="g0_211"/>
<g clip-path="url(#c0_211)">
<path d="M342.7,112.3h.4V82.5h-.4v29.8Z" class="g1_211"/>
</g>
<path d="M563,282.2H483.9c-.9,0,-1.6,-.7,-1.6,-1.6v-14c0,-.8,.7,-1.5,1.6,-1.5H563c.9,0,1.6,.7,1.6,1.5v14c0,.9,-.7,1.6,-1.6,1.6Z" class="g2_211"/>
<path d="M563,282.2H483.9c-.9,0,-1.6,-.7,-1.6,-1.6v-14c0,-.8,.7,-1.5,1.6,-1.5H563c.9,0,1.6,.7,1.6,1.5v14c0,.9,-.7,1.6,-1.6,1.6Z" class="g3_211"/>
<path d="M707,282.2H610.7c-.9,0,-1.6,-.7,-1.6,-1.6v-14c0,-.8,.7,-1.5,1.6,-1.5H707c.9,0,1.6,.7,1.6,1.5v14c0,.9,-.7,1.6,-1.6,1.6Z" class="g2_211"/>
<path d="M707,282.2H610.7c-.9,0,-1.6,-.7,-1.6,-1.6v-14c0,-.8,.7,-1.5,1.6,-1.5H707c.9,0,1.6,.7,1.6,1.5v14c0,.9,-.7,1.6,-1.6,1.6Z" class="g3_211"/>
<path d="M564.8,273.5H608Z" class="g2_211"/>
<path d="M564.8,273.5h36.4" class="g3_211"/>
<path d="M599.7,275.7l8.3,-2.2l-8.3,-2.2v4.4Z" class="g4_211"/>
<path d="M572.6,624.3v3.2l-.2,-.1l-6.3,-3l-.3,-.1l.3,-.2l6.3,-3l.2,-.1v.5l-6.3,2.9l-.2,-.3h.2l6.3,2.9l-.2,.4l-.1,-.2v-2.9Z" class="g1_211"/>
<path d="M572.3,624.3h.3v-3h-.3v3Z" class="g1_211"/>
<path d="M572.6,624.4h22.6v-.3H572.6v.3Z" class="g1_211"/>
<path d="M594.8,666.1h.4V624.3h-.4v41.8Z" class="g1_211"/>
<path d="M151.7,639.6v-3.3l.3,.1l6.3,3l.4,.2l-.4,.1l-6.3,2.9l-.3,.1v-.3l.1,-.2l6.3,-2.8l.2,.3h-.2l-6.3,-2.9l.2,-.4l.1,.2v3Z" class="g1_211"/>
<path d="M151.7,642.4h.4v-2.8h-.4v2.8Z" class="g1_211"/>
<path d="M132,639.7h19.7v-.3H132v.3Z" class="g1_211"/>
<path d="M132,679.9h.4V639.6H132v40.3Z" class="g1_211"/>
<path d="M563.8,857.5H516.4c-.9,0,-1.6,-.7,-1.6,-1.6V842c0,-.9,.7,-1.6,1.6,-1.6h47.4c.9,0,1.6,.7,1.6,1.6v13.9c0,.9,-.7,1.6,-1.6,1.6Z" class="g2_211"/>
<path d="M563.8,857.5H516.4c-.9,0,-1.6,-.7,-1.6,-1.6V842c0,-.9,.7,-1.6,1.6,-1.6h47.4c.9,0,1.6,.7,1.6,1.6v13.9c0,.9,-.7,1.6,-1.6,1.6Z" class="g3_211"/>
<path d="M707.6,857.5H611.5c-.9,0,-1.6,-.7,-1.6,-1.6V842c0,-.9,.7,-1.6,1.6,-1.6h96.1c.9,0,1.6,.7,1.6,1.6v13.9c0,.9,-.7,1.6,-1.6,1.6Z" class="g2_211"/>
<path d="M707.6,857.5H611.5c-.9,0,-1.6,-.7,-1.6,-1.6V842c0,-.9,.7,-1.6,1.6,-1.6h96.1c.9,0,1.6,.7,1.6,1.6v13.9c0,.9,-.7,1.6,-1.6,1.6Z" class="g3_211"/>
<path d="M565.6,848.8h43.2Z" class="g2_211"/>
<path d="M565.6,848.8H602" class="g3_211"/>
<path d="M600.5,851l8.3,-2.2l-8.3,-2.2V851Z" class="g4_211"/>
</svg>