<?xml version="1.0" encoding="UTF-8" standalone="no"?>
<!DOCTYPE svg PUBLIC "-//W3C//DTD SVG 1.1//EN"
"http://www.w3.org/Graphics/SVG/1.1/DTD/svg11.dtd">
<svg viewBox="0 0 811 1017" version="1.1" xmlns="http://www.w3.org/2000/svg" xmlns:xlink="http://www.w3.org/1999/xlink">
<defs>
<style type="text/css"><![CDATA[
.g0_89{
fill: #70A6CC;
}
.g1_89{
fill: #FFFFFF;
}
.g2_89{
fill: none;
stroke: #000000;
stroke-width: 0.458;
stroke-linecap: butt;
stroke-linejoin: miter;
}
.g3_89{
}
]]></style>
</defs>
<path d="M142.4,322.2H710.7V300.9H142.4v21.3Z" class="g0_89"/>
<path d="M527.6,577.5H710.1V474H527.6V577.5Z" class="g1_89"/>
<path d="M571.8,490.2c5.8,13.4,15.5,11.2,22.9,24.7" class="g2_89"/>
<path d="M591.7,515.4l4.8,3.2l.3,-5.7l-5.1,2.5Z" class="g3_89"/>
<path d="M660.8,490.2c-5.8,13.4,-15.5,11.2,-22.9,24.7" class="g2_89"/>
<path d="M635.8,512.9l.3,5.7l4.8,-3.1l-5.1,-2.6Z" class="g3_89"/>
<path d="M572.2,561.3c0,-9.3,9.2,-8.4,9.6,-16.7m10.9,-10.8c0,3,-2.5,5.4,-5.5,5.4h.1c-3,0,-5.5,2.4,-5.5,5.4c0,-3,-2.3,-5.4,-5.3,-5.4H576c-3,0,-5.4,-2.4,-5.4,-5.4m48.3,27.5c0,-9.3,-3.8,-8.4,-4.2,-16.7m10.7,-10.8c0,3,-2.4,5.4,-5.4,5.4c-3,0,-5.4,2.4,-5.4,5.4c0,-3,-2.4,-5.4,-5.4,-5.4h-.5c-3,0,-5.4,-2.4,-5.4,-5.4M664,561.3c0,-9.3,-11.3,-8.4,-11.7,-16.7M641.5,533.8c0,3,2.4,5.4,5.4,5.4c3,0,5.4,2.4,5.4,5.4c0,-3,2.4,-5.4,5.4,-5.4h.5c3,0,5.4,-2.4,5.4,-5.4" class="g2_89"/>
</svg>