<?xml version="1.0" encoding="UTF-8" standalone="no"?>
<!DOCTYPE svg PUBLIC "-//W3C//DTD SVG 1.1//EN"
"http://www.w3.org/Graphics/SVG/1.1/DTD/svg11.dtd">
<svg viewBox="0 0 811 1017" version="1.1" xmlns="http://www.w3.org/2000/svg" xmlns:xlink="http://www.w3.org/1999/xlink">
<defs>
<style type="text/css"><![CDATA[
.g0_141{
}
.g1_141{
fill: #D9F0FA;
}
.g2_141{
fill: none;
stroke: #231F20;
stroke-width: 0.763;
stroke-linecap: butt;
stroke-linejoin: miter;
}
.g3_141{
fill: #FFFFFF;
}
.g4_141{
fill: #93D8F6;
}
.g5_141{
fill: none;
stroke: #000000;
stroke-width: 0.763;
stroke-linecap: butt;
stroke-linejoin: miter;
}
]]></style>
</defs>
<path d="M479.2,151.9v3.2L479,155l-6.4,-2.9l-.3,-.2l.3,-.2l6.4,-2.8l.2,-.1v.2l-.1,.2l-6.3,2.9l-.2,-.4h.2l6.3,2.9l-.1,.4l-.1,-.2v-2.9Z" class="g0_141"/>
<path d="M478.9,151.9h.3V149h-.3v2.9Z" class="g0_141"/>
<path d="M479.2,152.1h23.1v-.4H479.2v.4Z" class="g0_141"/>
<path d="M502,151.9h.3v-26H502v26Z" class="g0_141"/>
<path d="M277.5,299.1h-129c-1.6,0,-2.9,-1.3,-2.9,-2.9V277.6c0,-1.6,1.3,-2.9,2.9,-2.9h129c1.7,0,3,1.3,3,2.9v18.6c0,1.6,-1.3,2.9,-3,2.9Z" class="g1_141"/>
<path d="M277.5,299.1h-129c-1.6,0,-2.9,-1.3,-2.9,-2.9V277.6c0,-1.6,1.3,-2.9,2.9,-2.9h129c1.7,0,3,1.3,3,2.9v18.6c0,1.6,-1.3,2.9,-3,2.9Z" class="g2_141"/>
<path d="M158.6,295.4c-4.7,0,-8.4,-3.8,-8.4,-8.4v-.3c0,-4.6,3.7,-8.4,8.4,-8.4c4.6,0,8.4,3.8,8.4,8.4v.3c0,4.6,-3.8,8.4,-8.4,8.4Z" class="g3_141"/>
<path d="M158.6,295.4c-4.7,0,-8.4,-3.8,-8.4,-8.4v-.3c0,-4.6,3.7,-8.4,8.4,-8.4c4.6,0,8.4,3.8,8.4,8.4v.3c0,4.6,-3.8,8.4,-8.4,8.4Z" class="g2_141"/>
<path d="M183.5,295.4c-4.6,0,-8.4,-3.8,-8.4,-8.4v-.3c0,-4.6,3.8,-8.4,8.4,-8.4c4.7,0,8.4,3.8,8.4,8.4v.3c0,4.6,-3.7,8.4,-8.4,8.4Z" class="g4_141"/>
<path d="M183.5,295.4c-4.6,0,-8.4,-3.8,-8.4,-8.4v-.3c0,-4.6,3.8,-8.4,8.4,-8.4c4.7,0,8.4,3.8,8.4,8.4v.3c0,4.6,-3.7,8.4,-8.4,8.4Z" class="g2_141"/>
<path d="M208.5,295.4c-4.7,0,-8.4,-3.8,-8.4,-8.4v-.3c0,-4.6,3.7,-8.4,8.4,-8.4c4.6,0,8.4,3.8,8.4,8.4v.3c0,4.6,-3.8,8.4,-8.4,8.4Z" class="g3_141"/>
<path d="M208.5,295.4c-4.7,0,-8.4,-3.8,-8.4,-8.4v-.3c0,-4.6,3.7,-8.4,8.4,-8.4c4.6,0,8.4,3.8,8.4,8.4v.3c0,4.6,-3.8,8.4,-8.4,8.4Z" class="g2_141"/>
<path d="M233.4,295.4c-4.6,0,-8.4,-3.8,-8.4,-8.4v-.3c0,-4.6,3.8,-8.4,8.4,-8.4c4.7,0,8.4,3.8,8.4,8.4v.3c0,4.6,-3.7,8.4,-8.4,8.4Z" class="g4_141"/>
<path d="M233.4,295.4c-4.6,0,-8.4,-3.8,-8.4,-8.4v-.3c0,-4.6,3.8,-8.4,8.4,-8.4c4.7,0,8.4,3.8,8.4,8.4v.3c0,4.6,-3.7,8.4,-8.4,8.4Z" class="g2_141"/>
<path d="M478.1,299.1H399c-1.6,0,-2.9,-1.3,-2.9,-2.9V277.6c0,-1.6,1.3,-2.9,2.9,-2.9h79.1c1.6,0,2.9,1.3,2.9,2.9v18.6c0,1.6,-1.3,2.9,-2.9,2.9Z" class="g1_141"/>
<path d="M478.1,299.1H399c-1.6,0,-2.9,-1.3,-2.9,-2.9V277.6c0,-1.6,1.3,-2.9,2.9,-2.9h79.1c1.6,0,2.9,1.3,2.9,2.9v18.6c0,1.6,-1.3,2.9,-2.9,2.9Z" class="g2_141"/>
<path d="M409,295.4c-4.6,0,-8.4,-3.8,-8.4,-8.4v-.3c0,-4.6,3.8,-8.4,8.4,-8.4c4.6,0,8.4,3.8,8.4,8.4v.3c0,4.6,-3.8,8.4,-8.4,8.4Z" class="g4_141"/>
<path d="M409,295.4c-4.6,0,-8.4,-3.8,-8.4,-8.4v-.3c0,-4.6,3.8,-8.4,8.4,-8.4c4.6,0,8.4,3.8,8.4,8.4v.3c0,4.6,-3.8,8.4,-8.4,8.4Z" class="g2_141"/>
<path d="M433.9,295.4c-4.6,0,-8.4,-3.8,-8.4,-8.4v-.3c0,-4.6,3.8,-8.4,8.4,-8.4c4.7,0,8.5,3.8,8.5,8.4v.3c0,4.6,-3.8,8.4,-8.5,8.4Z" class="g4_141"/>
<path d="M433.9,295.4c-4.6,0,-8.4,-3.8,-8.4,-8.4v-.3c0,-4.6,3.8,-8.4,8.4,-8.4c4.7,0,8.5,3.8,8.5,8.4v.3c0,4.6,-3.8,8.4,-8.5,8.4Z" class="g2_141"/>
<path d="M289.4,287.3H382" class="g5_141"/>
<path d="M380.5,289.5l8.2,-2.2l-8.2,-2.2v4.4Z" class="g0_141"/>
<path d="M271.6,716.8h-126c-1.6,0,-2.9,-1.3,-2.9,-2.9V695.3c0,-1.6,1.3,-2.9,2.9,-2.9h126c1.6,0,2.9,1.3,2.9,2.9v18.6c0,1.6,-1.3,2.9,-2.9,2.9Z" class="g1_141"/>
<path d="M271.6,716.8h-126c-1.6,0,-2.9,-1.3,-2.9,-2.9V695.3c0,-1.6,1.3,-2.9,2.9,-2.9h126c1.6,0,2.9,1.3,2.9,2.9v18.6c0,1.6,-1.3,2.9,-2.9,2.9Z" class="g2_141"/>
<path d="M499.7,716.8h-126c-1.6,0,-2.9,-1.3,-2.9,-2.9V695.3c0,-1.6,1.3,-2.9,2.9,-2.9h126c1.6,0,2.9,1.3,2.9,2.9v18.6c0,1.6,-1.3,2.9,-2.9,2.9Z" class="g1_141"/>
<path d="M499.7,716.8h-126c-1.6,0,-2.9,-1.3,-2.9,-2.9V695.3c0,-1.6,1.3,-2.9,2.9,-2.9h126c1.6,0,2.9,1.3,2.9,2.9v18.6c0,1.6,-1.3,2.9,-2.9,2.9Z" class="g2_141"/>
<path d="M390.1,713.1H376.5c-.9,0,-1.6,-.7,-1.6,-1.6V697.6c0,-.9,.7,-1.6,1.6,-1.6h13.6c.9,0,1.6,.7,1.6,1.6v13.9c0,.9,-.7,1.6,-1.6,1.6Z" class="g3_141"/>
<path d="M390.1,713.1H376.5c-.9,0,-1.6,-.7,-1.6,-1.6V697.6c0,-.9,.7,-1.6,1.6,-1.6h13.6c.9,0,1.6,.7,1.6,1.6v13.9c0,.9,-.7,1.6,-1.6,1.6Z" class="g2_141"/>
<path d="M415.1,713.1H401.4c-.9,0,-1.6,-.7,-1.6,-1.6V697.6c0,-.9,.7,-1.6,1.6,-1.6h13.7c.8,0,1.6,.7,1.6,1.6v13.9c0,.9,-.8,1.6,-1.6,1.6Z" class="g3_141"/>
<path d="M415.1,713.1H401.4c-.9,0,-1.6,-.7,-1.6,-1.6V697.6c0,-.9,.7,-1.6,1.6,-1.6h13.7c.8,0,1.6,.7,1.6,1.6v13.9c0,.9,-.8,1.6,-1.6,1.6Z" class="g2_141"/>
<path d="M155.7,713.1c-4.6,0,-8.4,-3.8,-8.4,-8.4v-.3c0,-4.7,3.8,-8.4,8.4,-8.4c4.7,0,8.4,3.7,8.4,8.4v.3c0,4.6,-3.7,8.4,-8.4,8.4Z" class="g3_141"/>
<path d="M155.7,713.1c-4.6,0,-8.4,-3.8,-8.4,-8.4v-.3c0,-4.7,3.8,-8.4,8.4,-8.4c4.7,0,8.4,3.7,8.4,8.4v.3c0,4.6,-3.7,8.4,-8.4,8.4Z" class="g2_141"/>
<path d="M180.7,713.1c-4.7,0,-8.5,-3.8,-8.5,-8.4v-.3c0,-4.7,3.8,-8.4,8.5,-8.4c4.6,0,8.4,3.7,8.4,8.4v.3c0,4.6,-3.8,8.4,-8.4,8.4Z" class="g3_141"/>
<path d="M180.7,713.1c-4.7,0,-8.5,-3.8,-8.5,-8.4v-.3c0,-4.7,3.8,-8.4,8.5,-8.4c4.6,0,8.4,3.7,8.4,8.4v.3c0,4.6,-3.8,8.4,-8.4,8.4Z" class="g2_141"/>
<path d="M205.6,713.1c-4.6,0,-8.4,-3.8,-8.4,-8.4v-.3c0,-4.7,3.8,-8.4,8.4,-8.4c4.7,0,8.4,3.7,8.4,8.4v.3c0,4.6,-3.7,8.4,-8.4,8.4Z" class="g3_141"/>
<path d="M205.6,713.1c-4.6,0,-8.4,-3.8,-8.4,-8.4v-.3c0,-4.7,3.8,-8.4,8.4,-8.4c4.7,0,8.4,3.7,8.4,8.4v.3c0,4.6,-3.7,8.4,-8.4,8.4Z" class="g2_141"/>
<path d="M230.6,713.1c-4.7,0,-8.5,-3.8,-8.5,-8.4v-.3c0,-4.7,3.8,-8.4,8.5,-8.4c4.6,0,8.4,3.7,8.4,8.4v.3c0,4.6,-3.8,8.4,-8.4,8.4Z" class="g3_141"/>
<path d="M230.6,713.1c-4.7,0,-8.5,-3.8,-8.5,-8.4v-.3c0,-4.7,3.8,-8.4,8.5,-8.4c4.6,0,8.4,3.7,8.4,8.4v.3c0,4.6,-3.8,8.4,-8.4,8.4Z" class="g2_141"/>
<path d="M440,713.1H426.4c-.9,0,-1.6,-.7,-1.6,-1.6V697.6c0,-.9,.7,-1.6,1.6,-1.6H440c.9,0,1.6,.7,1.6,1.6v13.9c0,.9,-.7,1.6,-1.6,1.6Z" class="g3_141"/>
<path d="M440,713.1H426.4c-.9,0,-1.6,-.7,-1.6,-1.6V697.6c0,-.9,.7,-1.6,1.6,-1.6H440c.9,0,1.6,.7,1.6,1.6v13.9c0,.9,-.7,1.6,-1.6,1.6Z" class="g2_141"/>
<path d="M465,713.1H451.3c-.9,0,-1.6,-.7,-1.6,-1.6V697.6c0,-.9,.7,-1.6,1.6,-1.6H465c.8,0,1.6,.7,1.6,1.6v13.9c0,.9,-.8,1.6,-1.6,1.6Z" class="g3_141"/>
<path d="M465,713.1H451.3c-.9,0,-1.6,-.7,-1.6,-1.6V697.6c0,-.9,.7,-1.6,1.6,-1.6H465c.8,0,1.6,.7,1.6,1.6v13.9c0,.9,-.8,1.6,-1.6,1.6Z" class="g2_141"/>
<path d="M283.5,705h72.7" class="g5_141"/>
<path d="M354.7,707.2L363,705l-8.3,-2.3v4.5Z" class="g0_141"/>
</svg>