<?xml version="1.0" encoding="UTF-8" standalone="no"?>
<!DOCTYPE svg PUBLIC "-//W3C//DTD SVG 1.1//EN"
"http://www.w3.org/Graphics/SVG/1.1/DTD/svg11.dtd">
<svg viewBox="0 0 811 1017" version="1.1" xmlns="http://www.w3.org/2000/svg" xmlns:xlink="http://www.w3.org/1999/xlink">
<defs>
<clipPath id="c0_245"><path d="M495.6,438.1V405.2H710.8v32.9Z"/></clipPath>
<style type="text/css"><![CDATA[
.g0_245{
fill: #70A6CC;
}
.g1_245{
}
]]></style>
</defs>
<path d="M142.4,330.5H710.7V308.6H142.4v21.9Z" class="g0_245"/>
<path d="M479.5,164.2v3.2l-.3,-.1l-6.3,-2.9l-.4,-.2l.4,-.2l6.3,-2.9l.3,-.1v.2l-.1,.2l-6.3,3l-.2,-.4h.2l6.3,2.9l-.2,.4l-.1,-.2v-2.9Z" class="g1_245"/>
<path d="M479.1,164.2h.4v-3h-.4v3Z" class="g1_245"/>
<path d="M479.5,164.4h23.1V164H479.5v.4Z" class="g1_245"/>
<path d="M502.2,164.2h.4V138.1h-.4v26.1Z" class="g1_245"/>
<path d="M510.6,410.4v3.1l-.3,-.1l-6.2,-2.8l-.4,-.2l.4,-.2l6.2,-2.9l.3,-.1v.3l-.1,.1l-6.2,3l-.2,-.4h.2l6.2,2.8l-.2,.4l-.1,-.2v-2.8Z" class="g1_245"/>
<path d="M510.2,410.4h.4v-2.9h-.4v2.9Z" class="g1_245"/>
<path d="M510.6,410.6h22.5v-.4H510.6v.4Z" class="g1_245"/>
<g clip-path="url(#c0_245)">
<path d="M532.8,438.1h.3V410.4h-.3v27.7Z" class="g1_245"/>
</g>
</svg>