<?xml version="1.0" encoding="UTF-8" standalone="no"?>
<!DOCTYPE svg PUBLIC "-//W3C//DTD SVG 1.1//EN"
"http://www.w3.org/Graphics/SVG/1.1/DTD/svg11.dtd">
<svg viewBox="0 0 811 1017" version="1.1" xmlns="http://www.w3.org/2000/svg" xmlns:xlink="http://www.w3.org/1999/xlink">
<defs>
<clipPath id="c0_231"><path d="M438.4,910.3V877.4H653.5v32.9Z"/></clipPath>
<style type="text/css"><![CDATA[
.g0_231{
}
]]></style>
</defs>
<path d="M535.4,595.4v3.2l-.2,-.1l-6.4,-2.9l-.3,-.2l.3,-.2l6.4,-2.9l.2,-.1v.2l-.1,.2l-6.3,3l-.2,-.4h.2l6.3,2.9l-.1,.4l-.1,-.2v-2.9Z" class="g0_231"/>
<path d="M535.1,595.4h.3v-3h-.3v3Z" class="g0_231"/>
<path d="M535.4,595.6H558v-.4H535.4v.4Z" class="g0_231"/>
<path d="M557.6,637.2h.4V595.4h-.4v41.8Z" class="g0_231"/>
<path d="M494.7,852.3v3.2l-.2,-.1l-6.3,-2.9l-.3,-.2l.3,-.2l6.3,-2.9l.2,-.1v.3l-.1,.2l-6.2,2.9l-.2,-.4h.2l6.2,3l-.1,.3l-.1,-.1v-3Z" class="g0_231"/>
<path d="M494.4,852.3h.3v-2.9h-.3v2.9Z" class="g0_231"/>
<path d="M494.7,852.5h23.2v-.4H494.7v.4Z" class="g0_231"/>
<path d="M517.6,852.3h.3v-26h-.3v26Z" class="g0_231"/>
<path d="M453.3,882.6v3.2l-.3,-.1l-6.2,-2.9l-.4,-.2l.4,-.2l6.2,-2.9l.3,-.1v.2l-.1,.2l-6.2,3l-.2,-.4h.2l6.2,2.9l-.2,.4l-.1,-.2v-2.9Z" class="g0_231"/>
<path d="M452.9,882.6h.4v-3h-.4v3Z" class="g0_231"/>
<path d="M453.3,882.8h22.5v-.4H453.3v.4Z" class="g0_231"/>
<g clip-path="url(#c0_231)">
<path d="M475.5,910.4h.3V882.6h-.3v27.8Z" class="g0_231"/>
</g>
</svg>