<?xml version="1.0" encoding="UTF-8" standalone="no"?>
<!DOCTYPE svg PUBLIC "-//W3C//DTD SVG 1.1//EN"
"http://www.w3.org/Graphics/SVG/1.1/DTD/svg11.dtd">
<svg viewBox="0 0 811 1017" version="1.1" xmlns="http://www.w3.org/2000/svg" xmlns:xlink="http://www.w3.org/1999/xlink">
<defs>
<clipPath id="c0_127"><path d="M551,238.9V206H710.8v32.9Z"/></clipPath>
<clipPath id="c1_127"><path d="M564.4,310.7v-33H724.1v33Z"/></clipPath>
<style type="text/css"><![CDATA[
.g0_127{
fill: #70A6CC;
}
.g1_127{
}
]]></style>
</defs>
<path d="M142.4,161.8H710.7V140.5H142.4v21.3Z" class="g0_127"/>
<path d="M142.4,638.6H710.7V617.4H142.4v21.2Z" class="g0_127"/>
<path d="M566,211.1v3.2l-.3,-.1l-6.3,-2.9l-.3,-.2l.3,-.2l6.3,-2.9l.3,-.1v.3l-.1,.2l-6.3,2.9l-.2,-.4h.2l6.3,3l-.2,.3l-.1,-.2v-2.9Z" class="g1_127"/>
<path d="M565.6,211.1h.4v-2.9h-.4v2.9Z" class="g1_127"/>
<path d="M566,211.3h22.6v-.4H566v.4Z" class="g1_127"/>
<g clip-path="url(#c0_127)">
<path d="M588.2,238.9h.4V211.1h-.4v27.8Z" class="g1_127"/>
</g>
<path d="M579.3,282.9v3.2l-.2,-.1l-6.3,-2.9l-.3,-.2l.3,-.2l6.3,-2.8l.2,-.1v.2l-.1,.2l-6.2,2.9l-.2,-.4h.2l6.2,2.9l-.1,.4l-.1,-.2v-2.9Z" class="g1_127"/>
<path d="M579,282.9h.3V280H579v2.9Z" class="g1_127"/>
<path d="M579.3,283.1h22.6v-.4H579.3v.4Z" class="g1_127"/>
<g clip-path="url(#c1_127)">
<path d="M601.5,310.7h.4V282.9h-.4v27.8Z" class="g1_127"/>
</g>
<path d="M510.6,672.4v3.2l-.3,-.1l-6.2,-2.9l-.4,-.2l.4,-.2l6.2,-2.9l.3,-.1v.2l-.1,.2l-6.2,3l-.2,-.4h.2l6.2,2.9l-.2,.4l-.1,-.2v-2.9Z" class="g1_127"/>
<path d="M510.2,672.4h.4v-3h-.4v3Z" class="g1_127"/>
<path d="M510.6,672.6h50.2v-.4H510.6v.4Z" class="g1_127"/>
<path d="M560.4,714.2h.4V672.4h-.4v41.8Z" class="g1_127"/>
<path d="M161.6,748.5v-3.3l.3,.1l6.2,3l.4,.2l-.4,.1l-6.2,3l-.3,.1v-.3l.1,-.2l6.2,-2.9l.2,.3h-.2l-6.2,-2.9l.2,-.4l.1,.2v3Z" class="g1_127"/>
<path d="M161.6,751.4h.4v-2.9h-.4v2.9Z" class="g1_127"/>
<path d="M139.5,748.6h22.1v-.3H139.5v.3Z" class="g1_127"/>
<path d="M139.5,748.5h.4V686.9h-.4v61.6Z" class="g1_127"/>
<path d="M161.6,686.5v-3.2l.3,.1l6.2,2.9l.4,.2l-.4,.2l-6.2,2.9l-.3,.1v-.3l.1,-.2l6.2,-2.9l.2,.4h-.2l-6.2,-3l.2,-.3l.1,.2v2.9Z" class="g1_127"/>
<path d="M161.6,689.4h.4v-2.9h-.4v2.9Z" class="g1_127"/>
<path d="M139.5,686.7h22.1v-.4H139.5v.4Z" class="g1_127"/>
<path d="M139.5,691.5h.4v-5h-.4v5Z" class="g1_127"/>
</svg>