<?xml version="1.0" encoding="UTF-8" standalone="no"?>
<!DOCTYPE svg PUBLIC "-//W3C//DTD SVG 1.1//EN"
"http://www.w3.org/Graphics/SVG/1.1/DTD/svg11.dtd">
<svg viewBox="0 0 811 1017" version="1.1" xmlns="http://www.w3.org/2000/svg" xmlns:xlink="http://www.w3.org/1999/xlink">
<defs>
<style type="text/css"><![CDATA[
.g0_60{
fill: #70A6CC;
}
.g1_60{
fill: #FFFFFF;
}
.g2_60{
fill: #D9F0FA;
}
.g3_60{
fill: none;
stroke: #000000;
stroke-width: 0.763;
stroke-linecap: butt;
stroke-linejoin: miter;
stroke-miterlimit: 4;
}
]]></style>
</defs>
<path d="M156.1,851.4H724.4V829.6H156.1v21.8Z" class="g0_60"/>
<path d="M465.3,356.8H723.5V309.7H465.3v47.1Z" class="g1_60"/>
<path d="M580.1,340.8h-7.3c-.3,0,-.5,-1.3,-.5,-2.9v-9.3c0,-1.6,.2,-2.9,.5,-2.9h7.3c.3,0,.6,1.3,.6,2.9v9.3c0,1.6,-.3,2.9,-.6,2.9Z" class="g2_60"/>
<path d="M682.7,340.7h-7.2c-.4,0,-.6,-1.3,-.6,-2.9v-9.4c0,-1.6,.2,-2.9,.6,-2.9h7.2c.3,0,.6,1.3,.6,2.9v9.4c0,1.6,-.3,2.9,-.6,2.9Z" class="g2_60"/>
<path d="M723.1,356.4H465.7V310.1H723.1v46.3Z" class="g3_60"/>
</svg>