<?xml version="1.0" encoding="UTF-8" standalone="no"?>
<!DOCTYPE svg PUBLIC "-//W3C//DTD SVG 1.1//EN"
"http://www.w3.org/Graphics/SVG/1.1/DTD/svg11.dtd">
<svg viewBox="0 0 811 1017" version="1.1" xmlns="http://www.w3.org/2000/svg" xmlns:xlink="http://www.w3.org/1999/xlink">
<defs>
<style type="text/css"><![CDATA[
.g0_66{
fill: #70A6CC;
}
.g1_66{
}
]]></style>
</defs>
<path d="M156.1,279.8H724.4V257.9H156.1v21.9Z" class="g0_66"/>
<path d="M405.9,178.8V182h-.3l-6.2,-3l-.4,-.2l.4,-.1l6.2,-3l.3,-.1v.3l-.1,.2l-6.2,2.9l-.2,-.3h.2l6.2,2.9l-.2,.4l-.1,-.2v-3Z" class="g1_66"/>
<path d="M405.5,178.8h.4v-2.9h-.4v2.9Z" class="g1_66"/>
<path d="M406,179h22.5v-.3H406v.3Z" class="g1_66"/>
<path d="M428.2,205.8h.3v-27h-.3v27Z" class="g1_66"/>
<path d="M540.6,313.8V317l-.3,-.1L534.1,314l-.4,-.2l.4,-.2l6.2,-2.9l.3,-.1v.2l-.1,.2l-6.3,3l-.1,-.4h.1l6.3,2.9l-.2,.4l-.1,-.2v-2.9Z" class="g1_66"/>
<path d="M540.2,313.8h.4v-3h-.4v3Z" class="g1_66"/>
<path d="M540.6,314h22.5v-.4H540.6v.4Z" class="g1_66"/>
<path d="M562.7,340.7h.4V313.8h-.4v26.9Z" class="g1_66"/>
<path d="M149.7,329.1v-3.2l.3,.1l6.3,2.9l.4,.2l-.4,.2l-6.3,2.9l-.3,.1V332l.1,-.2l6.3,-2.9l.2,.4h-.2l-6.3,-3l.2,-.3l.1,.1v3Z" class="g1_66"/>
<path d="M149.7,332h.4v-2.9h-.4V332Z" class="g1_66"/>
<path d="M130,329.3h19.7v-.4H130v.4Z" class="g1_66"/>
<path d="M130,384.4h.4V329.1H130v55.3Z" class="g1_66"/>
<path d="M516.7,552.1v3.2l-.2,-.1l-6.4,-2.9l-.3,-.2l.3,-.2l6.4,-2.9l.2,-.1v.3l-.1,.2l-6.3,2.9l-.2,-.4h.2l6.3,3l-.1,.3l-.1,-.2v-2.9Z" class="g1_66"/>
<path d="M516.4,552.1h.3v-2.9h-.3v2.9Z" class="g1_66"/>
<path d="M516.7,552.3h22.6v-.4H516.7v.4Z" class="g1_66"/>
<path d="M538.9,579.1h.4v-27h-.4v27Z" class="g1_66"/>
<path d="M540.6,674.4v3.2l-.3,-.1l-6.2,-2.9l-.4,-.2l.4,-.2l6.2,-2.9l.3,-.1v.3l-.1,.1l-6.3,3l-.1,-.4h.1l6.3,2.9l-.2,.4l-.1,-.2v-2.9Z" class="g1_66"/>
<path d="M540.2,674.4h.4v-2.9h-.4v2.9Z" class="g1_66"/>
<path d="M540.6,674.6h22.5v-.4H540.6v.4Z" class="g1_66"/>
<path d="M562.7,701.3h.4V674.4h-.4v26.9Z" class="g1_66"/>
</svg>