<?xml version="1.0" encoding="UTF-8" standalone="no"?>
<!DOCTYPE svg PUBLIC "-//W3C//DTD SVG 1.1//EN"
"http://www.w3.org/Graphics/SVG/1.1/DTD/svg11.dtd">
<svg viewBox="0 0 811 1017" version="1.1" xmlns="http://www.w3.org/2000/svg" xmlns:xlink="http://www.w3.org/1999/xlink">
<defs>
<clipPath id="c0_109"><path d="M533.9,911.5V879.3H720.3v32.2Z"/></clipPath>
<style type="text/css"><![CDATA[
.g0_109{
}
.g1_109{
fill: none;
stroke: #000000;
stroke-width: 0.763;
stroke-linecap: butt;
stroke-linejoin: miter;
}
]]></style>
</defs>
<path d="M539.7,151.1v3.2l-.2,-.1l-6.4,-2.9l-.3,-.2l.3,-.2l6.4,-2.9l.2,-.1v.2l-.1,.2l-6.3,3l-.2,-.4h.2l6.3,2.9l-.1,.4l-.1,-.2v-2.9Z" class="g0_109"/>
<path d="M539.4,151.1h.3v-3h-.3v3Z" class="g0_109"/>
<path d="M539.7,151.3h22.6v-.4H539.7v.4Z" class="g0_109"/>
<path d="M561.9,172.1h.4v-21h-.4v21Z" class="g0_109"/>
<path d="M539.8,197.8V201l-.2,-.1L533.3,198l-.4,-.2l.4,-.2l6.3,-2.9l.2,-.1v.3l-.1,.2l-6.2,2.9l-.2,-.4h.2l6.2,3l-.1,.3l-.1,-.2v-2.9Z" class="g0_109"/>
<path d="M539.5,197.8h.3v-2.9h-.3v2.9Z" class="g0_109"/>
<path d="M539.9,198h22.2v-.4H539.9v.4Z" class="g0_109"/>
<path d="M561.7,197.8h.4V169.1h-.4v28.7Z" class="g0_109"/>
<path d="M495.8,425.3v3.2h-.2l-6.4,-3l-.3,-.2l.3,-.1l6.4,-3l.2,-.1v.3l-.1,.2l-6.3,2.9l-.2,-.3h.2l6.3,2.9l-.1,.4l-.1,-.2v-3Z" class="g0_109"/>
<path d="M495.5,425.3h.3v-2.9h-.3v2.9Z" class="g0_109"/>
<path d="M495.8,425.5h22.6v-.3H495.8v.3Z" class="g0_109"/>
<path d="M518,446.3h.4v-21H518v21Z" class="g0_109"/>
<path d="M495.9,472v3.2l-.3,-.1l-6.2,-2.9L489,472l.4,-.2l6.2,-2.8l.3,-.1v.3l-.1,.1l-6.2,2.9l-.2,-.4h.2l6.2,2.9l-.2,.4V472Z" class="g0_109"/>
<path d="M495.5,472h.4v-2.8h-.4V472Z" class="g0_109"/>
<path d="M495.9,472.2h22.3v-.4H495.9v.4Z" class="g0_109"/>
<path d="M517.8,472h.4V443.4h-.4V472Z" class="g0_109"/>
<path d="M300.6,694.3h-145c-1.6,0,-2.9,-1.3,-2.9,-2.9V664.6c0,-1.6,1.3,-2.9,2.9,-2.9h145c1.6,0,2.9,1.3,2.9,2.9v26.8c0,1.6,-1.3,2.9,-2.9,2.9Zm0,42h-145c-1.6,0,-2.9,-1.3,-2.9,-2.9V706.7c0,-1.7,1.3,-3,2.9,-3h145c1.6,0,2.9,1.3,2.9,3v26.7c0,1.6,-1.3,2.9,-2.9,2.9Zm8.9,7.7H146.6c-1.6,0,-2.9,-1.3,-2.9,-2.9v-101c0,-1.7,1.3,-3,2.9,-3H309.5c1.6,0,2.9,1.3,2.9,3v101c0,1.6,-1.3,2.9,-2.9,2.9ZM562.2,694.3h-145c-1.6,0,-2.9,-1.3,-2.9,-2.9V664.6c0,-1.6,1.3,-2.9,2.9,-2.9h145c1.6,0,2.9,1.3,2.9,2.9v26.8c0,1.6,-1.3,2.9,-2.9,2.9Zm0,42h-145c-1.6,0,-2.9,-1.3,-2.9,-2.9V706.7c0,-1.7,1.3,-3,2.9,-3h145c1.6,0,2.9,1.3,2.9,3v26.7c0,1.6,-1.3,2.9,-2.9,2.9Zm8.9,7.7h-166c-1.6,0,-2.9,-1.3,-2.9,-2.9v-101c0,-1.7,1.3,-3,2.9,-3h166c1.6,0,2.9,1.3,2.9,3v101c0,1.6,-1.3,2.9,-2.9,2.9ZM303.4,678.4H406.6" class="g1_109"/>
<path d="M405.1,680.6l8.3,-2.2l-8.3,-2.2v4.4Z" class="g0_109"/>
<path d="M303.4,720.5H406.6" class="g1_109"/>
<path d="M405.1,722.8l8.3,-2.3l-8.3,-2.2v4.5Z" class="g0_109"/>
<path d="M548.8,884.5v3.2l-.3,-.1l-6.3,-2.9l-.4,-.2l.4,-.2l6.3,-2.9l.3,-.1v.3l-.1,.1l-6.3,3l-.2,-.4h.2l6.3,2.9l-.2,.4l-.1,-.2v-2.9Z" class="g0_109"/>
<path d="M548.4,884.5h.4v-2.9h-.4v2.9Z" class="g0_109"/>
<path d="M548.8,884.7h22.6v-.4H548.8v.4Z" class="g0_109"/>
<g clip-path="url(#c0_109)">
<path d="M571,911.6h.4V884.5H571v27.1Z" class="g0_109"/>
</g>
</svg>