<?xml version="1.0" encoding="UTF-8" standalone="no"?>
<!DOCTYPE svg PUBLIC "-//W3C//DTD SVG 1.1//EN"
"http://www.w3.org/Graphics/SVG/1.1/DTD/svg11.dtd">
<svg viewBox="0 0 811 1017" version="1.1" xmlns="http://www.w3.org/2000/svg" xmlns:xlink="http://www.w3.org/1999/xlink">
<defs>
<style type="text/css"><![CDATA[
.g0_162{
fill: #70A6CC;
}
.g1_162{
fill: #FFFFFF;
}
.g2_162{
fill: none;
stroke: #000000;
stroke-width: 0.763;
stroke-linecap: butt;
stroke-linejoin: miter;
}
.g3_162{
}
]]></style>
</defs>
<path d="M156.1,736.3H724.4V714.4H156.1v21.9Z" class="g0_162"/>
<path d="M548,197.8H508.1c-.8,0,-1.5,-.7,-1.5,-1.6v-14c0,-.8,.7,-1.6,1.5,-1.6H548c.9,0,1.6,.8,1.6,1.6v14c0,.9,-.7,1.6,-1.6,1.6Z" class="g1_162"/>
<path d="M548,197.8H508.1c-.8,0,-1.5,-.7,-1.5,-1.6v-14c0,-.8,.7,-1.6,1.5,-1.6H548c.9,0,1.6,.8,1.6,1.6v14c0,.9,-.7,1.6,-1.6,1.6Z" class="g2_162"/>
<path d="M634.8,197.8H594.9c-.9,0,-1.6,-.7,-1.6,-1.6v-14c0,-.8,.7,-1.6,1.6,-1.6h39.9c.8,0,1.6,.8,1.6,1.6v14c0,.9,-.8,1.6,-1.6,1.6Z" class="g1_162"/>
<path d="M634.8,197.8H594.9c-.9,0,-1.6,-.7,-1.6,-1.6v-14c0,-.8,.7,-1.6,1.6,-1.6h39.9c.8,0,1.6,.8,1.6,1.6v14c0,.9,-.8,1.6,-1.6,1.6Z" class="g2_162"/>
<path d="M721.6,197.8H681.7c-.9,0,-1.6,-.7,-1.6,-1.6v-14c0,-.8,.7,-1.6,1.6,-1.6h39.9c.8,0,1.5,.8,1.5,1.6v14c0,.9,-.7,1.6,-1.5,1.6Z" class="g1_162"/>
<path d="M721.6,197.8H681.7c-.9,0,-1.6,-.7,-1.6,-1.6v-14c0,-.8,.7,-1.6,1.6,-1.6h39.9c.8,0,1.5,.8,1.5,1.6v14c0,.9,-.7,1.6,-1.5,1.6Z" class="g2_162"/>
<path d="M462,771.2v3.2l-.3,-.1l-6.3,-2.9l-.4,-.2l.4,-.2l6.3,-2.9l.3,-.1v.3l-.1,.1l-6.3,3l-.2,-.4h.2l6.3,2.9l-.2,.4l-.1,-.2v-2.9Z" class="g3_162"/>
<path d="M461.6,771.2h.4v-2.9h-.4v2.9Z" class="g3_162"/>
<path d="M462,771.4h27.4V771H462v.4Z" class="g3_162"/>
<path d="M489,797.2h.4v-26H489v26Z" class="g3_162"/>
</svg>