<?xml version="1.0" encoding="UTF-8" standalone="no"?>
<!DOCTYPE svg PUBLIC "-//W3C//DTD SVG 1.1//EN"
"http://www.w3.org/Graphics/SVG/1.1/DTD/svg11.dtd">
<svg viewBox="0 0 811 1017" version="1.1" xmlns="http://www.w3.org/2000/svg" xmlns:xlink="http://www.w3.org/1999/xlink">
<defs>
<clipPath id="c0_63"><path d="M376.9,621.6v-66H709.3v66Z"/></clipPath>
<style type="text/css"><![CDATA[
.g0_63{
fill: #70A6CC;
}
.g1_63{
}
]]></style>
</defs>
<path d="M142.4,527.8H710.7V506H142.4v21.8Z" class="g0_63"/>
<path d="M142.4,812.2H710.7V790.9H142.4v21.3Z" class="g0_63"/>
<g clip-path="url(#c0_63)">
<path d="M588.1,621.6h.4V563h-.4v58.6Z" class="g1_63"/>
</g>
<path d="M521.6,564.2v3.2l-.3,-.1L515,564.4l-.4,-.2l.4,-.2l6.3,-2.9l.3,-.1v.3l-.1,.2l-6.3,2.9L515,564h.2l6.3,3l-.2,.3l-.1,-.2v-2.9Z" class="g1_63"/>
<path d="M521.2,564.2h.4v-2.9h-.4v2.9Z" class="g1_63"/>
<path d="M521.6,564.4h66.9V564H521.6v.4Z" class="g1_63"/>
<path d="M588.1,570.6h.4v-6.4h-.4v6.4Z" class="g1_63"/>
<path d="M133.7,581.7v-3.2l.2,.1l6.4,2.9l.3,.2l-.3,.2l-6.4,2.9l-.2,.1v-.4l6.4,-3l.2,.4h-.2L133.7,579l.2,-.4l.1,.2v2.9Z" class="g1_63"/>
<path d="M133.7,584.6h.3v-2.9h-.3v2.9Z" class="g1_63"/>
<path d="M120.3,581.9h13.4v-.4H120.3v.4Z" class="g1_63"/>
<path d="M120.3,581.7h.3V540.4h-.3v41.3Z" class="g1_63"/>
<path d="M389.7,597.6v3.2l-.3,-.1l-6.2,-2.9l-.4,-.2l.4,-.2l6.2,-2.9l.3,-.1v.2l-.1,.2l-6.2,3l-.2,-.4h.2l6.2,2.9l-.2,.4l-.1,-.2v-2.9Z" class="g1_63"/>
<path d="M389.3,597.6h.4v-3h-.4v3Z" class="g1_63"/>
<path d="M389.7,597.8h23.2v-.4H389.7v.4Z" class="g1_63"/>
<path d="M412.5,597.6h.4V571.5h-.4v26.1Z" class="g1_63"/>
<path d="M145.3,612.6v-3.2l.3,.1l6.3,2.9l.4,.2l-.4,.2l-6.3,2.9l-.3,.1v-.3l.1,-.1l6.3,-3l.2,.4h-.2l-6.3,-2.9l.2,-.4l.1,.2v2.9Z" class="g1_63"/>
<path d="M145.3,615.5h.4v-2.9h-.4v2.9Z" class="g1_63"/>
<path d="M131.4,612.8h13.9v-.4H131.4v.4Z" class="g1_63"/>
<path d="M131.4,638.5h.3V612.6h-.3v25.9Z" class="g1_63"/>
<path d="M389.7,643.4v3.2l-.3,-.1l-6.2,-2.9l-.4,-.2l.4,-.2l6.2,-2.9l.3,-.1v.3l-.1,.2l-6.2,2.9l-.2,-.4h.2l6.2,3l-.2,.3l-.1,-.2v-2.9Z" class="g1_63"/>
<path d="M389.3,643.4h.4v-2.9h-.4v2.9Z" class="g1_63"/>
<path d="M389.7,643.6h23.2v-.4H389.7v.4Z" class="g1_63"/>
<path d="M412.5,643.4h.4v-26h-.4v26Z" class="g1_63"/>
</svg>