<?xml version="1.0" encoding="UTF-8" standalone="no"?>
<!DOCTYPE svg PUBLIC "-//W3C//DTD SVG 1.1//EN"
"http://www.w3.org/Graphics/SVG/1.1/DTD/svg11.dtd">
<svg viewBox="0 0 811 1017" version="1.1" xmlns="http://www.w3.org/2000/svg" xmlns:xlink="http://www.w3.org/1999/xlink">
<defs>
<style type="text/css"><![CDATA[
.g0_317{
fill: none;
stroke: #000000;
stroke-width: 0.458;
stroke-linecap: butt;
stroke-linejoin: miter;
}
]]></style>
</defs>
<path d="M209.6,434.2c0,10.4,9.8,18.6,10.2,27.7m-19.2,9.7c0,-2.7,2.1,-4.9,4.8,-4.9h9.7c2.7,0,4.7,-2.1,4.7,-4.8c0,2.7,2.1,4.8,4.8,4.8h9.7c2.7,0,4.8,2.2,4.8,4.9M358.7,434.2c0,10.4,-9.8,18.6,-10.3,27.7m13.8,9.7c0,-2.7,-2.1,-4.9,-4.7,-4.9h-4.3c-2.7,0,-4.8,-2.1,-4.8,-4.8c0,2.7,-2.1,4.8,-4.7,4.8h-4.2c-2.7,0,-4.8,2.2,-4.8,4.9M286.9,434.2c0,10.4,-9.9,18.6,-10.3,27.7m25.8,9.7c0,-2.7,-2.1,-4.9,-4.8,-4.9H281.3c-2.6,0,-4.7,-2.1,-4.7,-4.8c0,2.7,-2.1,4.8,-4.8,4.8H255.5c-2.6,0,-4.7,2.2,-4.7,4.9" class="g0_317"/>
</svg>