<?xml version="1.0" encoding="UTF-8" standalone="no"?>
<!DOCTYPE svg PUBLIC "-//W3C//DTD SVG 1.1//EN"
"http://www.w3.org/Graphics/SVG/1.1/DTD/svg11.dtd">
<svg viewBox="0 0 811 1017" version="1.1" xmlns="http://www.w3.org/2000/svg" xmlns:xlink="http://www.w3.org/1999/xlink">
<defs>
<clipPath id="c0_327"><path d="M495.6,531.3V498.4H737.5v32.9Z"/></clipPath>
<style type="text/css"><![CDATA[
.g0_327{
fill: #70A6CC;
}
.g1_327{
}
]]></style>
</defs>
<path d="M142.4,755.5H710.7V733.6H142.4v21.9Z" class="g0_327"/>
<path d="M510.6,503.5v3.2l-.3,-.1l-6.2,-2.9l-.4,-.2l.4,-.2l6.2,-2.9l.3,-.1v.3l-.1,.2l-6.2,2.9l-.2,-.4h.2l6.2,3l-.2,.3l-.1,-.1v-3Z" class="g1_327"/>
<path d="M510.2,503.5h.4v-2.9h-.4v2.9Z" class="g1_327"/>
<path d="M510.6,503.7h22.5v-.4H510.6v.4Z" class="g1_327"/>
<g clip-path="url(#c0_327)">
<path d="M532.8,531.3h.3V503.5h-.3v27.8Z" class="g1_327"/>
</g>
<path d="M542.5,865.7v3.2l-.3,-.1L536,865.9l-.4,-.2l.4,-.2l6.2,-2.8l.3,-.1v.3l-.1,.1l-6.2,2.9l-.2,-.4h.2l6.2,3l-.2,.3l-.1,-.2v-2.9Z" class="g1_327"/>
<path d="M542.1,865.7h.4v-2.8h-.4v2.8Z" class="g1_327"/>
<path d="M542.5,865.9h23.2v-.4H542.5v.4Z" class="g1_327"/>
<path d="M565.3,865.7h.4v-26h-.4v26Z" class="g1_327"/>
<path d="M145,891.5v-3.2h.3l6.3,3l.4,.2l-.4,.1l-6.3,3l-.3,.1v-.3l.1,-.2l6.3,-2.9l.2,.3h-.2l-6.3,-2.9l.2,-.4l.1,.2v3Z" class="g1_327"/>
<path d="M145,894.4h.4v-2.9H145v2.9Z" class="g1_327"/>
<path d="M125.3,891.6H145v-.3H125.3v.3Z" class="g1_327"/>
<path d="M125.3,929h.4V891.5h-.4V929Z" class="g1_327"/>
</svg>