<?xml version="1.0" encoding="UTF-8" standalone="no"?>
<!DOCTYPE svg PUBLIC "-//W3C//DTD SVG 1.1//EN"
"http://www.w3.org/Graphics/SVG/1.1/DTD/svg11.dtd">
<svg viewBox="0 0 811 1017" version="1.1" xmlns="http://www.w3.org/2000/svg" xmlns:xlink="http://www.w3.org/1999/xlink">
<defs>
<style type="text/css"><![CDATA[
.g0_69{
fill: #70A6CC;
}
.g1_69{
}
]]></style>
</defs>
<path d="M142.4,283.7H710.7V261.9H142.4v21.8Z" class="g0_69"/>
<path d="M520.6,333.6v3.2l-.3,-.1L514,333.8l-.4,-.2l.4,-.2l6.3,-2.9l.3,-.1v.2l-.1,.2l-6.3,3l-.2,-.4h.2l6.3,2.9l-.2,.4l-.1,-.2v-2.9Z" class="g1_69"/>
<path d="M520.2,333.6h.4v-3h-.4v3Z" class="g1_69"/>
<path d="M520.6,333.8h23.1v-.4H520.6v.4Z" class="g1_69"/>
<path d="M543.3,333.6h.4V307.5h-.4v26.1Z" class="g1_69"/>
<path d="M451.4,363.9v3.2l-.3,-.1l-6.2,-2.9l-.4,-.2l.4,-.2l6.2,-2.9l.3,-.1v.3l-.1,.2l-6.3,2.9l-.1,-.4h.1l6.3,3l-.2,.3l-.1,-.1v-3Z" class="g1_69"/>
<path d="M451,363.9h.4V361H451v2.9Z" class="g1_69"/>
<path d="M451.4,364.1h22.5v-.4H451.4v.4Z" class="g1_69"/>
<path d="M473.5,390.8h.4V363.9h-.4v26.9Z" class="g1_69"/>
<path d="M640.3,487.3v3.2l-.3,-.1l-6.3,-2.9l-.4,-.2l.4,-.2l6.3,-2.8l.3,-.1v.3l-.1,.1l-6.3,2.9l-.2,-.4h.2l6.3,2.9l-.2,.4l-.1,-.2v-2.9Z" class="g1_69"/>
<path d="M639.9,487.3h.4v-2.8h-.4v2.8Z" class="g1_69"/>
<path d="M640.3,487.5H711v-.4H640.3v.4Z" class="g1_69"/>
<path d="M710.6,487.3h.4V410.6h-.4v76.7Z" class="g1_69"/>
</svg>