<?xml version="1.0" encoding="UTF-8" standalone="no"?>
<!DOCTYPE svg PUBLIC "-//W3C//DTD SVG 1.1//EN"
"http://www.w3.org/Graphics/SVG/1.1/DTD/svg11.dtd">
<svg viewBox="0 0 811 1017" version="1.1" xmlns="http://www.w3.org/2000/svg" xmlns:xlink="http://www.w3.org/1999/xlink">
<defs>
<style type="text/css"><![CDATA[
.g0_83{
fill: #70A6CC;
}
.g1_83{
}
]]></style>
</defs>
<path d="M142.4,161.8H710.7V140.5H142.4v21.3Z" class="g0_83"/>
<path d="M142.4,889.9H710.7V868.7H142.4v21.2Z" class="g0_83"/>
<path d="M473.7,237.3v3.2l-.2,-.1l-6.3,-2.9l-.3,-.2l.3,-.2l6.3,-2.9l.2,-.1v.3l-.1,.2l-6.2,2.9l-.2,-.4h.2l6.2,3l-.1,.3l-.1,-.1v-3Z" class="g1_83"/>
<path d="M473.4,237.3h.3v-2.9h-.3v2.9Z" class="g1_83"/>
<path d="M473.7,237.5h23.1v-.4H473.7v.4Z" class="g1_83"/>
<path d="M496.5,237.3h.3v-26h-.3v26Z" class="g1_83"/>
<path d="M473.7,419.9v3.2l-.2,-.1l-6.3,-2.9l-.3,-.2l.3,-.2l6.3,-2.9l.2,-.1v.3l-.1,.2l-6.2,2.9l-.2,-.4h.2l6.2,3l-.1,.3l-.1,-.1v-3Z" class="g1_83"/>
<path d="M473.4,419.9h.3V417h-.3v2.9Z" class="g1_83"/>
<path d="M473.7,420.1h23.1v-.4H473.7v.4Z" class="g1_83"/>
<path d="M496.5,419.9h.3v-26h-.3v26Z" class="g1_83"/>
</svg>