<?xml version="1.0" encoding="UTF-8" standalone="no"?>
<!DOCTYPE svg PUBLIC "-//W3C//DTD SVG 1.1//EN"
"http://www.w3.org/Graphics/SVG/1.1/DTD/svg11.dtd">
<svg viewBox="0 0 811 1017" version="1.1" xmlns="http://www.w3.org/2000/svg" xmlns:xlink="http://www.w3.org/1999/xlink">
<defs>
<clipPath id="c0_192"><path d="M509.4,344.4V311.5H724.5v32.9Z"/></clipPath>
<style type="text/css"><![CDATA[
.g0_192{
}
]]></style>
</defs>
<path d="M510.4,286.4v3.2l-.3,-.1l-6.2,-3l-.4,-.1l.4,-.2l6.2,-3h.3v.2l-.1,.2l-6.2,2.9l-.2,-.3h.2l6.2,2.9l-.2,.4l-.1,-.2v-2.9Z" class="g0_192"/>
<path d="M510,286.4h.4v-3H510v3Z" class="g0_192"/>
<path d="M510.4,286.5h23.1v-.3H510.4v.3Z" class="g0_192"/>
<path d="M533.1,286.4h.4V224h-.4v62.4Z" class="g0_192"/>
<path d="M556.2,301.7v3.2l-.2,-.1l-6.3,-2.9l-.3,-.2l.3,-.2l6.3,-2.9l.2,-.1v.2l-.1,.2l-6.2,3l-.2,-.4h.2l6.2,2.9l-.1,.4l-.1,-.2v-2.9Z" class="g0_192"/>
<path d="M555.9,301.7h.3v-3h-.3v3Z" class="g0_192"/>
<path d="M556.2,301.9h23.2v-.4H556.2v.4Z" class="g0_192"/>
<path d="M579.1,301.7h.3V264.2h-.3v37.5Z" class="g0_192"/>
<path d="M524.3,316.7v3.2l-.2,-.1l-6.3,-2.9l-.3,-.2l.3,-.2l6.3,-2.9l.2,-.1v.3l-.1,.2l-6.2,2.9l-.2,-.4h.2l6.2,3l-.1,.3l-.1,-.2v-2.9Z" class="g0_192"/>
<path d="M524,316.7h.3v-2.9H524v2.9Z" class="g0_192"/>
<path d="M524.3,316.9h22.6v-.4H524.3v.4Z" class="g0_192"/>
<g clip-path="url(#c0_192)">
<path d="M546.5,344.4h.4V316.7h-.4v27.7Z" class="g0_192"/>
</g>
</svg>