<?xml version="1.0" encoding="UTF-8" standalone="no"?>
<!DOCTYPE svg PUBLIC "-//W3C//DTD SVG 1.1//EN"
"http://www.w3.org/Graphics/SVG/1.1/DTD/svg11.dtd">
<svg viewBox="0 0 811 1017" version="1.1" xmlns="http://www.w3.org/2000/svg" xmlns:xlink="http://www.w3.org/1999/xlink">
<defs>
<style type="text/css"><![CDATA[
.g0_223{
fill: #70A6CC;
}
.g1_223{
fill: #FFFFFF;
}
.g2_223{
fill: none;
stroke: #231F20;
stroke-width: 0.763;
stroke-linecap: butt;
stroke-linejoin: miter;
}
.g3_223{
fill: #231F20;
}
]]></style>
</defs>
<path d="M142.4,881.9H710.7V860.7H142.4v21.2Z" class="g0_223"/>
<path d="M242.9,380.7H145.3c-.9,0,-1.6,-.7,-1.6,-1.6V365.2c0,-.9,.7,-1.6,1.6,-1.6h97.6c.9,0,1.6,.7,1.6,1.6v13.9c0,.9,-.7,1.6,-1.6,1.6Z" class="g1_223"/>
<path d="M242.9,380.7H145.3c-.9,0,-1.6,-.7,-1.6,-1.6V365.2c0,-.9,.7,-1.6,1.6,-1.6h97.6c.9,0,1.6,.7,1.6,1.6v13.9c0,.9,-.7,1.6,-1.6,1.6Z" class="g2_223"/>
<path d="M566.6,380.7h-276c-.9,0,-1.6,-.7,-1.6,-1.6V365.2c0,-.9,.7,-1.6,1.6,-1.6h276c.9,0,1.6,.7,1.6,1.6v13.9c0,.9,-.7,1.6,-1.6,1.6Z" class="g1_223"/>
<path d="M566.6,380.7h-276c-.9,0,-1.6,-.7,-1.6,-1.6V365.2c0,-.9,.7,-1.6,1.6,-1.6h276c.9,0,1.6,.7,1.6,1.6v13.9c0,.9,-.7,1.6,-1.6,1.6Z" class="g2_223"/>
<path d="M244.7,372.1h43.2Z" class="g1_223"/>
<path d="M244.7,372.1h36.4" class="g2_223"/>
<path d="M279.6,374.3l8.3,-2.2l-8.3,-2.3v4.5Z" class="g3_223"/>
<path d="M242.9,405.5H145.3c-.9,0,-1.6,-.7,-1.6,-1.5V390c0,-.9,.7,-1.6,1.6,-1.6h97.6c.9,0,1.6,.7,1.6,1.6v14c0,.8,-.7,1.5,-1.6,1.5Z" class="g1_223"/>
<path d="M242.9,405.5H145.3c-.9,0,-1.6,-.7,-1.6,-1.5V390c0,-.9,.7,-1.6,1.6,-1.6h97.6c.9,0,1.6,.7,1.6,1.6v14c0,.8,-.7,1.5,-1.6,1.5Z" class="g2_223"/>
<path d="M566.6,405.5h-276c-.9,0,-1.6,-.7,-1.6,-1.5V390c0,-.9,.7,-1.6,1.6,-1.6h276c.9,0,1.6,.7,1.6,1.6v14c0,.8,-.7,1.5,-1.6,1.5Z" class="g1_223"/>
<path d="M566.6,405.5h-276c-.9,0,-1.6,-.7,-1.6,-1.5V390c0,-.9,.7,-1.6,1.6,-1.6h276c.9,0,1.6,.7,1.6,1.6v14c0,.8,-.7,1.5,-1.6,1.5Z" class="g2_223"/>
<path d="M244.7,396.9h43.2Z" class="g1_223"/>
<path d="M244.7,396.9h36.4" class="g2_223"/>
<path d="M279.6,399.1l8.3,-2.2l-8.3,-2.2v4.4Z" class="g3_223"/>
</svg>