<?xml version="1.0" encoding="UTF-8" standalone="no"?>
<!DOCTYPE svg PUBLIC "-//W3C//DTD SVG 1.1//EN"
"http://www.w3.org/Graphics/SVG/1.1/DTD/svg11.dtd">
<svg viewBox="0 0 811 1017" version="1.1" xmlns="http://www.w3.org/2000/svg" xmlns:xlink="http://www.w3.org/1999/xlink">
<defs>
<clipPath id="c0_229"><path d="M535.8,584.5V550.6H673.5v33.9Z"/></clipPath>
<clipPath id="c1_229"><path d="M554.9,895.2V861.4h175v33.8Z"/></clipPath>
<style type="text/css"><![CDATA[
.g0_229{
fill: #F7F5E8;
}
.g1_229{
fill: #70A6CC;
}
.g2_229{
}
]]></style>
</defs>
<path d="M142.4,676.8H710.7V348.3H142.4V676.8Z" class="g0_229"/>
<path d="M142.4,847.7H710.7V826.6H142.4v21.1Z" class="g1_229"/>
<path d="M573.7,448.6v3.2l-.3,-.1l-6.3,-2.9l-.4,-.2l.4,-.2l6.3,-2.9l.3,-.1v.3l-.1,.2l-6.4,2.9l-.1,-.4h.1l6.4,3l-.2,.3l-.1,-.1v-3Z" class="g2_229"/>
<path d="M573.3,448.6h.3v-2.9h-.3v2.9Z" class="g2_229"/>
<path d="M573.7,448.8h22.5v-.4H573.7v.4Z" class="g2_229"/>
<path d="M595.8,448.6h.4V406.8h-.4v41.8Z" class="g2_229"/>
<path d="M673.9,540.3v3.2l-.2,-.1l-6.4,-2.9l-.3,-.2l.3,-.2l6.4,-2.9l.2,-.1v.3l-.1,.1l-6.3,3l-.2,-.4h.2l6.3,2.9l-.1,.4l-.1,-.2v-2.9Z" class="g2_229"/>
<path d="M673.6,540.3h.3v-2.9h-.3v2.9Z" class="g2_229"/>
<path d="M673.9,540.5h22.6v-.4H673.9v.4Z" class="g2_229"/>
<path d="M696.1,540.3h.4v-57h-.4v57Z" class="g2_229"/>
<path d="M550.7,555.8V559l-.2,-.1L544.1,556l-.3,-.2l.3,-.2l6.4,-2.9l.2,-.1v.2l-.1,.2l-6.3,3l-.2,-.4h.2l6.3,2.9l-.1,.4l-.1,-.2v-2.9Z" class="g2_229"/>
<path d="M550.4,555.8h.3v-3h-.3v3Z" class="g2_229"/>
<path d="M550.7,556h22.6v-.4H550.7v.4Z" class="g2_229"/>
<g clip-path="url(#c0_229)">
<path d="M572.9,584.5h.4V555.8h-.4v28.7Z" class="g2_229"/>
</g>
<path d="M569.8,866.5v3.2l-.3,-.1l-6.2,-2.9l-.4,-.2l.4,-.2l6.2,-2.9l.3,-.1v.3l-.1,.2l-6.2,2.9l-.2,-.4h.2l6.2,3l-.2,.3l-.1,-.1v-3Z" class="g2_229"/>
<path d="M569.4,866.5h.4v-2.9h-.4v2.9Z" class="g2_229"/>
<path d="M569.8,866.7h22.6v-.4H569.8v.4Z" class="g2_229"/>
<g clip-path="url(#c1_229)">
<path d="M592,895.3h.4V866.5H592v28.8Z" class="g2_229"/>
</g>
<path d="M439.9,881.8V885h-.3l-6.2,-3l-.4,-.2l.4,-.2l6.2,-2.9l.3,-.1v.3l-.1,.2l-6.2,2.9l-.2,-.4h.2l6.2,3l-.2,.4l-.1,-.2v-3Z" class="g2_229"/>
<path d="M439.5,881.8h.4v-2.9h-.4v2.9Z" class="g2_229"/>
<path d="M439.9,882h22.6v-.3H439.9v.3Z" class="g2_229"/>
<path d="M462.1,923.6h.4V881.8h-.4v41.8Z" class="g2_229"/>
</svg>