<?xml version="1.0" encoding="UTF-8" standalone="no"?>
<!DOCTYPE svg PUBLIC "-//W3C//DTD SVG 1.1//EN"
"http://www.w3.org/Graphics/SVG/1.1/DTD/svg11.dtd">
<svg viewBox="0 0 811 1017" version="1.1" xmlns="http://www.w3.org/2000/svg" xmlns:xlink="http://www.w3.org/1999/xlink">
<defs>
<style type="text/css"><![CDATA[
.g0_123{
fill: none;
stroke: #231F20;
stroke-width: 0.763;
stroke-linecap: butt;
stroke-linejoin: miter;
}
.g1_123{
fill: none;
stroke: #000000;
stroke-width: 0.458;
stroke-linecap: butt;
stroke-linejoin: miter;
}
.g2_123{
}
]]></style>
</defs>
<path d="M300.5,416.5H155.6c-1.6,0,-3,-1.3,-3,-3V396.1c0,-1.6,1.4,-2.9,3,-2.9H300.5c1.6,0,2.9,1.3,2.9,2.9v17.4c0,1.7,-1.3,3,-2.9,3Zm7.9,41.8H146.6c-1.6,0,-2.9,-1.3,-2.9,-2.9V438c0,-1.6,1.3,-2.9,2.9,-2.9H308.4c1.6,0,2.9,1.3,2.9,2.9v17.4c0,1.6,-1.3,2.9,-2.9,2.9Zm1.1,-34.2H146.6c-1.6,0,-2.9,-1.3,-2.9,-2.9V351.4c0,-1.6,1.3,-2.9,2.9,-2.9H309.5c1.6,0,2.9,1.3,2.9,2.9v69.8c0,1.6,-1.3,2.9,-2.9,2.9Z" class="g0_123"/>
<path d="M383.8,398.6c-29.7,12.9,-41.2,-6.8,-75.5,6.3" class="g1_123"/>
<path d="M308.1,402.1l-3.6,4.4l5.7,.9l-2.1,-5.3Z" class="g2_123"/>
<path d="M383.8,440.8c-26.6,11.5,-36.9,-6,-67.5,5.5" class="g1_123"/>
<path d="M316.1,443.4l-3.6,4.5l5.6,.8l-2,-5.3Z" class="g2_123"/>
</svg>