<?xml version="1.0" encoding="UTF-8" standalone="no"?>
<!DOCTYPE svg PUBLIC "-//W3C//DTD SVG 1.1//EN"
"http://www.w3.org/Graphics/SVG/1.1/DTD/svg11.dtd">
<svg viewBox="0 0 811 1017" version="1.1" xmlns="http://www.w3.org/2000/svg" xmlns:xlink="http://www.w3.org/1999/xlink">
<defs>
<style type="text/css"><![CDATA[
.g0_266{
fill: #70A6CC;
}
.g1_266{
}
.g2_266{
fill: none;
stroke: #000000;
stroke-width: 0.763;
stroke-linecap: butt;
stroke-linejoin: miter;
}
.g3_266{
fill: #FFFFFF;
}
.g4_266{
fill: #D9F0FA;
}
.g5_266{
fill: #23AF20;
}
.g6_266{
fill: #BF0005;
}
]]></style>
</defs>
<path d="M156.1,181.7H724.4V160.4H156.1v21.3Z" class="g0_266"/>
<path d="M427.4,225.1v3.2l-.3,-.1l-6.4,-2.9l-.3,-.2l.3,-.2l6.4,-2.9l.3,-.1v.3l-.1,.2l-6.4,2.9l-.2,-.4h.2l6.4,3l-.2,.3l-.1,-.1v-3Z" class="g1_266"/>
<path d="M427,225.1h.4v-2.9H427v2.9Z" class="g1_266"/>
<path d="M427.4,225.3h23v-.4h-23v.4Z" class="g1_266"/>
<path d="M450.1,225.1h.3v-26h-.3v26Z" class="g1_266"/>
<path d="M395.8,271v3.2l-.3,-.1l-6.2,-3l-.4,-.1l.4,-.2l6.2,-3h.3v.2l-.1,.2l-6.2,2.9l-.2,-.3h.2l6.2,2.9l-.2,.4l-.1,-.2V271Z" class="g1_266"/>
<path d="M395.4,271h.4v-3h-.4v3Z" class="g1_266"/>
<path d="M395.8,271.2h23.1v-.4H395.8v.4Z" class="g1_266"/>
<path d="M418.5,271h.4V244.9h-.4V271Z" class="g1_266"/>
<path d="M171.1,637.8V598.5" class="g2_266"/>
<path d="M173.3,600l-2.2,-8.3l-2.2,8.3h4.4Z" class="g1_266"/>
<path d="M185.6,589.9h-29c-.8,0,-1.6,-.7,-1.6,-1.6V574.4c0,-.9,.8,-1.6,1.6,-1.6h29c.9,0,1.6,.7,1.6,1.6v13.9c0,.9,-.7,1.6,-1.6,1.6Z" class="g3_266"/>
<path d="M185.6,589.9h-29c-.8,0,-1.6,-.7,-1.6,-1.6V574.4c0,-.9,.8,-1.6,1.6,-1.6h29c.9,0,1.6,.7,1.6,1.6v13.9c0,.9,-.7,1.6,-1.6,1.6Z" class="g2_266"/>
<path d="M185.6,655h-29c-.8,0,-1.6,-.8,-1.6,-1.6v-14c0,-.9,.8,-1.6,1.6,-1.6h29c.9,0,1.6,.7,1.6,1.6v14c0,.8,-.7,1.6,-1.6,1.6Z" class="g4_266"/>
<path d="M185.6,655h-29c-.8,0,-1.6,-.8,-1.6,-1.6v-14c0,-.9,.8,-1.6,1.6,-1.6h29c.9,0,1.6,.7,1.6,1.6v14c0,.8,-.7,1.6,-1.6,1.6Z" class="g2_266"/>
<path d="M200,603.5c-7.7,5,-10.2,7.4,-17,17.1c-1.2,-2.4,-2.2,-5.2,-4.4,-4.9c-2.2,.3,-3,1.3,-4.1,2.2c-1.1,.9,.3,.9,1,1.5c2.2,1.9,3.4,6.3,4.9,9.1c.8,1.5,1.3,1,2.6,.1c1.4,-.9,2.1,-1.4,2.8,-2.6c.7,-1.2,5.6,-12.5,14.9,-20c1.6,-1.3,1.3,-3.8,-.7,-2.5Z" class="g5_266"/>
<path d="M243.9,637.8V598.5" class="g2_266"/>
<path d="M246.2,600l-2.3,-8.3l-2.2,8.3h4.5Z" class="g1_266"/>
<path d="M274.1,589.9H213.7c-.8,0,-1.6,-.7,-1.6,-1.6V574.4c0,-.9,.8,-1.6,1.6,-1.6h60.4c.9,0,1.6,.7,1.6,1.6v13.9c0,.9,-.7,1.6,-1.6,1.6Z" class="g3_266"/>
<path d="M274.1,589.9H213.7c-.8,0,-1.6,-.7,-1.6,-1.6V574.4c0,-.9,.8,-1.6,1.6,-1.6h60.4c.9,0,1.6,.7,1.6,1.6v13.9c0,.9,-.7,1.6,-1.6,1.6Z" class="g2_266"/>
<path d="M274.1,655H213.7c-.8,0,-1.6,-.8,-1.6,-1.6v-14c0,-.9,.8,-1.6,1.6,-1.6h60.4c.9,0,1.6,.7,1.6,1.6v14c0,.8,-.7,1.6,-1.6,1.6Z" class="g4_266"/>
<path d="M274.1,655H213.7c-.8,0,-1.6,-.8,-1.6,-1.6v-14c0,-.9,.8,-1.6,1.6,-1.6h60.4c.9,0,1.6,.7,1.6,1.6v14c0,.8,-.7,1.6,-1.6,1.6Z" class="g2_266"/>
<path d="M272.8,603.5c-7.7,5,-10.1,7.4,-17,17.1c-1.2,-2.4,-2.2,-5.2,-4.4,-4.9c-2.2,.3,-3,1.3,-4.1,2.2c-1.1,.9,.4,.9,1,1.5c2.2,1.9,3.4,6.3,4.9,9.1c.8,1.5,1.3,1,2.6,.1c1.4,-.9,2.1,-1.4,2.8,-2.6c.7,-1.2,5.6,-12.5,14.9,-20c1.6,-1.3,1.3,-3.8,-.7,-2.5Z" class="g5_266"/>
<path d="M332.5,637.8V598.5" class="g2_266"/>
<path d="M334.7,600l-2.2,-8.3l-2.2,8.3h4.4Z" class="g1_266"/>
<path d="M362.7,589.9H302.3c-.9,0,-1.6,-.7,-1.6,-1.6V574.4c0,-.9,.7,-1.6,1.6,-1.6h60.4c.9,0,1.6,.7,1.6,1.6v13.9c0,.9,-.7,1.6,-1.6,1.6Z" class="g4_266"/>
<path d="M362.7,589.9H302.3c-.9,0,-1.6,-.7,-1.6,-1.6V574.4c0,-.9,.7,-1.6,1.6,-1.6h60.4c.9,0,1.6,.7,1.6,1.6v13.9c0,.9,-.7,1.6,-1.6,1.6Z" class="g2_266"/>
<path d="M362.7,655H302.3c-.9,0,-1.6,-.8,-1.6,-1.6v-14c0,-.9,.7,-1.6,1.6,-1.6h60.4c.9,0,1.6,.7,1.6,1.6v14c0,.8,-.7,1.6,-1.6,1.6Z" class="g3_266"/>
<path d="M362.7,655H302.3c-.9,0,-1.6,-.8,-1.6,-1.6v-14c0,-.9,.7,-1.6,1.6,-1.6h60.4c.9,0,1.6,.7,1.6,1.6v14c0,.8,-.7,1.6,-1.6,1.6Z" class="g2_266"/>
<path d="M333,612.3c-2.2,-2.3,-6.4,-8.2,-6.7,-8.7c-.2,-.4,-.5,-1,-1,-.6c-.5,.4,-3.4,2.7,-2.8,5.1c.5,2.4,5.3,7,6.5,8.7c-2,2.1,-4.6,7.3,-7,7.3c-1,0,1.8,3.8,2.9,4.2c1.2,.4,2.2,1.1,4.1,-1.2c1.9,-2.3,4.2,-6.1,4.2,-6.1c2.3,1.9,7.7,9.3,10.5,6.2c1.5,-1.7,2.9,-3.7,1.4,-3.7c-1.5,0,-6.6,-5.3,-8,-7c2.2,-2.6,4.7,-7.9,6.1,-8.2c1.5,-.2,1.8,0,1.3,-1.4c-.5,-1.4,-2.2,-4.5,-5.7,-2.2c-1.6,1,-4.9,6.9,-5.8,7.6Z" class="g6_266"/>
<path d="M395.8,786.1v3.2l-.3,-.1l-6.2,-2.9l-.4,-.2l.4,-.1l6.2,-3l.3,-.1v.3l-.1,.2l-6.2,2.9l-.2,-.3h.2l6.2,2.9l-.2,.3l-.1,-.1v-3Z" class="g1_266"/>
<path d="M395.4,786.1h.4v-2.9h-.4v2.9Z" class="g1_266"/>
<path d="M395.8,786.3h23.1v-.4H395.8v.4Z" class="g1_266"/>
<path d="M418.5,786.1h.4v-26h-.4v26Z" class="g1_266"/>
</svg>