<?xml version="1.0" encoding="UTF-8" standalone="no"?>
<!DOCTYPE svg PUBLIC "-//W3C//DTD SVG 1.1//EN"
"http://www.w3.org/Graphics/SVG/1.1/DTD/svg11.dtd">
<svg viewBox="0 0 811 1017" version="1.1" xmlns="http://www.w3.org/2000/svg" xmlns:xlink="http://www.w3.org/1999/xlink">
<defs>
<clipPath id="c0_243"><path d="M495.6,556.5V523.6H710.8v32.9Z"/></clipPath>
<clipPath id="c1_243"><path d="M483.3,646.6V613.7H727v32.9Z"/></clipPath>
<style type="text/css"><![CDATA[
.g0_243{
fill: #70A6CC;
}
.g1_243{
}
]]></style>
</defs>
<path d="M142.4,850.5H710.7V829.3H142.4v21.2Z" class="g0_243"/>
<path d="M510.6,528.7v3.2l-.3,-.1l-6.2,-2.9l-.4,-.2l.4,-.2l6.2,-2.9l.3,-.1v.3l-.1,.2l-6.2,2.9l-.2,-.4h.2l6.2,3l-.2,.3l-.1,-.1v-3Z" class="g1_243"/>
<path d="M510.2,528.7h.4v-2.9h-.4v2.9Z" class="g1_243"/>
<path d="M510.6,528.9h22.5v-.4H510.6v.4Z" class="g1_243"/>
<g clip-path="url(#c0_243)">
<path d="M532.8,556.6h.3V528.7h-.3v27.9Z" class="g1_243"/>
</g>
<path d="M498.2,618.9v3.2h-.3l-6.3,-3l-.4,-.2l.4,-.1l6.3,-3l.3,-.1v.3l-.1,.2l-6.3,2.9l-.2,-.3h.2l6.3,2.9l-.2,.4l-.1,-.2v-3Z" class="g1_243"/>
<path d="M497.8,618.9h.4V616h-.4v2.9Z" class="g1_243"/>
<path d="M498.2,619.1h22.6v-.3H498.2v.3Z" class="g1_243"/>
<g clip-path="url(#c1_243)">
<path d="M520.4,646.7h.4V618.9h-.4v27.8Z" class="g1_243"/>
</g>
</svg>