<?xml version="1.0" encoding="UTF-8" standalone="no"?>
<!DOCTYPE svg PUBLIC "-//W3C//DTD SVG 1.1//EN"
"http://www.w3.org/Graphics/SVG/1.1/DTD/svg11.dtd">
<svg viewBox="0 0 811 1017" version="1.1" xmlns="http://www.w3.org/2000/svg" xmlns:xlink="http://www.w3.org/1999/xlink">
<defs>
<style type="text/css"><![CDATA[
.g0_57{
fill: #70A6CC;
}
.g1_57{
}
]]></style>
</defs>
<path d="M142.4,161.8H710.7V140.5H142.4v21.3Z" class="g0_57"/>
<path d="M142.4,478.5H710.7V456.7H142.4v21.8Z" class="g0_57"/>
<path d="M502,181.1v3.2l-.3,-.1l-6.2,-2.9l-.4,-.2l.4,-.1l6.2,-3l.3,-.1v.3l-.1,.2l-6.3,2.9l-.1,-.3h.1l6.3,2.9l-.2,.3l-.1,-.1v-3Z" class="g1_57"/>
<path d="M501.6,181.1h.4v-2.9h-.4v2.9Z" class="g1_57"/>
<path d="M502.1,181.3h92.3v-.4H502.1v.4Z" class="g1_57"/>
<path d="M594,222.5h.4V181.1H594v41.4Z" class="g1_57"/>
<path d="M442.2,196.4v3.2h-.3l-6.3,-3l-.4,-.2l.4,-.1l6.3,-3l.3,-.1v.3l-.1,.2l-6.3,2.9l-.2,-.3h.2l6.3,2.9l-.2,.4l-.1,-.2v-3Z" class="g1_57"/>
<path d="M441.8,196.4h.4v-2.9h-.4v2.9Z" class="g1_57"/>
<path d="M442.2,196.6h27.4v-.3H442.2v.3Z" class="g1_57"/>
<path d="M469.2,254.9h.4V196.4h-.4v58.5Z" class="g1_57"/>
<path d="M142.5,238.6v-3.2l.3,.1l6.3,2.9l.4,.2l-.4,.2l-6.3,2.9l-.3,.1v-.3l.1,-.1l6.4,-3l.1,.4H149l-6.4,-2.9l.2,-.4l.1,.2v2.9Z" class="g1_57"/>
<path d="M142.5,241.5h.4v-2.9h-.4v2.9Z" class="g1_57"/>
<path d="M122.8,238.8h19.7v-.4H122.8v.4Z" class="g1_57"/>
<path d="M122.8,278.9h.4V238.6h-.4v40.3Z" class="g1_57"/>
<path d="M463.8,513.2v3.2l-.2,-.1l-6.3,-3l-.3,-.1l.3,-.2l6.3,-3l.2,-.1v.3l-.1,.2l-6.2,2.9l-.2,-.3h.2l6.2,2.9l-.1,.4l-.1,-.2v-2.9Z" class="g1_57"/>
<path d="M463.5,513.2h.3v-3h-.3v3Z" class="g1_57"/>
<path d="M463.8,513.3h26.5V513H463.8v.3Z" class="g1_57"/>
<path d="M490,554.5h.3V513.2H490v41.3Z" class="g1_57"/>
<path d="M173.9,527.8v-3.2l.3,.1l6.2,2.9l.4,.2l-.4,.2l-6.2,2.9l-.3,.1v-.2l.1,-.2l6.2,-3l.2,.4h-.2L174,525.1l.2,-.4l.1,.2v2.9Z" class="g1_57"/>
<path d="M173.9,530.7h.4v-2.9h-.4v2.9Z" class="g1_57"/>
<path d="M154.2,528h19.7v-.4H154.2v.4Z" class="g1_57"/>
<path d="M154.2,567.2h.3V527.8h-.3v39.4Z" class="g1_57"/>
<path d="M556.2,574.3l-.1,2.8l-.1,.3l-.1,-.1l-6.3,-2.8l-.3,-.2l.3,-.2l6.3,-2.9l.2,-.1v.3l-.1,.1l-6.2,3l-.2,-.4h.2l6.2,2.8l-.1,.4l-.1,-.2l.1,-2.8Z" class="g1_57"/>
<path d="M556.1,571.4l.1,2.9h-.3l-.1,-2.9Z" class="g1_57"/>
<path d="M556.2,574.5h27.4v-.4H556.2v.4Z" class="g1_57"/>
<path d="M583.3,614.1h.3V574.3h-.3v39.8Z" class="g1_57"/>
</svg>