<?xml version="1.0" encoding="UTF-8" standalone="no"?>
<!DOCTYPE svg PUBLIC "-//W3C//DTD SVG 1.1//EN"
"http://www.w3.org/Graphics/SVG/1.1/DTD/svg11.dtd">
<svg viewBox="0 0 811 1017" version="1.1" xmlns="http://www.w3.org/2000/svg" xmlns:xlink="http://www.w3.org/1999/xlink">
<defs>
<clipPath id="c0_176"><path d="M443.5,149.2V116.1H658.6v33.1Z"/></clipPath>
<style type="text/css"><![CDATA[
.g0_176{
fill: #70A6CC;
}
.g1_176{
}
.g2_176{
fill: #FFFFFF;
}
.g3_176{
fill: none;
stroke: #000000;
stroke-width: 0.763;
stroke-linecap: butt;
stroke-linejoin: miter;
}
.g4_176{
fill: none;
stroke: #000000;
stroke-width: 0.458;
stroke-linecap: butt;
stroke-linejoin: miter;
}
]]></style>
</defs>
<path d="M156.1,102.4H724.4V80.6H156.1v21.8Z" class="g0_176"/>
<path d="M458.4,121.2v3.2l-.2,-.1l-6.3,-2.9l-.3,-.2l.3,-.2l6.3,-2.9l.2,-.1v.3l-.1,.1l-6.2,3l-.2,-.4h.2l6.2,2.9l-.1,.4l-.1,-.2v-2.9Z" class="g1_176"/>
<path d="M458.1,121.2h.3v-2.9h-.3v2.9Z" class="g1_176"/>
<path d="M458.4,121.4h22.7V121H458.4v.4Z" class="g1_176"/>
<g clip-path="url(#c0_176)">
<path d="M480.7,149.3h.4V121.2h-.4v28.1Z" class="g1_176"/>
</g>
<path d="M536.8,167v3.2l-.3,-.1l-6.3,-2.9l-.4,-.2l.4,-.2l6.3,-2.9l.3,-.1v.3l-.1,.2l-6.3,2.9l-.2,-.4h.2l6.3,3l-.2,.3l-.1,-.2V167Z" class="g1_176"/>
<path d="M536.4,167h.4v-2.9h-.4V167Z" class="g1_176"/>
<path d="M536.8,167.2h22.5v-.4H536.8v.4Z" class="g1_176"/>
<path d="M559,208.8h.3V167H559v41.8Z" class="g1_176"/>
<path d="M548.3,513.1H487c-.9,0,-1.6,-.7,-1.6,-1.5v-14c0,-.9,.7,-1.6,1.6,-1.6h61.3c.9,0,1.6,.7,1.6,1.6v14c0,.8,-.7,1.5,-1.6,1.5Z" class="g2_176"/>
<path d="M548.3,513.1H487c-.9,0,-1.6,-.7,-1.6,-1.5v-14c0,-.9,.7,-1.6,1.6,-1.6h61.3c.9,0,1.6,.7,1.6,1.6v14c0,.8,-.7,1.5,-1.6,1.5Z" class="g3_176"/>
<path d="M635.1,513.1H595.2c-.9,0,-1.6,-.7,-1.6,-1.5v-14c0,-.9,.7,-1.6,1.6,-1.6h39.9c.8,0,1.5,.7,1.5,1.6v14c0,.8,-.7,1.5,-1.5,1.5Z" class="g2_176"/>
<path d="M635.1,513.1H595.2c-.9,0,-1.6,-.7,-1.6,-1.5v-14c0,-.9,.7,-1.6,1.6,-1.6h39.9c.8,0,1.5,.7,1.5,1.6v14c0,.8,-.7,1.5,-1.5,1.5Z" class="g3_176"/>
<path d="M721.8,513.1H682c-.9,0,-1.6,-.7,-1.6,-1.5v-14c0,-.9,.7,-1.6,1.6,-1.6h39.8c.9,0,1.6,.7,1.6,1.6v14c0,.8,-.7,1.5,-1.6,1.5Z" class="g2_176"/>
<path d="M721.8,513.1H682c-.9,0,-1.6,-.7,-1.6,-1.5v-14c0,-.9,.7,-1.6,1.6,-1.6h39.8c.9,0,1.6,.7,1.6,1.6v14c0,.8,-.7,1.5,-1.6,1.5Z" class="g3_176"/>
<path d="M548.3,543.3H487c-.9,0,-1.6,-.7,-1.6,-1.6V527.8c0,-.9,.7,-1.6,1.6,-1.6h61.3c.9,0,1.6,.7,1.6,1.6v13.9c0,.9,-.7,1.6,-1.6,1.6Z" class="g2_176"/>
<path d="M548.3,543.3H487c-.9,0,-1.6,-.7,-1.6,-1.6V527.8c0,-.9,.7,-1.6,1.6,-1.6h61.3c.9,0,1.6,.7,1.6,1.6v13.9c0,.9,-.7,1.6,-1.6,1.6Z" class="g3_176"/>
<path d="M635.1,543.3H595.2c-.9,0,-1.6,-.7,-1.6,-1.6V527.8c0,-.9,.7,-1.6,1.6,-1.6h39.9c.8,0,1.5,.7,1.5,1.6v13.9c0,.9,-.7,1.6,-1.5,1.6Z" class="g2_176"/>
<path d="M635.1,543.3H595.2c-.9,0,-1.6,-.7,-1.6,-1.6V527.8c0,-.9,.7,-1.6,1.6,-1.6h39.9c.8,0,1.5,.7,1.5,1.6v13.9c0,.9,-.7,1.6,-1.5,1.6Z" class="g3_176"/>
<path d="M721.8,543.3H682c-.9,0,-1.6,-.7,-1.6,-1.6V527.8c0,-.9,.7,-1.6,1.6,-1.6h39.8c.9,0,1.6,.7,1.6,1.6v13.9c0,.9,-.7,1.6,-1.6,1.6Z" class="g2_176"/>
<path d="M721.8,543.3H682c-.9,0,-1.6,-.7,-1.6,-1.6V527.8c0,-.9,.7,-1.6,1.6,-1.6h39.8c.9,0,1.6,.7,1.6,1.6v13.9c0,.9,-.7,1.6,-1.6,1.6Z" class="g3_176"/>
<path d="M555.9,578.4c0,-10.3,5.2,-7.9,5.6,-17m76.6,-12c0,3.3,-2.7,6,-6,6H567.6c-3.4,0,-6.1,2.7,-6.1,6c0,-3.3,-2.6,-6,-5.9,-6H490.5c-3.4,0,-6.1,-2.7,-6.1,-6m212,29c0,-10.3,5.3,-7.9,5.7,-17m21.9,-12c0,3.3,-2.7,6,-6.1,6h-9.8c-3.3,0,-6,2.7,-6,6c0,-3.3,-2.6,-6,-6,-6H685.8c-3.4,0,-6,-2.7,-6,-6" class="g4_176"/>
<path d="M631.9,807H592c-.9,0,-1.6,-.7,-1.6,-1.6V791.5c0,-.9,.7,-1.6,1.6,-1.6h39.9c.8,0,1.6,.7,1.6,1.6v13.9c0,.9,-.8,1.6,-1.6,1.6Zm-87.7,0H504.4c-.9,0,-1.6,-.7,-1.6,-1.6V791.5c0,-.9,.7,-1.6,1.6,-1.6h39.8c.9,0,1.6,.7,1.6,1.6v13.9c0,.9,-.7,1.6,-1.6,1.6Zm174.4,0H678.8c-.9,0,-1.6,-.7,-1.6,-1.6V791.5c0,-.9,.7,-1.6,1.6,-1.6h39.8c.9,0,1.6,.7,1.6,1.6v13.9c0,.9,-.7,1.6,-1.6,1.6Z" class="g3_176"/>
<path d="M650.7,842.1c0,-10.3,5.2,-7.9,5.7,-17m66.3,-12c0,3.3,-2.7,6,-6.1,6H662.4c-3.3,0,-6,2.7,-6,6c0,-3.3,-2.7,-6,-6,-6H595.6c-3.3,0,-6,-2.7,-6,-6m-71.3,29c0,-10.3,5.2,-7.9,5.7,-17m21.8,-12c0,3.3,-2.7,6,-6,6H530c-3.3,0,-6,2.7,-6,6c0,-3.3,-2.7,-6,-6,-6H507.6c-3.3,0,-6,-2.7,-6,-6" class="g4_176"/>
</svg>