<?xml version="1.0" encoding="UTF-8" standalone="no"?>
<!DOCTYPE svg PUBLIC "-//W3C//DTD SVG 1.1//EN"
"http://www.w3.org/Graphics/SVG/1.1/DTD/svg11.dtd">
<svg viewBox="0 0 811 1017" version="1.1" xmlns="http://www.w3.org/2000/svg" xmlns:xlink="http://www.w3.org/1999/xlink">
<defs>
<clipPath id="c0_175"><path d="M412.6,730.2V697H710.8v33.2Z"/></clipPath>
<clipPath id="c1_175"><path d="M358.1,760.7V727.6H573.3v33.1Z"/></clipPath>
<style type="text/css"><![CDATA[
.g0_175{
fill: #70A6CC;
}
.g1_175{
}
]]></style>
</defs>
<path d="M142.4,667.8H710.7V646.5H142.4v21.3Z" class="g0_175"/>
<path d="M483.3,184.9v3.2L483,188l-6.2,-2.9l-.4,-.2l.4,-.2l6.2,-2.8l.3,-.1v.3l-.1,.1l-6.3,2.9l-.1,-.4h.1l6.3,2.9l-.2,.4l-.1,-.2v-2.9Z" class="g1_175"/>
<path d="M482.9,184.9h.4v-2.8h-.4v2.8Z" class="g1_175"/>
<path d="M483.3,185.1h23.2v-.4H483.3v.4Z" class="g1_175"/>
<path d="M506.1,184.9h.4v-26h-.4v26Z" class="g1_175"/>
<path d="M461.9,702.2v3.2l-.3,-.1l-6.3,-2.9l-.4,-.2l.4,-.2l6.3,-2.9l.3,-.1v.2l-.1,.2l-6.3,3l-.2,-.4h.2l6.3,2.9l-.2,.4l-.1,-.2v-2.9Z" class="g1_175"/>
<path d="M461.5,702.2h.4v-3h-.4v3Z" class="g1_175"/>
<path d="M461.9,702.4h71.2V702H461.9v.4Z" class="g1_175"/>
<g clip-path="url(#c0_175)">
<path d="M532.8,730.3h.3V702.2h-.3v28.1Z" class="g1_175"/>
</g>
<path d="M373.1,732.7v3.2l-.3,-.1l-6.2,-2.9l-.4,-.2l.4,-.2l6.2,-2.9l.3,-.1v.3l-.1,.1l-6.2,3l-.2,-.4h.2l6.2,2.9l-.2,.4l-.1,-.2v-2.9Z" class="g1_175"/>
<path d="M372.7,732.7h.4v-2.9h-.4v2.9Z" class="g1_175"/>
<path d="M373.1,732.9h22.5v-.4H373.1v.4Z" class="g1_175"/>
<g clip-path="url(#c1_175)">
<path d="M395.3,760.8h.3V732.7h-.3v28.1Z" class="g1_175"/>
</g>
</svg>