<?xml version="1.0" encoding="UTF-8" standalone="no"?>
<!DOCTYPE svg PUBLIC "-//W3C//DTD SVG 1.1//EN"
"http://www.w3.org/Graphics/SVG/1.1/DTD/svg11.dtd">
<svg viewBox="0 0 811 1017" version="1.1" xmlns="http://www.w3.org/2000/svg" xmlns:xlink="http://www.w3.org/1999/xlink">
<defs>
<style type="text/css"><![CDATA[
.g0_105{
fill: #FFFFFF;
}
.g1_105{
fill: none;
stroke: #231F20;
stroke-width: 0.763;
stroke-linecap: butt;
stroke-linejoin: miter;
stroke-miterlimit: 4;
}
.g2_105{
fill: #231F20;
}
.g3_105{
fill: #C5E7F8;
}
.g4_105{
fill: #FCF49E;
}
.g5_105{
fill: #F7D3B3;
}
.g6_105{
fill: #C9E09F;
}
.g7_105{
fill: #BF0005;
}
]]></style>
</defs>
<path d="M144.3,278.9H576.8V197.5H144.3v81.4Z" class="g0_105"/>
<path d="M239.1,213.7l-54.2,29.6" class="g1_105"/>
<path d="M185.2,240.6l-6.2,5.9l8.3,-2l-2.1,-3.9Z" class="g2_105"/>
<path d="M238.3,213.7l54.2,29.6" class="g1_105"/>
<path d="M290.1,244.5l8.4,2l-6.3,-5.9l-2.1,3.9Z" class="g2_105"/>
<path d="M238.7,219.6v19.3" class="g1_105"/>
<path d="M236.5,237.4l2.2,8.2l2.2,-8.2h-4.4Z" class="g2_105"/>
<path d="M204.6,262.8c0,8.7,-13.4,15.8,-30,15.8c-16.5,0,-30,-7.1,-30,-15.8c0,-8.7,13.5,-15.8,30,-15.8c16.6,0,30,7.1,30,15.8Z" class="g3_105"/>
<path d="M204.6,262.8c0,8.7,-13.4,15.8,-30,15.8c-16.5,0,-30,-7.1,-30,-15.8c0,-8.7,13.5,-15.8,30,-15.8c16.6,0,30,7.1,30,15.8Z" class="g1_105"/>
<path d="M280,213.7c0,8.7,-18.3,15.8,-40.9,15.8c-22.6,0,-40.9,-7.1,-40.9,-15.8c0,-8.7,18.3,-15.8,40.9,-15.8c22.6,0,40.9,7.1,40.9,15.8Z" class="g4_105"/>
<path d="M280,213.7c0,8.7,-18.3,15.8,-40.9,15.8c-22.6,0,-40.9,-7.1,-40.9,-15.8c0,-8.7,18.3,-15.8,40.9,-15.8c22.6,0,40.9,7.1,40.9,15.8Z" class="g1_105"/>
<path d="M269.2,262.8c0,8.7,-13.5,15.8,-30,15.8c-16.6,0,-30,-7.1,-30,-15.8c0,-8.7,13.4,-15.8,30,-15.8c16.5,0,30,7.1,30,15.8Z" class="g5_105"/>
<path d="M269.2,262.8c0,8.7,-13.5,15.8,-30,15.8c-16.6,0,-30,-7.1,-30,-15.8c0,-8.7,13.4,-15.8,30,-15.8c16.5,0,30,7.1,30,15.8Z" class="g1_105"/>
<path d="M333.6,262.8c0,8.7,-13.5,15.8,-30,15.8c-16.6,0,-30,-7.1,-30,-15.8c0,-8.7,13.4,-15.8,30,-15.8c16.5,0,30,7.1,30,15.8Z" class="g6_105"/>
<path d="M333.6,262.8c0,8.7,-13.5,15.8,-30,15.8c-16.6,0,-30,-7.1,-30,-15.8c0,-8.7,13.4,-15.8,30,-15.8c16.5,0,30,7.1,30,15.8ZM481.9,213.7l-54.2,29.6" class="g1_105"/>
<path d="M428,240.6l-6.2,5.9l8.3,-2L428,240.6Z" class="g2_105"/>
<path d="M481.1,213.7l54.2,29.6" class="g1_105"/>
<path d="M532.9,244.5l8.4,2l-6.2,-5.9l-2.2,3.9Z" class="g2_105"/>
<path d="M481.5,219.6v19.3" class="g1_105"/>
<path d="M479.3,237.4l2.2,8.2l2.3,-8.2h-4.5Z" class="g2_105"/>
<path d="M447.5,262.8c0,8.7,-13.4,15.8,-30,15.8c-16.6,0,-30,-7.1,-30,-15.8c0,-8.7,13.4,-15.8,30,-15.8c16.6,0,30,7.1,30,15.8Z" class="g3_105"/>
<path d="M447.5,262.8c0,8.7,-13.4,15.8,-30,15.8c-16.6,0,-30,-7.1,-30,-15.8c0,-8.7,13.4,-15.8,30,-15.8c16.6,0,30,7.1,30,15.8Z" class="g1_105"/>
<path d="M547.8,213.7c0,8.7,-29.5,15.8,-65.9,15.8c-36.4,0,-65.9,-7.1,-65.9,-15.8c0,-8.7,29.5,-15.8,65.9,-15.8c36.4,0,65.9,7.1,65.9,15.8Z" class="g4_105"/>
<path d="M547.8,213.7c0,8.7,-29.5,15.8,-65.9,15.8c-36.4,0,-65.9,-7.1,-65.9,-15.8c0,-8.7,29.5,-15.8,65.9,-15.8c36.4,0,65.9,7.1,65.9,15.8Z" class="g1_105"/>
<path d="M512,262.8c0,8.7,-13.5,15.8,-30.1,15.8c-16.5,0,-30,-7.1,-30,-15.8c0,-8.7,13.5,-15.8,30,-15.8c16.6,0,30.1,7.1,30.1,15.8Z" class="g5_105"/>
<path d="M512,262.8c0,8.7,-13.5,15.8,-30.1,15.8c-16.5,0,-30,-7.1,-30,-15.8c0,-8.7,13.5,-15.8,30,-15.8c16.6,0,30.1,7.1,30.1,15.8Z" class="g1_105"/>
<path d="M576.4,262.8c0,8.7,-13.4,15.8,-30,15.8c-16.6,0,-30,-7.1,-30,-15.8c0,-8.7,13.4,-15.8,30,-15.8c16.6,0,30,7.1,30,15.8Z" class="g6_105"/>
<path d="M576.4,262.8c0,8.7,-13.4,15.8,-30,15.8c-16.6,0,-30,-7.1,-30,-15.8c0,-8.7,13.4,-15.8,30,-15.8c16.6,0,30,7.1,30,15.8Z" class="g1_105"/>
<path d="M546.7,259.6c-2.2,-2.3,-6.4,-8.2,-6.7,-8.7c-.2,-.3,-.5,-1,-1,-.6c-.6,.4,-3.4,2.7,-2.9,5.1c.5,2.5,5.3,7,6.6,8.7c-2,2.2,-4.6,7.3,-7,7.3c-1.1,0,1.7,3.9,2.9,4.2c1.2,.4,2.1,1.2,4.1,-1.1c1.9,-2.4,4.2,-6.2,4.2,-6.2c2.3,1.9,7.6,9.3,10.5,6.2c1.5,-1.6,2.9,-3.7,1.4,-3.7c-1.6,0,-6.6,-5.3,-8,-7c2.1,-2.5,4.7,-7.9,6.1,-8.2c1.4,-.2,1.8,0,1.3,-1.4c-.5,-1.4,-2.2,-4.5,-5.7,-2.1c-1.6,1,-4.9,6.9,-5.8,7.5Z" class="g7_105"/>
</svg>