<?xml version="1.0" encoding="UTF-8" standalone="no"?>
<!DOCTYPE svg PUBLIC "-//W3C//DTD SVG 1.1//EN"
"http://www.w3.org/Graphics/SVG/1.1/DTD/svg11.dtd">
<svg viewBox="0 0 811 1017" version="1.1" xmlns="http://www.w3.org/2000/svg" xmlns:xlink="http://www.w3.org/1999/xlink">
<defs>
<clipPath id="c0_101"><path d="M336.2,115.7V83.3H651.8v32.4Z"/></clipPath>
<style type="text/css"><![CDATA[
.g0_101{
fill: #F7F5E8;
}
.g1_101{
}
]]></style>
</defs>
<path d="M142.4,835.7H710.7V441.6H142.4V835.7Z" class="g0_101"/>
<path d="M380.7,87.5v3.2h-.3l-6.2,-3l-.4,-.2l.4,-.1l6.2,-3l.3,-.1v.3l-.1,.2l-6.2,2.9l-.2,-.3h.2l6.2,2.9l-.2,.4l-.1,-.2v-3Z" class="g1_101"/>
<path d="M380.3,87.5h.4V84.6h-.4v2.9Z" class="g1_101"/>
<path d="M380.8,87.7h54v-.3h-54v.3Z" class="g1_101"/>
<g clip-path="url(#c0_101)">
<path d="M434.4,115.7h.4V87.5h-.4v28.2Z" class="g1_101"/>
</g>
<path d="M300.5,118.1v3.2l-.3,-.1L294,118.3l-.4,-.2l.4,-.2l6.2,-2.9l.3,-.1v.2l-.1,.2l-6.2,3l-.2,-.4h.2l6.2,2.9l-.2,.4l-.1,-.2v-2.9Z" class="g1_101"/>
<path d="M300.1,118.1h.4v-3h-.4v3Z" class="g1_101"/>
<path d="M300.5,118.3h22.6v-.4H300.5v.4Z" class="g1_101"/>
<path d="M322.8,169.4h.3V118.1h-.3v51.3Z" class="g1_101"/>
</svg>