<?xml version="1.0" encoding="UTF-8" standalone="no"?>
<!DOCTYPE svg PUBLIC "-//W3C//DTD SVG 1.1//EN"
"http://www.w3.org/Graphics/SVG/1.1/DTD/svg11.dtd">
<svg viewBox="0 0 811 1017" version="1.1" xmlns="http://www.w3.org/2000/svg" xmlns:xlink="http://www.w3.org/1999/xlink">
<defs>
<style type="text/css"><![CDATA[
.g0_151{
fill: #D9F0FA;
}
.g1_151{
fill: none;
stroke: #000000;
stroke-width: 0.763;
stroke-linecap: butt;
stroke-linejoin: miter;
}
.g2_151{
}
]]></style>
</defs>
<path d="M296.9,300.3H260.5c-1.6,0,-2.9,-1.3,-2.9,-2.9V288c0,-1.6,1.3,-2.9,2.9,-2.9h36.4c1.6,0,2.9,1.3,2.9,2.9v9.4c0,1.6,-1.3,2.9,-2.9,2.9Z" class="g0_151"/>
<path d="M469.7,300.3H444c-1.6,0,-2.9,-1.3,-2.9,-2.9V288c0,-1.6,1.3,-2.9,2.9,-2.9h25.7c1.6,0,2.9,1.3,2.9,2.9v9.4c0,1.6,-1.3,2.9,-2.9,2.9Z" class="g0_151"/>
<path d="M372.3,292.6h43.2" class="g1_151"/>
<path d="M414,294.8l8.3,-2.2L414,290.4v4.4Z" class="g2_151"/>
</svg>