<?xml version="1.0" encoding="UTF-8" standalone="no"?>
<!DOCTYPE svg PUBLIC "-//W3C//DTD SVG 1.1//EN"
"http://www.w3.org/Graphics/SVG/1.1/DTD/svg11.dtd">
<svg viewBox="0 0 811 1017" version="1.1" xmlns="http://www.w3.org/2000/svg" xmlns:xlink="http://www.w3.org/1999/xlink">
<defs>
<clipPath id="c0_296"><path d="M509.4,700.4V667.5H724.5v32.9Z"/></clipPath>
<style type="text/css"><![CDATA[
.g0_296{
fill: #70A6CC;
}
.g1_296{
}
]]></style>
</defs>
<path d="M156.1,623.3H724.4V602.2H156.1v21.1Z" class="g0_296"/>
<path d="M165.5,657.4v-3.2l.2,.1l6.4,3l.3,.1l-.3,.2l-6.4,3h-.2v-.2l.1,-.2l6.3,-2.9l.2,.3h-.2l-6.3,-2.9l.1,-.4l.1,.2v2.9Z" class="g1_296"/>
<path d="M165.5,660.4h.3v-3h-.3v3Z" class="g1_296"/>
<path d="M145.8,657.6h19.7v-.3H145.8v.3Z" class="g1_296"/>
<path d="M145.8,683.5h.3V657.4h-.3v26.1Z" class="g1_296"/>
<path d="M524.3,672.7V676l-.2,-.1l-6.3,-3l-.3,-.2l.3,-.1l6.3,-3l.2,-.1v.3l-.1,.2l-6.2,2.9l-.2,-.3h.2l6.2,2.9l-.1,.4l-.1,-.2v-3Z" class="g1_296"/>
<path d="M524,672.7h.3v-2.9H524v2.9Z" class="g1_296"/>
<path d="M524.3,672.9h22.6v-.3H524.3v.3Z" class="g1_296"/>
<g clip-path="url(#c0_296)">
<path d="M546.5,700.5h.4V672.7h-.4v27.8Z" class="g1_296"/>
</g>
<path d="M165.5,733.8v-3.2l.2,.1l6.4,2.9l.3,.2l-.3,.2l-6.4,2.9l-.2,.1v-.3l.1,-.2l6.3,-2.9l.2,.4h-.2l-6.3,-3l.1,-.3l.1,.2v2.9Z" class="g1_296"/>
<path d="M165.5,736.7h.3v-2.9h-.3v2.9Z" class="g1_296"/>
<path d="M145.8,734h19.7v-.4H145.8v.4Z" class="g1_296"/>
<path d="M145.8,759.8h.3v-26h-.3v26Z" class="g1_296"/>
<path d="M556.2,764.6v3.2l-.2,-.1l-6.3,-2.9l-.3,-.2l.3,-.2l6.3,-2.8l.2,-.1v.3l-.1,.1l-6.2,2.9l-.2,-.4h.2l6.2,2.9l-.1,.4l-.1,-.2v-2.9Z" class="g1_296"/>
<path d="M555.9,764.6h.3v-2.8h-.3v2.8Z" class="g1_296"/>
<path d="M556.2,764.8h23.2v-.4H556.2v.4Z" class="g1_296"/>
<path d="M579.1,764.6h.3v-26h-.3v26Z" class="g1_296"/>
</svg>