<?xml version="1.0" encoding="UTF-8" standalone="no"?>
<!DOCTYPE svg PUBLIC "-//W3C//DTD SVG 1.1//EN"
"http://www.w3.org/Graphics/SVG/1.1/DTD/svg11.dtd">
<svg viewBox="0 0 811 1017" version="1.1" xmlns="http://www.w3.org/2000/svg" xmlns:xlink="http://www.w3.org/1999/xlink">
<defs>
<style type="text/css"><![CDATA[
.g0_265{
fill: none;
stroke: #000000;
stroke-width: 0.763;
stroke-linecap: butt;
stroke-linejoin: miter;
}
.g1_265{
}
.g2_265{
fill: #FFFFFF;
}
.g3_265{
fill: #D9F0FA;
}
.g4_265{
fill: #23AF20;
}
.g5_265{
fill: #BF0005;
}
]]></style>
</defs>
<path d="M160.2,865.6V826.3" class="g0_265"/>
<path d="M162.4,827.8l-2.2,-8.2l-2.2,8.2h4.4Z" class="g1_265"/>
<path d="M174.7,819.3H145.8c-.9,0,-1.6,-.7,-1.6,-1.6V803.8c0,-.9,.7,-1.6,1.6,-1.6h28.9c.9,0,1.6,.7,1.6,1.6v13.9c0,.9,-.7,1.6,-1.6,1.6Z" class="g2_265"/>
<path d="M174.7,819.3H145.8c-.9,0,-1.6,-.7,-1.6,-1.6V803.8c0,-.9,.7,-1.6,1.6,-1.6h28.9c.9,0,1.6,.7,1.6,1.6v13.9c0,.9,-.7,1.6,-1.6,1.6Z" class="g0_265"/>
<path d="M174.7,882.8H145.8c-.9,0,-1.6,-.7,-1.6,-1.6V867.3c0,-.9,.7,-1.6,1.6,-1.6h28.9c.9,0,1.6,.7,1.6,1.6v13.9c0,.9,-.7,1.6,-1.6,1.6Z" class="g3_265"/>
<path d="M174.7,882.8H145.8c-.9,0,-1.6,-.7,-1.6,-1.6V867.3c0,-.9,.7,-1.6,1.6,-1.6h28.9c.9,0,1.6,.7,1.6,1.6v13.9c0,.9,-.7,1.6,-1.6,1.6Z" class="g0_265"/>
<path d="M189.1,831.3c-7.7,5,-10.2,7.4,-17,17.1c-1.2,-2.4,-2.2,-5.2,-4.4,-4.9c-2.2,.3,-3,1.3,-4.1,2.2c-1.1,.9,.4,1,1,1.5c2.2,1.9,3.4,6.4,4.9,9.2c.8,1.5,1.3,1,2.6,.1c1.4,-1,2.1,-1.4,2.8,-2.6c.7,-1.2,5.6,-12.5,14.9,-20.1c1.6,-1.3,1.3,-3.8,-.7,-2.5Z" class="g4_265"/>
<path d="M234.1,865.6V826.3" class="g0_265"/>
<path d="M236.4,827.8l-2.3,-8.2l-2.2,8.2h4.5Z" class="g1_265"/>
<path d="M264.3,819.3H203.9c-.9,0,-1.6,-.7,-1.6,-1.6V803.8c0,-.9,.7,-1.6,1.6,-1.6h60.4c.9,0,1.6,.7,1.6,1.6v13.9c0,.9,-.7,1.6,-1.6,1.6Z" class="g2_265"/>
<path d="M264.3,819.3H203.9c-.9,0,-1.6,-.7,-1.6,-1.6V803.8c0,-.9,.7,-1.6,1.6,-1.6h60.4c.9,0,1.6,.7,1.6,1.6v13.9c0,.9,-.7,1.6,-1.6,1.6Z" class="g0_265"/>
<path d="M264.3,882.8H203.9c-.9,0,-1.6,-.7,-1.6,-1.6V867.3c0,-.9,.7,-1.6,1.6,-1.6h60.4c.9,0,1.6,.7,1.6,1.6v13.9c0,.9,-.7,1.6,-1.6,1.6Z" class="g3_265"/>
<path d="M264.3,882.8H203.9c-.9,0,-1.6,-.7,-1.6,-1.6V867.3c0,-.9,.7,-1.6,1.6,-1.6h60.4c.9,0,1.6,.7,1.6,1.6v13.9c0,.9,-.7,1.6,-1.6,1.6Z" class="g0_265"/>
<path d="M263,831.3c-7.7,5,-10.2,7.4,-17,17.1c-1.2,-2.4,-2.2,-5.2,-4.4,-4.9c-2.2,.3,-3,1.3,-4.1,2.2c-1.1,.9,.4,1,1,1.5c2.2,1.9,3.4,6.4,4.9,9.2c.8,1.5,1.3,1,2.6,.1c1.4,-1,2.1,-1.4,2.8,-2.6c.7,-1.2,5.6,-12.5,14.9,-20.1c1.6,-1.3,1.3,-3.8,-.7,-2.5Z" class="g4_265"/>
<path d="M323.5,865.6V826.3" class="g0_265"/>
<path d="M325.7,827.8l-2.2,-8.2l-2.2,8.2h4.4Z" class="g1_265"/>
<path d="M353.7,819.3H293.3c-.9,0,-1.6,-.7,-1.6,-1.6V803.8c0,-.9,.7,-1.6,1.6,-1.6h60.4c.9,0,1.6,.7,1.6,1.6v13.9c0,.9,-.7,1.6,-1.6,1.6Z" class="g2_265"/>
<path d="M353.7,819.3H293.3c-.9,0,-1.6,-.7,-1.6,-1.6V803.8c0,-.9,.7,-1.6,1.6,-1.6h60.4c.9,0,1.6,.7,1.6,1.6v13.9c0,.9,-.7,1.6,-1.6,1.6Z" class="g0_265"/>
<path d="M353.7,882.8H293.3c-.9,0,-1.6,-.7,-1.6,-1.6V867.3c0,-.9,.7,-1.6,1.6,-1.6h60.4c.9,0,1.6,.7,1.6,1.6v13.9c0,.9,-.7,1.6,-1.6,1.6Z" class="g3_265"/>
<path d="M353.7,882.8H293.3c-.9,0,-1.6,-.7,-1.6,-1.6V867.3c0,-.9,.7,-1.6,1.6,-1.6h60.4c.9,0,1.6,.7,1.6,1.6v13.9c0,.9,-.7,1.6,-1.6,1.6Z" class="g0_265"/>
<path d="M352.4,831.3c-7.7,5,-10.2,7.4,-17,17.1c-1.2,-2.4,-2.2,-5.2,-4.4,-4.9c-2.2,.3,-3,1.3,-4.1,2.2c-1.1,.9,.3,1,1,1.5c2.2,1.9,3.4,6.4,4.9,9.2c.8,1.5,1.3,1,2.6,.1c1.4,-1,2.1,-1.4,2.8,-2.6c.7,-1.2,5.6,-12.5,14.9,-20.1c1.6,-1.3,1.3,-3.8,-.7,-2.5Z" class="g4_265"/>
<path d="M412.4,865.6V826.3" class="g0_265"/>
<path d="M414.6,827.8l-2.2,-8.2l-2.2,8.2h4.4Z" class="g1_265"/>
<path d="M442.6,819.3H382.2c-.9,0,-1.6,-.7,-1.6,-1.6V803.8c0,-.9,.7,-1.6,1.6,-1.6h60.4c.9,0,1.6,.7,1.6,1.6v13.9c0,.9,-.7,1.6,-1.6,1.6Z" class="g2_265"/>
<path d="M442.6,819.3H382.2c-.9,0,-1.6,-.7,-1.6,-1.6V803.8c0,-.9,.7,-1.6,1.6,-1.6h60.4c.9,0,1.6,.7,1.6,1.6v13.9c0,.9,-.7,1.6,-1.6,1.6Z" class="g0_265"/>
<path d="M442.6,882.8H382.2c-.9,0,-1.6,-.7,-1.6,-1.6V867.3c0,-.9,.7,-1.6,1.6,-1.6h60.4c.9,0,1.6,.7,1.6,1.6v13.9c0,.9,-.7,1.6,-1.6,1.6Z" class="g3_265"/>
<path d="M442.6,882.8H382.2c-.9,0,-1.6,-.7,-1.6,-1.6V867.3c0,-.9,.7,-1.6,1.6,-1.6h60.4c.9,0,1.6,.7,1.6,1.6v13.9c0,.9,-.7,1.6,-1.6,1.6Z" class="g0_265"/>
<path d="M412.9,840.1c-2.2,-2.3,-6.4,-8.2,-6.7,-8.6c-.2,-.4,-.5,-1,-1,-.6c-.5,.3,-3.4,2.6,-2.9,5.1c.6,2.4,5.4,7,6.6,8.6c-2,2.2,-4.6,7.4,-7,7.4c-1.1,0,1.8,3.8,2.9,4.2c1.2,.4,2.2,1.1,4.1,-1.2c1.9,-2.3,4.2,-6.1,4.2,-6.1c2.3,1.9,7.6,9.2,10.5,6.2c1.5,-1.7,2.9,-3.7,1.4,-3.7c-1.5,0,-6.6,-5.4,-8,-7c2.1,-2.6,4.7,-8,6.1,-8.2c1.4,-.3,1.8,0,1.3,-1.4c-.5,-1.4,-2.2,-4.6,-5.7,-2.2c-1.6,1,-4.9,6.9,-5.8,7.5Z" class="g5_265"/>
</svg>