<?xml version="1.0" encoding="UTF-8" standalone="no"?>
<!DOCTYPE svg PUBLIC "-//W3C//DTD SVG 1.1//EN"
"http://www.w3.org/Graphics/SVG/1.1/DTD/svg11.dtd">
<svg viewBox="0 0 811 1017" version="1.1" xmlns="http://www.w3.org/2000/svg" xmlns:xlink="http://www.w3.org/1999/xlink">
<defs>
<clipPath id="c0_219"><path d="M495.6,891.7V858.8H710.8v32.9Z"/></clipPath>
<style type="text/css"><![CDATA[
.g0_219{
fill: #70A6CC;
}
.g1_219{
}
]]></style>
</defs>
<path d="M142.4,406.8H710.7V385H142.4v21.8Z" class="g0_219"/>
<path d="M142.4,723H710.7V701.7H142.4V723Z" class="g0_219"/>
<path d="M487.1,833.6v3.2l-.3,-.1l-6.3,-2.9l-.3,-.2l.3,-.2l6.3,-2.9l.3,-.1v.3l-.1,.2l-6.3,2.9l-.2,-.4h.2l6.3,3l-.2,.3v-3.1Z" class="g1_219"/>
<path d="M486.8,833.6h.3v-2.9h-.3v2.9Z" class="g1_219"/>
<path d="M487.1,833.8h23.1v-.4H487.1v.4Z" class="g1_219"/>
<path d="M509.9,833.6h.3V807h-.3v26.6Z" class="g1_219"/>
<path d="M510.6,864v3.2l-.3,-.1l-6.2,-3l-.4,-.1l.4,-.2l6.2,-3h.3v.2l-.1,.2l-6.2,2.9l-.2,-.3h.2l6.2,2.9l-.2,.4l-.1,-.2V864Z" class="g1_219"/>
<path d="M510.2,864h.4v-3h-.4v3Z" class="g1_219"/>
<path d="M510.6,864.1h22.5v-.3H510.6v.3Z" class="g1_219"/>
<g clip-path="url(#c0_219)">
<path d="M532.8,891.8h.3V864h-.3v27.8Z" class="g1_219"/>
</g>
</svg>