<?xml version="1.0" encoding="UTF-8" standalone="no"?>
<!DOCTYPE svg PUBLIC "-//W3C//DTD SVG 1.1//EN"
"http://www.w3.org/Graphics/SVG/1.1/DTD/svg11.dtd">
<svg viewBox="0 0 811 1017" version="1.1" xmlns="http://www.w3.org/2000/svg" xmlns:xlink="http://www.w3.org/1999/xlink">
<defs>
<clipPath id="c0_256"><path d="M406.3,333.6V300.7H621.4v32.9Z"/></clipPath>
<clipPath id="c1_256"><path d="M436.8,912.6V879.7H663.4v32.9Z"/></clipPath>
<style type="text/css"><![CDATA[
.g0_256{
fill: #70A6CC;
}
.g1_256{
}
]]></style>
</defs>
<path d="M156.1,241.3H724.4V220H156.1v21.3Z" class="g0_256"/>
<path d="M165.5,275.3v-3.2l.2,.1l6.4,2.9l.3,.2l-.3,.2l-6.4,2.9l-.2,.1v-.3l.1,-.2l6.3,-2.9l.2,.4h-.2l-6.3,-3l.1,-.3l.1,.1v3Z" class="g1_256"/>
<path d="M165.5,278.2h.3v-2.9h-.3v2.9Z" class="g1_256"/>
<path d="M145.8,275.5h19.7v-.4H145.8v.4Z" class="g1_256"/>
<path d="M145.8,313.8h.3V275.3h-.3v38.5Z" class="g1_256"/>
<path d="M519,290.9V294l-.3,-.1L512.4,291l-.3,-.1l.3,-.2l6.3,-3h.3v.2l-.1,.2l-6.3,2.9l-.2,-.3h.2l6.3,2.8l-.2,.4v-3Z" class="g1_256"/>
<path d="M518.7,290.9h.3v-3h-.3v3Z" class="g1_256"/>
<path d="M519,291h23.1v-.3H519v.3Z" class="g1_256"/>
<path d="M541.8,290.9h.3V264.7h-.3v26.2Z" class="g1_256"/>
<path d="M421.2,305.8V309l-.3,-.1L414.7,306l-.4,-.2l.4,-.2l6.2,-2.8l.3,-.1v.3l-.1,.1l-6.2,2.9l-.2,-.4h.2l6.2,2.9l-.2,.4l-.1,-.2v-2.9Z" class="g1_256"/>
<path d="M420.8,305.8h.4V303h-.4v2.8Z" class="g1_256"/>
<path d="M421.2,306h22.6v-.4H421.2v.4Z" class="g1_256"/>
<g clip-path="url(#c0_256)">
<path d="M443.4,333.6h.4V305.8h-.4v27.8Z" class="g1_256"/>
</g>
<path d="M425.4,721.7v3.2l-.2,-.1l-6.4,-2.9l-.3,-.2l.3,-.2l6.4,-2.9l.2,-.1v.3l-.1,.1l-6.3,3l-.2,-.4h.2l6.3,2.9l-.1,.4l-.1,-.2v-2.9Z" class="g1_256"/>
<path d="M425.1,721.7h.3v-2.9h-.3v2.9Z" class="g1_256"/>
<path d="M425.4,721.9h23.1v-.4H425.4v.4Z" class="g1_256"/>
<path d="M448.2,721.7h.3v-26h-.3v26Z" class="g1_256"/>
<path d="M567.7,869.8V873l-.3,-.1L561.2,870l-.4,-.2l.4,-.2l6.2,-2.8l.3,-.1v.3l-.1,.2l-6.2,2.8l-.2,-.4h.2l6.2,3l-.2,.3l-.1,-.1v-3Z" class="g1_256"/>
<path d="M567.3,869.8h.4V867h-.4v2.8Z" class="g1_256"/>
<path d="M567.7,870h23.2v-.4H567.7v.4Z" class="g1_256"/>
<path d="M590.5,869.8h.4v-26h-.4v26Z" class="g1_256"/>
<path d="M451.7,884.9v3.2l-.2,-.1l-6.3,-3l-.3,-.1l.3,-.2l6.3,-3h.2v.2l-.1,.2l-6.2,2.9l-.2,-.3h.2l6.2,2.9l-.1,.4l-.1,-.2v-2.9Z" class="g1_256"/>
<path d="M451.4,884.9h.3v-3h-.3v3Z" class="g1_256"/>
<path d="M451.8,885h22.6v-.3H451.8v.3Z" class="g1_256"/>
<g clip-path="url(#c1_256)">
<path d="M474,912.7h.4V884.9H474v27.8Z" class="g1_256"/>
</g>
</svg>