<?xml version="1.0" encoding="UTF-8" standalone="no"?>
<!DOCTYPE svg PUBLIC "-//W3C//DTD SVG 1.1//EN"
"http://www.w3.org/Graphics/SVG/1.1/DTD/svg11.dtd">
<svg viewBox="0 0 811 1017" version="1.1" xmlns="http://www.w3.org/2000/svg" xmlns:xlink="http://www.w3.org/1999/xlink">
<defs>
<style type="text/css"><![CDATA[
.g0_172{
fill: #70A6CC;
}
.g1_172{
}
]]></style>
</defs>
<path d="M156.1,712.4H724.4V690.5H156.1v21.9Z" class="g0_172"/>
<path d="M545.3,807.9v3.2l-.2,-.1l-6.3,-3l-.3,-.1l.3,-.2l6.3,-3l.2,-.1v.3l-.1,.2L539,808l-.2,-.3h.2l6.2,2.9l-.1,.4l-.1,-.2v-2.9Z" class="g1_172"/>
<path d="M545,807.9h.3v-3H545v3Z" class="g1_172"/>
<path d="M545.3,808H568v-.3H545.3v.3Z" class="g1_172"/>
<path d="M567.6,849.7h.4V807.9h-.4v41.8Z" class="g1_172"/>
<path d="M455.6,853.7v3.2l-.3,-.1l-6.2,-2.9l-.4,-.2l.4,-.2l6.2,-2.9l.3,-.1v.3l-.1,.1l-6.2,3l-.2,-.4h.2l6.2,2.9l-.2,.4l-.1,-.2v-2.9Z" class="g1_172"/>
<path d="M455.2,853.7h.4v-2.9h-.4v2.9Z" class="g1_172"/>
<path d="M455.6,853.9h22.5v-.4H455.6v.4Z" class="g1_172"/>
<path d="M477.8,895.5h.3V853.7h-.3v41.8Z" class="g1_172"/>
</svg>