<?xml version="1.0" encoding="UTF-8" standalone="no"?>
<!DOCTYPE svg PUBLIC "-//W3C//DTD SVG 1.1//EN"
"http://www.w3.org/Graphics/SVG/1.1/DTD/svg11.dtd">
<svg viewBox="0 0 811 1017" version="1.1" xmlns="http://www.w3.org/2000/svg" xmlns:xlink="http://www.w3.org/1999/xlink">
<defs>
<style type="text/css"><![CDATA[
.g0_166{
fill: #70A6CC;
}
.g1_166{
}
.g2_166{
fill: #FFFFFF;
}
.g3_166{
fill: none;
stroke: #000000;
stroke-width: 0.763;
stroke-linecap: butt;
stroke-linejoin: miter;
}
]]></style>
</defs>
<path d="M156.1,601.2H724.4V579.4H156.1v21.8Z" class="g0_166"/>
<path d="M495.1,220.7v3.1h-.3l-6.2,-2.9l-.4,-.2l.4,-.2l6.2,-2.9l.3,-.1v.3l-.1,.2l-6.2,2.9l-.2,-.4h.2l6.2,2.9l-.2,.4l-.1,-.2v-2.9Z" class="g1_166"/>
<path d="M494.7,220.7h.4v-2.9h-.4v2.9Z" class="g1_166"/>
<path d="M495.1,220.9h23.2v-.4H495.1v.4Z" class="g1_166"/>
<path d="M517.9,220.7h.4V194.6h-.4v26.1Z" class="g1_166"/>
<path d="M372.9,377h76.7V349.4H372.9V377Z" class="g2_166"/>
<path d="M449.6,377H372.9V349.4h76.7V377Z" class="g3_166"/>
<path d="M156.5,408.1h82.8V380.5H156.5v27.6Z" class="g2_166"/>
<path d="M239.3,408.1H156.5V380.5h82.8v27.6Z" class="g3_166"/>
<path d="M372.9,439.2h76.7V411.6H372.9v27.6Z" class="g2_166"/>
<path d="M449.6,439.2H372.9V411.6h76.7v27.6Zm-210.3,-50h20.9V363.3H365.3" class="g3_166"/>
<path d="M363.8,365.5l8.3,-2.2L363.8,361v4.5Z" class="g1_166"/>
<path d="M239.3,399.7h20.9v26H365.3" class="g3_166"/>
<path d="M363.8,427.9l8.3,-2.2l-8.3,-2.2v4.4Z" class="g1_166"/>
</svg>