<?xml version="1.0" encoding="UTF-8" standalone="no"?>
<!DOCTYPE svg PUBLIC "-//W3C//DTD SVG 1.1//EN"
"http://www.w3.org/Graphics/SVG/1.1/DTD/svg11.dtd">
<svg viewBox="0 0 811 1017" version="1.1" xmlns="http://www.w3.org/2000/svg" xmlns:xlink="http://www.w3.org/1999/xlink">
<defs>
<style type="text/css"><![CDATA[
.g0_207{
fill: #70A6CC;
}
.g1_207{
fill: #FFFFFF;
}
.g2_207{
fill: none;
stroke: #231F20;
stroke-width: 0.763;
stroke-linecap: butt;
stroke-linejoin: miter;
}
.g3_207{
fill: #231F20;
}
.g4_207{
}
]]></style>
</defs>
<path d="M142.4,590.2H710.7V568.3H142.4v21.9Z" class="g0_207"/>
<path d="M476.1,343.4H425.6c-.8,0,-1.6,-.7,-1.6,-1.5v-14c0,-.9,.8,-1.6,1.6,-1.6h50.5c.9,0,1.6,.7,1.6,1.6v14c0,.8,-.7,1.5,-1.6,1.5Z" class="g1_207"/>
<path d="M476.1,343.4H425.6c-.8,0,-1.6,-.7,-1.6,-1.5v-14c0,-.9,.8,-1.6,1.6,-1.6h50.5c.9,0,1.6,.7,1.6,1.6v14c0,.8,-.7,1.5,-1.6,1.5Z" class="g2_207"/>
<path d="M705.7,343.4H523.8c-.8,0,-1.6,-.7,-1.6,-1.5v-14c0,-.9,.8,-1.6,1.6,-1.6H705.7c.8,0,1.6,.7,1.6,1.6v14c0,.8,-.8,1.5,-1.6,1.5Z" class="g1_207"/>
<path d="M705.7,343.4H523.8c-.8,0,-1.6,-.7,-1.6,-1.5v-14c0,-.9,.8,-1.6,1.6,-1.6H705.7c.8,0,1.6,.7,1.6,1.6v14c0,.8,-.8,1.5,-1.6,1.5Z" class="g2_207"/>
<path d="M478,334.8h43.2Z" class="g1_207"/>
<path d="M478,334.8h36.4" class="g2_207"/>
<path d="M512.9,337l8.3,-2.2l-8.3,-2.2V337Z" class="g3_207"/>
<path d="M143.1,624.5v-3.2l.3,.1l6.3,2.9l.4,.2l-.4,.2l-6.3,2.9l-.3,.1v-.2l.1,-.2l6.3,-3l.2,.4h-.2l-6.3,-2.9l.2,-.4l.1,.2v2.9Z" class="g4_207"/>
<path d="M143.1,627.5h.4v-3h-.4v3Z" class="g4_207"/>
<path d="M123.4,624.7h19.7v-.4H123.4v.4Z" class="g4_207"/>
<path d="M123.4,666.8h.4V624.5h-.4v42.3Z" class="g4_207"/>
<path d="M485.2,640.1v3.2l-.3,-.1l-6.2,-2.9l-.4,-.2l.4,-.2l6.2,-2.9l.3,-.1v.3l-.1,.2l-6.2,2.9l-.2,-.4h.2l6.2,3l-.2,.3l-.1,-.2v-2.9Z" class="g4_207"/>
<path d="M484.8,640.1h.4v-2.9h-.4v2.9Z" class="g4_207"/>
<path d="M485.2,640.3h23.1v-.4H485.2v.4Z" class="g4_207"/>
<path d="M507.9,640.1h.4v-26h-.4v26Z" class="g4_207"/>
<path d="M532.6,655.1v3.3l-.3,-.1l-6.3,-3l-.4,-.2l.4,-.1l6.3,-3l.3,-.1v.3l-.1,.2l-6.3,2.9L526,655h.2l6.3,2.9l-.2,.4l-.1,-.2v-3Z" class="g4_207"/>
<path d="M532.2,655.1h.4v-2.9h-.4v2.9Z" class="g4_207"/>
<path d="M532.6,655.3h22.5V655H532.6v.3Z" class="g4_207"/>
<path d="M554.8,668.2h.3V655.1h-.3v13.1Z" class="g4_207"/>
<path d="M479.1,670.4v3.2l-.3,-.1l-6.3,-3l-.3,-.1l.3,-.2l6.3,-3l.3,-.1v.3l-.1,.2l-6.3,2.9l-.2,-.3h.2l6.3,2.9l-.2,.4l-.1,-.2v-2.9Z" class="g4_207"/>
<path d="M478.7,670.4h.4v-3h-.4v3Z" class="g4_207"/>
<path d="M479.1,670.5h22.6v-.3H479.1v.3Z" class="g4_207"/>
<path d="M501.3,734.2h.4V670.4h-.4v63.8Z" class="g4_207"/>
</svg>