<?xml version="1.0" encoding="UTF-8" standalone="no"?>
<!DOCTYPE svg PUBLIC "-//W3C//DTD SVG 1.1//EN"
"http://www.w3.org/Graphics/SVG/1.1/DTD/svg11.dtd">
<svg viewBox="0 0 811 1017" version="1.1" xmlns="http://www.w3.org/2000/svg" xmlns:xlink="http://www.w3.org/1999/xlink">
<defs>
<clipPath id="c0_345"><path d="M456.5,344.2V258.8H727.9v85.4Z"/></clipPath>
<style type="text/css"><![CDATA[
.g0_345{
fill: #70A6CC;
}
.g1_345{
}
]]></style>
</defs>
<path d="M142.4,153.8H710.7V132.6H142.4v21.2Z" class="g0_345"/>
<path d="M558.7,218.4v3.2l-.3,-.1l-6.2,-2.9l-.4,-.2l.4,-.1l6.2,-3l.3,-.1v.3l-.1,.2l-6.2,2.9l-.2,-.3h.2l6.2,2.8l-.2,.4l-.1,-.2v-2.9Z" class="g1_345"/>
<path d="M558.3,218.4h.4v-2.9h-.4v2.9Z" class="g1_345"/>
<path d="M558.7,218.6h23.2v-.3H558.7v.3Z" class="g1_345"/>
<path d="M581.5,218.4h.4V192.3h-.4v26.1Z" class="g1_345"/>
<path d="M129.7,233.4v-3.2l.3,.1l6.3,2.9l.4,.2l-.4,.2l-6.3,2.9l-.3,.1v-.3l.1,-.2l6.3,-2.9l.2,.4h-.2l-6.3,-3l.2,-.3l.1,.2v2.9Z" class="g1_345"/>
<path d="M129.7,236.3h.4v-2.9h-.4v2.9Z" class="g1_345"/>
<path d="M110.1,233.6h19.6v-.4H110.1v.4Z" class="g1_345"/>
<path d="M110.1,272.8h.4V233.4h-.4v39.4Z" class="g1_345"/>
<path d="M583.5,249v3.2l-.2,-.1l-6.3,-3l-.3,-.1l.3,-.2l6.3,-3h.2v.4l-6.3,2.9l-.2,-.3h.2l6.3,2.9l-.2,.4l-.1,-.2V249Z" class="g1_345"/>
<path d="M583.2,249h.3v-3h-.3v3Z" class="g1_345"/>
<path d="M583.5,249.1h23.1v-.3H583.5v.3Z" class="g1_345"/>
<path d="M606.3,249h.3V222.9h-.3V249Z" class="g1_345"/>
<path d="M628,264v3.2l-.3,-.1l-6.2,-2.9l-.4,-.2l.4,-.2l6.2,-2.9l.3,-.1v.3l-.1,.2l-6.2,2.9l-.2,-.4h.2l6.2,2.9l-.2,.4l-.1,-.2V264Z" class="g1_345"/>
<path d="M627.6,264h.4v-2.9h-.4V264Z" class="g1_345"/>
<path d="M628.1,264.2h83.6v-.4H628.1v.4Z" class="g1_345"/>
<g clip-path="url(#c0_345)">
<path d="M711.3,344.3h.4V264h-.4v80.3Z" class="g1_345"/>
</g>
</svg>