<?xml version="1.0" encoding="UTF-8" standalone="no"?>
<!DOCTYPE svg PUBLIC "-//W3C//DTD SVG 1.1//EN"
"http://www.w3.org/Graphics/SVG/1.1/DTD/svg11.dtd">
<svg viewBox="0 0 811 1017" version="1.1" xmlns="http://www.w3.org/2000/svg" xmlns:xlink="http://www.w3.org/1999/xlink">
<defs>
<clipPath id="c0_111"><path d="M559.6,207V173.9H746.1V207Z"/></clipPath>
<clipPath id="c1_111"><path d="M477.5,263.5V230.4H663.9v33.1Z"/></clipPath>
<clipPath id="c2_111"><path d="M559.6,320V286.9H673.5V320Z"/></clipPath>
<style type="text/css"><![CDATA[
.g0_111{
fill: #70A6CC;
}
.g1_111{
}
]]></style>
</defs>
<path d="M142.4,160.2H710.7V139.1H142.4v21.1Z" class="g0_111"/>
<path d="M574.6,179v3.2l-.3,-.1l-6.2,-2.9l-.4,-.2l.4,-.2l6.2,-2.9l.3,-.1v.3l-.1,.2l-6.3,2.9l-.1,-.4h.1l6.3,3l-.2,.3l-.1,-.1v-3Z" class="g1_111"/>
<path d="M574.2,179h.4v-2.9h-.4V179Z" class="g1_111"/>
<path d="M574.6,179.2h22.5v-.4H574.6v.4Z" class="g1_111"/>
<g clip-path="url(#c0_111)">
<path d="M596.8,207h.3V179h-.3v28Z" class="g1_111"/>
</g>
<path d="M492.4,235.6v3.2l-.2,-.1l-6.3,-2.9l-.3,-.2l.3,-.2l6.3,-2.9l.2,-.1v.3l-.1,.1l-6.2,3l-.2,-.4h.2l6.2,2.9l-.1,.4l-.1,-.2v-2.9Z" class="g1_111"/>
<path d="M492.1,235.6h.3v-2.9h-.3v2.9Z" class="g1_111"/>
<path d="M492.4,235.8H515v-.4H492.4v.4Z" class="g1_111"/>
<g clip-path="url(#c1_111)">
<path d="M514.6,263.5h.4V235.6h-.4v27.9Z" class="g1_111"/>
</g>
<path d="M574.6,292.1v3.2l-.3,-.1l-6.2,-3l-.4,-.1l.4,-.2l6.2,-2.9l.3,-.1v.3l-.1,.2l-6.3,2.8l-.1,-.3h.1l6.3,2.9l-.2,.4l-.1,-.2v-2.9Z" class="g1_111"/>
<path d="M574.2,292.1h.4v-2.9h-.4v2.9Z" class="g1_111"/>
<path d="M574.6,292.2h22.5v-.3H574.6v.3Z" class="g1_111"/>
<g clip-path="url(#c2_111)">
<path d="M596.8,320.1h.3v-28h-.3v28Z" class="g1_111"/>
</g>
<path d="M500.7,836.6v3.2l-.3,-.1l-6.2,-3l-.4,-.1l.4,-.2l6.2,-3l.3,-.1v.3l-.1,.2l-6.2,2.9l-.2,-.3h.2l6.2,2.9l-.2,.4l-.1,-.2v-2.9Z" class="g1_111"/>
<path d="M500.3,836.6h.4v-3h-.4v3Z" class="g1_111"/>
<path d="M500.7,836.7h23.2v-.3H500.7v.3Z" class="g1_111"/>
<path d="M523.5,836.6h.4V797.3h-.4v39.3Z" class="g1_111"/>
</svg>