<?xml version="1.0" encoding="UTF-8" standalone="no"?>
<!DOCTYPE svg PUBLIC "-//W3C//DTD SVG 1.1//EN"
"http://www.w3.org/Graphics/SVG/1.1/DTD/svg11.dtd">
<svg viewBox="0 0 811 1017" version="1.1" xmlns="http://www.w3.org/2000/svg" xmlns:xlink="http://www.w3.org/1999/xlink">
<defs>
<style type="text/css"><![CDATA[
.g0_302{
fill: #70A6CC;
}
.g1_302{
fill: #FFFFFF;
}
.g2_302{
fill: none;
stroke: #231F20;
stroke-width: 0.763;
stroke-linecap: butt;
stroke-linejoin: miter;
}
.g3_302{
fill: none;
stroke: #CCCCCC;
stroke-width: 3.819;
stroke-linecap: butt;
stroke-linejoin: miter;
stroke-miterlimit: 8;
}
.g4_302{
fill: #CCCCCC;
}
]]></style>
</defs>
<path d="M156.1,767.9H724.4V746.6H156.1v21.3Z" class="g0_302"/>
<path d="M509.7,101.5H158.1c-.9,0,-1.6,-.7,-1.6,-1.6V86c0,-.9,.7,-1.6,1.6,-1.6H509.7c.9,0,1.6,.7,1.6,1.6V99.9c0,.9,-.7,1.6,-1.6,1.6Z" class="g1_302"/>
<path d="M509.7,101.5H158.1c-.9,0,-1.6,-.7,-1.6,-1.6V86c0,-.9,.7,-1.6,1.6,-1.6H509.7c.9,0,1.6,.7,1.6,1.6V99.9c0,.9,-.7,1.6,-1.6,1.6Z" class="g2_302"/>
<path d="M166.7,154h-8.6c-.9,0,-1.6,-.8,-1.6,-1.6v-14c0,-.8,.7,-1.6,1.6,-1.6h8.6c.8,0,1.5,.8,1.5,1.6v14c0,.8,-.7,1.6,-1.5,1.6Z" class="g1_302"/>
<path d="M166.7,154h-8.6c-.9,0,-1.6,-.8,-1.6,-1.6v-14c0,-.8,.7,-1.6,1.6,-1.6h8.6c.8,0,1.5,.8,1.5,1.6v14c0,.8,-.7,1.6,-1.5,1.6Z" class="g2_302"/>
<path d="M218.6,154H173.3c-.8,0,-1.5,-.8,-1.5,-1.6v-14c0,-.8,.7,-1.6,1.5,-1.6h45.3c.9,0,1.6,.8,1.6,1.6v14c0,.8,-.7,1.6,-1.6,1.6Z" class="g1_302"/>
<path d="M218.6,154H173.3c-.8,0,-1.5,-.8,-1.5,-1.6v-14c0,-.8,.7,-1.6,1.5,-1.6h45.3c.9,0,1.6,.8,1.6,1.6v14c0,.8,-.7,1.6,-1.6,1.6Z" class="g2_302"/>
<path d="M233.9,154h-8.6c-.9,0,-1.6,-.8,-1.6,-1.6v-14c0,-.8,.7,-1.6,1.6,-1.6h8.6c.9,0,1.6,.8,1.6,1.6v14c0,.8,-.7,1.6,-1.6,1.6Z" class="g1_302"/>
<path d="M233.9,154h-8.6c-.9,0,-1.6,-.8,-1.6,-1.6v-14c0,-.8,.7,-1.6,1.6,-1.6h8.6c.9,0,1.6,.8,1.6,1.6v14c0,.8,-.7,1.6,-1.6,1.6Z" class="g2_302"/>
<path d="M304.2,154H240.6c-.9,0,-1.6,-.8,-1.6,-1.6v-14c0,-.8,.7,-1.6,1.6,-1.6h63.6c.8,0,1.5,.8,1.5,1.6v14c0,.8,-.7,1.6,-1.5,1.6Z" class="g1_302"/>
<path d="M304.2,154H240.6c-.9,0,-1.6,-.8,-1.6,-1.6v-14c0,-.8,.7,-1.6,1.6,-1.6h63.6c.8,0,1.5,.8,1.5,1.6v14c0,.8,-.7,1.6,-1.5,1.6Z" class="g2_302"/>
<path d="M319.4,154h-8.5c-.9,0,-1.6,-.8,-1.6,-1.6v-14c0,-.8,.7,-1.6,1.6,-1.6h8.5c.9,0,1.6,.8,1.6,1.6v14c0,.8,-.7,1.6,-1.6,1.6Z" class="g1_302"/>
<path d="M319.4,154h-8.5c-.9,0,-1.6,-.8,-1.6,-1.6v-14c0,-.8,.7,-1.6,1.6,-1.6h8.5c.9,0,1.6,.8,1.6,1.6v14c0,.8,-.7,1.6,-1.6,1.6Z" class="g2_302"/>
<path d="M376.5,154H326.1c-.8,0,-1.6,-.8,-1.6,-1.6v-14c0,-.8,.8,-1.6,1.6,-1.6h50.4c.9,0,1.6,.8,1.6,1.6v14c0,.8,-.7,1.6,-1.6,1.6Z" class="g1_302"/>
<path d="M376.5,154H326.1c-.8,0,-1.6,-.8,-1.6,-1.6v-14c0,-.8,.8,-1.6,1.6,-1.6h50.4c.9,0,1.6,.8,1.6,1.6v14c0,.8,-.7,1.6,-1.6,1.6Z" class="g2_302"/>
<path d="M391.8,154h-8.6c-.9,0,-1.6,-.8,-1.6,-1.6v-14c0,-.8,.7,-1.6,1.6,-1.6h8.6c.8,0,1.5,.8,1.5,1.6v14c0,.8,-.7,1.6,-1.5,1.6Z" class="g1_302"/>
<path d="M391.8,154h-8.6c-.9,0,-1.6,-.8,-1.6,-1.6v-14c0,-.8,.7,-1.6,1.6,-1.6h8.6c.8,0,1.5,.8,1.5,1.6v14c0,.8,-.7,1.6,-1.5,1.6Z" class="g2_302"/>
<path d="M407,154h-8.5c-.9,0,-1.6,-.8,-1.6,-1.6v-14c0,-.8,.7,-1.6,1.6,-1.6H407c.9,0,1.6,.8,1.6,1.6v14c0,.8,-.7,1.6,-1.6,1.6Z" class="g1_302"/>
<path d="M407,154h-8.5c-.9,0,-1.6,-.8,-1.6,-1.6v-14c0,-.8,.7,-1.6,1.6,-1.6H407c.9,0,1.6,.8,1.6,1.6v14c0,.8,-.7,1.6,-1.6,1.6Z" class="g2_302"/>
<path d="M451.9,154H413.7c-.8,0,-1.6,-.8,-1.6,-1.6v-14c0,-.8,.8,-1.6,1.6,-1.6h38.2c.8,0,1.5,.8,1.5,1.6v14c0,.8,-.7,1.6,-1.5,1.6Z" class="g1_302"/>
<path d="M451.9,154H413.7c-.8,0,-1.6,-.8,-1.6,-1.6v-14c0,-.8,.8,-1.6,1.6,-1.6h38.2c.8,0,1.5,.8,1.5,1.6v14c0,.8,-.7,1.6,-1.5,1.6Z" class="g2_302"/>
<path d="M467.1,154h-8.6c-.8,0,-1.5,-.8,-1.5,-1.6v-14c0,-.8,.7,-1.6,1.5,-1.6h8.6c.9,0,1.6,.8,1.6,1.6v14c0,.8,-.7,1.6,-1.6,1.6Z" class="g1_302"/>
<path d="M467.1,154h-8.6c-.8,0,-1.5,-.8,-1.5,-1.6v-14c0,-.8,.7,-1.6,1.5,-1.6h8.6c.9,0,1.6,.8,1.6,1.6v14c0,.8,-.7,1.6,-1.6,1.6Z" class="g2_302"/>
<path d="M536.4,154H473.8c-.9,0,-1.6,-.8,-1.6,-1.6v-14c0,-.8,.7,-1.6,1.6,-1.6h62.6c.9,0,1.6,.8,1.6,1.6v14c0,.8,-.7,1.6,-1.6,1.6Z" class="g1_302"/>
<path d="M536.4,154H473.8c-.9,0,-1.6,-.8,-1.6,-1.6v-14c0,-.8,.7,-1.6,1.6,-1.6h62.6c.9,0,1.6,.8,1.6,1.6v14c0,.8,-.7,1.6,-1.6,1.6Z" class="g2_302"/>
<path d="M551.7,154h-8.6c-.9,0,-1.6,-.8,-1.6,-1.6v-14c0,-.8,.7,-1.6,1.6,-1.6h8.6c.8,0,1.6,.8,1.6,1.6v14c0,.8,-.8,1.6,-1.6,1.6Z" class="g1_302"/>
<path d="M551.7,154h-8.6c-.9,0,-1.6,-.8,-1.6,-1.6v-14c0,-.8,.7,-1.6,1.6,-1.6h8.6c.8,0,1.6,.8,1.6,1.6v14c0,.8,-.8,1.6,-1.6,1.6Z" class="g2_302"/>
<path d="M566.9,154h-8.5c-.9,0,-1.6,-.8,-1.6,-1.6v-14c0,-.8,.7,-1.6,1.6,-1.6h8.5c.9,0,1.6,.8,1.6,1.6v14c0,.8,-.7,1.6,-1.6,1.6Z" class="g1_302"/>
<path d="M566.9,154h-8.5c-.9,0,-1.6,-.8,-1.6,-1.6v-14c0,-.8,.7,-1.6,1.6,-1.6h8.5c.9,0,1.6,.8,1.6,1.6v14c0,.8,-.7,1.6,-1.6,1.6Z" class="g2_302"/>
<path d="M432,206.4H158.1c-.9,0,-1.6,-.7,-1.6,-1.6V190.9c0,-.9,.7,-1.6,1.6,-1.6H432c.9,0,1.6,.7,1.6,1.6v13.9c0,.9,-.7,1.6,-1.6,1.6Z" class="g1_302"/>
<path d="M432,206.4H158.1c-.9,0,-1.6,-.7,-1.6,-1.6V190.9c0,-.9,.7,-1.6,1.6,-1.6H432c.9,0,1.6,.7,1.6,1.6v13.9c0,.9,-.7,1.6,-1.6,1.6Z" class="g2_302"/>
<path d="M388.1,229.3h-230c-.9,0,-1.6,-.7,-1.6,-1.6V213.8c0,-.9,.7,-1.6,1.6,-1.6h230c.9,0,1.6,.7,1.6,1.6v13.9c0,.9,-.7,1.6,-1.6,1.6Z" class="g1_302"/>
<path d="M388.1,229.3h-230c-.9,0,-1.6,-.7,-1.6,-1.6V213.8c0,-.9,.7,-1.6,1.6,-1.6h230c.9,0,1.6,.7,1.6,1.6v13.9c0,.9,-.7,1.6,-1.6,1.6Z" class="g2_302"/>
<path d="M426.9,252.2H158.1c-.9,0,-1.6,-.7,-1.6,-1.5v-14c0,-.9,.7,-1.6,1.6,-1.6H426.9c.9,0,1.6,.7,1.6,1.6v14c0,.8,-.7,1.5,-1.6,1.5Z" class="g1_302"/>
<path d="M426.9,252.2H158.1c-.9,0,-1.6,-.7,-1.6,-1.5v-14c0,-.9,.7,-1.6,1.6,-1.6H426.9c.9,0,1.6,.7,1.6,1.6v14c0,.8,-.7,1.5,-1.6,1.5Z" class="g2_302"/>
<path d="M408.1,304.7h-250c-.9,0,-1.6,-.7,-1.6,-1.6V289.2c0,-.9,.7,-1.6,1.6,-1.6h250c.8,0,1.5,.7,1.5,1.6v13.9c0,.9,-.7,1.6,-1.5,1.6Z" class="g1_302"/>
<path d="M408.1,304.7h-250c-.9,0,-1.6,-.7,-1.6,-1.6V289.2c0,-.9,.7,-1.6,1.6,-1.6h250c.8,0,1.5,.7,1.5,1.6v13.9c0,.9,-.7,1.6,-1.5,1.6Z" class="g2_302"/>
<path d="M193.8,108.5v13.6" class="g3_302"/>
<path d="M188.1,120.5l5.7,9.9l5.7,-9.9H188.1Z" class="g4_302"/>
<path d="M193.8,160.4v13.7" class="g3_302"/>
<path d="M188.1,172.4l5.7,9.9l5.7,-9.9H188.1Z" class="g4_302"/>
<path d="M193.8,258.2v13.7" class="g3_302"/>
<path d="M188.1,270.2l5.7,9.9l5.7,-9.9H188.1Z" class="g4_302"/>
</svg>