<?xml version="1.0" encoding="UTF-8" standalone="no"?>
<!DOCTYPE svg PUBLIC "-//W3C//DTD SVG 1.1//EN"
"http://www.w3.org/Graphics/SVG/1.1/DTD/svg11.dtd">
<svg viewBox="0 0 811 1017" version="1.1" xmlns="http://www.w3.org/2000/svg" xmlns:xlink="http://www.w3.org/1999/xlink">
<defs>
<style type="text/css"><![CDATA[
.g0_61{
fill: #70A6CC;
}
.g1_61{
}
]]></style>
</defs>
<path d="M142.4,304.5H710.7V282.6H142.4v21.9Z" class="g0_61"/>
<path d="M142.4,789.3H710.7V767.4H142.4v21.9Z" class="g0_61"/>
<path d="M397.7,384.2v3.2l-.3,-.1l-6.3,-2.9l-.3,-.2l.3,-.2l6.3,-2.9l.3,-.1v.2l-.1,.2l-6.3,3l-.2,-.4h.2l6.3,2.9l-.2,.4l-.1,-.2v-2.9Z" class="g1_61"/>
<path d="M397.3,384.2h.4v-3h-.4v3Z" class="g1_61"/>
<path d="M397.7,384.4h22V384h-22v.4Z" class="g1_61"/>
<path d="M419.4,384.2h.3V351h-.3v33.2Z" class="g1_61"/>
<path d="M397.7,352.1v3.2l-.3,-.1l-6.3,-2.9l-.3,-.2l.3,-.2l6.3,-2.8l.3,-.1v.3l-.1,.1l-6.3,2.9l-.2,-.4h.2l6.3,2.9l-.2,.4l-.1,-.2v-2.9Z" class="g1_61"/>
<path d="M397.3,352.1h.4v-2.8h-.4v2.8Z" class="g1_61"/>
<path d="M397.7,352.3h22v-.4h-22v.4Z" class="g1_61"/>
<path d="M419.4,358.5h.3v-6.4h-.3v6.4Z" class="g1_61"/>
<path d="M175,400.3v-3.2l.3,.1l6.2,2.9l.4,.2l-.4,.2l-6.2,2.9l-.3,.1v-.3l.1,-.1l6.2,-3l.2,.4h-.2l-6.2,-2.9l.2,-.4l.1,.2v2.9Z" class="g1_61"/>
<path d="M175,403.2h.4v-2.9H175v2.9Z" class="g1_61"/>
<path d="M152.9,400.5H175v-.4H152.9v.4Z" class="g1_61"/>
<path d="M152.9,400.3h.4V368.2h-.4v32.1Z" class="g1_61"/>
<path d="M175,367.9v-3.2l.3,.1l6.2,3l.4,.1l-.4,.2l-6.2,3l-.3,.1v-.3l.1,-.2l6.2,-2.9l.2,.3h-.2l-6.2,-2.9l.2,-.4l.1,.2v2.9Z" class="g1_61"/>
<path d="M175,370.9h.4v-3H175v3Z" class="g1_61"/>
<path d="M152.9,368.1H175v-.3H152.9v.3Z" class="g1_61"/>
<path d="M152.9,373h.4v-5h-.4v5Z" class="g1_61"/>
<path d="M461.2,869.4v3.2l-.3,-.1l-6.3,-2.9l-.4,-.2l.4,-.2l6.3,-2.9h.3v.2l-.1,.2l-6.3,2.9l-.2,-.4h.2l6.3,2.9l-.2,.4l-.1,-.2v-2.9Z" class="g1_61"/>
<path d="M460.8,869.4h.4v-2.9h-.4v2.9Z" class="g1_61"/>
<path d="M461.2,869.6h23.1v-.4H461.2v.4Z" class="g1_61"/>
<path d="M483.9,869.4h.4V832.2h-.4v37.2Z" class="g1_61"/>
</svg>