<?xml version="1.0" encoding="UTF-8" standalone="no"?>
<!DOCTYPE svg PUBLIC "-//W3C//DTD SVG 1.1//EN"
"http://www.w3.org/Graphics/SVG/1.1/DTD/svg11.dtd">
<svg viewBox="0 0 811 1017" version="1.1" xmlns="http://www.w3.org/2000/svg" xmlns:xlink="http://www.w3.org/1999/xlink">
<defs>
<style type="text/css"><![CDATA[
.g0_145{
fill: #D9F0FA;
}
.g1_145{
fill: none;
stroke: #231F20;
stroke-width: 0.763;
stroke-linecap: butt;
stroke-linejoin: miter;
}
.g2_145{
fill: #FFFFFF;
}
.g3_145{
fill: none;
stroke: #000000;
stroke-width: 0.763;
stroke-linecap: butt;
stroke-linejoin: miter;
}
.g4_145{
}
]]></style>
</defs>
<path d="M554,229.6c-1.6,0,-2.9,-1.3,-2.9,-2.9V208.1c0,-1.6,1.3,-2.9,2.9,-2.9H706.5c1.6,0,2.9,1.3,2.9,2.9v18.6c0,1.6,-1.3,2.9,-2.9,2.9H554Z" class="g0_145"/>
<path d="M554,229.6c-1.6,0,-2.9,-1.3,-2.9,-2.9V208.1c0,-1.6,1.3,-2.9,2.9,-2.9H706.5c1.6,0,2.9,1.3,2.9,2.9v18.6c0,1.6,-1.3,2.9,-2.9,2.9H554Z" class="g1_145"/>
<path d="M623.6,165.1H554c-1.6,0,-3,-1.3,-3,-2.9V143.6c0,-1.6,1.4,-2.9,3,-2.9h69.6c1.6,0,2.9,1.3,2.9,2.9v18.6c0,1.6,-1.3,2.9,-2.9,2.9Z" class="g0_145"/>
<path d="M623.6,165.1H554c-1.6,0,-3,-1.3,-3,-2.9V143.6c0,-1.6,1.4,-2.9,3,-2.9h69.6c1.6,0,2.9,1.3,2.9,2.9v18.6c0,1.6,-1.3,2.9,-2.9,2.9Z" class="g1_145"/>
<path d="M570.4,161.4H556.8c-.9,0,-1.6,-.7,-1.6,-1.6V145.9c0,-.9,.7,-1.6,1.6,-1.6h13.6c.9,0,1.6,.7,1.6,1.6v13.9c0,.9,-.7,1.6,-1.6,1.6Z" class="g2_145"/>
<path d="M570.4,161.4H556.8c-.9,0,-1.6,-.7,-1.6,-1.6V145.9c0,-.9,.7,-1.6,1.6,-1.6h13.6c.9,0,1.6,.7,1.6,1.6v13.9c0,.9,-.7,1.6,-1.6,1.6Z" class="g1_145"/>
<path d="M595.4,161.4H581.7c-.9,0,-1.6,-.7,-1.6,-1.6V145.9c0,-.9,.7,-1.6,1.6,-1.6h13.7c.8,0,1.5,.7,1.5,1.6v13.9c0,.9,-.7,1.6,-1.5,1.6Z" class="g2_145"/>
<path d="M595.4,161.4H581.7c-.9,0,-1.6,-.7,-1.6,-1.6V145.9c0,-.9,.7,-1.6,1.6,-1.6h13.7c.8,0,1.5,.7,1.5,1.6v13.9c0,.9,-.7,1.6,-1.5,1.6Z" class="g1_145"/>
<path d="M620.3,161.4H606.6c-.8,0,-1.5,-.7,-1.5,-1.6V145.9c0,-.9,.7,-1.6,1.5,-1.6h13.7c.9,0,1.6,.7,1.6,1.6v13.9c0,.9,-.7,1.6,-1.6,1.6Z" class="g2_145"/>
<path d="M620.3,161.4H606.6c-.8,0,-1.5,-.7,-1.5,-1.6V145.9c0,-.9,.7,-1.6,1.5,-1.6h13.7c.9,0,1.6,.7,1.6,1.6v13.9c0,.9,-.7,1.6,-1.6,1.6Z" class="g1_145"/>
<path d="M589,101.1V132" class="g3_145"/>
<path d="M586.7,130.5l2.3,8.3l2.2,-8.3h-4.5Z" class="g4_145"/>
<path d="M589,165.4v31" class="g3_145"/>
<path d="M586.7,194.9l2.3,8.2l2.2,-8.2h-4.5Z" class="g4_145"/>
<path d="M606.1,101.5H571c-.9,0,-1.6,-.7,-1.6,-1.6V86c0,-.9,.7,-1.6,1.6,-1.6h35.1c.8,0,1.5,.7,1.5,1.6V99.9c0,.9,-.7,1.6,-1.5,1.6Z" class="g2_145"/>
<path d="M606.1,101.5H571c-.9,0,-1.6,-.7,-1.6,-1.6V86c0,-.9,.7,-1.6,1.6,-1.6h35.1c.8,0,1.5,.7,1.5,1.6V99.9c0,.9,-.7,1.6,-1.5,1.6Z" class="g1_145"/>
<path d="M706.4,165.1H636.8c-1.6,0,-2.9,-1.3,-2.9,-2.9V143.6c0,-1.6,1.3,-2.9,2.9,-2.9h69.6c1.6,0,2.9,1.3,2.9,2.9v18.6c0,1.6,-1.3,2.9,-2.9,2.9Z" class="g0_145"/>
<path d="M706.4,165.1H636.8c-1.6,0,-2.9,-1.3,-2.9,-2.9V143.6c0,-1.6,1.3,-2.9,2.9,-2.9h69.6c1.6,0,2.9,1.3,2.9,2.9v18.6c0,1.6,-1.3,2.9,-2.9,2.9Z" class="g1_145"/>
<path d="M653.2,161.4H639.6c-.9,0,-1.6,-.7,-1.6,-1.6V145.9c0,-.9,.7,-1.6,1.6,-1.6h13.6c.9,0,1.6,.7,1.6,1.6v13.9c0,.9,-.7,1.6,-1.6,1.6Z" class="g2_145"/>
<path d="M653.2,161.4H639.6c-.9,0,-1.6,-.7,-1.6,-1.6V145.9c0,-.9,.7,-1.6,1.6,-1.6h13.6c.9,0,1.6,.7,1.6,1.6v13.9c0,.9,-.7,1.6,-1.6,1.6Z" class="g1_145"/>
<path d="M678.2,161.4H664.5c-.9,0,-1.6,-.7,-1.6,-1.6V145.9c0,-.9,.7,-1.6,1.6,-1.6h13.7c.8,0,1.6,.7,1.6,1.6v13.9c0,.9,-.8,1.6,-1.6,1.6Z" class="g2_145"/>
<path d="M678.2,161.4H664.5c-.9,0,-1.6,-.7,-1.6,-1.6V145.9c0,-.9,.7,-1.6,1.6,-1.6h13.7c.8,0,1.6,.7,1.6,1.6v13.9c0,.9,-.8,1.6,-1.6,1.6Z" class="g1_145"/>
<path d="M703.1,161.4H689.5c-.9,0,-1.6,-.7,-1.6,-1.6V145.9c0,-.9,.7,-1.6,1.6,-1.6h13.6c.9,0,1.6,.7,1.6,1.6v13.9c0,.9,-.7,1.6,-1.6,1.6Z" class="g2_145"/>
<path d="M703.1,161.4H689.5c-.9,0,-1.6,-.7,-1.6,-1.6V145.9c0,-.9,.7,-1.6,1.6,-1.6h13.6c.9,0,1.6,.7,1.6,1.6v13.9c0,.9,-.7,1.6,-1.6,1.6Z" class="g1_145"/>
<path d="M570.5,225.9H556.8c-.8,0,-1.6,-.7,-1.6,-1.6V210.4c0,-.9,.8,-1.6,1.6,-1.6h13.7c.9,0,1.6,.7,1.6,1.6v13.9c0,.9,-.7,1.6,-1.6,1.6Z" class="g2_145"/>
<path d="M570.5,225.9H556.8c-.8,0,-1.6,-.7,-1.6,-1.6V210.4c0,-.9,.8,-1.6,1.6,-1.6h13.7c.9,0,1.6,.7,1.6,1.6v13.9c0,.9,-.7,1.6,-1.6,1.6Z" class="g1_145"/>
<path d="M597,225.9H583.3c-.9,0,-1.6,-.7,-1.6,-1.6V210.4c0,-.9,.7,-1.6,1.6,-1.6H597c.8,0,1.5,.7,1.5,1.6v13.9c0,.9,-.7,1.6,-1.5,1.6Z" class="g2_145"/>
<path d="M597,225.9H583.3c-.9,0,-1.6,-.7,-1.6,-1.6V210.4c0,-.9,.7,-1.6,1.6,-1.6H597c.8,0,1.5,.7,1.5,1.6v13.9c0,.9,-.7,1.6,-1.5,1.6Z" class="g1_145"/>
<path d="M623.4,225.9H609.8c-.9,0,-1.6,-.7,-1.6,-1.6V210.4c0,-.9,.7,-1.6,1.6,-1.6h13.6c.9,0,1.6,.7,1.6,1.6v13.9c0,.9,-.7,1.6,-1.6,1.6Z" class="g2_145"/>
<path d="M623.4,225.9H609.8c-.9,0,-1.6,-.7,-1.6,-1.6V210.4c0,-.9,.7,-1.6,1.6,-1.6h13.6c.9,0,1.6,.7,1.6,1.6v13.9c0,.9,-.7,1.6,-1.6,1.6Z" class="g1_145"/>
<path d="M650.2,225.9H636.6c-.9,0,-1.6,-.7,-1.6,-1.6V210.4c0,-.9,.7,-1.6,1.6,-1.6h13.6c.9,0,1.6,.7,1.6,1.6v13.9c0,.9,-.7,1.6,-1.6,1.6Z" class="g2_145"/>
<path d="M650.2,225.9H636.6c-.9,0,-1.6,-.7,-1.6,-1.6V210.4c0,-.9,.7,-1.6,1.6,-1.6h13.6c.9,0,1.6,.7,1.6,1.6v13.9c0,.9,-.7,1.6,-1.6,1.6Z" class="g1_145"/>
<path d="M676.7,225.9H663.1c-.9,0,-1.6,-.7,-1.6,-1.6V210.4c0,-.9,.7,-1.6,1.6,-1.6h13.6c.9,0,1.6,.7,1.6,1.6v13.9c0,.9,-.7,1.6,-1.6,1.6Z" class="g2_145"/>
<path d="M676.7,225.9H663.1c-.9,0,-1.6,-.7,-1.6,-1.6V210.4c0,-.9,.7,-1.6,1.6,-1.6h13.6c.9,0,1.6,.7,1.6,1.6v13.9c0,.9,-.7,1.6,-1.6,1.6Z" class="g1_145"/>
<path d="M703.2,225.9H689.5c-.8,0,-1.5,-.7,-1.5,-1.6V210.4c0,-.9,.7,-1.6,1.5,-1.6h13.7c.9,0,1.6,.7,1.6,1.6v13.9c0,.9,-.7,1.6,-1.6,1.6Z" class="g2_145"/>
<path d="M703.2,225.9H689.5c-.8,0,-1.5,-.7,-1.5,-1.6V210.4c0,-.9,.7,-1.6,1.5,-1.6h13.7c.9,0,1.6,.7,1.6,1.6v13.9c0,.9,-.7,1.6,-1.6,1.6Z" class="g1_145"/>
<path d="M671.8,101.1V132" class="g3_145"/>
<path d="M669.6,130.5l2.2,8.3l2.2,-8.3h-4.4Z" class="g4_145"/>
<path d="M671.8,165.4v31" class="g3_145"/>
<path d="M669.6,194.9l2.2,8.2l2.2,-8.2h-4.4Z" class="g4_145"/>
<path d="M688.9,101.5H653.8c-.9,0,-1.6,-.7,-1.6,-1.6V86c0,-.9,.7,-1.6,1.6,-1.6h35.1c.8,0,1.6,.7,1.6,1.6V99.9c0,.9,-.8,1.6,-1.6,1.6Z" class="g2_145"/>
<path d="M688.9,101.5H653.8c-.9,0,-1.6,-.7,-1.6,-1.6V86c0,-.9,.7,-1.6,1.6,-1.6h35.1c.8,0,1.6,.7,1.6,1.6V99.9c0,.9,-.8,1.6,-1.6,1.6Z" class="g1_145"/>
</svg>