<?xml version="1.0" encoding="UTF-8" standalone="no"?>
<!DOCTYPE svg PUBLIC "-//W3C//DTD SVG 1.1//EN"
"http://www.w3.org/Graphics/SVG/1.1/DTD/svg11.dtd">
<svg viewBox="0 0 811 1017" version="1.1" xmlns="http://www.w3.org/2000/svg" xmlns:xlink="http://www.w3.org/1999/xlink">
<defs>
<clipPath id="c0_149"><path d="M441.2,789.5V749.3H733.9v40.2Z"/></clipPath>
<style type="text/css"><![CDATA[
.g0_149{
fill: #F7F5E8;
}
.g1_149{
fill: #70A6CC;
}
.g2_149{
fill: #D9F0FA;
}
.g3_149{
fill: none;
stroke: #231F20;
stroke-width: 0.763;
stroke-linecap: butt;
stroke-linejoin: miter;
}
.g4_149{
fill: #FFFFFF;
}
.g5_149{
fill: none;
stroke: #000000;
stroke-width: 0.763;
stroke-linecap: butt;
stroke-linejoin: miter;
}
.g6_149{
}
]]></style>
</defs>
<path d="M142.4,513.3H710.7V327H142.4V513.3Z" class="g0_149"/>
<path d="M142.4,704.2H710.7V682.9H142.4v21.3Z" class="g1_149"/>
<path d="M444,230.3H430.4c-.9,0,-1.6,-.7,-1.6,-1.6V214.8c0,-.9,.7,-1.6,1.6,-1.6H444c.9,0,1.6,.7,1.6,1.6v13.9c0,.9,-.7,1.6,-1.6,1.6Z" class="g2_149"/>
<path d="M444,230.3H430.4c-.9,0,-1.6,-.7,-1.6,-1.6V214.8c0,-.9,.7,-1.6,1.6,-1.6H444c.9,0,1.6,.7,1.6,1.6v13.9c0,.9,-.7,1.6,-1.6,1.6Z" class="g3_149"/>
<path d="M494.7,230.3H481c-.8,0,-1.5,-.7,-1.5,-1.6V214.8c0,-.9,.7,-1.6,1.5,-1.6h13.7c.9,0,1.6,.7,1.6,1.6v13.9c0,.9,-.7,1.6,-1.6,1.6Z" class="g2_149"/>
<path d="M494.7,230.3H481c-.8,0,-1.5,-.7,-1.5,-1.6V214.8c0,-.9,.7,-1.6,1.5,-1.6h13.7c.9,0,1.6,.7,1.6,1.6v13.9c0,.9,-.7,1.6,-1.6,1.6Z" class="g3_149"/>
<path d="M216.3,101.5c-4.7,0,-8.5,-3.8,-8.5,-8.4v-.3c0,-4.6,3.8,-8.4,8.5,-8.4c4.6,0,8.4,3.8,8.4,8.4v.3c0,4.6,-3.8,8.4,-8.4,8.4Z" class="g2_149"/>
<path d="M216.3,101.5c-4.7,0,-8.5,-3.8,-8.5,-8.4v-.3c0,-4.6,3.8,-8.4,8.5,-8.4c4.6,0,8.4,3.8,8.4,8.4v.3c0,4.6,-3.8,8.4,-8.4,8.4Z" class="g3_149"/>
<path d="M266.2,101.5c-4.7,0,-8.5,-3.8,-8.5,-8.4v-.3c0,-4.6,3.8,-8.4,8.5,-8.4c4.6,0,8.4,3.8,8.4,8.4v.3c0,4.6,-3.8,8.4,-8.4,8.4Z" class="g2_149"/>
<path d="M266.2,101.5c-4.7,0,-8.5,-3.8,-8.5,-8.4v-.3c0,-4.6,3.8,-8.4,8.5,-8.4c4.6,0,8.4,3.8,8.4,8.4v.3c0,4.6,-3.8,8.4,-8.4,8.4Z" class="g3_149"/>
<path d="M222.9,165.7H209.3c-.9,0,-1.6,-.7,-1.6,-1.6V150.2c0,-.9,.7,-1.6,1.6,-1.6h13.6c.9,0,1.6,.7,1.6,1.6v13.9c0,.9,-.7,1.6,-1.6,1.6Z" class="g2_149"/>
<path d="M222.9,165.7H209.3c-.9,0,-1.6,-.7,-1.6,-1.6V150.2c0,-.9,.7,-1.6,1.6,-1.6h13.6c.9,0,1.6,.7,1.6,1.6v13.9c0,.9,-.7,1.6,-1.6,1.6Z" class="g3_149"/>
<path d="M222.9,230.3H209.3c-.9,0,-1.6,-.7,-1.6,-1.6V214.8c0,-.9,.7,-1.6,1.6,-1.6h13.6c.9,0,1.6,.7,1.6,1.6v13.9c0,.9,-.7,1.6,-1.6,1.6Z" class="g2_149"/>
<path d="M222.9,230.3H209.3c-.9,0,-1.6,-.7,-1.6,-1.6V214.8c0,-.9,.7,-1.6,1.6,-1.6h13.6c.9,0,1.6,.7,1.6,1.6v13.9c0,.9,-.7,1.6,-1.6,1.6Z" class="g3_149"/>
<path d="M273.6,165.7H260c-.9,0,-1.6,-.7,-1.6,-1.6V150.2c0,-.9,.7,-1.6,1.6,-1.6h13.6c.9,0,1.6,.7,1.6,1.6v13.9c0,.9,-.7,1.6,-1.6,1.6Z" class="g2_149"/>
<path d="M273.6,165.7H260c-.9,0,-1.6,-.7,-1.6,-1.6V150.2c0,-.9,.7,-1.6,1.6,-1.6h13.6c.9,0,1.6,.7,1.6,1.6v13.9c0,.9,-.7,1.6,-1.6,1.6Z" class="g3_149"/>
<path d="M273.6,230.3H260c-.9,0,-1.6,-.7,-1.6,-1.6V214.8c0,-.9,.7,-1.6,1.6,-1.6h13.6c.9,0,1.6,.7,1.6,1.6v13.9c0,.9,-.7,1.6,-1.6,1.6Z" class="g2_149"/>
<path d="M273.6,230.3H260c-.9,0,-1.6,-.7,-1.6,-1.6V214.8c0,-.9,.7,-1.6,1.6,-1.6h13.6c.9,0,1.6,.7,1.6,1.6v13.9c0,.9,-.7,1.6,-1.6,1.6Z" class="g3_149"/>
<path d="M191.3,101.5c-4.6,0,-8.4,-3.8,-8.4,-8.4v-.3c0,-4.6,3.8,-8.4,8.4,-8.4c4.7,0,8.4,3.8,8.4,8.4v.3c0,4.6,-3.7,8.4,-8.4,8.4Z" class="g4_149"/>
<path d="M191.3,101.5c-4.6,0,-8.4,-3.8,-8.4,-8.4v-.3c0,-4.6,3.8,-8.4,8.4,-8.4c4.7,0,8.4,3.8,8.4,8.4v.3c0,4.6,-3.7,8.4,-8.4,8.4Z" class="g3_149"/>
<path d="M241.2,101.5c-4.6,0,-8.4,-3.8,-8.4,-8.4v-.3c0,-4.6,3.8,-8.4,8.4,-8.4c4.7,0,8.4,3.8,8.4,8.4v.3c0,4.6,-3.7,8.4,-8.4,8.4Z" class="g4_149"/>
<path d="M241.2,101.5c-4.6,0,-8.4,-3.8,-8.4,-8.4v-.3c0,-4.6,3.8,-8.4,8.4,-8.4c4.7,0,8.4,3.8,8.4,8.4v.3c0,4.6,-3.7,8.4,-8.4,8.4Z" class="g3_149"/>
<path d="M198,165.7H184.3c-.8,0,-1.6,-.7,-1.6,-1.6V150.2c0,-.9,.8,-1.6,1.6,-1.6H198c.9,0,1.6,.7,1.6,1.6v13.9c0,.9,-.7,1.6,-1.6,1.6Z" class="g4_149"/>
<path d="M198,165.7H184.3c-.8,0,-1.6,-.7,-1.6,-1.6V150.2c0,-.9,.8,-1.6,1.6,-1.6H198c.9,0,1.6,.7,1.6,1.6v13.9c0,.9,-.7,1.6,-1.6,1.6Zm0,0H184.3c-.8,0,-1.6,-.7,-1.6,-1.6V150.2c0,-.9,.8,-1.6,1.6,-1.6H198c.9,0,1.6,.7,1.6,1.6v13.9c0,.9,-.7,1.6,-1.6,1.6Z" class="g3_149"/>
<path d="M191.1,105.6v31" class="g5_149"/>
<path d="M188.9,135.1l2.2,8.3l2.2,-8.3h-4.4Z" class="g6_149"/>
<path d="M191.1,170v30.9" class="g5_149"/>
<path d="M188.9,199.4l2.2,8.3l2.2,-8.3h-4.4Z" class="g6_149"/>
<path d="M216.5,105.6v31" class="g5_149"/>
<path d="M214.3,135.1l2.2,8.3l2.2,-8.3h-4.4Z" class="g6_149"/>
<path d="M216.5,170v30.9" class="g5_149"/>
<path d="M214.3,199.4l2.2,8.3l2.2,-8.3h-4.4Z" class="g6_149"/>
<path d="M248.7,165.7H235c-.9,0,-1.6,-.7,-1.6,-1.6V150.2c0,-.9,.7,-1.6,1.6,-1.6h13.7c.8,0,1.5,.7,1.5,1.6v13.9c0,.9,-.7,1.6,-1.5,1.6Z" class="g4_149"/>
<path d="M248.7,165.7H235c-.9,0,-1.6,-.7,-1.6,-1.6V150.2c0,-.9,.7,-1.6,1.6,-1.6h13.7c.8,0,1.5,.7,1.5,1.6v13.9c0,.9,-.7,1.6,-1.5,1.6Zm0,0H235c-.9,0,-1.6,-.7,-1.6,-1.6V150.2c0,-.9,.7,-1.6,1.6,-1.6h13.7c.8,0,1.5,.7,1.5,1.6v13.9c0,.9,-.7,1.6,-1.5,1.6Z" class="g3_149"/>
<path d="M241.8,105.6v31" class="g5_149"/>
<path d="M239.6,135.1l2.2,8.3l2.2,-8.3h-4.4Z" class="g6_149"/>
<path d="M241.8,170v30.9" class="g5_149"/>
<path d="M239.6,199.4l2.2,8.3l2.2,-8.3h-4.4Z" class="g6_149"/>
<path d="M267.2,105.6v31" class="g5_149"/>
<path d="M264.9,135.1l2.3,8.3l2.2,-8.3h-4.5Z" class="g6_149"/>
<path d="M267.2,170v30.9" class="g5_149"/>
<path d="M264.9,199.4l2.3,8.3l2.2,-8.3h-4.5Z" class="g6_149"/>
<path d="M412.4,101.5c-4.6,0,-8.4,-3.8,-8.4,-8.4v-.3c0,-4.6,3.8,-8.4,8.4,-8.4c4.6,0,8.4,3.8,8.4,8.4v.3c0,4.6,-3.8,8.4,-8.4,8.4Z" class="g4_149"/>
<path d="M412.4,101.5c-4.6,0,-8.4,-3.8,-8.4,-8.4v-.3c0,-4.6,3.8,-8.4,8.4,-8.4c4.6,0,8.4,3.8,8.4,8.4v.3c0,4.6,-3.8,8.4,-8.4,8.4Z" class="g3_149"/>
<path d="M437.3,101.5c-4.6,0,-8.4,-3.8,-8.4,-8.4v-.3c0,-4.6,3.8,-8.4,8.4,-8.4c4.7,0,8.5,3.8,8.5,8.4v.3c0,4.6,-3.8,8.4,-8.5,8.4Z" class="g2_149"/>
<path d="M437.3,101.5c-4.6,0,-8.4,-3.8,-8.4,-8.4v-.3c0,-4.6,3.8,-8.4,8.4,-8.4c4.7,0,8.5,3.8,8.5,8.4v.3c0,4.6,-3.8,8.4,-8.5,8.4Z" class="g3_149"/>
<path d="M462.3,101.5c-4.7,0,-8.4,-3.8,-8.4,-8.4v-.3c0,-4.6,3.7,-8.4,8.4,-8.4c4.6,0,8.4,3.8,8.4,8.4v.3c0,4.6,-3.8,8.4,-8.4,8.4Z" class="g4_149"/>
<path d="M462.3,101.5c-4.7,0,-8.4,-3.8,-8.4,-8.4v-.3c0,-4.6,3.7,-8.4,8.4,-8.4c4.6,0,8.4,3.8,8.4,8.4v.3c0,4.6,-3.8,8.4,-8.4,8.4Z" class="g3_149"/>
<path d="M487.2,101.5c-4.6,0,-8.4,-3.8,-8.4,-8.4v-.3c0,-4.6,3.8,-8.4,8.4,-8.4c4.7,0,8.5,3.8,8.5,8.4v.3c0,4.6,-3.8,8.4,-8.5,8.4Z" class="g2_149"/>
<path d="M487.2,101.5c-4.6,0,-8.4,-3.8,-8.4,-8.4v-.3c0,-4.6,3.8,-8.4,8.4,-8.4c4.7,0,8.5,3.8,8.5,8.4v.3c0,4.6,-3.8,8.4,-8.5,8.4Z" class="g3_149"/>
<path d="M437.3,165.9c-4.6,0,-8.4,-3.8,-8.4,-8.5v-.3c0,-4.6,3.8,-8.4,8.4,-8.4c4.7,0,8.5,3.8,8.5,8.4v.3c0,4.7,-3.8,8.5,-8.5,8.5Z" class="g2_149"/>
<path d="M437.3,165.9c-4.6,0,-8.4,-3.8,-8.4,-8.5v-.3c0,-4.6,3.8,-8.4,8.4,-8.4c4.7,0,8.5,3.8,8.5,8.4v.3c0,4.7,-3.8,8.5,-8.5,8.5Z" class="g3_149"/>
<path d="M487.2,165.9c-4.6,0,-8.4,-3.8,-8.4,-8.5v-.3c0,-4.6,3.8,-8.4,8.4,-8.4c4.7,0,8.5,3.8,8.5,8.4v.3c0,4.7,-3.8,8.5,-8.5,8.5Z" class="g2_149"/>
<path d="M487.2,165.9c-4.6,0,-8.4,-3.8,-8.4,-8.5v-.3c0,-4.6,3.8,-8.4,8.4,-8.4c4.7,0,8.5,3.8,8.5,8.4v.3c0,4.7,-3.8,8.5,-8.5,8.5Z" class="g3_149"/>
<path d="M412.2,105.6v31" class="g5_149"/>
<path d="M410,135.1l2.2,8.3l2.2,-8.3H410Z" class="g6_149"/>
<path d="M437.6,105.6v31" class="g5_149"/>
<path d="M435.4,135.1l2.2,8.3l2.2,-8.3h-4.4Z" class="g6_149"/>
<path d="M437.6,170v30.9" class="g5_149"/>
<path d="M435.4,199.4l2.2,8.3l2.2,-8.3h-4.4Z" class="g6_149"/>
<path d="M462.9,105.6v31" class="g5_149"/>
<path d="M460.7,135.1l2.2,8.3l2.2,-8.3h-4.4Z" class="g6_149"/>
<path d="M488.3,105.6v31" class="g5_149"/>
<path d="M486,135.1l2.3,8.3l2.2,-8.3H486Z" class="g6_149"/>
<path d="M488.3,170v30.9" class="g5_149"/>
<path d="M486,199.4l2.3,8.3l2.2,-8.3H486Z" class="g6_149"/>
<path d="M456.1,754.4v3.2l-.2,-.1l-6.3,-2.9l-.3,-.2l.3,-.2l6.3,-2.9l.2,-.1v.3l-.1,.2l-6.2,2.9l-.2,-.4h.2l6.2,3l-.1,.3l-.1,-.1v-3Z" class="g6_149"/>
<path d="M455.8,754.4h.3v-2.9h-.3v2.9Z" class="g6_149"/>
<path d="M456.1,754.6h22.7v-.4H456.1v.4Z" class="g6_149"/>
<g clip-path="url(#c0_149)">
<path d="M478.4,789.6h.4V754.4h-.4v35.2Z" class="g6_149"/>
</g>
</svg>