<?xml version="1.0" encoding="UTF-8" standalone="no"?>
<!DOCTYPE svg PUBLIC "-//W3C//DTD SVG 1.1//EN"
"http://www.w3.org/Graphics/SVG/1.1/DTD/svg11.dtd">
<svg viewBox="0 0 811 1017" version="1.1" xmlns="http://www.w3.org/2000/svg" xmlns:xlink="http://www.w3.org/1999/xlink">
<defs>
<clipPath id="c0_334"><path d="M518,396.4V363.5H733.1v32.9Z"/></clipPath>
<style type="text/css"><![CDATA[
.g0_334{
fill: #F7F5E8;
}
.g1_334{
}
]]></style>
</defs>
<path d="M156.1,891H724.4V680.2H156.1V891Z" class="g0_334"/>
<path d="M556.2,353.7v3.2l-.2,-.1l-6.3,-3l-.3,-.1l.3,-.2l6.3,-3l.2,-.1v.3l-.1,.2l-6.2,2.9l-.2,-.3h.2l6.2,2.9l-.1,.4l-.1,-.2v-2.9Z" class="g1_334"/>
<path d="M555.9,353.7h.3v-3h-.3v3Z" class="g1_334"/>
<path d="M556.2,353.8h23.2v-.3H556.2v.3Z" class="g1_334"/>
<path d="M579.1,353.7h.3V327.5h-.3v26.2Z" class="g1_334"/>
<path d="M532.9,368.7v3.1l-.2,-.1l-6.4,-2.8l-.3,-.2l.3,-.2l6.4,-2.9l.2,-.1v.4l-6.4,3l-.2,-.4h.2l6.4,2.8l-.2,.4l-.1,-.2v-2.8Z" class="g1_334"/>
<path d="M532.6,368.7h.3v-3h-.3v3Z" class="g1_334"/>
<path d="M532.9,368.9h22.6v-.4H532.9v.4Z" class="g1_334"/>
<g clip-path="url(#c0_334)">
<path d="M555.1,396.4h.4V368.7h-.4v27.7Z" class="g1_334"/>
</g>
</svg>