<?xml version="1.0" encoding="UTF-8" standalone="no"?>
<!DOCTYPE svg PUBLIC "-//W3C//DTD SVG 1.1//EN"
"http://www.w3.org/Graphics/SVG/1.1/DTD/svg11.dtd">
<svg viewBox="0 0 811 1017" version="1.1" xmlns="http://www.w3.org/2000/svg" xmlns:xlink="http://www.w3.org/1999/xlink">
<defs>
<style type="text/css"><![CDATA[
.g0_44{
fill: #E6E6E6;
}
.g1_44{
fill: #476B85;
}
.g2_44{
fill: #F7F5E8;
}
]]></style>
</defs>
<path d="M720.1,277.6H713c-15.9,32.6,-24.1,29.2,-57.8,29.2H594.4l69.7,-59.2c27.5,-21.6,65.7,-48.1,65.7,-87c0,-37.8,-28.2,-58.8,-64.3,-58.8c-33,0,-61.5,20.7,-61.5,55.7c0,12.4,5.8,33.1,12.4,33.1c1,0,2,-.8,2,-2.1c0,-2.1,-4.1,-12.4,-4.1,-24.8c0,-24.1,22.7,-40.6,45.3,-40.6c23.8,0,41,15.1,41,39.6c0,25.1,-16.9,44.4,-29.2,56.8L609.1,281l-46.7,46.7v4.8c38.5,-.3,77,-1,115.5,-1.3c6.8,.3,13.4,1,20.2,1.3Z" class="g0_44"/>
<path d="M275.3,235H724.4v-.3H275.3v.3Z" class="g1_44"/>
<path d="M119.4,552.8H504.6V398.6H119.4V552.8Z" class="g2_44"/>
</svg>