<?xml version="1.0" encoding="UTF-8" standalone="no"?>
<!DOCTYPE svg PUBLIC "-//W3C//DTD SVG 1.1//EN"
"http://www.w3.org/Graphics/SVG/1.1/DTD/svg11.dtd">
<svg viewBox="0 0 811 1017" version="1.1" xmlns="http://www.w3.org/2000/svg" xmlns:xlink="http://www.w3.org/1999/xlink">
<defs>
<style type="text/css"><![CDATA[
.g0_271{
}
.g1_271{
fill: none;
stroke: #000000;
stroke-width: 0.763;
stroke-linecap: butt;
stroke-linejoin: miter;
}
.g2_271{
fill: #FFFFFF;
}
.g3_271{
fill: #D9F0FA;
}
]]></style>
</defs>
<path d="M510,277.2v3.2l-.2,-.1l-6.4,-2.9l-.3,-.2l.3,-.2l6.4,-2.9l.2,-.1v.3l-.1,.2l-6.3,2.9l-.2,-.4h.2l6.3,2.9l-.1,.4l-.1,-.2v-2.9Z" class="g0_271"/>
<path d="M509.7,277.2h.3v-2.9h-.3v2.9Z" class="g0_271"/>
<path d="M510,277.4h23.1V277H510v.4Z" class="g0_271"/>
<path d="M532.8,277.2h.3V235.9h-.3v41.3Z" class="g0_271"/>
<path d="M291.7,739.4V700.1" class="g1_271"/>
<path d="M294,701.6l-2.3,-8.2l-2.2,8.2H294Z" class="g0_271"/>
<path d="M348.9,691.5H234.6c-.9,0,-1.6,-.7,-1.6,-1.5V676c0,-.9,.7,-1.6,1.6,-1.6H348.9c.9,0,1.6,.7,1.6,1.6v14c0,.8,-.7,1.5,-1.6,1.5Z" class="g2_271"/>
<path d="M348.9,691.5H234.6c-.9,0,-1.6,-.7,-1.6,-1.5V676c0,-.9,.7,-1.6,1.6,-1.6H348.9c.9,0,1.6,.7,1.6,1.6v14c0,.8,-.7,1.5,-1.6,1.5Z" class="g1_271"/>
<path d="M348.9,756.6H234.6c-.9,0,-1.6,-.7,-1.6,-1.6V741.1c0,-.9,.7,-1.6,1.6,-1.6H348.9c.9,0,1.6,.7,1.6,1.6V755c0,.9,-.7,1.6,-1.6,1.6Z" class="g3_271"/>
<path d="M348.9,756.6H234.6c-.9,0,-1.6,-.7,-1.6,-1.6V741.1c0,-.9,.7,-1.6,1.6,-1.6H348.9c.9,0,1.6,.7,1.6,1.6V755c0,.9,-.7,1.6,-1.6,1.6ZM176.4,739.4V700.1" class="g1_271"/>
<path d="M178.7,701.6l-2.3,-8.2l-2.2,8.2h4.5Z" class="g0_271"/>
<path d="M206.6,691.5H146.2c-.8,0,-1.6,-.7,-1.6,-1.5V676c0,-.9,.8,-1.6,1.6,-1.6h60.4c.9,0,1.6,.7,1.6,1.6v14c0,.8,-.7,1.5,-1.6,1.5Z" class="g2_271"/>
<path d="M206.6,691.5H146.2c-.8,0,-1.6,-.7,-1.6,-1.5V676c0,-.9,.8,-1.6,1.6,-1.6h60.4c.9,0,1.6,.7,1.6,1.6v14c0,.8,-.7,1.5,-1.6,1.5Z" class="g1_271"/>
<path d="M206.6,756.6H146.2c-.8,0,-1.6,-.7,-1.6,-1.6V741.1c0,-.9,.8,-1.6,1.6,-1.6h60.4c.9,0,1.6,.7,1.6,1.6V755c0,.9,-.7,1.6,-1.6,1.6Z" class="g3_271"/>
<path d="M206.6,756.6H146.2c-.8,0,-1.6,-.7,-1.6,-1.6V741.1c0,-.9,.8,-1.6,1.6,-1.6h60.4c.9,0,1.6,.7,1.6,1.6V755c0,.9,-.7,1.6,-1.6,1.6Zm227.7,-65v39.3" class="g1_271"/>
<path d="M432.1,729.4l2.2,8.3l2.2,-8.3h-4.4Z" class="g0_271"/>
<path d="M491.5,691.5H377.1c-.9,0,-1.6,-.7,-1.6,-1.5V676c0,-.9,.7,-1.6,1.6,-1.6H491.5c.9,0,1.6,.7,1.6,1.6v14c0,.8,-.7,1.5,-1.6,1.5Z" class="g3_271"/>
<path d="M491.5,691.5H377.1c-.9,0,-1.6,-.7,-1.6,-1.5V676c0,-.9,.7,-1.6,1.6,-1.6H491.5c.9,0,1.6,.7,1.6,1.6v14c0,.8,-.7,1.5,-1.6,1.5Z" class="g1_271"/>
<path d="M491.5,756.6H377.1c-.9,0,-1.6,-.7,-1.6,-1.6V741.1c0,-.9,.7,-1.6,1.6,-1.6H491.5c.9,0,1.6,.7,1.6,1.6V755c0,.9,-.7,1.6,-1.6,1.6Z" class="g2_271"/>
<path d="M491.5,756.6H377.1c-.9,0,-1.6,-.7,-1.6,-1.6V741.1c0,-.9,.7,-1.6,1.6,-1.6H491.5c.9,0,1.6,.7,1.6,1.6V755c0,.9,-.7,1.6,-1.6,1.6Z" class="g1_271"/>
</svg>