<?xml version="1.0" encoding="UTF-8" standalone="no"?>
<!DOCTYPE svg PUBLIC "-//W3C//DTD SVG 1.1//EN"
"http://www.w3.org/Graphics/SVG/1.1/DTD/svg11.dtd">
<svg viewBox="0 0 811 1017" version="1.1" xmlns="http://www.w3.org/2000/svg" xmlns:xlink="http://www.w3.org/1999/xlink">
<defs>
<style type="text/css"><![CDATA[
.g0_217{
}
]]></style>
</defs>
<path d="M535.4,87.4v3.2l-.2,-.1l-6.4,-3l-.3,-.1l.3,-.2l6.4,-3h.2v.2l-.1,.2L529,87.5l-.2,-.3h.2l6.3,2.9l-.1,.4l-.1,-.2V87.4Z" class="g0_217"/>
<path d="M535.1,87.4h.3v-3h-.3v3Z" class="g0_217"/>
<path d="M535.4,87.5H558v-.3H535.4v.3Z" class="g0_217"/>
<path d="M557.6,129.2h.4V87.4h-.4v41.8Z" class="g0_217"/>
<path d="M478.5,287.7V291l-.3,-.1l-6.2,-3l-.4,-.2l.4,-.1l6.2,-3l.3,-.1v.3l-.1,.2l-6.2,2.9l-.2,-.3h.2l6.2,2.9l-.2,.4l-.1,-.2v-3Z" class="g0_217"/>
<path d="M478.1,287.7h.4v-2.9h-.4v2.9Z" class="g0_217"/>
<path d="M478.5,287.9h23.2v-.3H478.5v.3Z" class="g0_217"/>
<path d="M501.3,287.7h.4v-26h-.4v26Z" class="g0_217"/>
<path d="M558.3,318v3.2l-.2,-.1l-6.3,-2.9l-.3,-.2l.3,-.2l6.3,-2.9l.2,-.1v.3l-.1,.1l-6.2,3l-.2,-.4h.2l6.2,2.9l-.1,.4l-.1,-.2V318Z" class="g0_217"/>
<path d="M558,318h.3v-2.9H558V318Z" class="g0_217"/>
<path d="M558.3,318.2h22.6v-.4H558.3v.4Z" class="g0_217"/>
<path d="M580.5,359.8h.4V318h-.4v41.8Z" class="g0_217"/>
<path d="M386.8,394.7v3.1l-.2,-.1l-6.3,-2.8l-.3,-.2l.3,-.2l6.3,-2.9l.2,-.1v.3l-.1,.2l-6.2,2.9l-.2,-.4h.2l6.2,2.9l-.1,.3l-.1,-.1v-2.9Z" class="g0_217"/>
<path d="M386.5,394.7h.3v-2.9h-.3v2.9Z" class="g0_217"/>
<path d="M386.8,394.9H410v-.4H386.8v.4Z" class="g0_217"/>
<path d="M409.7,394.7h.3V353.4h-.3v41.3Z" class="g0_217"/>
<path d="M346.8,471.1v3.2l-.3,-.1l-6.3,-2.9l-.4,-.2l.4,-.2l6.3,-2.9l.3,-.1v.2l-.1,.2l-6.3,3l-.2,-.4h.2l6.3,2.9l-.2,.4l-.1,-.2v-2.9Z" class="g0_217"/>
<path d="M346.4,471.1h.4v-3h-.4v3Z" class="g0_217"/>
<path d="M346.8,471.3h23.1v-.4H346.8v.4Z" class="g0_217"/>
<path d="M369.5,471.1h.4V429.7h-.4v41.4Z" class="g0_217"/>
<path d="M479.5,486.4v3.1l-.3,-.1l-6.3,-2.8l-.4,-.2l.4,-.2l6.3,-2.9l.3,-.1v.2l-.1,.2l-6.3,3l-.2,-.4h.2l6.3,2.8l-.2,.4l-.1,-.2v-2.8Z" class="g0_217"/>
<path d="M479.1,486.4h.4v-3h-.4v3Z" class="g0_217"/>
<path d="M479.5,486.6h64.2v-.4H479.5v.4Z" class="g0_217"/>
<path d="M543.3,486.4h.4v-28h-.4v28Z" class="g0_217"/>
</svg>