<?xml version="1.0" encoding="UTF-8" standalone="no"?>
<!DOCTYPE svg PUBLIC "-//W3C//DTD SVG 1.1//EN"
"http://www.w3.org/Graphics/SVG/1.1/DTD/svg11.dtd">
<svg viewBox="0 0 811 1017" version="1.1" xmlns="http://www.w3.org/2000/svg" xmlns:xlink="http://www.w3.org/1999/xlink">
<defs>
<style type="text/css"><![CDATA[
.g0_48{
}
]]></style>
</defs>
<path d="M139.2,604.7v-3.2l.2,.1l6.4,2.9l.3,.2l-.3,.2l-6.4,2.9h-.2v-.4l6.4,-2.9l.2,.4h-.2L139.2,602l.2,-.4l.1,.2v2.9Z" class="g0_48"/>
<path d="M139.2,607.6h.3v-2.9h-.3v2.9Z" class="g0_48"/>
<path d="M127.1,604.9h12.1v-.4H127.1v.4Z" class="g0_48"/>
<path d="M127.1,643.6h.3V604.7h-.3v38.9Z" class="g0_48"/>
<path d="M514,620.2v3.2l-.3,-.1l-6.2,-2.9l-.4,-.2l.4,-.2l6.2,-2.9l.3,-.1v.3l-.1,.2l-6.2,2.9l-.2,-.4h.2l6.2,3l-.2,.3l-.1,-.1v-3Z" class="g0_48"/>
<path d="M513.6,620.2h.4v-2.9h-.4v2.9Z" class="g0_48"/>
<path d="M514,620.4h23.2V620H514v.4Z" class="g0_48"/>
<path d="M536.8,620.2h.4v-26h-.4v26Z" class="g0_48"/>
<path d="M443.8,744v3.2l-.3,-.1l-6.3,-2.9l-.3,-.2l.3,-.2l6.3,-2.9l.3,-.1v.2l-.1,.2l-6.3,3l-.2,-.4h.2l6.3,2.9l-.2,.4l-.1,-.2V744Z" class="g0_48"/>
<path d="M443.4,744h.4v-3h-.4v3Z" class="g0_48"/>
<path d="M443.8,744.2h23.1v-.4H443.8v.4Z" class="g0_48"/>
<path d="M466.6,744h.4V717.9h-.4V744Z" class="g0_48"/>
</svg>