<?xml version="1.0" encoding="UTF-8" standalone="no"?>
<!DOCTYPE svg PUBLIC "-//W3C//DTD SVG 1.1//EN"
"http://www.w3.org/Graphics/SVG/1.1/DTD/svg11.dtd">
<svg viewBox="0 0 811 1017" version="1.1" xmlns="http://www.w3.org/2000/svg" xmlns:xlink="http://www.w3.org/1999/xlink">
<defs>
<clipPath id="c0_257"><path d="M465.1,203.9V171H691.6v32.9Z"/></clipPath>
<clipPath id="c1_257"><path d="M341,234.4V201.5H506.4v32.9Z"/></clipPath>
<style type="text/css"><![CDATA[
.g0_257{
}
]]></style>
</defs>
<path d="M480.1,176.1v3.2l-.3,-.1l-6.3,-2.9l-.4,-.2l.4,-.2l6.3,-2.9l.3,-.1v.3l-.1,.1l-6.4,3l-.1,-.4h.1l6.4,2.9l-.2,.4l-.1,-.2v-2.9Z" class="g0_257"/>
<path d="M479.7,176.1h.4v-2.9h-.4v2.9Z" class="g0_257"/>
<path d="M480.1,176.3h22.5v-.4H480.1v.4Z" class="g0_257"/>
<g clip-path="url(#c0_257)">
<path d="M502.2,203.9h.4V176.1h-.4v27.8Z" class="g0_257"/>
</g>
<path d="M355.9,206.7v3.2l-.2,-.1l-6.4,-2.9l-.3,-.2l.3,-.2l6.4,-2.9l.2,-.1v.5l-6.4,2.9l-.2,-.4h.2l6.4,3l-.2,.3l-.1,-.2v-2.9Z" class="g0_257"/>
<path d="M355.6,206.7h.3v-2.9h-.3v2.9Z" class="g0_257"/>
<path d="M355.9,206.9h22.6v-.4H355.9v.4Z" class="g0_257"/>
<g clip-path="url(#c1_257)">
<path d="M378.1,234.4h.4V206.7h-.4v27.7Z" class="g0_257"/>
</g>
</svg>