<?xml version="1.0" encoding="UTF-8" standalone="no"?>
<!DOCTYPE svg PUBLIC "-//W3C//DTD SVG 1.1//EN"
"http://www.w3.org/Graphics/SVG/1.1/DTD/svg11.dtd">
<svg viewBox="0 0 811 1017" version="1.1" xmlns="http://www.w3.org/2000/svg" xmlns:xlink="http://www.w3.org/1999/xlink">
<defs>
<style type="text/css"><![CDATA[
.g0_250{
fill: #E6E6E6;
}
.g1_250{
fill: #476B85;
}
.g2_250{
fill: #F7F5E8;
}
]]></style>
</defs>
<path d="M569.8,336.2c41.6,-5.7,79.8,-24,110.4,-52.6c30.3,-27.9,57.7,-70.8,57.7,-113.1c0,-37.1,-22.3,-71.1,-62.1,-71.1c-46.9,0,-86,46.6,-86,91.7c0,28.9,16.1,50.5,46.4,50.5c29.6,0,49.8,-27.5,49.8,-36.7c0,-2,-1,-3.8,-3.4,-3.8c-5.5,0,-15.1,26.9,-37.2,26.9c-18.9,0,-24.7,-16.6,-24.7,-32.8c0,-31.2,21,-88,58.8,-88c22,0,31,19.6,31,38.8c0,40.6,-19.3,91.9,-44.1,123.9c-26.5,34.7,-57.7,48.2,-98.3,60.6Z" class="g0_250"/>
<path d="M275.3,235H724.4v-.3H275.3v.3Z" class="g1_250"/>
<path d="M119.4,511.6H547.1v-113H119.4v113Z" class="g2_250"/>
</svg>