<?xml version="1.0" encoding="UTF-8" standalone="no"?>
<!DOCTYPE svg PUBLIC "-//W3C//DTD SVG 1.1//EN"
"http://www.w3.org/Graphics/SVG/1.1/DTD/svg11.dtd">
<svg viewBox="0 0 811 1017" version="1.1" xmlns="http://www.w3.org/2000/svg" xmlns:xlink="http://www.w3.org/1999/xlink">
<defs>
<clipPath id="c0_281"><path d="M119.4,245.8V232h605v13.8Z"/></clipPath>
<style type="text/css"><![CDATA[
.g0_281{
fill: #E6E6E6;
}
.g1_281{
fill: #476B85;
}
.g2_281{
fill: #F7F5E8;
}
]]></style>
</defs>
<path d="M551.9,100.1c-23.6,11.4,-49.4,17.2,-75.5,19l-1.8,7.9c7.3,-.4,14.2,-.4,21.3,-.8c7.6,0,16.2,.8,16.2,10c0,4.5,-3.1,15.9,-4.1,20.6L474.6,283.7c-2.3,9.3,-6.5,27.5,-13.1,34c-6.5,6.9,-25.3,6.9,-33.6,7.3l-2,7.5c17.1,-.3,34,-1,51.1,-1.3c17.9,.3,35.8,1,53.7,1.3l2,-7.5c-18.9,-.8,-35.4,.6,-35.4,-13.8c0,-9.3,11,-47.5,13.7,-58.5Zm73.3,236.1c34.7,0,63.6,-35.7,78.7,-63.6c15.8,-28.1,26.4,-65.6,26.4,-97.9c0,-36.1,-17.1,-72.9,-58,-72.9c-34.4,0,-61.9,32.3,-77.4,59.8c-16.5,28.6,-27.8,63,-27.8,96.3c0,36.4,14.4,78.3,58.1,78.3ZM674.7,109.4c21.6,0,31,15.8,31,35.4c0,32.3,-10.4,71.8,-20.7,102.4c-9.3,26.8,-27.2,81.5,-61.8,81.5c-21.8,0,-31.4,-18.6,-31.4,-37.8c0,-30.3,10.7,-71.8,20.3,-101.1c8.9,-28.5,25.8,-80.4,62.6,-80.4Z" class="g0_281"/>
<g clip-path="url(#c0_281)">
<path d="M243.4,235h481v-.3h-481v.3Z" class="g1_281"/>
</g>
<path d="M119.4,511.6H547.1v-113H119.4v113Z" class="g2_281"/>
</svg>