<?xml version="1.0" encoding="UTF-8" standalone="no"?>
<!DOCTYPE svg PUBLIC "-//W3C//DTD SVG 1.1//EN"
"http://www.w3.org/Graphics/SVG/1.1/DTD/svg11.dtd">
<svg viewBox="0 0 811 1017" version="1.1" xmlns="http://www.w3.org/2000/svg" xmlns:xlink="http://www.w3.org/1999/xlink">
<defs>
<style type="text/css"><![CDATA[
.g0_147{
fill: none;
stroke: #000000;
stroke-width: 0.458;
stroke-linecap: butt;
stroke-linejoin: miter;
}
]]></style>
</defs>
<path d="M271.9,334.3c0,10.4,-36.2,9.4,-36.7,18.6m34.9,12c0,-3.3,-2.7,-6,-6,-6H241.3c-3.4,0,-6.1,-2.7,-6.1,-6c0,3.3,-2.6,6,-6,6H205.9c-3.4,0,-6.1,2.7,-6.1,6m82.6,-30.6c0,10.4,39.7,9.4,40.1,18.6m42.5,12c0,-3.3,-2.7,-6,-6,-6H328.5c-3.3,0,-6,-2.7,-6,-6c0,3.3,-2.6,6,-6,6h-31c-3.3,0,-6,2.7,-6,6m98.4,44.3c0,-10.4,20.8,-9.4,21.3,-18.5m23.7,-12.1c0,3.3,-2.7,6.1,-6.1,6.1H405.2c-3.3,0,-6,2.6,-6,6c0,-3.4,-2.7,-6,-6,-6H381c-3.3,0,-6,-2.8,-6,-6.1" class="g0_147"/>
</svg>