<?xml version="1.0" encoding="UTF-8" standalone="no"?>
<!DOCTYPE svg PUBLIC "-//W3C//DTD SVG 1.1//EN"
"http://www.w3.org/Graphics/SVG/1.1/DTD/svg11.dtd">
<svg viewBox="0 0 811 1017" version="1.1" xmlns="http://www.w3.org/2000/svg" xmlns:xlink="http://www.w3.org/1999/xlink">
<defs>
<style type="text/css"><![CDATA[
.g0_272{
fill: #476B85;
}
.g1_272{
}
.g2_272{
fill: none;
stroke: #000000;
stroke-width: 0.763;
stroke-linecap: butt;
stroke-linejoin: miter;
}
.g3_272{
fill: #FFFFFF;
}
.g4_272{
fill: none;
stroke: #231F20;
stroke-width: 0.763;
stroke-linecap: butt;
stroke-linejoin: miter;
}
.g5_272{
fill: #D9F0FA;
}
]]></style>
</defs>
<path d="M156.1,137H371.2V104.9H156.1V137Z" class="g0_272"/>
<path d="M371.2,137H572.5V104.9H371.2V137Z" class="g0_272"/>
<path d="M572.5,137H725V104.9H572.5V137Z" class="g0_272"/>
<path d="M371,245.6h.3V104.4H371V245.6Z" class="g1_272"/>
<path d="M572.3,245.6h.3V104.4h-.3V245.6Z" class="g1_272"/>
<path d="M156.1,105.2H725v-.7H156.1v.7Z" class="g1_272"/>
<path d="M156.1,137.1H725v-.3H156.1v.3Z" class="g1_272"/>
<path d="M156.1,245.6H725v-.4H156.1v.4Z" class="g1_272"/>
<path d="M523.8,606.6v3.3l-.3,-.1l-6.3,-3l-.4,-.2l.4,-.1l6.3,-3l.3,-.1v.3l-.1,.2l-6.3,2.9l-.2,-.3h.2l6.3,2.9l-.2,.4l-.1,-.2v-3Z" class="g1_272"/>
<path d="M523.4,606.6h.4v-2.9h-.4v2.9Z" class="g1_272"/>
<path d="M523.8,606.8h23.1v-.3H523.8v.3Z" class="g1_272"/>
<path d="M546.5,606.6h.4V565.3h-.4v41.3Z" class="g1_272"/>
<path d="M302.4,883.4V844.1" class="g2_272"/>
<path d="M304.7,845.6l-2.3,-8.2l-2.2,8.2h4.5Z" class="g1_272"/>
<path d="M356.6,835.5H248.3c-.9,0,-1.6,-.7,-1.6,-1.6V820c0,-.9,.7,-1.6,1.6,-1.6H356.6c.9,0,1.6,.7,1.6,1.6v13.9c0,.9,-.7,1.6,-1.6,1.6Z" class="g3_272"/>
<path d="M356.6,835.5H248.3c-.9,0,-1.6,-.7,-1.6,-1.6V820c0,-.9,.7,-1.6,1.6,-1.6H356.6c.9,0,1.6,.7,1.6,1.6v13.9c0,.9,-.7,1.6,-1.6,1.6Z" class="g4_272"/>
<path d="M356.6,900.6H248.3c-.9,0,-1.6,-.7,-1.6,-1.6V885.1c0,-.9,.7,-1.6,1.6,-1.6H356.6c.9,0,1.6,.7,1.6,1.6V899c0,.9,-.7,1.6,-1.6,1.6Z" class="g5_272"/>
<path d="M356.6,900.6H248.3c-.9,0,-1.6,-.7,-1.6,-1.6V885.1c0,-.9,.7,-1.6,1.6,-1.6H356.6c.9,0,1.6,.7,1.6,1.6V899c0,.9,-.7,1.6,-1.6,1.6Z" class="g4_272"/>
<path d="M190.2,883.4V844.1" class="g2_272"/>
<path d="M192.4,845.6l-2.2,-8.2l-2.2,8.2h4.4Z" class="g1_272"/>
<path d="M220.4,835.5H160c-.9,0,-1.6,-.7,-1.6,-1.6V820c0,-.9,.7,-1.6,1.6,-1.6h60.4c.9,0,1.6,.7,1.6,1.6v13.9c0,.9,-.7,1.6,-1.6,1.6Z" class="g5_272"/>
<path d="M220.4,835.5H160c-.9,0,-1.6,-.7,-1.6,-1.6V820c0,-.9,.7,-1.6,1.6,-1.6h60.4c.9,0,1.6,.7,1.6,1.6v13.9c0,.9,-.7,1.6,-1.6,1.6Z" class="g4_272"/>
<path d="M220.4,900.6H160c-.9,0,-1.6,-.7,-1.6,-1.6V885.1c0,-.9,.7,-1.6,1.6,-1.6h60.4c.9,0,1.6,.7,1.6,1.6V899c0,.9,-.7,1.6,-1.6,1.6Z" class="g3_272"/>
<path d="M220.4,900.6H160c-.9,0,-1.6,-.7,-1.6,-1.6V885.1c0,-.9,.7,-1.6,1.6,-1.6h60.4c.9,0,1.6,.7,1.6,1.6V899c0,.9,-.7,1.6,-1.6,1.6Z" class="g4_272"/>
<path d="M414.8,883.4V844.1" class="g2_272"/>
<path d="M417,845.6l-2.2,-8.2l-2.2,8.2H417Z" class="g1_272"/>
<path d="M445,835.5H384.6c-.9,0,-1.6,-.7,-1.6,-1.6V820c0,-.9,.7,-1.6,1.6,-1.6H445c.9,0,1.6,.7,1.6,1.6v13.9c0,.9,-.7,1.6,-1.6,1.6Z" class="g3_272"/>
<path d="M445,835.5H384.6c-.9,0,-1.6,-.7,-1.6,-1.6V820c0,-.9,.7,-1.6,1.6,-1.6H445c.9,0,1.6,.7,1.6,1.6v13.9c0,.9,-.7,1.6,-1.6,1.6Z" class="g4_272"/>
<path d="M445,900.6H384.6c-.9,0,-1.6,-.7,-1.6,-1.6V885.1c0,-.9,.7,-1.6,1.6,-1.6H445c.9,0,1.6,.7,1.6,1.6V899c0,.9,-.7,1.6,-1.6,1.6Z" class="g5_272"/>
<path d="M445,900.6H384.6c-.9,0,-1.6,-.7,-1.6,-1.6V885.1c0,-.9,.7,-1.6,1.6,-1.6H445c.9,0,1.6,.7,1.6,1.6V899c0,.9,-.7,1.6,-1.6,1.6Z" class="g4_272"/>
</svg>