<?xml version="1.0" encoding="UTF-8" standalone="no"?>
<!DOCTYPE svg PUBLIC "-//W3C//DTD SVG 1.1//EN"
"http://www.w3.org/Graphics/SVG/1.1/DTD/svg11.dtd">
<svg viewBox="0 0 811 1017" version="1.1" xmlns="http://www.w3.org/2000/svg" xmlns:xlink="http://www.w3.org/1999/xlink">
<defs>
<clipPath id="c0_201"><path d="M495.6,717.7V684.8H710.8v32.9Z"/></clipPath>
<style type="text/css"><![CDATA[
.g0_201{
fill: #70A6CC;
}
.g1_201{
}
]]></style>
</defs>
<path d="M142.4,655.9H710.7V634.1H142.4v21.8Z" class="g0_201"/>
<path d="M510.6,690v3.2l-.3,-.1l-6.2,-2.9l-.4,-.2l.4,-.2l6.2,-2.9l.3,-.1v.2l-.1,.2l-6.2,3l-.2,-.4h.2l6.2,2.9l-.2,.4l-.1,-.2V690Z" class="g1_201"/>
<path d="M510.2,690h.4v-3h-.4v3Z" class="g1_201"/>
<path d="M510.6,690.2h22.5v-.4H510.6v.4Z" class="g1_201"/>
<g clip-path="url(#c0_201)">
<path d="M532.8,717.7h.3V690h-.3v27.7Z" class="g1_201"/>
</g>
<path d="M146,705.2V702l.3,.1l6.2,2.9l.4,.2l-.4,.2l-6.2,2.9l-.3,.1v-.3l.1,-.2l6.3,-2.9l.1,.4h-.1l-6.3,-3l.2,-.3l.1,.2v2.9Z" class="g1_201"/>
<path d="M146,708.1h.4v-2.9H146v2.9Z" class="g1_201"/>
<path d="M126.3,705.4h19.6V705H126.3v.4Z" class="g1_201"/>
<path d="M126.3,759.9h.4V705.2h-.4v54.7Z" class="g1_201"/>
<path d="M400.2,797.1v3.2l-.3,-.1l-6.3,-2.9l-.4,-.2l.4,-.1l6.3,-3l.3,-.1v.3l-.1,.2l-6.3,2.9l-.2,-.3h.2l6.3,2.9l-.2,.3v-3.1Z" class="g1_201"/>
<path d="M399.9,797.1h.3v-2.9h-.3v2.9Z" class="g1_201"/>
<path d="M400.2,797.3h23.1V797H400.2v.3Z" class="g1_201"/>
<path d="M422.9,797.1h.4v-26h-.4v26Z" class="g1_201"/>
</svg>