<?xml version="1.0" encoding="UTF-8" standalone="no"?>
<!DOCTYPE svg PUBLIC "-//W3C//DTD SVG 1.1//EN"
"http://www.w3.org/Graphics/SVG/1.1/DTD/svg11.dtd">
<svg viewBox="0 0 811 1017" version="1.1" xmlns="http://www.w3.org/2000/svg" xmlns:xlink="http://www.w3.org/1999/xlink">
<defs>
<clipPath id="c0_82"><path d="M388.1,624.3V591H653v33.3Z"/></clipPath>
<style type="text/css"><![CDATA[
.g0_82{
fill: #70A6CC;
}
.g1_82{
}
.g2_82{
fill: #FFFFFF;
}
.g3_82{
fill: #D9F0FA;
}
.g4_82{
fill: none;
stroke: #231F20;
stroke-width: 0.763;
stroke-linecap: butt;
stroke-linejoin: miter;
stroke-miterlimit: 4;
}
.g5_82{
fill: #231F20;
}
]]></style>
</defs>
<path d="M156.1,351.3H724.4V330H156.1v21.3Z" class="g0_82"/>
<path d="M535.2,431.4v3.2l-.2,-.1l-6.4,-2.9l-.3,-.2l.3,-.2l6.4,-2.9l.2,-.1v.4l-6.4,3l-.2,-.4h.2l6.4,2.9l-.2,.4l-.1,-.2v-2.9Z" class="g1_82"/>
<path d="M534.9,431.4h.3v-3h-.3v3Z" class="g1_82"/>
<path d="M535.2,431.6h23.1v-.4H535.2v.4Z" class="g1_82"/>
<path d="M558,431.4h.3V405.3H558v26.1Z" class="g1_82"/>
<path d="M411.7,596.1v3.2l-.3,-.1l-6.3,-2.9l-.4,-.2l.4,-.2l6.3,-2.9l.3,-.1v.3l-.1,.2l-6.3,2.9l-.2,-.4h.2l6.3,3l-.2,.3l-.1,-.2v-2.9Z" class="g1_82"/>
<path d="M411.3,596.1h.4v-2.9h-.4v2.9Z" class="g1_82"/>
<path d="M411.7,596.3h22.5v-.4H411.7v.4Z" class="g1_82"/>
<g clip-path="url(#c0_82)">
<path d="M433.9,624.3h.3V596.1h-.3v28.2Z" class="g1_82"/>
</g>
<path d="M155.1,921.5H402.8V791.8H155.1V921.5Z" class="g2_82"/>
<path d="M397,816.8H296.7c-3,0,-5.4,-2.4,-5.4,-5.4V797.6c0,-3,2.4,-5.4,5.4,-5.4H397c3,0,5.4,2.4,5.4,5.4v13.8c0,3,-2.4,5.4,-5.4,5.4Z" class="g3_82"/>
<path d="M397,816.8H296.7c-3,0,-5.4,-2.4,-5.4,-5.4V797.6c0,-3,2.4,-5.4,5.4,-5.4H397c3,0,5.4,2.4,5.4,5.4v13.8c0,3,-2.4,5.4,-5.4,5.4Z" class="g4_82"/>
<path d="M397,896.9H296.7c-3,0,-5.4,-2.4,-5.4,-5.4V877.7c0,-3,2.4,-5.4,5.4,-5.4H397c3,0,5.4,2.4,5.4,5.4v13.8c0,3,-2.4,5.4,-5.4,5.4Z" class="g3_82"/>
<path d="M397,896.9H296.7c-3,0,-5.4,-2.4,-5.4,-5.4V877.7c0,-3,2.4,-5.4,5.4,-5.4H397c3,0,5.4,2.4,5.4,5.4v13.8c0,3,-2.4,5.4,-5.4,5.4ZM232.7,841H160.9c-2.9,0,-5.4,-2.4,-5.4,-5.4v-38c0,-3,2.5,-5.4,5.4,-5.4h71.8c3,0,5.4,2.4,5.4,5.4v38c0,3,-2.4,5.4,-5.4,5.4ZM155.5,816.6h82.6m-5.4,104.6H160.9c-2.9,0,-5.4,-2.5,-5.4,-5.4V877.7c0,-3,2.5,-5.4,5.4,-5.4h71.8c3,0,5.4,2.4,5.4,5.4v38.1c0,2.9,-2.4,5.4,-5.4,5.4ZM155.5,896.7h82.6" class="g4_82"/>
<path d="M196.8,872.2V841.9Z" class="g3_82"/>
<path d="M196.8,872.2V848.7" class="g4_82"/>
<path d="M199,850.2l-2.2,-8.3l-2.2,8.3H199Z" class="g5_82"/>
</svg>