<?xml version="1.0" encoding="UTF-8" standalone="no"?>
<!DOCTYPE svg PUBLIC "-//W3C//DTD SVG 1.1//EN"
"http://www.w3.org/Graphics/SVG/1.1/DTD/svg11.dtd">
<svg viewBox="0 0 811 1017" version="1.1" xmlns="http://www.w3.org/2000/svg" xmlns:xlink="http://www.w3.org/1999/xlink">
<defs>
<style type="text/css"><![CDATA[
.g0_133{
fill: #70A6CC;
}
.g1_133{
fill: none;
stroke: #000000;
stroke-width: 0.458;
stroke-linecap: butt;
stroke-linejoin: miter;
}
.g2_133{
}
]]></style>
</defs>
<path d="M142.4,241.3H710.7V220H142.4v21.3Z" class="g0_133"/>
<path d="M588.8,447.8c0,10.3,5.2,9.4,5.7,18.5m14.8,62.1C594.5,507.7,574.1,513.2,548.9,495.8" class="g1_133"/>
<path d="M551.2,493.9l-5.7,-.5l2.4,5.1l3.3,-4.6Z" class="g2_133"/>
<path d="M638.7,528.4c16,-21.3,35.2,-15.3,60.5,-32.7" class="g1_133"/>
<path d="M700.1,498.5l2.4,-5.2l-5.7,.5l3.3,4.7Z" class="g2_133"/>
<path d="M640.7,478.4c0,-3.4,-2.7,-6.1,-6,-6.1H600.5c-3.3,0,-6,-2.6,-6,-6c0,3.4,-2.7,6,-6,6H553.7c-3.3,0,-6,2.7,-6,6.1M687.3,447.8c0,10.3,-5.2,9.4,-5.7,18.5m17.5,12.1c0,-3.4,-2.7,-6.1,-6,-6.1h-5.5c-3.3,0,-6,-2.6,-6,-6c0,3.4,-2.6,6,-6,6h-6c-3.3,0,-6,2.7,-6,6.1" class="g1_133"/>
<path d="M466.7,705.2v3.2l-.3,-.1l-6.3,-2.9l-.4,-.2l.4,-.2l6.3,-2.9l.3,-.1v.3l-.1,.1l-6.3,3l-.2,-.4h.2l6.3,2.9l-.2,.4l-.1,-.2v-2.9Z" class="g2_133"/>
<path d="M466.3,705.2h.4v-2.9h-.4v2.9Z" class="g2_133"/>
<path d="M466.7,705.4h22.5V705H466.7v.4Z" class="g2_133"/>
<path d="M488.9,732.1h.3V705.2h-.3v26.9Z" class="g2_133"/>
<path d="M466.7,898.6v3.2l-.3,-.1l-6.3,-2.9l-.4,-.2l.4,-.2l6.3,-2.9l.3,-.1v.3l-.1,.2l-6.3,2.9l-.2,-.4h.2l6.3,3l-.2,.3l-.1,-.2v-2.9Z" class="g2_133"/>
<path d="M466.3,898.6h.4v-2.9h-.4v2.9Z" class="g2_133"/>
<path d="M466.7,898.8h22.5v-.4H466.7v.4Z" class="g2_133"/>
<path d="M488.9,925.6h.3v-27h-.3v27Z" class="g2_133"/>
</svg>