<?xml version="1.0" encoding="UTF-8" standalone="no"?>
<!DOCTYPE svg PUBLIC "-//W3C//DTD SVG 1.1//EN"
"http://www.w3.org/Graphics/SVG/1.1/DTD/svg11.dtd">
<svg viewBox="0 0 811 1017" version="1.1" xmlns="http://www.w3.org/2000/svg" xmlns:xlink="http://www.w3.org/1999/xlink">
<defs>
<style type="text/css"><![CDATA[
.g0_287{
fill: #FFFFFF;
}
.g1_287{
fill: none;
stroke: #000000;
stroke-width: 0.763;
stroke-linecap: butt;
stroke-linejoin: miter;
}
.g2_287{
}
]]></style>
</defs>
<path d="M272.1,372.1H145.3c-.9,0,-1.6,-.7,-1.6,-1.5v-14c0,-.9,.7,-1.6,1.6,-1.6H272.1c.9,0,1.6,.7,1.6,1.6v14c0,.8,-.7,1.5,-1.6,1.5Z" class="g0_287"/>
<path d="M272.1,372.1H145.3c-.9,0,-1.6,-.7,-1.6,-1.5v-14c0,-.9,.7,-1.6,1.6,-1.6H272.1c.9,0,1.6,.7,1.6,1.6v14c0,.8,-.7,1.5,-1.6,1.5Z" class="g1_287"/>
<path d="M465.1,372.1H321.6c-.8,0,-1.6,-.7,-1.6,-1.5v-14c0,-.9,.8,-1.6,1.6,-1.6H465.1c.9,0,1.6,.7,1.6,1.6v14c0,.8,-.7,1.5,-1.6,1.5Z" class="g0_287"/>
<path d="M465.1,372.1H321.6c-.8,0,-1.6,-.7,-1.6,-1.5v-14c0,-.9,.8,-1.6,1.6,-1.6H465.1c.9,0,1.6,.7,1.6,1.6v14c0,.8,-.7,1.5,-1.6,1.5ZM267.2,355.4V339.2h57.1v8.6" class="g1_287"/>
<path d="M322.1,346.3l2.2,8.2l2.2,-8.2h-4.4Z" class="g2_287"/>
<path d="M324.3,372.4v16.2H267.2v-8.8" class="g1_287"/>
<path d="M269.4,381.3L267.2,373l-2.3,8.3h4.5Z" class="g2_287"/>
</svg>