<?xml version="1.0" encoding="UTF-8" standalone="no"?>
<!DOCTYPE svg PUBLIC "-//W3C//DTD SVG 1.1//EN"
"http://www.w3.org/Graphics/SVG/1.1/DTD/svg11.dtd">
<svg viewBox="0 0 811 1017" version="1.1" xmlns="http://www.w3.org/2000/svg" xmlns:xlink="http://www.w3.org/1999/xlink">
<defs>
<style type="text/css"><![CDATA[
.g0_144{
fill: #D9F0FA;
}
.g1_144{
fill: none;
stroke: #231F20;
stroke-width: 0.763;
stroke-linecap: butt;
stroke-linejoin: miter;
}
.g2_144{
fill: #FFFFFF;
}
.g3_144{
fill: none;
stroke: #000000;
stroke-width: 0.763;
stroke-linecap: butt;
stroke-linejoin: miter;
}
.g4_144{
}
]]></style>
</defs>
<path d="M235.6,398.9H158.4c-1.6,0,-2.9,-1.3,-2.9,-3V325.3c0,-1.6,1.3,-2.9,2.9,-2.9h77.2c1.6,0,2.9,1.3,2.9,2.9v70.6c0,1.7,-1.3,3,-2.9,3Z" class="g0_144"/>
<path d="M235.6,398.9H158.4c-1.6,0,-2.9,-1.3,-2.9,-3V325.3c0,-1.6,1.3,-2.9,2.9,-2.9h77.2c1.6,0,2.9,1.3,2.9,2.9v70.6c0,1.7,-1.3,3,-2.9,3Z" class="g1_144"/>
<path d="M231.1,344.7H162.9c-.9,0,-1.6,-.7,-1.6,-1.6V329.2c0,-.9,.7,-1.6,1.6,-1.6h68.2c.9,0,1.6,.7,1.6,1.6v13.9c0,.9,-.7,1.6,-1.6,1.6Z" class="g2_144"/>
<path d="M231.1,344.7H162.9c-.9,0,-1.6,-.7,-1.6,-1.6V329.2c0,-.9,.7,-1.6,1.6,-1.6h68.2c.9,0,1.6,.7,1.6,1.6v13.9c0,.9,-.7,1.6,-1.6,1.6Z" class="g1_144"/>
<path d="M483.7,350.2H406.6c-1.6,0,-3,-1.3,-3,-2.9v-22c0,-1.6,1.4,-2.9,3,-2.9h77.1c1.6,0,2.9,1.3,2.9,2.9v22c0,1.6,-1.3,2.9,-2.9,2.9Z" class="g0_144"/>
<path d="M483.7,350.2H406.6c-1.6,0,-3,-1.3,-3,-2.9v-22c0,-1.6,1.4,-2.9,3,-2.9h77.1c1.6,0,2.9,1.3,2.9,2.9v22c0,1.6,-1.3,2.9,-2.9,2.9Z" class="g1_144"/>
<path d="M479.2,344.7H411c-.9,0,-1.6,-.7,-1.6,-1.6V329.2c0,-.9,.7,-1.6,1.6,-1.6h68.2c.9,0,1.6,.7,1.6,1.6v13.9c0,.9,-.7,1.6,-1.6,1.6Z" class="g2_144"/>
<path d="M479.2,344.7H411c-.9,0,-1.6,-.7,-1.6,-1.6V329.2c0,-.9,.7,-1.6,1.6,-1.6h68.2c.9,0,1.6,.7,1.6,1.6v13.9c0,.9,-.7,1.6,-1.6,1.6Z" class="g1_144"/>
<path d="M561.9,398.8H406.6c-1.6,0,-3,-1.3,-3,-2.9V374c0,-1.6,1.4,-2.9,3,-2.9H561.9c1.6,0,2.9,1.3,2.9,2.9v21.9c0,1.6,-1.3,2.9,-2.9,2.9Z" class="g0_144"/>
<path d="M561.9,398.8H406.6c-1.6,0,-3,-1.3,-3,-2.9V374c0,-1.6,1.4,-2.9,3,-2.9H561.9c1.6,0,2.9,1.3,2.9,2.9v21.9c0,1.6,-1.3,2.9,-2.9,2.9Z" class="g1_144"/>
<path d="M479.2,393.3H411c-.9,0,-1.6,-.7,-1.6,-1.6V377.8c0,-.9,.7,-1.6,1.6,-1.6h68.2c.9,0,1.6,.7,1.6,1.6v13.9c0,.9,-.7,1.6,-1.6,1.6Z" class="g2_144"/>
<path d="M479.2,393.3H411c-.9,0,-1.6,-.7,-1.6,-1.6V377.8c0,-.9,.7,-1.6,1.6,-1.6h68.2c.9,0,1.6,.7,1.6,1.6v13.9c0,.9,-.7,1.6,-1.6,1.6Z" class="g1_144"/>
<path d="M365.2,350.8H344.3c-.8,0,-1.5,-.7,-1.5,-1.6V335.3c0,-.9,.7,-1.6,1.5,-1.6h20.9c.8,0,1.5,.7,1.5,1.6v13.9c0,.9,-.7,1.6,-1.5,1.6Z" class="g2_144"/>
<path d="M365.2,350.8H344.3c-.8,0,-1.5,-.7,-1.5,-1.6V335.3c0,-.9,.7,-1.6,1.5,-1.6h20.9c.8,0,1.5,.7,1.5,1.6v13.9c0,.9,-.7,1.6,-1.5,1.6Z" class="g1_144"/>
<path d="M365.2,387.2H344.3c-.8,0,-1.5,-.7,-1.5,-1.6V371.7c0,-.9,.7,-1.6,1.5,-1.6h20.9c.8,0,1.5,.7,1.5,1.6v13.9c0,.9,-.7,1.6,-1.5,1.6Z" class="g2_144"/>
<path d="M365.2,387.2H344.3c-.8,0,-1.5,-.7,-1.5,-1.6V371.7c0,-.9,.7,-1.6,1.5,-1.6h20.9c.8,0,1.5,.7,1.5,1.6v13.9c0,.9,-.7,1.6,-1.5,1.6Z" class="g1_144"/>
<path d="M557.1,393.3H488.9c-.9,0,-1.6,-.7,-1.6,-1.6V377.8c0,-.9,.7,-1.6,1.6,-1.6h68.2c.9,0,1.6,.7,1.6,1.6v13.9c0,.9,-.7,1.6,-1.6,1.6Z" class="g2_144"/>
<path d="M557.1,393.3H488.9c-.9,0,-1.6,-.7,-1.6,-1.6V377.8c0,-.9,.7,-1.6,1.6,-1.6h68.2c.9,0,1.6,.7,1.6,1.6v13.9c0,.9,-.7,1.6,-1.6,1.6Z" class="g1_144"/>
<path d="M231.1,369H162.9c-.9,0,-1.6,-.7,-1.6,-1.6V353.5c0,-.9,.7,-1.6,1.6,-1.6h68.2c.9,0,1.6,.7,1.6,1.6v13.9c0,.9,-.7,1.6,-1.6,1.6Z" class="g2_144"/>
<path d="M231.1,369H162.9c-.9,0,-1.6,-.7,-1.6,-1.6V353.5c0,-.9,.7,-1.6,1.6,-1.6h68.2c.9,0,1.6,.7,1.6,1.6v13.9c0,.9,-.7,1.6,-1.6,1.6Z" class="g1_144"/>
<path d="M231.1,393.3H162.9c-.9,0,-1.6,-.7,-1.6,-1.6V377.8c0,-.9,.7,-1.6,1.6,-1.6h68.2c.9,0,1.6,.7,1.6,1.6v13.9c0,.9,-.7,1.6,-1.6,1.6Z" class="g2_144"/>
<path d="M231.1,393.3H162.9c-.9,0,-1.6,-.7,-1.6,-1.6V377.8c0,-.9,.7,-1.6,1.6,-1.6h68.2c.9,0,1.6,.7,1.6,1.6v13.9c0,.9,-.7,1.6,-1.6,1.6Z" class="g1_144"/>
<path d="M248.7,361.4h72.8" class="g3_144"/>
<path d="M320,363.6l8.3,-2.2L320,359.1v4.5Z" class="g4_144"/>
<path d="M366.6,342.7l29.7,-5" class="g3_144"/>
<path d="M395.2,340.1l7.8,-3.5l-8.5,-.9l.7,4.4Z" class="g4_144"/>
<path d="M366.6,379l29.7,5" class="g3_144"/>
<path d="M394.5,385.9l8.5,-.8l-7.8,-3.6l-.7,4.4Z" class="g4_144"/>
<path d="M469,895.1v3.2l-.3,-.1l-6.3,-2.9l-.4,-.2l.4,-.2l6.3,-2.8l.3,-.1v.3l-.1,.2l-6.4,2.8l-.1,-.4h.1l6.4,3l-.2,.3l-.1,-.1v-3Z" class="g4_144"/>
<path d="M468.6,895.1h.4v-2.8h-.4v2.8Z" class="g4_144"/>
<path d="M469,895.3h22.5v-.4H469v.4Z" class="g4_144"/>
<path d="M491.2,922.1h.3v-27h-.3v27Z" class="g4_144"/>
</svg>