<?xml version="1.0" encoding="UTF-8" standalone="no"?>
<!DOCTYPE svg PUBLIC "-//W3C//DTD SVG 1.1//EN"
"http://www.w3.org/Graphics/SVG/1.1/DTD/svg11.dtd">
<svg viewBox="0 0 811 1017" version="1.1" xmlns="http://www.w3.org/2000/svg" xmlns:xlink="http://www.w3.org/1999/xlink">
<defs>
<style type="text/css"><![CDATA[
.g0_64{
fill: #70A6CC;
}
.g1_64{
}
]]></style>
</defs>
<path d="M156.1,598.8H724.4V577.5H156.1v21.3Z" class="g0_64"/>
<path d="M592.2,617.6v3.2l-.3,-.1l-6.3,-3l-.4,-.1l.4,-.2l6.3,-3l.3,-.1v.3l-.1,.2l-6.4,2.9l-.1,-.3h.1l6.4,2.9l-.2,.4l-.1,-.2v-2.9Z" class="g1_64"/>
<path d="M591.8,617.6h.4v-3h-.4v3Z" class="g1_64"/>
<path d="M592.2,617.7h22.5v-.3H592.2v.3Z" class="g1_64"/>
<path d="M614.3,644.4h.4V617.6h-.4v26.8Z" class="g1_64"/>
<path d="M545.3,648.1v3.2l-.2,-.1l-6.3,-2.9l-.3,-.2l.3,-.2l6.3,-2.9l.2,-.1v.3l-.1,.1l-6.2,3l-.2,-.4h.2l6.2,2.9l-.1,.4L545,651v-2.9Z" class="g1_64"/>
<path d="M545,648.1h.3v-2.9H545v2.9Z" class="g1_64"/>
<path d="M545.3,648.3H568v-.4H545.3v.4Z" class="g1_64"/>
<path d="M567.6,707.5h.4V648.1h-.4v59.4Z" class="g1_64"/>
<path d="M143.8,663.4v-3.2l.3,.1l6.2,2.9l.4,.2l-.4,.2l-6.2,2.8l-.3,.1v-.3l.1,-.1l6.2,-2.9l.2,.4h-.2l-6.2,-3l.2,-.3l.1,.2v2.9Z" class="g1_64"/>
<path d="M143.8,666.2h.4v-2.8h-.4v2.8Z" class="g1_64"/>
<path d="M129.8,663.6h13.9v-.4H129.8v.4Z" class="g1_64"/>
<path d="M129.8,703.5h.4V663.4h-.4v40.1Z" class="g1_64"/>
<path d="M390.7,679.6v3.2l-.3,-.1l-6.3,-2.9l-.4,-.2l.4,-.2l6.3,-2.9l.3,-.1v.3l-.1,.2l-6.3,2.9l-.2,-.4h.2l6.3,3l-.2,.3l-.1,-.2v-2.9Z" class="g1_64"/>
<path d="M390.3,679.6h.4v-2.9h-.4v2.9Z" class="g1_64"/>
<path d="M390.7,679.8h22.5v-.4H390.7v.4Z" class="g1_64"/>
<path d="M412.9,706.5h.3V679.6h-.3v26.9Z" class="g1_64"/>
<path d="M506.2,725.5v3.2l-.3,-.1l-6.2,-3l-.4,-.1l.4,-.2l6.2,-3l.3,-.1v.3l-.1,.2l-6.2,2.9l-.2,-.3h.2l6.2,2.9l-.2,.4l-.1,-.2v-2.9Z" class="g1_64"/>
<path d="M505.8,725.5h.4v-3h-.4v3Z" class="g1_64"/>
<path d="M506.2,725.6h22.5v-.3H506.2v.3Z" class="g1_64"/>
<path d="M528.4,764.8h.3V725.5h-.3v39.3Z" class="g1_64"/>
</svg>