<?xml version="1.0" encoding="UTF-8" standalone="no"?>
<!DOCTYPE svg PUBLIC "-//W3C//DTD SVG 1.1//EN"
"http://www.w3.org/Graphics/SVG/1.1/DTD/svg11.dtd">
<svg viewBox="0 0 811 1017" version="1.1" xmlns="http://www.w3.org/2000/svg" xmlns:xlink="http://www.w3.org/1999/xlink">
<defs>
<clipPath id="c0_215"><path d="M466,823.9V791H681.2v32.9Z"/></clipPath>
<style type="text/css"><![CDATA[
.g0_215{
fill: #70A6CC;
}
.g1_215{
}
]]></style>
</defs>
<path d="M142.4,293.2H710.7V272H142.4v21.2Z" class="g0_215"/>
<path d="M142.4,762H710.7V740.9H142.4V762Z" class="g0_215"/>
<path d="M542.1,87.6v3.2l-.3,-.1l-6.3,-2.9l-.3,-.2l.3,-.2l6.3,-2.9l.3,-.1v.3l-.1,.2l-6.3,2.9l-.2,-.4h.2l6.3,3l-.2,.3V87.6Z" class="g1_215"/>
<path d="M541.8,87.6h.3V84.7h-.3v2.9Z" class="g1_215"/>
<path d="M542.1,87.8h22.6v-.4H542.1v.4Z" class="g1_215"/>
<path d="M564.3,129.4h.4V87.6h-.4v41.8Z" class="g1_215"/>
<path d="M481,796.1v3.2l-.3,-.1l-6.2,-2.9l-.4,-.2l.4,-.2l6.2,-2.9l.3,-.1v.3l-.1,.2l-6.3,2.9l-.1,-.4h.1l6.3,3l-.2,.3l-.1,-.1v-3Z" class="g1_215"/>
<path d="M480.6,796.1h.4v-2.9h-.4v2.9Z" class="g1_215"/>
<path d="M481,796.3h22.5v-.4H481v.4Z" class="g1_215"/>
<g clip-path="url(#c0_215)">
<path d="M503.2,823.9h.3V796.1h-.3v27.8Z" class="g1_215"/>
</g>
</svg>