<?xml version="1.0" encoding="UTF-8" standalone="no"?>
<!DOCTYPE svg PUBLIC "-//W3C//DTD SVG 1.1//EN"
"http://www.w3.org/Graphics/SVG/1.1/DTD/svg11.dtd">
<svg viewBox="0 0 811 1017" version="1.1" xmlns="http://www.w3.org/2000/svg" xmlns:xlink="http://www.w3.org/1999/xlink">
<defs>
<clipPath id="c0_174"><path d="M465.5,807.7V774.8h215v32.9Z"/></clipPath>
<style type="text/css"><![CDATA[
.g0_174{
fill: #70A6CC;
}
.g1_174{
}
.g2_174{
fill: none;
stroke: #000000;
stroke-width: 0.458;
stroke-linecap: butt;
stroke-linejoin: miter;
}
]]></style>
</defs>
<path d="M156.1,343.6H724.4V322.4H156.1v21.2Z" class="g0_174"/>
<path d="M543.5,378.1v3.2l-.3,-.1l-6.3,-2.9l-.4,-.2l.4,-.2l6.3,-2.9l.3,-.1v.3l-.1,.2l-6.3,2.9l-.2,-.4h.2l6.3,3l-.2,.3l-.1,-.1v-3Z" class="g1_174"/>
<path d="M543.1,378.1h.4v-2.9h-.4v2.9Z" class="g1_174"/>
<path d="M543.5,378.3h34.9v-.4H543.5v.4Z" class="g1_174"/>
<path d="M578,378.9h.4v-.8H578v.8Z" class="g1_174"/>
<path d="M427.4,485.2v3.2l-.3,-.1l-6.4,-2.9l-.3,-.2l.3,-.2l6.4,-2.9l.3,-.1v.3l-.1,.1l-6.4,3l-.2,-.4h.2l6.4,2.9l-.2,.4l-.1,-.2v-2.9Z" class="g1_174"/>
<path d="M427,485.2h.4v-2.9H427v2.9Z" class="g1_174"/>
<path d="M427.4,485.4h23V485h-23v.4Z" class="g1_174"/>
<path d="M450.1,485.2h.3V443.4h-.3v41.8Z" class="g1_174"/>
<path d="M686.8,561.4c0,10.3,-9.9,9.4,-10.3,18.5m-36,49c-2.9,-9.7,-9.6,-9.3,-13.9,-18.5" class="g2_174"/>
<path d="M629.6,610.1l-4.4,-3.5l-.9,5.6l5.3,-2.1Z" class="g1_174"/>
<path d="M723.6,592c0,-3.4,-2.7,-6.1,-6,-6.1H682.5c-3.3,0,-6,-2.6,-6,-6c0,3.4,-2.7,6,-6,6H633.4c-3.4,0,-6.1,2.7,-6.1,6.1M594.9,561.4c0,10.3,9.7,9.4,10.2,18.5M622.5,592c0,-3.4,-2.7,-6.1,-6,-6.1H611c-3.3,0,-5.9,-2.6,-5.9,-6c0,3.4,-2.7,6,-6.1,6h-6c-3.3,0,-6,2.7,-6,6.1" class="g2_174"/>
<path d="M497,764.8V768l-.3,-.1L490.5,765l-.4,-.2l.4,-.2l6.2,-2.9l.3,-.1v.2l-.1,.2l-6.2,3l-.2,-.4h.2l6.2,2.9l-.2,.4v-3.1Z" class="g1_174"/>
<path d="M496.6,764.8h.4v-3h-.4v3Z" class="g1_174"/>
<path d="M497,765h23.2v-.4H497v.4Z" class="g1_174"/>
<path d="M519.8,764.8h.4V738.7h-.4v26.1Z" class="g1_174"/>
<path d="M480.4,779.9v3.2l-.2,-.1l-6.4,-2.9l-.3,-.2l.3,-.2l6.4,-2.9l.2,-.1v.3l-.1,.1l-6.3,3l-.2,-.4h.2l6.3,3l-.1,.3l-.1,-.2v-2.9Z" class="g1_174"/>
<path d="M480.1,779.9h.3V777h-.3v2.9Z" class="g1_174"/>
<path d="M480.4,780.1H503v-.4H480.4v.4Z" class="g1_174"/>
<g clip-path="url(#c0_174)">
<path d="M502.6,807.7h.4V779.9h-.4v27.8Z" class="g1_174"/>
</g>
</svg>