<?xml version="1.0" encoding="UTF-8" standalone="no"?>
<!DOCTYPE svg PUBLIC "-//W3C//DTD SVG 1.1//EN"
"http://www.w3.org/Graphics/SVG/1.1/DTD/svg11.dtd">
<svg viewBox="0 0 811 1017" version="1.1" xmlns="http://www.w3.org/2000/svg" xmlns:xlink="http://www.w3.org/1999/xlink">
<defs>
<clipPath id="c0_230"><path d="M509.4,800.2V767.3H724.5v32.9Z"/></clipPath>
<style type="text/css"><![CDATA[
.g0_230{
fill: #70A6CC;
}
.g1_230{
fill: none;
stroke: #000000;
stroke-width: 0.458;
stroke-linecap: butt;
stroke-linejoin: miter;
}
.g2_230{
}
]]></style>
</defs>
<path d="M156.1,616.2H724.4V594.3H156.1v21.9Z" class="g0_230"/>
<path d="M193.7,347.1c0,10.3,9.8,9.4,10.3,18.5m-21.1,12c0,-3.3,2.7,-6,6.1,-6h8.9c3.4,0,6.1,-2.7,6.1,-6c0,3.3,2.6,6,5.9,6h9.6c3.3,0,6,2.7,6,6M352.2,421c0,-10.3,9.8,-9.3,10.3,-18.5m-16.4,-12c0,3.3,2.7,6,6,6h4.4c3.3,0,6,2.7,6,6c0,-3.3,2.6,-6,6,-6h4.9c3.3,0,6,-2.7,6,-6M442.8,421c0,-10.3,-9.8,-9.3,-10.2,-18.5m22.5,-12c0,3.3,-2.7,6,-6,6H438.6c-3.3,0,-6,2.7,-6,6c0,-3.3,-2.7,-6,-6,-6H415.5c-3.3,0,-6,-2.7,-6,-6M290.2,347.1c0,10.3,9.8,9.4,10.3,18.5m-30.2,12c0,-3.3,2.7,-6,6,-6h18.2c3.3,0,6,-2.7,6,-6c0,3.3,2.6,6,6,6h20.2c3.3,0,6,2.7,6,6M413,347.1c0,10.3,-9.8,9.4,-10.2,18.5m55.6,12c0,-3.3,-2.7,-6,-6,-6H408.8c-3.3,0,-6,-2.7,-6,-6c0,3.3,-2.7,6,-6,6H351.1c-3.3,0,-6,2.7,-6,6" class="g1_230"/>
<path d="M560.6,696v3.2l-.2,-.1l-6.3,-2.9l-.3,-.2l.3,-.2l6.3,-2.9l.2,-.1v.3l-.1,.2l-6.2,2.9l-.2,-.4h.2l6.2,3l-.1,.3l-.1,-.1v-3Z" class="g2_230"/>
<path d="M560.3,696h.3v-2.9h-.3V696Z" class="g2_230"/>
<path d="M560.6,696.2h22.6v-.4H560.6v.4Z" class="g2_230"/>
<path d="M582.8,737.8h.4V696h-.4v41.8Z" class="g2_230"/>
<path d="M524.3,772.5v3.2l-.2,-.1l-6.3,-2.9l-.3,-.2l.3,-.2l6.3,-2.9l.2,-.1v.2l-.1,.2l-6.2,3l-.2,-.4h.2l6.2,2.9l-.1,.4l-.1,-.2v-2.9Z" class="g2_230"/>
<path d="M524,772.5h.3v-3H524v3Z" class="g2_230"/>
<path d="M524.3,772.7h22.6v-.4H524.3v.4Z" class="g2_230"/>
<g clip-path="url(#c0_230)">
<path d="M546.5,800.2h.4V772.5h-.4v27.7Z" class="g2_230"/>
</g>
</svg>