<?xml version="1.0" encoding="UTF-8" standalone="no"?>
<!DOCTYPE svg PUBLIC "-//W3C//DTD SVG 1.1//EN"
"http://www.w3.org/Graphics/SVG/1.1/DTD/svg11.dtd">
<svg viewBox="0 0 811 1017" version="1.1" xmlns="http://www.w3.org/2000/svg" xmlns:xlink="http://www.w3.org/1999/xlink">
<defs>
<style type="text/css"><![CDATA[
.g0_237{
fill: #70A6CC;
}
.g1_237{
}
]]></style>
</defs>
<path d="M142.4,100.8H710.7V79.7H142.4v21.1Z" class="g0_237"/>
<path d="M142.4,391H710.7V369.8H142.4V391Z" class="g0_237"/>
<path d="M142.4,639.8H710.7V618.7H142.4v21.1Z" class="g0_237"/>
<path d="M645.2,119.6v3.2l-.2,-.1l-6.4,-2.9l-.3,-.2l.3,-.2l6.4,-2.9l.2,-.1v.5l-6.4,2.9l-.2,-.4h.2l6.4,3l-.2,.3l-.1,-.1v-3Z" class="g1_237"/>
<path d="M644.9,119.6h.3v-2.9h-.3v2.9Z" class="g1_237"/>
<path d="M645.2,119.8h64.6v-.4H645.2v.4Z" class="g1_237"/>
<path d="M709.4,188.2h.4V119.6h-.4v68.6Z" class="g1_237"/>
</svg>