<?xml version="1.0" encoding="UTF-8" standalone="no"?>
<!DOCTYPE svg PUBLIC "-//W3C//DTD SVG 1.1//EN"
"http://www.w3.org/Graphics/SVG/1.1/DTD/svg11.dtd">
<svg viewBox="0 0 811 1017" version="1.1" xmlns="http://www.w3.org/2000/svg" xmlns:xlink="http://www.w3.org/1999/xlink">
<defs>
<clipPath id="c0_54"><path d="M503.7,115.8V82.5H708.5v33.3Z"/></clipPath>
<clipPath id="c1_54"><path d="M101.1,791.7V687.8H552V791.7Z"/></clipPath>
<style type="text/css"><![CDATA[
.g0_54{
}
.g1_54{
fill: #FFFFFF;
}
.g2_54{
fill: none;
stroke: #000000;
stroke-width: 0.458;
stroke-linecap: butt;
stroke-linejoin: round;
stroke-miterlimit: 4;
}
]]></style>
</defs>
<path d="M524.3,87.6v3.2l-.2,-.1l-6.3,-2.9l-.3,-.2l.3,-.2l6.3,-2.9l.2,-.1v.3l-.1,.2L518,87.8l-.2,-.4h.2l6.2,3l-.1,.3l-.1,-.1v-3Z" class="g0_54"/>
<path d="M524,87.6h.3V84.7H524v2.9Z" class="g0_54"/>
<path d="M524.3,87.8h22.6v-.4H524.3v.4Z" class="g0_54"/>
<g clip-path="url(#c0_54)">
<path d="M546.5,115.8h.4V87.6h-.4v28.2Z" class="g0_54"/>
</g>
<path d="M154.2,525.8H554.1V391.5H154.2V525.8Z" class="g1_54"/>
<image preserveAspectRatio="none" x="154" y="394" width="213" height="132" xlink:href="img/1.png"/>
<path d="M399.8,399.7c-59.7,0,-49.5,24.1,-106.7,25.2" class="g2_54"/>
<path d="M293.9,422l-4.9,3l5,2.7l-.1,-5.7Z" class="g0_54"/>
<path d="M399.8,445.7c-60,0,-46.8,24.4,-118.9,25.2" class="g2_54"/>
<path d="M281.7,468l-4.9,3l5,2.7l-.1,-5.7Z" class="g0_54"/>
<path d="M399.2,481.8c-27.8,0,-27.9,11,-53.4,12.1" class="g2_54"/>
<path d="M346.6,491l-4.9,3l5,2.7l-.1,-5.7Z" class="g0_54"/>
<g clip-path="url(#c1_54)">
<path d="M146.6,791.8H542.9V718.9H146.6v72.9Z" class="g1_54"/>
</g>
<image preserveAspectRatio="none" x="146" y="719" width="169" height="73" xlink:href="img/2.png"/>
<path d="M385.6,737.9c-43.7,0,-35.2,14.6,-69.9,15.7" class="g2_54"/>
<path d="M316.5,750.7l-4.9,2.9l5,2.8l-.1,-5.7Z" class="g0_54"/>
<path d="M385.6,761.8c-32.2,0,-32.4,14.9,-80.9,15.7" class="g2_54"/>
<path d="M305.5,774.6l-4.9,3l5,2.7l-.1,-5.7Z" class="g0_54"/>
</svg>