<?xml version="1.0" encoding="UTF-8" standalone="no"?>
<!DOCTYPE svg PUBLIC "-//W3C//DTD SVG 1.1//EN"
"http://www.w3.org/Graphics/SVG/1.1/DTD/svg11.dtd">
<svg viewBox="0 0 811 1017" version="1.1" xmlns="http://www.w3.org/2000/svg" xmlns:xlink="http://www.w3.org/1999/xlink">
<defs>
<clipPath id="c0_259"><path d="M495.6,446.1V413.2H722.2v32.9Z"/></clipPath>
<clipPath id="c1_259"><path d="M495.6,744.2V711.3H710.8v32.9Z"/></clipPath>
<style type="text/css"><![CDATA[
.g0_259{
fill: #70A6CC;
}
.g1_259{
}
]]></style>
</defs>
<path d="M142.4,103.2H710.7V82H142.4v21.2Z" class="g0_259"/>
<path d="M142.4,682.7H710.7V661.6H142.4v21.1Z" class="g0_259"/>
<path d="M530.1,146.8V150l-.3,-.1l-6.3,-3l-.4,-.1l.4,-.2l6.3,-3h.3v.2l-.1,.2l-6.3,2.9l-.2,-.3h.2l6.3,2.9l-.2,.4l-.1,-.2v-2.9Z" class="g1_259"/>
<path d="M529.7,146.8h.4v-3h-.4v3Z" class="g1_259"/>
<path d="M530.1,146.9h23.1v-.3H530.1v.3Z" class="g1_259"/>
<path d="M552.8,146.8h.4V120.7h-.4v26.1Z" class="g1_259"/>
<path d="M453.7,218.5v3.2l-.3,-.1l-6.3,-2.9l-.3,-.2l.3,-.2l6.3,-2.9l.3,-.1v.3l-.1,.2l-6.3,2.9l-.2,-.4h.2l6.3,3l-.2,.3l-.1,-.1v-3Z" class="g1_259"/>
<path d="M453.3,218.5h.4v-2.9h-.4v2.9Z" class="g1_259"/>
<path d="M453.7,218.7h23.1v-.4H453.7v.4Z" class="g1_259"/>
<path d="M476.5,218.5h.3v-26h-.3v26Z" class="g1_259"/>
<path d="M453.7,388.1v3.2l-.3,-.1l-6.3,-2.9l-.3,-.2l.3,-.2l6.3,-2.9l.3,-.1v.3l-.1,.2l-6.3,2.9l-.2,-.4h.2l6.3,3l-.2,.3l-.1,-.1v-3Z" class="g1_259"/>
<path d="M453.3,388.1h.4v-2.9h-.4v2.9Z" class="g1_259"/>
<path d="M453.7,388.3h23.1v-.4H453.7v.4Z" class="g1_259"/>
<path d="M476.5,388.1h.3v-26h-.3v26Z" class="g1_259"/>
<path d="M510.6,418.5v3.2l-.3,-.1l-6.2,-3l-.4,-.1l.4,-.2l6.2,-3l.3,-.1v.3l-.1,.2l-6.2,2.9l-.2,-.3h.2l6.2,2.9l-.2,.4l-.1,-.2v-2.9Z" class="g1_259"/>
<path d="M510.2,418.5h.4v-3h-.4v3Z" class="g1_259"/>
<path d="M510.6,418.6h22.5v-.3H510.6v.3Z" class="g1_259"/>
<g clip-path="url(#c0_259)">
<path d="M532.8,446.2h.3V418.5h-.3v27.7Z" class="g1_259"/>
</g>
<path d="M510.6,716.5v3.2l-.3,-.1l-6.2,-2.9l-.4,-.2l.4,-.2l6.2,-2.9l.3,-.1v.2l-.1,.2l-6.2,3l-.2,-.4h.2l6.2,2.9l-.2,.4l-.1,-.2v-2.9Z" class="g1_259"/>
<path d="M510.2,716.5h.4v-3h-.4v3Z" class="g1_259"/>
<path d="M510.6,716.7h22.5v-.4H510.6v.4Z" class="g1_259"/>
<g clip-path="url(#c1_259)">
<path d="M532.8,744.3h.3V716.5h-.3v27.8Z" class="g1_259"/>
</g>
</svg>